%FSLAX45Y45*%
G04 Gerber Fmt 4.5, Leading zero omitted, Abs format (unit mm)*
G04 Created by KiCad (PCBNEW 6.0.2+dfsg-1) date 2022-10-31 09:01:42*
%MOMM*%
%LPD*%
G01*
G04 APERTURE LIST*
%ADD10C,0.200000*%
%ADD11C,0.320000*%
%ADD12C,0.350000*%
G04 APERTURE END LIST*
D10*
D11*
X15207000Y-5047000D02*
X15527000Y-5367000D01*
X15527000Y-5047000D02*
X15207000Y-5367000D01*
X20287000Y-6571000D02*
X20607000Y-6891000D01*
X20607000Y-6571000D02*
X20287000Y-6891000D01*
X20287000Y-9365000D02*
X20607000Y-9685000D01*
X20607000Y-9365000D02*
X20287000Y-9685000D01*
D12*
X16113500Y-9984500D02*
G75*
G03*
X16113500Y-9984500I-175000J0D01*
G01*
D10*
X14093119Y-10604976D02*
X14093119Y-10404976D01*
X14140738Y-10404976D01*
X14169309Y-10414500D01*
X14188357Y-10433548D01*
X14197881Y-10452595D01*
X14207405Y-10490690D01*
X14207405Y-10519262D01*
X14197881Y-10557357D01*
X14188357Y-10576405D01*
X14169309Y-10595452D01*
X14140738Y-10604976D01*
X14093119Y-10604976D01*
X14293119Y-10604976D02*
X14293119Y-10471643D01*
X14293119Y-10509738D02*
X14302643Y-10490690D01*
X14312167Y-10481167D01*
X14331214Y-10471643D01*
X14350262Y-10471643D01*
X14416928Y-10604976D02*
X14416928Y-10471643D01*
X14416928Y-10404976D02*
X14407405Y-10414500D01*
X14416928Y-10424024D01*
X14426452Y-10414500D01*
X14416928Y-10404976D01*
X14416928Y-10424024D01*
X14540738Y-10604976D02*
X14521690Y-10595452D01*
X14512167Y-10576405D01*
X14512167Y-10404976D01*
X14645500Y-10604976D02*
X14626452Y-10595452D01*
X14616928Y-10576405D01*
X14616928Y-10404976D01*
X14874071Y-10604976D02*
X14874071Y-10404976D01*
X14940738Y-10547833D01*
X15007405Y-10404976D01*
X15007405Y-10604976D01*
X15188357Y-10604976D02*
X15188357Y-10500214D01*
X15178833Y-10481167D01*
X15159786Y-10471643D01*
X15121690Y-10471643D01*
X15102643Y-10481167D01*
X15188357Y-10595452D02*
X15169309Y-10604976D01*
X15121690Y-10604976D01*
X15102643Y-10595452D01*
X15093119Y-10576405D01*
X15093119Y-10557357D01*
X15102643Y-10538310D01*
X15121690Y-10528786D01*
X15169309Y-10528786D01*
X15188357Y-10519262D01*
X15283595Y-10471643D02*
X15283595Y-10671643D01*
X15283595Y-10481167D02*
X15302643Y-10471643D01*
X15340738Y-10471643D01*
X15359786Y-10481167D01*
X15369309Y-10490690D01*
X15378833Y-10509738D01*
X15378833Y-10566881D01*
X15369309Y-10585929D01*
X15359786Y-10595452D01*
X15340738Y-10604976D01*
X15302643Y-10604976D01*
X15283595Y-10595452D01*
X15464548Y-10585929D02*
X15474071Y-10595452D01*
X15464548Y-10604976D01*
X15455024Y-10595452D01*
X15464548Y-10585929D01*
X15464548Y-10604976D01*
X15464548Y-10481167D02*
X15474071Y-10490690D01*
X15464548Y-10500214D01*
X15455024Y-10490690D01*
X15464548Y-10481167D01*
X15464548Y-10500214D01*
X13635500Y-10834500D02*
X13835500Y-11034500D01*
X13835500Y-10834500D02*
X13635500Y-11034500D01*
X14074071Y-10824976D02*
X14197881Y-10824976D01*
X14131214Y-10901167D01*
X14159786Y-10901167D01*
X14178833Y-10910690D01*
X14188357Y-10920214D01*
X14197881Y-10939262D01*
X14197881Y-10986881D01*
X14188357Y-11005929D01*
X14178833Y-11015452D01*
X14159786Y-11024976D01*
X14102643Y-11024976D01*
X14083595Y-11015452D01*
X14074071Y-11005929D01*
X14283595Y-11005929D02*
X14293119Y-11015452D01*
X14283595Y-11024976D01*
X14274071Y-11015452D01*
X14283595Y-11005929D01*
X14283595Y-11024976D01*
X14369309Y-10844024D02*
X14378833Y-10834500D01*
X14397881Y-10824976D01*
X14445500Y-10824976D01*
X14464548Y-10834500D01*
X14474071Y-10844024D01*
X14483595Y-10863071D01*
X14483595Y-10882119D01*
X14474071Y-10910690D01*
X14359786Y-11024976D01*
X14483595Y-11024976D01*
X14607405Y-10824976D02*
X14626452Y-10824976D01*
X14645500Y-10834500D01*
X14655024Y-10844024D01*
X14664548Y-10863071D01*
X14674071Y-10901167D01*
X14674071Y-10948786D01*
X14664548Y-10986881D01*
X14655024Y-11005929D01*
X14645500Y-11015452D01*
X14626452Y-11024976D01*
X14607405Y-11024976D01*
X14588357Y-11015452D01*
X14578833Y-11005929D01*
X14569309Y-10986881D01*
X14559786Y-10948786D01*
X14559786Y-10901167D01*
X14569309Y-10863071D01*
X14578833Y-10844024D01*
X14588357Y-10834500D01*
X14607405Y-10824976D01*
X14797881Y-10824976D02*
X14816928Y-10824976D01*
X14835976Y-10834500D01*
X14845500Y-10844024D01*
X14855024Y-10863071D01*
X14864548Y-10901167D01*
X14864548Y-10948786D01*
X14855024Y-10986881D01*
X14845500Y-11005929D01*
X14835976Y-11015452D01*
X14816928Y-11024976D01*
X14797881Y-11024976D01*
X14778833Y-11015452D01*
X14769309Y-11005929D01*
X14759786Y-10986881D01*
X14750262Y-10948786D01*
X14750262Y-10901167D01*
X14759786Y-10863071D01*
X14769309Y-10844024D01*
X14778833Y-10834500D01*
X14797881Y-10824976D01*
X14950262Y-11024976D02*
X14950262Y-10891643D01*
X14950262Y-10910690D02*
X14959786Y-10901167D01*
X14978833Y-10891643D01*
X15007405Y-10891643D01*
X15026452Y-10901167D01*
X15035976Y-10920214D01*
X15035976Y-11024976D01*
X15035976Y-10920214D02*
X15045500Y-10901167D01*
X15064548Y-10891643D01*
X15093119Y-10891643D01*
X15112167Y-10901167D01*
X15121690Y-10920214D01*
X15121690Y-11024976D01*
X15216928Y-11024976D02*
X15216928Y-10891643D01*
X15216928Y-10910690D02*
X15226452Y-10901167D01*
X15245500Y-10891643D01*
X15274071Y-10891643D01*
X15293119Y-10901167D01*
X15302643Y-10920214D01*
X15302643Y-11024976D01*
X15302643Y-10920214D02*
X15312167Y-10901167D01*
X15331214Y-10891643D01*
X15359786Y-10891643D01*
X15378833Y-10901167D01*
X15388357Y-10920214D01*
X15388357Y-11024976D01*
X15778833Y-10815452D02*
X15607405Y-11072595D01*
X16035976Y-10824976D02*
X16055024Y-10824976D01*
X16074071Y-10834500D01*
X16083595Y-10844024D01*
X16093119Y-10863071D01*
X16102643Y-10901167D01*
X16102643Y-10948786D01*
X16093119Y-10986881D01*
X16083595Y-11005929D01*
X16074071Y-11015452D01*
X16055024Y-11024976D01*
X16035976Y-11024976D01*
X16016928Y-11015452D01*
X16007405Y-11005929D01*
X15997881Y-10986881D01*
X15988357Y-10948786D01*
X15988357Y-10901167D01*
X15997881Y-10863071D01*
X16007405Y-10844024D01*
X16016928Y-10834500D01*
X16035976Y-10824976D01*
X16188357Y-11005929D02*
X16197881Y-11015452D01*
X16188357Y-11024976D01*
X16178833Y-11015452D01*
X16188357Y-11005929D01*
X16188357Y-11024976D01*
X16388357Y-11024976D02*
X16274071Y-11024976D01*
X16331214Y-11024976D02*
X16331214Y-10824976D01*
X16312167Y-10853548D01*
X16293119Y-10872595D01*
X16274071Y-10882119D01*
X16464548Y-10844024D02*
X16474071Y-10834500D01*
X16493119Y-10824976D01*
X16540738Y-10824976D01*
X16559786Y-10834500D01*
X16569309Y-10844024D01*
X16578833Y-10863071D01*
X16578833Y-10882119D01*
X16569309Y-10910690D01*
X16455024Y-11024976D01*
X16578833Y-11024976D01*
X16750262Y-10824976D02*
X16712167Y-10824976D01*
X16693119Y-10834500D01*
X16683595Y-10844024D01*
X16664548Y-10872595D01*
X16655024Y-10910690D01*
X16655024Y-10986881D01*
X16664548Y-11005929D01*
X16674071Y-11015452D01*
X16693119Y-11024976D01*
X16731214Y-11024976D01*
X16750262Y-11015452D01*
X16759786Y-11005929D01*
X16769309Y-10986881D01*
X16769309Y-10939262D01*
X16759786Y-10920214D01*
X16750262Y-10910690D01*
X16731214Y-10901167D01*
X16693119Y-10901167D01*
X16674071Y-10910690D01*
X16664548Y-10920214D01*
X16655024Y-10939262D01*
X16893119Y-10824976D02*
X16912167Y-10824976D01*
X16931214Y-10834500D01*
X16940738Y-10844024D01*
X16950262Y-10863071D01*
X16959786Y-10901167D01*
X16959786Y-10948786D01*
X16950262Y-10986881D01*
X16940738Y-11005929D01*
X16931214Y-11015452D01*
X16912167Y-11024976D01*
X16893119Y-11024976D01*
X16874071Y-11015452D01*
X16864548Y-11005929D01*
X16855024Y-10986881D01*
X16845500Y-10948786D01*
X16845500Y-10901167D01*
X16855024Y-10863071D01*
X16864548Y-10844024D01*
X16874071Y-10834500D01*
X16893119Y-10824976D01*
X17035976Y-10824976D02*
X17035976Y-10863071D01*
X17112167Y-10824976D02*
X17112167Y-10863071D01*
X17407405Y-11101167D02*
X17397881Y-11091643D01*
X17378833Y-11063071D01*
X17369310Y-11044024D01*
X17359786Y-11015452D01*
X17350262Y-10967833D01*
X17350262Y-10929738D01*
X17359786Y-10882119D01*
X17369310Y-10853548D01*
X17378833Y-10834500D01*
X17397881Y-10805929D01*
X17407405Y-10796405D01*
X17464548Y-10824976D02*
X17588357Y-10824976D01*
X17521690Y-10901167D01*
X17550262Y-10901167D01*
X17569310Y-10910690D01*
X17578833Y-10920214D01*
X17588357Y-10939262D01*
X17588357Y-10986881D01*
X17578833Y-11005929D01*
X17569310Y-11015452D01*
X17550262Y-11024976D01*
X17493119Y-11024976D01*
X17474071Y-11015452D01*
X17464548Y-11005929D01*
X17826452Y-11024976D02*
X17826452Y-10824976D01*
X17912167Y-11024976D02*
X17912167Y-10920214D01*
X17902643Y-10901167D01*
X17883595Y-10891643D01*
X17855024Y-10891643D01*
X17835976Y-10901167D01*
X17826452Y-10910690D01*
X18035976Y-11024976D02*
X18016929Y-11015452D01*
X18007405Y-11005929D01*
X17997881Y-10986881D01*
X17997881Y-10929738D01*
X18007405Y-10910690D01*
X18016929Y-10901167D01*
X18035976Y-10891643D01*
X18064548Y-10891643D01*
X18083595Y-10901167D01*
X18093119Y-10910690D01*
X18102643Y-10929738D01*
X18102643Y-10986881D01*
X18093119Y-11005929D01*
X18083595Y-11015452D01*
X18064548Y-11024976D01*
X18035976Y-11024976D01*
X18216929Y-11024976D02*
X18197881Y-11015452D01*
X18188357Y-10996405D01*
X18188357Y-10824976D01*
X18369310Y-11015452D02*
X18350262Y-11024976D01*
X18312167Y-11024976D01*
X18293119Y-11015452D01*
X18283595Y-10996405D01*
X18283595Y-10920214D01*
X18293119Y-10901167D01*
X18312167Y-10891643D01*
X18350262Y-10891643D01*
X18369310Y-10901167D01*
X18378833Y-10920214D01*
X18378833Y-10939262D01*
X18283595Y-10958310D01*
X18455024Y-11015452D02*
X18474071Y-11024976D01*
X18512167Y-11024976D01*
X18531214Y-11015452D01*
X18540738Y-10996405D01*
X18540738Y-10986881D01*
X18531214Y-10967833D01*
X18512167Y-10958310D01*
X18483595Y-10958310D01*
X18464548Y-10948786D01*
X18455024Y-10929738D01*
X18455024Y-10920214D01*
X18464548Y-10901167D01*
X18483595Y-10891643D01*
X18512167Y-10891643D01*
X18531214Y-10901167D01*
X18607405Y-11101167D02*
X18616929Y-11091643D01*
X18635976Y-11063071D01*
X18645500Y-11044024D01*
X18655024Y-11015452D01*
X18664548Y-10967833D01*
X18664548Y-10929738D01*
X18655024Y-10882119D01*
X18645500Y-10853548D01*
X18635976Y-10834500D01*
X18616929Y-10805929D01*
X18607405Y-10796405D01*
X18969310Y-11101167D02*
X18959786Y-11091643D01*
X18940738Y-11063071D01*
X18931214Y-11044024D01*
X18921690Y-11015452D01*
X18912167Y-10967833D01*
X18912167Y-10929738D01*
X18921690Y-10882119D01*
X18931214Y-10853548D01*
X18940738Y-10834500D01*
X18959786Y-10805929D01*
X18969310Y-10796405D01*
X19045500Y-10891643D02*
X19045500Y-11024976D01*
X19045500Y-10910690D02*
X19055024Y-10901167D01*
X19074071Y-10891643D01*
X19102643Y-10891643D01*
X19121690Y-10901167D01*
X19131214Y-10920214D01*
X19131214Y-11024976D01*
X19255024Y-11024976D02*
X19235976Y-11015452D01*
X19226452Y-11005929D01*
X19216929Y-10986881D01*
X19216929Y-10929738D01*
X19226452Y-10910690D01*
X19235976Y-10901167D01*
X19255024Y-10891643D01*
X19283595Y-10891643D01*
X19302643Y-10901167D01*
X19312167Y-10910690D01*
X19321690Y-10929738D01*
X19321690Y-10986881D01*
X19312167Y-11005929D01*
X19302643Y-11015452D01*
X19283595Y-11024976D01*
X19255024Y-11024976D01*
X19378833Y-10891643D02*
X19455024Y-10891643D01*
X19407405Y-10824976D02*
X19407405Y-10996405D01*
X19416929Y-11015452D01*
X19435976Y-11024976D01*
X19455024Y-11024976D01*
X19674071Y-10891643D02*
X19674071Y-11091643D01*
X19674071Y-10901167D02*
X19693119Y-10891643D01*
X19731214Y-10891643D01*
X19750262Y-10901167D01*
X19759786Y-10910690D01*
X19769310Y-10929738D01*
X19769310Y-10986881D01*
X19759786Y-11005929D01*
X19750262Y-11015452D01*
X19731214Y-11024976D01*
X19693119Y-11024976D01*
X19674071Y-11015452D01*
X19883595Y-11024976D02*
X19864548Y-11015452D01*
X19855024Y-10996405D01*
X19855024Y-10824976D01*
X20045500Y-11024976D02*
X20045500Y-10920214D01*
X20035976Y-10901167D01*
X20016929Y-10891643D01*
X19978833Y-10891643D01*
X19959786Y-10901167D01*
X20045500Y-11015452D02*
X20026452Y-11024976D01*
X19978833Y-11024976D01*
X19959786Y-11015452D01*
X19950262Y-10996405D01*
X19950262Y-10977357D01*
X19959786Y-10958310D01*
X19978833Y-10948786D01*
X20026452Y-10948786D01*
X20045500Y-10939262D01*
X20112167Y-10891643D02*
X20188357Y-10891643D01*
X20140738Y-10824976D02*
X20140738Y-10996405D01*
X20150262Y-11015452D01*
X20169310Y-11024976D01*
X20188357Y-11024976D01*
X20331214Y-11015452D02*
X20312167Y-11024976D01*
X20274071Y-11024976D01*
X20255024Y-11015452D01*
X20245500Y-10996405D01*
X20245500Y-10920214D01*
X20255024Y-10901167D01*
X20274071Y-10891643D01*
X20312167Y-10891643D01*
X20331214Y-10901167D01*
X20340738Y-10920214D01*
X20340738Y-10939262D01*
X20245500Y-10958310D01*
X20512167Y-11024976D02*
X20512167Y-10824976D01*
X20512167Y-11015452D02*
X20493119Y-11024976D01*
X20455024Y-11024976D01*
X20435976Y-11015452D01*
X20426452Y-11005929D01*
X20416929Y-10986881D01*
X20416929Y-10929738D01*
X20426452Y-10910690D01*
X20435976Y-10901167D01*
X20455024Y-10891643D01*
X20493119Y-10891643D01*
X20512167Y-10901167D01*
X20588357Y-11101167D02*
X20597881Y-11091643D01*
X20616929Y-11063071D01*
X20626452Y-11044024D01*
X20635976Y-11015452D01*
X20645500Y-10967833D01*
X20645500Y-10929738D01*
X20635976Y-10882119D01*
X20626452Y-10853548D01*
X20616929Y-10834500D01*
X20597881Y-10805929D01*
X20588357Y-10796405D01*
X13835500Y-11254500D02*
G75*
G03*
X13835500Y-11254500I-100000J0D01*
G01*
X14074071Y-11144976D02*
X14197881Y-11144976D01*
X14131214Y-11221167D01*
X14159786Y-11221167D01*
X14178833Y-11230690D01*
X14188357Y-11240214D01*
X14197881Y-11259262D01*
X14197881Y-11306881D01*
X14188357Y-11325928D01*
X14178833Y-11335452D01*
X14159786Y-11344976D01*
X14102643Y-11344976D01*
X14083595Y-11335452D01*
X14074071Y-11325928D01*
X14283595Y-11325928D02*
X14293119Y-11335452D01*
X14283595Y-11344976D01*
X14274071Y-11335452D01*
X14283595Y-11325928D01*
X14283595Y-11344976D01*
X14474071Y-11144976D02*
X14378833Y-11144976D01*
X14369309Y-11240214D01*
X14378833Y-11230690D01*
X14397881Y-11221167D01*
X14445500Y-11221167D01*
X14464548Y-11230690D01*
X14474071Y-11240214D01*
X14483595Y-11259262D01*
X14483595Y-11306881D01*
X14474071Y-11325928D01*
X14464548Y-11335452D01*
X14445500Y-11344976D01*
X14397881Y-11344976D01*
X14378833Y-11335452D01*
X14369309Y-11325928D01*
X14607405Y-11144976D02*
X14626452Y-11144976D01*
X14645500Y-11154500D01*
X14655024Y-11164024D01*
X14664548Y-11183071D01*
X14674071Y-11221167D01*
X14674071Y-11268786D01*
X14664548Y-11306881D01*
X14655024Y-11325928D01*
X14645500Y-11335452D01*
X14626452Y-11344976D01*
X14607405Y-11344976D01*
X14588357Y-11335452D01*
X14578833Y-11325928D01*
X14569309Y-11306881D01*
X14559786Y-11268786D01*
X14559786Y-11221167D01*
X14569309Y-11183071D01*
X14578833Y-11164024D01*
X14588357Y-11154500D01*
X14607405Y-11144976D01*
X14797881Y-11144976D02*
X14816928Y-11144976D01*
X14835976Y-11154500D01*
X14845500Y-11164024D01*
X14855024Y-11183071D01*
X14864548Y-11221167D01*
X14864548Y-11268786D01*
X14855024Y-11306881D01*
X14845500Y-11325928D01*
X14835976Y-11335452D01*
X14816928Y-11344976D01*
X14797881Y-11344976D01*
X14778833Y-11335452D01*
X14769309Y-11325928D01*
X14759786Y-11306881D01*
X14750262Y-11268786D01*
X14750262Y-11221167D01*
X14759786Y-11183071D01*
X14769309Y-11164024D01*
X14778833Y-11154500D01*
X14797881Y-11144976D01*
X14950262Y-11344976D02*
X14950262Y-11211643D01*
X14950262Y-11230690D02*
X14959786Y-11221167D01*
X14978833Y-11211643D01*
X15007405Y-11211643D01*
X15026452Y-11221167D01*
X15035976Y-11240214D01*
X15035976Y-11344976D01*
X15035976Y-11240214D02*
X15045500Y-11221167D01*
X15064548Y-11211643D01*
X15093119Y-11211643D01*
X15112167Y-11221167D01*
X15121690Y-11240214D01*
X15121690Y-11344976D01*
X15216928Y-11344976D02*
X15216928Y-11211643D01*
X15216928Y-11230690D02*
X15226452Y-11221167D01*
X15245500Y-11211643D01*
X15274071Y-11211643D01*
X15293119Y-11221167D01*
X15302643Y-11240214D01*
X15302643Y-11344976D01*
X15302643Y-11240214D02*
X15312167Y-11221167D01*
X15331214Y-11211643D01*
X15359786Y-11211643D01*
X15378833Y-11221167D01*
X15388357Y-11240214D01*
X15388357Y-11344976D01*
X15778833Y-11135452D02*
X15607405Y-11392595D01*
X16035976Y-11144976D02*
X16055024Y-11144976D01*
X16074071Y-11154500D01*
X16083595Y-11164024D01*
X16093119Y-11183071D01*
X16102643Y-11221167D01*
X16102643Y-11268786D01*
X16093119Y-11306881D01*
X16083595Y-11325928D01*
X16074071Y-11335452D01*
X16055024Y-11344976D01*
X16035976Y-11344976D01*
X16016928Y-11335452D01*
X16007405Y-11325928D01*
X15997881Y-11306881D01*
X15988357Y-11268786D01*
X15988357Y-11221167D01*
X15997881Y-11183071D01*
X16007405Y-11164024D01*
X16016928Y-11154500D01*
X16035976Y-11144976D01*
X16188357Y-11325928D02*
X16197881Y-11335452D01*
X16188357Y-11344976D01*
X16178833Y-11335452D01*
X16188357Y-11325928D01*
X16188357Y-11344976D01*
X16388357Y-11344976D02*
X16274071Y-11344976D01*
X16331214Y-11344976D02*
X16331214Y-11144976D01*
X16312167Y-11173548D01*
X16293119Y-11192595D01*
X16274071Y-11202119D01*
X16455024Y-11144976D02*
X16578833Y-11144976D01*
X16512167Y-11221167D01*
X16540738Y-11221167D01*
X16559786Y-11230690D01*
X16569309Y-11240214D01*
X16578833Y-11259262D01*
X16578833Y-11306881D01*
X16569309Y-11325928D01*
X16559786Y-11335452D01*
X16540738Y-11344976D01*
X16483595Y-11344976D01*
X16464548Y-11335452D01*
X16455024Y-11325928D01*
X16645500Y-11144976D02*
X16778833Y-11144976D01*
X16693119Y-11344976D01*
X16883595Y-11230690D02*
X16864548Y-11221167D01*
X16855024Y-11211643D01*
X16845500Y-11192595D01*
X16845500Y-11183071D01*
X16855024Y-11164024D01*
X16864548Y-11154500D01*
X16883595Y-11144976D01*
X16921690Y-11144976D01*
X16940738Y-11154500D01*
X16950262Y-11164024D01*
X16959786Y-11183071D01*
X16959786Y-11192595D01*
X16950262Y-11211643D01*
X16940738Y-11221167D01*
X16921690Y-11230690D01*
X16883595Y-11230690D01*
X16864548Y-11240214D01*
X16855024Y-11249738D01*
X16845500Y-11268786D01*
X16845500Y-11306881D01*
X16855024Y-11325928D01*
X16864548Y-11335452D01*
X16883595Y-11344976D01*
X16921690Y-11344976D01*
X16940738Y-11335452D01*
X16950262Y-11325928D01*
X16959786Y-11306881D01*
X16959786Y-11268786D01*
X16950262Y-11249738D01*
X16940738Y-11240214D01*
X16921690Y-11230690D01*
X17035976Y-11144976D02*
X17035976Y-11183071D01*
X17112167Y-11144976D02*
X17112167Y-11183071D01*
X17407405Y-11421167D02*
X17397881Y-11411643D01*
X17378833Y-11383071D01*
X17369310Y-11364024D01*
X17359786Y-11335452D01*
X17350262Y-11287833D01*
X17350262Y-11249738D01*
X17359786Y-11202119D01*
X17369310Y-11173548D01*
X17378833Y-11154500D01*
X17397881Y-11125929D01*
X17407405Y-11116405D01*
X17588357Y-11344976D02*
X17474071Y-11344976D01*
X17531214Y-11344976D02*
X17531214Y-11144976D01*
X17512167Y-11173548D01*
X17493119Y-11192595D01*
X17474071Y-11202119D01*
X17826452Y-11344976D02*
X17826452Y-11144976D01*
X17912167Y-11344976D02*
X17912167Y-11240214D01*
X17902643Y-11221167D01*
X17883595Y-11211643D01*
X17855024Y-11211643D01*
X17835976Y-11221167D01*
X17826452Y-11230690D01*
X18035976Y-11344976D02*
X18016929Y-11335452D01*
X18007405Y-11325928D01*
X17997881Y-11306881D01*
X17997881Y-11249738D01*
X18007405Y-11230690D01*
X18016929Y-11221167D01*
X18035976Y-11211643D01*
X18064548Y-11211643D01*
X18083595Y-11221167D01*
X18093119Y-11230690D01*
X18102643Y-11249738D01*
X18102643Y-11306881D01*
X18093119Y-11325928D01*
X18083595Y-11335452D01*
X18064548Y-11344976D01*
X18035976Y-11344976D01*
X18216929Y-11344976D02*
X18197881Y-11335452D01*
X18188357Y-11316405D01*
X18188357Y-11144976D01*
X18369310Y-11335452D02*
X18350262Y-11344976D01*
X18312167Y-11344976D01*
X18293119Y-11335452D01*
X18283595Y-11316405D01*
X18283595Y-11240214D01*
X18293119Y-11221167D01*
X18312167Y-11211643D01*
X18350262Y-11211643D01*
X18369310Y-11221167D01*
X18378833Y-11240214D01*
X18378833Y-11259262D01*
X18283595Y-11278309D01*
X18445500Y-11421167D02*
X18455024Y-11411643D01*
X18474071Y-11383071D01*
X18483595Y-11364024D01*
X18493119Y-11335452D01*
X18502643Y-11287833D01*
X18502643Y-11249738D01*
X18493119Y-11202119D01*
X18483595Y-11173548D01*
X18474071Y-11154500D01*
X18455024Y-11125929D01*
X18445500Y-11116405D01*
X18807405Y-11421167D02*
X18797881Y-11411643D01*
X18778833Y-11383071D01*
X18769310Y-11364024D01*
X18759786Y-11335452D01*
X18750262Y-11287833D01*
X18750262Y-11249738D01*
X18759786Y-11202119D01*
X18769310Y-11173548D01*
X18778833Y-11154500D01*
X18797881Y-11125929D01*
X18807405Y-11116405D01*
X18883595Y-11211643D02*
X18883595Y-11344976D01*
X18883595Y-11230690D02*
X18893119Y-11221167D01*
X18912167Y-11211643D01*
X18940738Y-11211643D01*
X18959786Y-11221167D01*
X18969310Y-11240214D01*
X18969310Y-11344976D01*
X19093119Y-11344976D02*
X19074071Y-11335452D01*
X19064548Y-11325928D01*
X19055024Y-11306881D01*
X19055024Y-11249738D01*
X19064548Y-11230690D01*
X19074071Y-11221167D01*
X19093119Y-11211643D01*
X19121690Y-11211643D01*
X19140738Y-11221167D01*
X19150262Y-11230690D01*
X19159786Y-11249738D01*
X19159786Y-11306881D01*
X19150262Y-11325928D01*
X19140738Y-11335452D01*
X19121690Y-11344976D01*
X19093119Y-11344976D01*
X19216929Y-11211643D02*
X19293119Y-11211643D01*
X19245500Y-11144976D02*
X19245500Y-11316405D01*
X19255024Y-11335452D01*
X19274071Y-11344976D01*
X19293119Y-11344976D01*
X19512167Y-11211643D02*
X19512167Y-11411643D01*
X19512167Y-11221167D02*
X19531214Y-11211643D01*
X19569310Y-11211643D01*
X19588357Y-11221167D01*
X19597881Y-11230690D01*
X19607405Y-11249738D01*
X19607405Y-11306881D01*
X19597881Y-11325928D01*
X19588357Y-11335452D01*
X19569310Y-11344976D01*
X19531214Y-11344976D01*
X19512167Y-11335452D01*
X19721690Y-11344976D02*
X19702643Y-11335452D01*
X19693119Y-11316405D01*
X19693119Y-11144976D01*
X19883595Y-11344976D02*
X19883595Y-11240214D01*
X19874071Y-11221167D01*
X19855024Y-11211643D01*
X19816929Y-11211643D01*
X19797881Y-11221167D01*
X19883595Y-11335452D02*
X19864548Y-11344976D01*
X19816929Y-11344976D01*
X19797881Y-11335452D01*
X19788357Y-11316405D01*
X19788357Y-11297357D01*
X19797881Y-11278309D01*
X19816929Y-11268786D01*
X19864548Y-11268786D01*
X19883595Y-11259262D01*
X19950262Y-11211643D02*
X20026452Y-11211643D01*
X19978833Y-11144976D02*
X19978833Y-11316405D01*
X19988357Y-11335452D01*
X20007405Y-11344976D01*
X20026452Y-11344976D01*
X20169310Y-11335452D02*
X20150262Y-11344976D01*
X20112167Y-11344976D01*
X20093119Y-11335452D01*
X20083595Y-11316405D01*
X20083595Y-11240214D01*
X20093119Y-11221167D01*
X20112167Y-11211643D01*
X20150262Y-11211643D01*
X20169310Y-11221167D01*
X20178833Y-11240214D01*
X20178833Y-11259262D01*
X20083595Y-11278309D01*
X20350262Y-11344976D02*
X20350262Y-11144976D01*
X20350262Y-11335452D02*
X20331214Y-11344976D01*
X20293119Y-11344976D01*
X20274071Y-11335452D01*
X20264548Y-11325928D01*
X20255024Y-11306881D01*
X20255024Y-11249738D01*
X20264548Y-11230690D01*
X20274071Y-11221167D01*
X20293119Y-11211643D01*
X20331214Y-11211643D01*
X20350262Y-11221167D01*
X20426452Y-11421167D02*
X20435976Y-11411643D01*
X20455024Y-11383071D01*
X20464548Y-11364024D01*
X20474071Y-11335452D01*
X20483595Y-11287833D01*
X20483595Y-11249738D01*
X20474071Y-11202119D01*
X20464548Y-11173548D01*
X20455024Y-11154500D01*
X20435976Y-11125929D01*
X20426452Y-11116405D01*
M02*
