M48
; DRILL file {KiCad 6.0.2+dfsg-1} date Di 01 Nov 2022 12:37:28 CET
; FORMAT={-:-/ absolute / metric / decimal}
; #@! TF.CreationDate,2022-11-01T12:37:28+01:00
; #@! TF.GenerationSoftware,Kicad,Pcbnew,6.0.2+dfsg-1
; #@! TF.FileFunction,Plated,1,2,PTH
FMAT,2
METRIC
; #@! TA.AperFunction,Plated,PTH,ViaDrill
T1C0.300
; #@! TA.AperFunction,Plated,PTH,ComponentDrill
T2C0.750
; #@! TA.AperFunction,Plated,PTH,ComponentDrill
T3C0.800
; #@! TA.AperFunction,Plated,PTH,ComponentDrill
T4C0.900
; #@! TA.AperFunction,Plated,PTH,ComponentDrill
T5C1.000
; #@! TA.AperFunction,Plated,PTH,ComponentDrill
T6C1.100
; #@! TA.AperFunction,Plated,PTH,ComponentDrill
T7C3.200
%
G90
G05
T1
X152.4Y-85.09
X156.21Y-53.975
X157.48Y-88.9
X161.925Y-55.245
X161.925Y-86.36
X163.195Y-53.975
X163.83Y-84.455
X163.83Y-86.36
X163.83Y-88.265
X165.1Y-76.835
X165.735Y-82.55
X165.735Y-84.455
X165.735Y-86.36
X165.735Y-88.265
X167.005Y-80.01
X170.18Y-59.69
X171.45Y-53.975
X171.45Y-76.835
X171.45Y-86.995
X173.99Y-86.36
X175.26Y-76.835
X175.26Y-79.375
X176.53Y-59.69
X177.165Y-53.975
X179.07Y-86.36
X180.34Y-59.69
X181.61Y-86.995
X182.245Y-86.36
X182.88Y-55.88
X182.88Y-85.725
X183.515Y-85.09
X183.515Y-97.79
X184.15Y-79.375
X184.785Y-96.52
X185.42Y-83.82
X185.42Y-86.995
X186.055Y-95.25
X186.69Y-54.61
X186.69Y-74.93
X186.69Y-86.995
X186.69Y-88.265
X189.23Y-92.075
X189.865Y-69.85
X191.135Y-61.595
X191.135Y-63.5
X191.77Y-64.77
X191.77Y-85.725
X193.04Y-61.595
X193.04Y-63.5
X193.04Y-71.12
X193.675Y-59.055
X194.31Y-85.725
X196.85Y-85.725
X199.39Y-85.725
X200.025Y-55.88
X202.565Y-55.88
X204.47Y-80.01
T2
X176.53Y-95.25
X177.8Y-95.25
X179.07Y-95.25
T3
X142.24Y-85.13
X142.24Y-87.63
X149.86Y-85.13
X149.86Y-87.63
X152.4Y-55.88
X152.4Y-58.42
X152.4Y-60.96
X152.4Y-63.5
X152.4Y-66.04
X152.4Y-68.58
X152.4Y-71.12
X152.4Y-73.66
X153.75Y-76.835
X158.75Y-76.835
X160.02Y-55.88
X160.02Y-58.42
X160.02Y-60.96
X160.02Y-63.5
X160.02Y-66.04
X160.02Y-68.58
X160.02Y-71.12
X160.02Y-73.66
X163.91Y-62.23
X163.91Y-64.77
X163.91Y-67.31
X163.91Y-69.85
X163.91Y-72.39
X163.91Y-74.93
X168.355Y-93.345
X168.91Y-62.23
X168.91Y-64.77
X168.91Y-67.31
X168.91Y-69.85
X168.91Y-72.39
X168.91Y-74.93
X168.91Y-82.55
X168.91Y-90.17
X171.45Y-82.55
X171.45Y-90.17
X173.355Y-93.345
X173.99Y-82.55
X173.99Y-90.17
X176.53Y-62.23
X176.53Y-67.23
X176.53Y-82.55
X176.53Y-90.17
X176.73Y-72.39
X179.07Y-62.23
X179.07Y-67.23
X179.07Y-82.55
X179.07Y-90.17
X181.61Y-62.23
X181.61Y-67.23
X181.61Y-72.39
X181.61Y-82.55
X181.61Y-90.17
X184.15Y-82.55
X184.15Y-90.17
X186.69Y-57.15
X186.69Y-60.325
X186.69Y-63.5
X186.69Y-66.675
X186.69Y-69.85
X186.69Y-82.55
X186.69Y-90.17
X189.23Y-82.55
X189.23Y-90.17
X191.77Y-82.55
X191.77Y-90.17
X194.31Y-82.55
X194.31Y-90.17
X196.85Y-57.15
X196.85Y-60.325
X196.85Y-63.5
X196.85Y-66.675
X196.85Y-69.85
X196.85Y-82.55
X196.85Y-90.17
X199.39Y-82.55
X199.39Y-90.17
X201.93Y-82.55
X201.93Y-90.17
T4
X166.37Y-57.15
X168.91Y-57.15
X200.66Y-59.055
X200.66Y-61.595
T5
X145.75Y-61.425
X145.75Y-64.195
X145.75Y-66.965
X145.75Y-69.735
X148.59Y-60.04
X148.59Y-62.81
X148.59Y-65.58
X148.59Y-68.35
X148.59Y-71.12
X157.42Y-52.095
X159.96Y-52.095
X162.5Y-52.095
X165.04Y-52.095
X166.37Y-100.33
X167.58Y-52.095
X168.91Y-100.33
X170.12Y-52.095
X171.45Y-100.33
X172.66Y-52.095
X173.99Y-100.33
X175.2Y-52.095
X176.53Y-100.33
X177.74Y-52.095
X179.07Y-100.33
X180.28Y-52.095
X181.61Y-100.33
X184.15Y-52.07
X184.15Y-100.33
X186.69Y-52.07
X189.205Y-100.355
X189.23Y-52.07
X191.745Y-100.355
X191.77Y-52.07
X194.285Y-100.355
X194.31Y-52.07
X196.825Y-100.355
X196.85Y-52.07
X199.365Y-100.355
X199.39Y-52.07
X201.905Y-100.355
X201.93Y-52.07
X201.93Y-72.39
X201.93Y-74.93
X201.93Y-77.47
X204.47Y-72.39
X204.47Y-74.93
X204.47Y-77.47
T6
X153.67Y-80.01
X156.21Y-83.185
X158.75Y-83.185
X161.29Y-83.185
X163.83Y-80.01
X190.35Y-72.97
X190.35Y-77.47
X196.85Y-72.97
X196.85Y-77.47
T7
X147.17Y-53.08
X147.17Y-78.08
T5
X145.13Y-94.25G85X145.13Y-96.25
G05
X147.13Y-99.95G85X149.13Y-99.95
G05
X151.13Y-94.25G85X151.13Y-96.25
G05
T0
M30
