%FSLAX45Y45*%
G04 Gerber Fmt 4.5, Leading zero omitted, Abs format (unit mm)*
G04 Created by KiCad (PCBNEW 6.0.2+dfsg-1) date 2022-10-31 09:01:42*
%MOMM*%
%LPD*%
G01*
G04 APERTURE LIST*
%ADD10C,0.200000*%
%ADD11C,0.030000*%
%ADD12C,0.075000*%
%ADD13C,0.080000*%
%ADD14C,0.090000*%
%ADD15C,0.100000*%
%ADD16C,0.101600*%
%ADD17C,0.110000*%
%ADD18C,0.320000*%
G04 APERTURE END LIST*
D10*
D11*
X15225000Y-8494000D02*
X15255000Y-8524000D01*
X15255000Y-8494000D02*
X15225000Y-8524000D01*
X15606000Y-5382500D02*
X15636000Y-5412500D01*
X15636000Y-5382500D02*
X15606000Y-5412500D01*
X15796500Y-8875000D02*
X15826500Y-8905000D01*
X15826500Y-8875000D02*
X15796500Y-8905000D01*
X16177500Y-5509500D02*
X16207500Y-5539500D01*
X16207500Y-5509500D02*
X16177500Y-5539500D01*
X16177500Y-8621000D02*
X16207500Y-8651000D01*
X16207500Y-8621000D02*
X16177500Y-8651000D01*
X16304500Y-5382500D02*
X16334500Y-5412500D01*
X16334500Y-5382500D02*
X16304500Y-5412500D01*
X16368000Y-8430500D02*
X16398000Y-8460500D01*
X16398000Y-8430500D02*
X16368000Y-8460500D01*
X16368000Y-8621000D02*
X16398000Y-8651000D01*
X16398000Y-8621000D02*
X16368000Y-8651000D01*
X16368000Y-8811500D02*
X16398000Y-8841500D01*
X16398000Y-8811500D02*
X16368000Y-8841500D01*
X16495000Y-7668500D02*
X16525000Y-7698500D01*
X16525000Y-7668500D02*
X16495000Y-7698500D01*
X16558500Y-8240000D02*
X16588500Y-8270000D01*
X16588500Y-8240000D02*
X16558500Y-8270000D01*
X16558500Y-8430500D02*
X16588500Y-8460500D01*
X16588500Y-8430500D02*
X16558500Y-8460500D01*
X16558500Y-8621000D02*
X16588500Y-8651000D01*
X16588500Y-8621000D02*
X16558500Y-8651000D01*
X16558500Y-8811500D02*
X16588500Y-8841500D01*
X16588500Y-8811500D02*
X16558500Y-8841500D01*
X16685500Y-7986000D02*
X16715500Y-8016000D01*
X16715500Y-7986000D02*
X16685500Y-8016000D01*
X17003000Y-5954000D02*
X17033000Y-5984000D01*
X17033000Y-5954000D02*
X17003000Y-5984000D01*
X17130000Y-5382500D02*
X17160000Y-5412500D01*
X17160000Y-5382500D02*
X17130000Y-5412500D01*
X17130000Y-7668500D02*
X17160000Y-7698500D01*
X17160000Y-7668500D02*
X17130000Y-7698500D01*
X17130000Y-8684500D02*
X17160000Y-8714500D01*
X17160000Y-8684500D02*
X17130000Y-8714500D01*
X17384000Y-8621000D02*
X17414000Y-8651000D01*
X17414000Y-8621000D02*
X17384000Y-8651000D01*
X17511000Y-7668500D02*
X17541000Y-7698500D01*
X17541000Y-7668500D02*
X17511000Y-7698500D01*
X17511000Y-7922500D02*
X17541000Y-7952500D01*
X17541000Y-7922500D02*
X17511000Y-7952500D01*
X17638000Y-5954000D02*
X17668000Y-5984000D01*
X17668000Y-5954000D02*
X17638000Y-5984000D01*
X17701500Y-5382500D02*
X17731500Y-5412500D01*
X17731500Y-5382500D02*
X17701500Y-5412500D01*
X17892000Y-8621000D02*
X17922000Y-8651000D01*
X17922000Y-8621000D02*
X17892000Y-8651000D01*
X18019000Y-5954000D02*
X18049000Y-5984000D01*
X18049000Y-5954000D02*
X18019000Y-5984000D01*
X18146000Y-8684500D02*
X18176000Y-8714500D01*
X18176000Y-8684500D02*
X18146000Y-8714500D01*
X18209500Y-8621000D02*
X18239500Y-8651000D01*
X18239500Y-8621000D02*
X18209500Y-8651000D01*
X18273000Y-5573000D02*
X18303000Y-5603000D01*
X18303000Y-5573000D02*
X18273000Y-5603000D01*
X18273000Y-8557500D02*
X18303000Y-8587500D01*
X18303000Y-8557500D02*
X18273000Y-8587500D01*
X18336500Y-8494000D02*
X18366500Y-8524000D01*
X18366500Y-8494000D02*
X18336500Y-8524000D01*
X18336500Y-9764000D02*
X18366500Y-9794000D01*
X18366500Y-9764000D02*
X18336500Y-9794000D01*
X18400000Y-7922500D02*
X18430000Y-7952500D01*
X18430000Y-7922500D02*
X18400000Y-7952500D01*
X18463500Y-9637000D02*
X18493500Y-9667000D01*
X18493500Y-9637000D02*
X18463500Y-9667000D01*
X18527000Y-8367000D02*
X18557000Y-8397000D01*
X18557000Y-8367000D02*
X18527000Y-8397000D01*
X18527000Y-8684500D02*
X18557000Y-8714500D01*
X18557000Y-8684500D02*
X18527000Y-8714500D01*
X18590500Y-9510000D02*
X18620500Y-9540000D01*
X18620500Y-9510000D02*
X18590500Y-9540000D01*
X18654000Y-5446000D02*
X18684000Y-5476000D01*
X18684000Y-5446000D02*
X18654000Y-5476000D01*
X18654000Y-7478000D02*
X18684000Y-7508000D01*
X18684000Y-7478000D02*
X18654000Y-7508000D01*
X18654000Y-8684500D02*
X18684000Y-8714500D01*
X18684000Y-8684500D02*
X18654000Y-8714500D01*
X18654000Y-8811500D02*
X18684000Y-8841500D01*
X18684000Y-8811500D02*
X18654000Y-8841500D01*
X18908000Y-9192500D02*
X18938000Y-9222500D01*
X18938000Y-9192500D02*
X18908000Y-9222500D01*
X18971500Y-6970000D02*
X19001500Y-7000000D01*
X19001500Y-6970000D02*
X18971500Y-7000000D01*
X19098500Y-6144500D02*
X19128500Y-6174500D01*
X19128500Y-6144500D02*
X19098500Y-6174500D01*
X19098500Y-6335000D02*
X19128500Y-6365000D01*
X19128500Y-6335000D02*
X19098500Y-6365000D01*
X19162000Y-6462000D02*
X19192000Y-6492000D01*
X19192000Y-6462000D02*
X19162000Y-6492000D01*
X19162000Y-8557500D02*
X19192000Y-8587500D01*
X19192000Y-8557500D02*
X19162000Y-8587500D01*
X19289000Y-6144500D02*
X19319000Y-6174500D01*
X19319000Y-6144500D02*
X19289000Y-6174500D01*
X19289000Y-6335000D02*
X19319000Y-6365000D01*
X19319000Y-6335000D02*
X19289000Y-6365000D01*
X19289000Y-7097000D02*
X19319000Y-7127000D01*
X19319000Y-7097000D02*
X19289000Y-7127000D01*
X19352500Y-5890500D02*
X19382500Y-5920500D01*
X19382500Y-5890500D02*
X19352500Y-5920500D01*
X19416000Y-8557500D02*
X19446000Y-8587500D01*
X19446000Y-8557500D02*
X19416000Y-8587500D01*
X19670000Y-8557500D02*
X19700000Y-8587500D01*
X19700000Y-8557500D02*
X19670000Y-8587500D01*
X19924000Y-8557500D02*
X19954000Y-8587500D01*
X19954000Y-8557500D02*
X19924000Y-8587500D01*
X19987500Y-5573000D02*
X20017500Y-5603000D01*
X20017500Y-5573000D02*
X19987500Y-5603000D01*
X20241500Y-5573000D02*
X20271500Y-5603000D01*
X20271500Y-5573000D02*
X20241500Y-5603000D01*
X20432000Y-7986000D02*
X20462000Y-8016000D01*
X20462000Y-7986000D02*
X20432000Y-8016000D01*
D12*
X17690500Y-9525000D02*
G75*
G03*
X17690500Y-9525000I-37500J0D01*
G01*
X17817500Y-9525000D02*
G75*
G03*
X17817500Y-9525000I-37500J0D01*
G01*
X17944500Y-9525000D02*
G75*
G03*
X17944500Y-9525000I-37500J0D01*
G01*
D13*
X14224000Y-8473000D02*
X14224000Y-8553000D01*
X14184000Y-8513000D02*
X14264000Y-8513000D01*
X14224000Y-8723000D02*
X14224000Y-8803000D01*
X14184000Y-8763000D02*
X14264000Y-8763000D01*
X14986000Y-8473000D02*
X14986000Y-8553000D01*
X14946000Y-8513000D02*
X15026000Y-8513000D01*
X14986000Y-8723000D02*
X14986000Y-8803000D01*
X14946000Y-8763000D02*
X15026000Y-8763000D01*
X15240000Y-5548000D02*
X15240000Y-5628000D01*
X15200000Y-5588000D02*
X15280000Y-5588000D01*
X15240000Y-5802000D02*
X15240000Y-5882000D01*
X15200000Y-5842000D02*
X15280000Y-5842000D01*
X15240000Y-6056000D02*
X15240000Y-6136000D01*
X15200000Y-6096000D02*
X15280000Y-6096000D01*
X15240000Y-6310000D02*
X15240000Y-6390000D01*
X15200000Y-6350000D02*
X15280000Y-6350000D01*
X15240000Y-6564000D02*
X15240000Y-6644000D01*
X15200000Y-6604000D02*
X15280000Y-6604000D01*
X15240000Y-6818000D02*
X15240000Y-6898000D01*
X15200000Y-6858000D02*
X15280000Y-6858000D01*
X15240000Y-7072000D02*
X15240000Y-7152000D01*
X15200000Y-7112000D02*
X15280000Y-7112000D01*
X15240000Y-7326000D02*
X15240000Y-7406000D01*
X15200000Y-7366000D02*
X15280000Y-7366000D01*
X15375000Y-7643500D02*
X15375000Y-7723500D01*
X15335000Y-7683500D02*
X15415000Y-7683500D01*
X15875000Y-7643500D02*
X15875000Y-7723500D01*
X15835000Y-7683500D02*
X15915000Y-7683500D01*
X16002000Y-5548000D02*
X16002000Y-5628000D01*
X15962000Y-5588000D02*
X16042000Y-5588000D01*
X16002000Y-5802000D02*
X16002000Y-5882000D01*
X15962000Y-5842000D02*
X16042000Y-5842000D01*
X16002000Y-6056000D02*
X16002000Y-6136000D01*
X15962000Y-6096000D02*
X16042000Y-6096000D01*
X16002000Y-6310000D02*
X16002000Y-6390000D01*
X15962000Y-6350000D02*
X16042000Y-6350000D01*
X16002000Y-6564000D02*
X16002000Y-6644000D01*
X15962000Y-6604000D02*
X16042000Y-6604000D01*
X16002000Y-6818000D02*
X16002000Y-6898000D01*
X15962000Y-6858000D02*
X16042000Y-6858000D01*
X16002000Y-7072000D02*
X16002000Y-7152000D01*
X15962000Y-7112000D02*
X16042000Y-7112000D01*
X16002000Y-7326000D02*
X16002000Y-7406000D01*
X15962000Y-7366000D02*
X16042000Y-7366000D01*
X16391000Y-6183000D02*
X16391000Y-6263000D01*
X16351000Y-6223000D02*
X16431000Y-6223000D01*
X16391000Y-6437000D02*
X16391000Y-6517000D01*
X16351000Y-6477000D02*
X16431000Y-6477000D01*
X16391000Y-6691000D02*
X16391000Y-6771000D01*
X16351000Y-6731000D02*
X16431000Y-6731000D01*
X16391000Y-6945000D02*
X16391000Y-7025000D01*
X16351000Y-6985000D02*
X16431000Y-6985000D01*
X16391000Y-7199000D02*
X16391000Y-7279000D01*
X16351000Y-7239000D02*
X16431000Y-7239000D01*
X16391000Y-7453000D02*
X16391000Y-7533000D01*
X16351000Y-7493000D02*
X16431000Y-7493000D01*
X16637000Y-9239000D02*
X16637000Y-9319000D01*
X16597000Y-9279000D02*
X16677000Y-9279000D01*
X16637000Y-9739000D02*
X16637000Y-9819000D01*
X16597000Y-9779000D02*
X16677000Y-9779000D01*
X16891000Y-6183000D02*
X16891000Y-6263000D01*
X16851000Y-6223000D02*
X16931000Y-6223000D01*
X16891000Y-6437000D02*
X16891000Y-6517000D01*
X16851000Y-6477000D02*
X16931000Y-6477000D01*
X16891000Y-6691000D02*
X16891000Y-6771000D01*
X16851000Y-6731000D02*
X16931000Y-6731000D01*
X16891000Y-6945000D02*
X16891000Y-7025000D01*
X16851000Y-6985000D02*
X16931000Y-6985000D01*
X16891000Y-7199000D02*
X16891000Y-7279000D01*
X16851000Y-7239000D02*
X16931000Y-7239000D01*
X16891000Y-7453000D02*
X16891000Y-7533000D01*
X16851000Y-7493000D02*
X16931000Y-7493000D01*
X16891000Y-8215000D02*
X16891000Y-8295000D01*
X16851000Y-8255000D02*
X16931000Y-8255000D01*
X16891000Y-8977000D02*
X16891000Y-9057000D01*
X16851000Y-9017000D02*
X16931000Y-9017000D01*
X17145000Y-8215000D02*
X17145000Y-8295000D01*
X17105000Y-8255000D02*
X17185000Y-8255000D01*
X17145000Y-8977000D02*
X17145000Y-9057000D01*
X17105000Y-9017000D02*
X17185000Y-9017000D01*
X17399000Y-8215000D02*
X17399000Y-8295000D01*
X17359000Y-8255000D02*
X17439000Y-8255000D01*
X17399000Y-8977000D02*
X17399000Y-9057000D01*
X17359000Y-9017000D02*
X17439000Y-9017000D01*
X17653000Y-6183000D02*
X17653000Y-6263000D01*
X17613000Y-6223000D02*
X17693000Y-6223000D01*
X17653000Y-6683000D02*
X17653000Y-6763000D01*
X17613000Y-6723000D02*
X17693000Y-6723000D01*
X17653000Y-8215000D02*
X17653000Y-8295000D01*
X17613000Y-8255000D02*
X17693000Y-8255000D01*
X17653000Y-8977000D02*
X17653000Y-9057000D01*
X17613000Y-9017000D02*
X17693000Y-9017000D01*
X17673000Y-7199000D02*
X17673000Y-7279000D01*
X17633000Y-7239000D02*
X17713000Y-7239000D01*
X17907000Y-6183000D02*
X17907000Y-6263000D01*
X17867000Y-6223000D02*
X17947000Y-6223000D01*
X17907000Y-6683000D02*
X17907000Y-6763000D01*
X17867000Y-6723000D02*
X17947000Y-6723000D01*
X17907000Y-8215000D02*
X17907000Y-8295000D01*
X17867000Y-8255000D02*
X17947000Y-8255000D01*
X17907000Y-8977000D02*
X17907000Y-9057000D01*
X17867000Y-9017000D02*
X17947000Y-9017000D01*
X18161000Y-6183000D02*
X18161000Y-6263000D01*
X18121000Y-6223000D02*
X18201000Y-6223000D01*
X18161000Y-6683000D02*
X18161000Y-6763000D01*
X18121000Y-6723000D02*
X18201000Y-6723000D01*
X18161000Y-7199000D02*
X18161000Y-7279000D01*
X18121000Y-7239000D02*
X18201000Y-7239000D01*
X18161000Y-8215000D02*
X18161000Y-8295000D01*
X18121000Y-8255000D02*
X18201000Y-8255000D01*
X18161000Y-8977000D02*
X18161000Y-9057000D01*
X18121000Y-9017000D02*
X18201000Y-9017000D01*
X18415000Y-8215000D02*
X18415000Y-8295000D01*
X18375000Y-8255000D02*
X18455000Y-8255000D01*
X18415000Y-8977000D02*
X18415000Y-9057000D01*
X18375000Y-9017000D02*
X18455000Y-9017000D01*
X18669000Y-5675000D02*
X18669000Y-5755000D01*
X18629000Y-5715000D02*
X18709000Y-5715000D01*
X18669000Y-5992500D02*
X18669000Y-6072500D01*
X18629000Y-6032500D02*
X18709000Y-6032500D01*
X18669000Y-6310000D02*
X18669000Y-6390000D01*
X18629000Y-6350000D02*
X18709000Y-6350000D01*
X18669000Y-6627500D02*
X18669000Y-6707500D01*
X18629000Y-6667500D02*
X18709000Y-6667500D01*
X18669000Y-6945000D02*
X18669000Y-7025000D01*
X18629000Y-6985000D02*
X18709000Y-6985000D01*
X18669000Y-8215000D02*
X18669000Y-8295000D01*
X18629000Y-8255000D02*
X18709000Y-8255000D01*
X18669000Y-8977000D02*
X18669000Y-9057000D01*
X18629000Y-9017000D02*
X18709000Y-9017000D01*
X18923000Y-8215000D02*
X18923000Y-8295000D01*
X18883000Y-8255000D02*
X18963000Y-8255000D01*
X18923000Y-8977000D02*
X18923000Y-9057000D01*
X18883000Y-9017000D02*
X18963000Y-9017000D01*
X19177000Y-8215000D02*
X19177000Y-8295000D01*
X19137000Y-8255000D02*
X19217000Y-8255000D01*
X19177000Y-8977000D02*
X19177000Y-9057000D01*
X19137000Y-9017000D02*
X19217000Y-9017000D01*
X19431000Y-8215000D02*
X19431000Y-8295000D01*
X19391000Y-8255000D02*
X19471000Y-8255000D01*
X19431000Y-8977000D02*
X19431000Y-9057000D01*
X19391000Y-9017000D02*
X19471000Y-9017000D01*
X19685000Y-5675000D02*
X19685000Y-5755000D01*
X19645000Y-5715000D02*
X19725000Y-5715000D01*
X19685000Y-5992500D02*
X19685000Y-6072500D01*
X19645000Y-6032500D02*
X19725000Y-6032500D01*
X19685000Y-6310000D02*
X19685000Y-6390000D01*
X19645000Y-6350000D02*
X19725000Y-6350000D01*
X19685000Y-6627500D02*
X19685000Y-6707500D01*
X19645000Y-6667500D02*
X19725000Y-6667500D01*
X19685000Y-6945000D02*
X19685000Y-7025000D01*
X19645000Y-6985000D02*
X19725000Y-6985000D01*
X19685000Y-8215000D02*
X19685000Y-8295000D01*
X19645000Y-8255000D02*
X19725000Y-8255000D01*
X19685000Y-8977000D02*
X19685000Y-9057000D01*
X19645000Y-9017000D02*
X19725000Y-9017000D01*
X19939000Y-8215000D02*
X19939000Y-8295000D01*
X19899000Y-8255000D02*
X19979000Y-8255000D01*
X19939000Y-8977000D02*
X19939000Y-9057000D01*
X19899000Y-9017000D02*
X19979000Y-9017000D01*
X20193000Y-8215000D02*
X20193000Y-8295000D01*
X20153000Y-8255000D02*
X20233000Y-8255000D01*
X20193000Y-8977000D02*
X20193000Y-9057000D01*
X20153000Y-9017000D02*
X20233000Y-9017000D01*
D14*
X16668820Y-5746820D02*
X16668820Y-5683180D01*
X16605180Y-5683180D01*
X16605180Y-5746820D01*
X16668820Y-5746820D01*
X16922820Y-5746820D02*
X16922820Y-5683180D01*
X16859180Y-5683180D01*
X16859180Y-5746820D01*
X16922820Y-5746820D01*
X20097820Y-5937320D02*
X20097820Y-5873680D01*
X20034180Y-5873680D01*
X20034180Y-5937320D01*
X20097820Y-5937320D01*
X20097820Y-6191320D02*
X20097820Y-6127680D01*
X20034180Y-6127680D01*
X20034180Y-6191320D01*
X20097820Y-6191320D01*
D15*
X14513000Y-9575000D02*
X14563000Y-9525000D01*
X14513000Y-9475000D01*
X14463000Y-9525000D01*
X14513000Y-9575000D01*
D10*
X14473000Y-9425000D02*
X14473000Y-9625000D01*
X14553000Y-9425000D02*
X14553000Y-9625000D01*
X14473000Y-9625000D02*
G75*
G03*
X14553000Y-9625000I40000J0D01*
G01*
X14553000Y-9425000D02*
G75*
G03*
X14473000Y-9425000I-40000J0D01*
G01*
D15*
X14575000Y-6192500D02*
X14625000Y-6142500D01*
X14575000Y-6092500D01*
X14525000Y-6142500D01*
X14575000Y-6192500D01*
X14575000Y-6469500D02*
X14625000Y-6419500D01*
X14575000Y-6369500D01*
X14525000Y-6419500D01*
X14575000Y-6469500D01*
X14575000Y-6746500D02*
X14625000Y-6696500D01*
X14575000Y-6646500D01*
X14525000Y-6696500D01*
X14575000Y-6746500D01*
X14575000Y-7023500D02*
X14625000Y-6973500D01*
X14575000Y-6923500D01*
X14525000Y-6973500D01*
X14575000Y-7023500D01*
X14813000Y-10045000D02*
X14863000Y-9995000D01*
X14813000Y-9945000D01*
X14763000Y-9995000D01*
X14813000Y-10045000D01*
D10*
X14713000Y-10035000D02*
X14913000Y-10035000D01*
X14713000Y-9955000D02*
X14913000Y-9955000D01*
X14913000Y-10035000D02*
G75*
G03*
X14913000Y-9955000I0J40000D01*
G01*
X14713000Y-9955000D02*
G75*
G03*
X14713000Y-10035000I0J-40000D01*
G01*
D15*
X14859000Y-6054000D02*
X14909000Y-6004000D01*
X14859000Y-5954000D01*
X14809000Y-6004000D01*
X14859000Y-6054000D01*
X14859000Y-6331000D02*
X14909000Y-6281000D01*
X14859000Y-6231000D01*
X14809000Y-6281000D01*
X14859000Y-6331000D01*
X14859000Y-6608000D02*
X14909000Y-6558000D01*
X14859000Y-6508000D01*
X14809000Y-6558000D01*
X14859000Y-6608000D01*
X14859000Y-6885000D02*
X14909000Y-6835000D01*
X14859000Y-6785000D01*
X14809000Y-6835000D01*
X14859000Y-6885000D01*
X14859000Y-7162000D02*
X14909000Y-7112000D01*
X14859000Y-7062000D01*
X14809000Y-7112000D01*
X14859000Y-7162000D01*
X15113000Y-9575000D02*
X15163000Y-9525000D01*
X15113000Y-9475000D01*
X15063000Y-9525000D01*
X15113000Y-9575000D01*
D10*
X15073000Y-9425000D02*
X15073000Y-9625000D01*
X15153000Y-9425000D02*
X15153000Y-9625000D01*
X15073000Y-9625000D02*
G75*
G03*
X15153000Y-9625000I40000J0D01*
G01*
X15153000Y-9425000D02*
G75*
G03*
X15073000Y-9425000I-40000J0D01*
G01*
D16*
X15697200Y-5156200D02*
X15798800Y-5257800D01*
X15798800Y-5156200D02*
X15697200Y-5257800D01*
X15798800Y-5207000D02*
G75*
G03*
X15798800Y-5207000I-50800J0D01*
G01*
X15951200Y-5156200D02*
X16052800Y-5257800D01*
X16052800Y-5156200D02*
X15951200Y-5257800D01*
X16052800Y-5207000D02*
G75*
G03*
X16052800Y-5207000I-50800J0D01*
G01*
X16205200Y-5156200D02*
X16306800Y-5257800D01*
X16306800Y-5156200D02*
X16205200Y-5257800D01*
X16306800Y-5207000D02*
G75*
G03*
X16306800Y-5207000I-50800J0D01*
G01*
X16459200Y-5156200D02*
X16560800Y-5257800D01*
X16560800Y-5156200D02*
X16459200Y-5257800D01*
X16560800Y-5207000D02*
G75*
G03*
X16560800Y-5207000I-50800J0D01*
G01*
X16586200Y-9982200D02*
X16687800Y-10083800D01*
X16687800Y-9982200D02*
X16586200Y-10083800D01*
X16687800Y-10033000D02*
G75*
G03*
X16687800Y-10033000I-50800J0D01*
G01*
X16713200Y-5156200D02*
X16814800Y-5257800D01*
X16814800Y-5156200D02*
X16713200Y-5257800D01*
X16814800Y-5207000D02*
G75*
G03*
X16814800Y-5207000I-50800J0D01*
G01*
X16840200Y-9982200D02*
X16941800Y-10083800D01*
X16941800Y-9982200D02*
X16840200Y-10083800D01*
X16941800Y-10033000D02*
G75*
G03*
X16941800Y-10033000I-50800J0D01*
G01*
X16967200Y-5156200D02*
X17068800Y-5257800D01*
X17068800Y-5156200D02*
X16967200Y-5257800D01*
X17068800Y-5207000D02*
G75*
G03*
X17068800Y-5207000I-50800J0D01*
G01*
X17094200Y-9982200D02*
X17195800Y-10083800D01*
X17195800Y-9982200D02*
X17094200Y-10083800D01*
X17195800Y-10033000D02*
G75*
G03*
X17195800Y-10033000I-50800J0D01*
G01*
X17221200Y-5156200D02*
X17322800Y-5257800D01*
X17322800Y-5156200D02*
X17221200Y-5257800D01*
X17322800Y-5207000D02*
G75*
G03*
X17322800Y-5207000I-50800J0D01*
G01*
X17348200Y-9982200D02*
X17449800Y-10083800D01*
X17449800Y-9982200D02*
X17348200Y-10083800D01*
X17449800Y-10033000D02*
G75*
G03*
X17449800Y-10033000I-50800J0D01*
G01*
X17475200Y-5156200D02*
X17576800Y-5257800D01*
X17576800Y-5156200D02*
X17475200Y-5257800D01*
X17576800Y-5207000D02*
G75*
G03*
X17576800Y-5207000I-50800J0D01*
G01*
X17602200Y-9982200D02*
X17703800Y-10083800D01*
X17703800Y-9982200D02*
X17602200Y-10083800D01*
X17703800Y-10033000D02*
G75*
G03*
X17703800Y-10033000I-50800J0D01*
G01*
X17729200Y-5156200D02*
X17830800Y-5257800D01*
X17830800Y-5156200D02*
X17729200Y-5257800D01*
X17830800Y-5207000D02*
G75*
G03*
X17830800Y-5207000I-50800J0D01*
G01*
X17856200Y-9982200D02*
X17957800Y-10083800D01*
X17957800Y-9982200D02*
X17856200Y-10083800D01*
X17957800Y-10033000D02*
G75*
G03*
X17957800Y-10033000I-50800J0D01*
G01*
X17983200Y-5156200D02*
X18084800Y-5257800D01*
X18084800Y-5156200D02*
X17983200Y-5257800D01*
X18084800Y-5207000D02*
G75*
G03*
X18084800Y-5207000I-50800J0D01*
G01*
X18110200Y-9982200D02*
X18211800Y-10083800D01*
X18211800Y-9982200D02*
X18110200Y-10083800D01*
X18211800Y-10033000D02*
G75*
G03*
X18211800Y-10033000I-50800J0D01*
G01*
X18364200Y-5156200D02*
X18465800Y-5257800D01*
X18465800Y-5156200D02*
X18364200Y-5257800D01*
X18465800Y-5207000D02*
G75*
G03*
X18465800Y-5207000I-50800J0D01*
G01*
X18364200Y-9982200D02*
X18465800Y-10083800D01*
X18465800Y-9982200D02*
X18364200Y-10083800D01*
X18465800Y-10033000D02*
G75*
G03*
X18465800Y-10033000I-50800J0D01*
G01*
X18618200Y-5156200D02*
X18719800Y-5257800D01*
X18719800Y-5156200D02*
X18618200Y-5257800D01*
X18719800Y-5207000D02*
G75*
G03*
X18719800Y-5207000I-50800J0D01*
G01*
X18872200Y-5156200D02*
X18973800Y-5257800D01*
X18973800Y-5156200D02*
X18872200Y-5257800D01*
X18973800Y-5207000D02*
G75*
G03*
X18973800Y-5207000I-50800J0D01*
G01*
X18872200Y-9982200D02*
X18973800Y-10083800D01*
X18973800Y-9982200D02*
X18872200Y-10083800D01*
X18973800Y-10033000D02*
G75*
G03*
X18973800Y-10033000I-50800J0D01*
G01*
X19126200Y-5156200D02*
X19227800Y-5257800D01*
X19227800Y-5156200D02*
X19126200Y-5257800D01*
X19227800Y-5207000D02*
G75*
G03*
X19227800Y-5207000I-50800J0D01*
G01*
X19126200Y-9982200D02*
X19227800Y-10083800D01*
X19227800Y-9982200D02*
X19126200Y-10083800D01*
X19227800Y-10033000D02*
G75*
G03*
X19227800Y-10033000I-50800J0D01*
G01*
X19380200Y-5156200D02*
X19481800Y-5257800D01*
X19481800Y-5156200D02*
X19380200Y-5257800D01*
X19481800Y-5207000D02*
G75*
G03*
X19481800Y-5207000I-50800J0D01*
G01*
X19380200Y-9982200D02*
X19481800Y-10083800D01*
X19481800Y-9982200D02*
X19380200Y-10083800D01*
X19481800Y-10033000D02*
G75*
G03*
X19481800Y-10033000I-50800J0D01*
G01*
X19634200Y-5156200D02*
X19735800Y-5257800D01*
X19735800Y-5156200D02*
X19634200Y-5257800D01*
X19735800Y-5207000D02*
G75*
G03*
X19735800Y-5207000I-50800J0D01*
G01*
X19634200Y-9982200D02*
X19735800Y-10083800D01*
X19735800Y-9982200D02*
X19634200Y-10083800D01*
X19735800Y-10033000D02*
G75*
G03*
X19735800Y-10033000I-50800J0D01*
G01*
X19888200Y-5156200D02*
X19989800Y-5257800D01*
X19989800Y-5156200D02*
X19888200Y-5257800D01*
X19989800Y-5207000D02*
G75*
G03*
X19989800Y-5207000I-50800J0D01*
G01*
X19888200Y-9982200D02*
X19989800Y-10083800D01*
X19989800Y-9982200D02*
X19888200Y-10083800D01*
X19989800Y-10033000D02*
G75*
G03*
X19989800Y-10033000I-50800J0D01*
G01*
X20142200Y-5156200D02*
X20243800Y-5257800D01*
X20243800Y-5156200D02*
X20142200Y-5257800D01*
X20243800Y-5207000D02*
G75*
G03*
X20243800Y-5207000I-50800J0D01*
G01*
X20142200Y-7188200D02*
X20243800Y-7289800D01*
X20243800Y-7188200D02*
X20142200Y-7289800D01*
X20243800Y-7239000D02*
G75*
G03*
X20243800Y-7239000I-50800J0D01*
G01*
X20142200Y-7442200D02*
X20243800Y-7543800D01*
X20243800Y-7442200D02*
X20142200Y-7543800D01*
X20243800Y-7493000D02*
G75*
G03*
X20243800Y-7493000I-50800J0D01*
G01*
X20142200Y-7696200D02*
X20243800Y-7797800D01*
X20243800Y-7696200D02*
X20142200Y-7797800D01*
X20243800Y-7747000D02*
G75*
G03*
X20243800Y-7747000I-50800J0D01*
G01*
X20142200Y-9982200D02*
X20243800Y-10083800D01*
X20243800Y-9982200D02*
X20142200Y-10083800D01*
X20243800Y-10033000D02*
G75*
G03*
X20243800Y-10033000I-50800J0D01*
G01*
X20396200Y-7188200D02*
X20497800Y-7289800D01*
X20497800Y-7188200D02*
X20396200Y-7289800D01*
X20497800Y-7239000D02*
G75*
G03*
X20497800Y-7239000I-50800J0D01*
G01*
X20396200Y-7442200D02*
X20497800Y-7543800D01*
X20497800Y-7442200D02*
X20396200Y-7543800D01*
X20497800Y-7493000D02*
G75*
G03*
X20497800Y-7493000I-50800J0D01*
G01*
X20396200Y-7696200D02*
X20497800Y-7797800D01*
X20497800Y-7696200D02*
X20396200Y-7797800D01*
X20497800Y-7747000D02*
G75*
G03*
X20497800Y-7747000I-50800J0D01*
G01*
D17*
X15312000Y-7946000D02*
X15422000Y-8056000D01*
X15422000Y-7946000D02*
X15312000Y-8056000D01*
X15367000Y-7946000D02*
X15367000Y-8056000D01*
X15312000Y-8001000D02*
X15422000Y-8001000D01*
X15629500Y-8263500D02*
X15739500Y-8373500D01*
X15739500Y-8263500D02*
X15629500Y-8373500D01*
X15684500Y-8263500D02*
X15684500Y-8373500D01*
X15629500Y-8318500D02*
X15739500Y-8318500D01*
X15883500Y-8263500D02*
X15993500Y-8373500D01*
X15993500Y-8263500D02*
X15883500Y-8373500D01*
X15938500Y-8263500D02*
X15938500Y-8373500D01*
X15883500Y-8318500D02*
X15993500Y-8318500D01*
X16137500Y-8263500D02*
X16247500Y-8373500D01*
X16247500Y-8263500D02*
X16137500Y-8373500D01*
X16192500Y-8263500D02*
X16192500Y-8373500D01*
X16137500Y-8318500D02*
X16247500Y-8318500D01*
X16328000Y-7946000D02*
X16438000Y-8056000D01*
X16438000Y-7946000D02*
X16328000Y-8056000D01*
X16383000Y-7946000D02*
X16383000Y-8056000D01*
X16328000Y-8001000D02*
X16438000Y-8001000D01*
X18980000Y-7242000D02*
X19090000Y-7352000D01*
X19090000Y-7242000D02*
X18980000Y-7352000D01*
X19035000Y-7242000D02*
X19035000Y-7352000D01*
X18980000Y-7297000D02*
X19090000Y-7297000D01*
X18980000Y-7692000D02*
X19090000Y-7802000D01*
X19090000Y-7692000D02*
X18980000Y-7802000D01*
X19035000Y-7692000D02*
X19035000Y-7802000D01*
X18980000Y-7747000D02*
X19090000Y-7747000D01*
X19630000Y-7242000D02*
X19740000Y-7352000D01*
X19740000Y-7242000D02*
X19630000Y-7352000D01*
X19685000Y-7242000D02*
X19685000Y-7352000D01*
X19630000Y-7297000D02*
X19740000Y-7297000D01*
X19630000Y-7692000D02*
X19740000Y-7802000D01*
X19740000Y-7692000D02*
X19630000Y-7802000D01*
X19685000Y-7692000D02*
X19685000Y-7802000D01*
X19630000Y-7747000D02*
X19740000Y-7747000D01*
D18*
X14557000Y-5148000D02*
X14877000Y-5468000D01*
X14877000Y-5148000D02*
X14557000Y-5468000D01*
X14830138Y-5421138D02*
X14830138Y-5194862D01*
X14603862Y-5194862D01*
X14603862Y-5421138D01*
X14830138Y-5421138D01*
X14557000Y-7648000D02*
X14877000Y-7968000D01*
X14877000Y-7648000D02*
X14557000Y-7968000D01*
X14830138Y-7921138D02*
X14830138Y-7694862D01*
X14603862Y-7694862D01*
X14603862Y-7921138D01*
X14830138Y-7921138D01*
D10*
X14093119Y-10604976D02*
X14093119Y-10404976D01*
X14140738Y-10404976D01*
X14169309Y-10414500D01*
X14188357Y-10433548D01*
X14197881Y-10452595D01*
X14207405Y-10490690D01*
X14207405Y-10519262D01*
X14197881Y-10557357D01*
X14188357Y-10576405D01*
X14169309Y-10595452D01*
X14140738Y-10604976D01*
X14093119Y-10604976D01*
X14293119Y-10604976D02*
X14293119Y-10471643D01*
X14293119Y-10509738D02*
X14302643Y-10490690D01*
X14312167Y-10481167D01*
X14331214Y-10471643D01*
X14350262Y-10471643D01*
X14416928Y-10604976D02*
X14416928Y-10471643D01*
X14416928Y-10404976D02*
X14407405Y-10414500D01*
X14416928Y-10424024D01*
X14426452Y-10414500D01*
X14416928Y-10404976D01*
X14416928Y-10424024D01*
X14540738Y-10604976D02*
X14521690Y-10595452D01*
X14512167Y-10576405D01*
X14512167Y-10404976D01*
X14645500Y-10604976D02*
X14626452Y-10595452D01*
X14616928Y-10576405D01*
X14616928Y-10404976D01*
X14874071Y-10604976D02*
X14874071Y-10404976D01*
X14940738Y-10547833D01*
X15007405Y-10404976D01*
X15007405Y-10604976D01*
X15188357Y-10604976D02*
X15188357Y-10500214D01*
X15178833Y-10481167D01*
X15159786Y-10471643D01*
X15121690Y-10471643D01*
X15102643Y-10481167D01*
X15188357Y-10595452D02*
X15169309Y-10604976D01*
X15121690Y-10604976D01*
X15102643Y-10595452D01*
X15093119Y-10576405D01*
X15093119Y-10557357D01*
X15102643Y-10538310D01*
X15121690Y-10528786D01*
X15169309Y-10528786D01*
X15188357Y-10519262D01*
X15283595Y-10471643D02*
X15283595Y-10671643D01*
X15283595Y-10481167D02*
X15302643Y-10471643D01*
X15340738Y-10471643D01*
X15359786Y-10481167D01*
X15369309Y-10490690D01*
X15378833Y-10509738D01*
X15378833Y-10566881D01*
X15369309Y-10585929D01*
X15359786Y-10595452D01*
X15340738Y-10604976D01*
X15302643Y-10604976D01*
X15283595Y-10595452D01*
X15464548Y-10585929D02*
X15474071Y-10595452D01*
X15464548Y-10604976D01*
X15455024Y-10595452D01*
X15464548Y-10585929D01*
X15464548Y-10604976D01*
X15464548Y-10481167D02*
X15474071Y-10490690D01*
X15464548Y-10500214D01*
X15455024Y-10490690D01*
X15464548Y-10481167D01*
X15464548Y-10500214D01*
D11*
X13805500Y-10919500D02*
X13835500Y-10949500D01*
X13835500Y-10919500D02*
X13805500Y-10949500D01*
D10*
X14131214Y-10824976D02*
X14150262Y-10824976D01*
X14169309Y-10834500D01*
X14178833Y-10844024D01*
X14188357Y-10863071D01*
X14197881Y-10901167D01*
X14197881Y-10948786D01*
X14188357Y-10986881D01*
X14178833Y-11005929D01*
X14169309Y-11015452D01*
X14150262Y-11024976D01*
X14131214Y-11024976D01*
X14112167Y-11015452D01*
X14102643Y-11005929D01*
X14093119Y-10986881D01*
X14083595Y-10948786D01*
X14083595Y-10901167D01*
X14093119Y-10863071D01*
X14102643Y-10844024D01*
X14112167Y-10834500D01*
X14131214Y-10824976D01*
X14283595Y-11005929D02*
X14293119Y-11015452D01*
X14283595Y-11024976D01*
X14274071Y-11015452D01*
X14283595Y-11005929D01*
X14283595Y-11024976D01*
X14359786Y-10824976D02*
X14483595Y-10824976D01*
X14416928Y-10901167D01*
X14445500Y-10901167D01*
X14464548Y-10910690D01*
X14474071Y-10920214D01*
X14483595Y-10939262D01*
X14483595Y-10986881D01*
X14474071Y-11005929D01*
X14464548Y-11015452D01*
X14445500Y-11024976D01*
X14388357Y-11024976D01*
X14369309Y-11015452D01*
X14359786Y-11005929D01*
X14607405Y-10824976D02*
X14626452Y-10824976D01*
X14645500Y-10834500D01*
X14655024Y-10844024D01*
X14664548Y-10863071D01*
X14674071Y-10901167D01*
X14674071Y-10948786D01*
X14664548Y-10986881D01*
X14655024Y-11005929D01*
X14645500Y-11015452D01*
X14626452Y-11024976D01*
X14607405Y-11024976D01*
X14588357Y-11015452D01*
X14578833Y-11005929D01*
X14569309Y-10986881D01*
X14559786Y-10948786D01*
X14559786Y-10901167D01*
X14569309Y-10863071D01*
X14578833Y-10844024D01*
X14588357Y-10834500D01*
X14607405Y-10824976D01*
X14797881Y-10824976D02*
X14816928Y-10824976D01*
X14835976Y-10834500D01*
X14845500Y-10844024D01*
X14855024Y-10863071D01*
X14864548Y-10901167D01*
X14864548Y-10948786D01*
X14855024Y-10986881D01*
X14845500Y-11005929D01*
X14835976Y-11015452D01*
X14816928Y-11024976D01*
X14797881Y-11024976D01*
X14778833Y-11015452D01*
X14769309Y-11005929D01*
X14759786Y-10986881D01*
X14750262Y-10948786D01*
X14750262Y-10901167D01*
X14759786Y-10863071D01*
X14769309Y-10844024D01*
X14778833Y-10834500D01*
X14797881Y-10824976D01*
X14950262Y-11024976D02*
X14950262Y-10891643D01*
X14950262Y-10910690D02*
X14959786Y-10901167D01*
X14978833Y-10891643D01*
X15007405Y-10891643D01*
X15026452Y-10901167D01*
X15035976Y-10920214D01*
X15035976Y-11024976D01*
X15035976Y-10920214D02*
X15045500Y-10901167D01*
X15064548Y-10891643D01*
X15093119Y-10891643D01*
X15112167Y-10901167D01*
X15121690Y-10920214D01*
X15121690Y-11024976D01*
X15216928Y-11024976D02*
X15216928Y-10891643D01*
X15216928Y-10910690D02*
X15226452Y-10901167D01*
X15245500Y-10891643D01*
X15274071Y-10891643D01*
X15293119Y-10901167D01*
X15302643Y-10920214D01*
X15302643Y-11024976D01*
X15302643Y-10920214D02*
X15312167Y-10901167D01*
X15331214Y-10891643D01*
X15359786Y-10891643D01*
X15378833Y-10901167D01*
X15388357Y-10920214D01*
X15388357Y-11024976D01*
X15778833Y-10815452D02*
X15607405Y-11072595D01*
X16035976Y-10824976D02*
X16055024Y-10824976D01*
X16074071Y-10834500D01*
X16083595Y-10844024D01*
X16093119Y-10863071D01*
X16102643Y-10901167D01*
X16102643Y-10948786D01*
X16093119Y-10986881D01*
X16083595Y-11005929D01*
X16074071Y-11015452D01*
X16055024Y-11024976D01*
X16035976Y-11024976D01*
X16016928Y-11015452D01*
X16007405Y-11005929D01*
X15997881Y-10986881D01*
X15988357Y-10948786D01*
X15988357Y-10901167D01*
X15997881Y-10863071D01*
X16007405Y-10844024D01*
X16016928Y-10834500D01*
X16035976Y-10824976D01*
X16188357Y-11005929D02*
X16197881Y-11015452D01*
X16188357Y-11024976D01*
X16178833Y-11015452D01*
X16188357Y-11005929D01*
X16188357Y-11024976D01*
X16321690Y-10824976D02*
X16340738Y-10824976D01*
X16359786Y-10834500D01*
X16369309Y-10844024D01*
X16378833Y-10863071D01*
X16388357Y-10901167D01*
X16388357Y-10948786D01*
X16378833Y-10986881D01*
X16369309Y-11005929D01*
X16359786Y-11015452D01*
X16340738Y-11024976D01*
X16321690Y-11024976D01*
X16302643Y-11015452D01*
X16293119Y-11005929D01*
X16283595Y-10986881D01*
X16274071Y-10948786D01*
X16274071Y-10901167D01*
X16283595Y-10863071D01*
X16293119Y-10844024D01*
X16302643Y-10834500D01*
X16321690Y-10824976D01*
X16578833Y-11024976D02*
X16464548Y-11024976D01*
X16521690Y-11024976D02*
X16521690Y-10824976D01*
X16502643Y-10853548D01*
X16483595Y-10872595D01*
X16464548Y-10882119D01*
X16769309Y-11024976D02*
X16655024Y-11024976D01*
X16712167Y-11024976D02*
X16712167Y-10824976D01*
X16693119Y-10853548D01*
X16674071Y-10872595D01*
X16655024Y-10882119D01*
X16883595Y-10910690D02*
X16864548Y-10901167D01*
X16855024Y-10891643D01*
X16845500Y-10872595D01*
X16845500Y-10863071D01*
X16855024Y-10844024D01*
X16864548Y-10834500D01*
X16883595Y-10824976D01*
X16921690Y-10824976D01*
X16940738Y-10834500D01*
X16950262Y-10844024D01*
X16959786Y-10863071D01*
X16959786Y-10872595D01*
X16950262Y-10891643D01*
X16940738Y-10901167D01*
X16921690Y-10910690D01*
X16883595Y-10910690D01*
X16864548Y-10920214D01*
X16855024Y-10929738D01*
X16845500Y-10948786D01*
X16845500Y-10986881D01*
X16855024Y-11005929D01*
X16864548Y-11015452D01*
X16883595Y-11024976D01*
X16921690Y-11024976D01*
X16940738Y-11015452D01*
X16950262Y-11005929D01*
X16959786Y-10986881D01*
X16959786Y-10948786D01*
X16950262Y-10929738D01*
X16940738Y-10920214D01*
X16921690Y-10910690D01*
X17035976Y-10824976D02*
X17035976Y-10863071D01*
X17112167Y-10824976D02*
X17112167Y-10863071D01*
X17407405Y-11101167D02*
X17397881Y-11091643D01*
X17378833Y-11063071D01*
X17369310Y-11044024D01*
X17359786Y-11015452D01*
X17350262Y-10967833D01*
X17350262Y-10929738D01*
X17359786Y-10882119D01*
X17369310Y-10853548D01*
X17378833Y-10834500D01*
X17397881Y-10805929D01*
X17407405Y-10796405D01*
X17578833Y-10824976D02*
X17483595Y-10824976D01*
X17474071Y-10920214D01*
X17483595Y-10910690D01*
X17502643Y-10901167D01*
X17550262Y-10901167D01*
X17569310Y-10910690D01*
X17578833Y-10920214D01*
X17588357Y-10939262D01*
X17588357Y-10986881D01*
X17578833Y-11005929D01*
X17569310Y-11015452D01*
X17550262Y-11024976D01*
X17502643Y-11024976D01*
X17483595Y-11015452D01*
X17474071Y-11005929D01*
X17655024Y-10824976D02*
X17788357Y-10824976D01*
X17702643Y-11024976D01*
X18016929Y-11024976D02*
X18016929Y-10824976D01*
X18102643Y-11024976D02*
X18102643Y-10920214D01*
X18093119Y-10901167D01*
X18074071Y-10891643D01*
X18045500Y-10891643D01*
X18026452Y-10901167D01*
X18016929Y-10910690D01*
X18226452Y-11024976D02*
X18207405Y-11015452D01*
X18197881Y-11005929D01*
X18188357Y-10986881D01*
X18188357Y-10929738D01*
X18197881Y-10910690D01*
X18207405Y-10901167D01*
X18226452Y-10891643D01*
X18255024Y-10891643D01*
X18274071Y-10901167D01*
X18283595Y-10910690D01*
X18293119Y-10929738D01*
X18293119Y-10986881D01*
X18283595Y-11005929D01*
X18274071Y-11015452D01*
X18255024Y-11024976D01*
X18226452Y-11024976D01*
X18407405Y-11024976D02*
X18388357Y-11015452D01*
X18378833Y-10996405D01*
X18378833Y-10824976D01*
X18559786Y-11015452D02*
X18540738Y-11024976D01*
X18502643Y-11024976D01*
X18483595Y-11015452D01*
X18474071Y-10996405D01*
X18474071Y-10920214D01*
X18483595Y-10901167D01*
X18502643Y-10891643D01*
X18540738Y-10891643D01*
X18559786Y-10901167D01*
X18569310Y-10920214D01*
X18569310Y-10939262D01*
X18474071Y-10958310D01*
X18645500Y-11015452D02*
X18664548Y-11024976D01*
X18702643Y-11024976D01*
X18721690Y-11015452D01*
X18731214Y-10996405D01*
X18731214Y-10986881D01*
X18721690Y-10967833D01*
X18702643Y-10958310D01*
X18674071Y-10958310D01*
X18655024Y-10948786D01*
X18645500Y-10929738D01*
X18645500Y-10920214D01*
X18655024Y-10901167D01*
X18674071Y-10891643D01*
X18702643Y-10891643D01*
X18721690Y-10901167D01*
X18797881Y-11101167D02*
X18807405Y-11091643D01*
X18826452Y-11063071D01*
X18835976Y-11044024D01*
X18845500Y-11015452D01*
X18855024Y-10967833D01*
X18855024Y-10929738D01*
X18845500Y-10882119D01*
X18835976Y-10853548D01*
X18826452Y-10834500D01*
X18807405Y-10805929D01*
X18797881Y-10796405D01*
D12*
X13835500Y-11198500D02*
G75*
G03*
X13835500Y-11198500I-37500J0D01*
G01*
D10*
X14131214Y-11088976D02*
X14150262Y-11088976D01*
X14169309Y-11098500D01*
X14178833Y-11108024D01*
X14188357Y-11127071D01*
X14197881Y-11165167D01*
X14197881Y-11212786D01*
X14188357Y-11250881D01*
X14178833Y-11269928D01*
X14169309Y-11279452D01*
X14150262Y-11288976D01*
X14131214Y-11288976D01*
X14112167Y-11279452D01*
X14102643Y-11269928D01*
X14093119Y-11250881D01*
X14083595Y-11212786D01*
X14083595Y-11165167D01*
X14093119Y-11127071D01*
X14102643Y-11108024D01*
X14112167Y-11098500D01*
X14131214Y-11088976D01*
X14283595Y-11269928D02*
X14293119Y-11279452D01*
X14283595Y-11288976D01*
X14274071Y-11279452D01*
X14283595Y-11269928D01*
X14283595Y-11288976D01*
X14359786Y-11088976D02*
X14493119Y-11088976D01*
X14407405Y-11288976D01*
X14664548Y-11088976D02*
X14569309Y-11088976D01*
X14559786Y-11184214D01*
X14569309Y-11174690D01*
X14588357Y-11165167D01*
X14635976Y-11165167D01*
X14655024Y-11174690D01*
X14664548Y-11184214D01*
X14674071Y-11203262D01*
X14674071Y-11250881D01*
X14664548Y-11269928D01*
X14655024Y-11279452D01*
X14635976Y-11288976D01*
X14588357Y-11288976D01*
X14569309Y-11279452D01*
X14559786Y-11269928D01*
X14797881Y-11088976D02*
X14816928Y-11088976D01*
X14835976Y-11098500D01*
X14845500Y-11108024D01*
X14855024Y-11127071D01*
X14864548Y-11165167D01*
X14864548Y-11212786D01*
X14855024Y-11250881D01*
X14845500Y-11269928D01*
X14835976Y-11279452D01*
X14816928Y-11288976D01*
X14797881Y-11288976D01*
X14778833Y-11279452D01*
X14769309Y-11269928D01*
X14759786Y-11250881D01*
X14750262Y-11212786D01*
X14750262Y-11165167D01*
X14759786Y-11127071D01*
X14769309Y-11108024D01*
X14778833Y-11098500D01*
X14797881Y-11088976D01*
X14950262Y-11288976D02*
X14950262Y-11155643D01*
X14950262Y-11174690D02*
X14959786Y-11165167D01*
X14978833Y-11155643D01*
X15007405Y-11155643D01*
X15026452Y-11165167D01*
X15035976Y-11184214D01*
X15035976Y-11288976D01*
X15035976Y-11184214D02*
X15045500Y-11165167D01*
X15064548Y-11155643D01*
X15093119Y-11155643D01*
X15112167Y-11165167D01*
X15121690Y-11184214D01*
X15121690Y-11288976D01*
X15216928Y-11288976D02*
X15216928Y-11155643D01*
X15216928Y-11174690D02*
X15226452Y-11165167D01*
X15245500Y-11155643D01*
X15274071Y-11155643D01*
X15293119Y-11165167D01*
X15302643Y-11184214D01*
X15302643Y-11288976D01*
X15302643Y-11184214D02*
X15312167Y-11165167D01*
X15331214Y-11155643D01*
X15359786Y-11155643D01*
X15378833Y-11165167D01*
X15388357Y-11184214D01*
X15388357Y-11288976D01*
X15778833Y-11079452D02*
X15607405Y-11336595D01*
X16035976Y-11088976D02*
X16055024Y-11088976D01*
X16074071Y-11098500D01*
X16083595Y-11108024D01*
X16093119Y-11127071D01*
X16102643Y-11165167D01*
X16102643Y-11212786D01*
X16093119Y-11250881D01*
X16083595Y-11269928D01*
X16074071Y-11279452D01*
X16055024Y-11288976D01*
X16035976Y-11288976D01*
X16016928Y-11279452D01*
X16007405Y-11269928D01*
X15997881Y-11250881D01*
X15988357Y-11212786D01*
X15988357Y-11165167D01*
X15997881Y-11127071D01*
X16007405Y-11108024D01*
X16016928Y-11098500D01*
X16035976Y-11088976D01*
X16188357Y-11269928D02*
X16197881Y-11279452D01*
X16188357Y-11288976D01*
X16178833Y-11279452D01*
X16188357Y-11269928D01*
X16188357Y-11288976D01*
X16321690Y-11088976D02*
X16340738Y-11088976D01*
X16359786Y-11098500D01*
X16369309Y-11108024D01*
X16378833Y-11127071D01*
X16388357Y-11165167D01*
X16388357Y-11212786D01*
X16378833Y-11250881D01*
X16369309Y-11269928D01*
X16359786Y-11279452D01*
X16340738Y-11288976D01*
X16321690Y-11288976D01*
X16302643Y-11279452D01*
X16293119Y-11269928D01*
X16283595Y-11250881D01*
X16274071Y-11212786D01*
X16274071Y-11165167D01*
X16283595Y-11127071D01*
X16293119Y-11108024D01*
X16302643Y-11098500D01*
X16321690Y-11088976D01*
X16464548Y-11108024D02*
X16474071Y-11098500D01*
X16493119Y-11088976D01*
X16540738Y-11088976D01*
X16559786Y-11098500D01*
X16569309Y-11108024D01*
X16578833Y-11127071D01*
X16578833Y-11146119D01*
X16569309Y-11174690D01*
X16455024Y-11288976D01*
X16578833Y-11288976D01*
X16674071Y-11288976D02*
X16712167Y-11288976D01*
X16731214Y-11279452D01*
X16740738Y-11269928D01*
X16759786Y-11241357D01*
X16769309Y-11203262D01*
X16769309Y-11127071D01*
X16759786Y-11108024D01*
X16750262Y-11098500D01*
X16731214Y-11088976D01*
X16693119Y-11088976D01*
X16674071Y-11098500D01*
X16664548Y-11108024D01*
X16655024Y-11127071D01*
X16655024Y-11174690D01*
X16664548Y-11193738D01*
X16674071Y-11203262D01*
X16693119Y-11212786D01*
X16731214Y-11212786D01*
X16750262Y-11203262D01*
X16759786Y-11193738D01*
X16769309Y-11174690D01*
X16950262Y-11088976D02*
X16855024Y-11088976D01*
X16845500Y-11184214D01*
X16855024Y-11174690D01*
X16874071Y-11165167D01*
X16921690Y-11165167D01*
X16940738Y-11174690D01*
X16950262Y-11184214D01*
X16959786Y-11203262D01*
X16959786Y-11250881D01*
X16950262Y-11269928D01*
X16940738Y-11279452D01*
X16921690Y-11288976D01*
X16874071Y-11288976D01*
X16855024Y-11279452D01*
X16845500Y-11269928D01*
X17035976Y-11088976D02*
X17035976Y-11127071D01*
X17112167Y-11088976D02*
X17112167Y-11127071D01*
X17407405Y-11365167D02*
X17397881Y-11355643D01*
X17378833Y-11327071D01*
X17369310Y-11308024D01*
X17359786Y-11279452D01*
X17350262Y-11231833D01*
X17350262Y-11193738D01*
X17359786Y-11146119D01*
X17369310Y-11117548D01*
X17378833Y-11098500D01*
X17397881Y-11069929D01*
X17407405Y-11060405D01*
X17464548Y-11088976D02*
X17588357Y-11088976D01*
X17521690Y-11165167D01*
X17550262Y-11165167D01*
X17569310Y-11174690D01*
X17578833Y-11184214D01*
X17588357Y-11203262D01*
X17588357Y-11250881D01*
X17578833Y-11269928D01*
X17569310Y-11279452D01*
X17550262Y-11288976D01*
X17493119Y-11288976D01*
X17474071Y-11279452D01*
X17464548Y-11269928D01*
X17826452Y-11288976D02*
X17826452Y-11088976D01*
X17912167Y-11288976D02*
X17912167Y-11184214D01*
X17902643Y-11165167D01*
X17883595Y-11155643D01*
X17855024Y-11155643D01*
X17835976Y-11165167D01*
X17826452Y-11174690D01*
X18035976Y-11288976D02*
X18016929Y-11279452D01*
X18007405Y-11269928D01*
X17997881Y-11250881D01*
X17997881Y-11193738D01*
X18007405Y-11174690D01*
X18016929Y-11165167D01*
X18035976Y-11155643D01*
X18064548Y-11155643D01*
X18083595Y-11165167D01*
X18093119Y-11174690D01*
X18102643Y-11193738D01*
X18102643Y-11250881D01*
X18093119Y-11269928D01*
X18083595Y-11279452D01*
X18064548Y-11288976D01*
X18035976Y-11288976D01*
X18216929Y-11288976D02*
X18197881Y-11279452D01*
X18188357Y-11260405D01*
X18188357Y-11088976D01*
X18369310Y-11279452D02*
X18350262Y-11288976D01*
X18312167Y-11288976D01*
X18293119Y-11279452D01*
X18283595Y-11260405D01*
X18283595Y-11184214D01*
X18293119Y-11165167D01*
X18312167Y-11155643D01*
X18350262Y-11155643D01*
X18369310Y-11165167D01*
X18378833Y-11184214D01*
X18378833Y-11203262D01*
X18283595Y-11222309D01*
X18455024Y-11279452D02*
X18474071Y-11288976D01*
X18512167Y-11288976D01*
X18531214Y-11279452D01*
X18540738Y-11260405D01*
X18540738Y-11250881D01*
X18531214Y-11231833D01*
X18512167Y-11222309D01*
X18483595Y-11222309D01*
X18464548Y-11212786D01*
X18455024Y-11193738D01*
X18455024Y-11184214D01*
X18464548Y-11165167D01*
X18483595Y-11155643D01*
X18512167Y-11155643D01*
X18531214Y-11165167D01*
X18607405Y-11365167D02*
X18616929Y-11355643D01*
X18635976Y-11327071D01*
X18645500Y-11308024D01*
X18655024Y-11279452D01*
X18664548Y-11231833D01*
X18664548Y-11193738D01*
X18655024Y-11146119D01*
X18645500Y-11117548D01*
X18635976Y-11098500D01*
X18616929Y-11069929D01*
X18607405Y-11060405D01*
D13*
X13795500Y-11422500D02*
X13795500Y-11502500D01*
X13755500Y-11462500D02*
X13835500Y-11462500D01*
D10*
X14131214Y-11352976D02*
X14150262Y-11352976D01*
X14169309Y-11362500D01*
X14178833Y-11372024D01*
X14188357Y-11391071D01*
X14197881Y-11429167D01*
X14197881Y-11476786D01*
X14188357Y-11514881D01*
X14178833Y-11533928D01*
X14169309Y-11543452D01*
X14150262Y-11552976D01*
X14131214Y-11552976D01*
X14112167Y-11543452D01*
X14102643Y-11533928D01*
X14093119Y-11514881D01*
X14083595Y-11476786D01*
X14083595Y-11429167D01*
X14093119Y-11391071D01*
X14102643Y-11372024D01*
X14112167Y-11362500D01*
X14131214Y-11352976D01*
X14283595Y-11533928D02*
X14293119Y-11543452D01*
X14283595Y-11552976D01*
X14274071Y-11543452D01*
X14283595Y-11533928D01*
X14283595Y-11552976D01*
X14407405Y-11438690D02*
X14388357Y-11429167D01*
X14378833Y-11419643D01*
X14369309Y-11400595D01*
X14369309Y-11391071D01*
X14378833Y-11372024D01*
X14388357Y-11362500D01*
X14407405Y-11352976D01*
X14445500Y-11352976D01*
X14464548Y-11362500D01*
X14474071Y-11372024D01*
X14483595Y-11391071D01*
X14483595Y-11400595D01*
X14474071Y-11419643D01*
X14464548Y-11429167D01*
X14445500Y-11438690D01*
X14407405Y-11438690D01*
X14388357Y-11448214D01*
X14378833Y-11457738D01*
X14369309Y-11476786D01*
X14369309Y-11514881D01*
X14378833Y-11533928D01*
X14388357Y-11543452D01*
X14407405Y-11552976D01*
X14445500Y-11552976D01*
X14464548Y-11543452D01*
X14474071Y-11533928D01*
X14483595Y-11514881D01*
X14483595Y-11476786D01*
X14474071Y-11457738D01*
X14464548Y-11448214D01*
X14445500Y-11438690D01*
X14607405Y-11352976D02*
X14626452Y-11352976D01*
X14645500Y-11362500D01*
X14655024Y-11372024D01*
X14664548Y-11391071D01*
X14674071Y-11429167D01*
X14674071Y-11476786D01*
X14664548Y-11514881D01*
X14655024Y-11533928D01*
X14645500Y-11543452D01*
X14626452Y-11552976D01*
X14607405Y-11552976D01*
X14588357Y-11543452D01*
X14578833Y-11533928D01*
X14569309Y-11514881D01*
X14559786Y-11476786D01*
X14559786Y-11429167D01*
X14569309Y-11391071D01*
X14578833Y-11372024D01*
X14588357Y-11362500D01*
X14607405Y-11352976D01*
X14797881Y-11352976D02*
X14816928Y-11352976D01*
X14835976Y-11362500D01*
X14845500Y-11372024D01*
X14855024Y-11391071D01*
X14864548Y-11429167D01*
X14864548Y-11476786D01*
X14855024Y-11514881D01*
X14845500Y-11533928D01*
X14835976Y-11543452D01*
X14816928Y-11552976D01*
X14797881Y-11552976D01*
X14778833Y-11543452D01*
X14769309Y-11533928D01*
X14759786Y-11514881D01*
X14750262Y-11476786D01*
X14750262Y-11429167D01*
X14759786Y-11391071D01*
X14769309Y-11372024D01*
X14778833Y-11362500D01*
X14797881Y-11352976D01*
X14950262Y-11552976D02*
X14950262Y-11419643D01*
X14950262Y-11438690D02*
X14959786Y-11429167D01*
X14978833Y-11419643D01*
X15007405Y-11419643D01*
X15026452Y-11429167D01*
X15035976Y-11448214D01*
X15035976Y-11552976D01*
X15035976Y-11448214D02*
X15045500Y-11429167D01*
X15064548Y-11419643D01*
X15093119Y-11419643D01*
X15112167Y-11429167D01*
X15121690Y-11448214D01*
X15121690Y-11552976D01*
X15216928Y-11552976D02*
X15216928Y-11419643D01*
X15216928Y-11438690D02*
X15226452Y-11429167D01*
X15245500Y-11419643D01*
X15274071Y-11419643D01*
X15293119Y-11429167D01*
X15302643Y-11448214D01*
X15302643Y-11552976D01*
X15302643Y-11448214D02*
X15312167Y-11429167D01*
X15331214Y-11419643D01*
X15359786Y-11419643D01*
X15378833Y-11429167D01*
X15388357Y-11448214D01*
X15388357Y-11552976D01*
X15778833Y-11343452D02*
X15607405Y-11600595D01*
X16035976Y-11352976D02*
X16055024Y-11352976D01*
X16074071Y-11362500D01*
X16083595Y-11372024D01*
X16093119Y-11391071D01*
X16102643Y-11429167D01*
X16102643Y-11476786D01*
X16093119Y-11514881D01*
X16083595Y-11533928D01*
X16074071Y-11543452D01*
X16055024Y-11552976D01*
X16035976Y-11552976D01*
X16016928Y-11543452D01*
X16007405Y-11533928D01*
X15997881Y-11514881D01*
X15988357Y-11476786D01*
X15988357Y-11429167D01*
X15997881Y-11391071D01*
X16007405Y-11372024D01*
X16016928Y-11362500D01*
X16035976Y-11352976D01*
X16188357Y-11533928D02*
X16197881Y-11543452D01*
X16188357Y-11552976D01*
X16178833Y-11543452D01*
X16188357Y-11533928D01*
X16188357Y-11552976D01*
X16321690Y-11352976D02*
X16340738Y-11352976D01*
X16359786Y-11362500D01*
X16369309Y-11372024D01*
X16378833Y-11391071D01*
X16388357Y-11429167D01*
X16388357Y-11476786D01*
X16378833Y-11514881D01*
X16369309Y-11533928D01*
X16359786Y-11543452D01*
X16340738Y-11552976D01*
X16321690Y-11552976D01*
X16302643Y-11543452D01*
X16293119Y-11533928D01*
X16283595Y-11514881D01*
X16274071Y-11476786D01*
X16274071Y-11429167D01*
X16283595Y-11391071D01*
X16293119Y-11372024D01*
X16302643Y-11362500D01*
X16321690Y-11352976D01*
X16455024Y-11352976D02*
X16578833Y-11352976D01*
X16512167Y-11429167D01*
X16540738Y-11429167D01*
X16559786Y-11438690D01*
X16569309Y-11448214D01*
X16578833Y-11467262D01*
X16578833Y-11514881D01*
X16569309Y-11533928D01*
X16559786Y-11543452D01*
X16540738Y-11552976D01*
X16483595Y-11552976D01*
X16464548Y-11543452D01*
X16455024Y-11533928D01*
X16769309Y-11552976D02*
X16655024Y-11552976D01*
X16712167Y-11552976D02*
X16712167Y-11352976D01*
X16693119Y-11381548D01*
X16674071Y-11400595D01*
X16655024Y-11410119D01*
X16950262Y-11352976D02*
X16855024Y-11352976D01*
X16845500Y-11448214D01*
X16855024Y-11438690D01*
X16874071Y-11429167D01*
X16921690Y-11429167D01*
X16940738Y-11438690D01*
X16950262Y-11448214D01*
X16959786Y-11467262D01*
X16959786Y-11514881D01*
X16950262Y-11533928D01*
X16940738Y-11543452D01*
X16921690Y-11552976D01*
X16874071Y-11552976D01*
X16855024Y-11543452D01*
X16845500Y-11533928D01*
X17035976Y-11352976D02*
X17035976Y-11391071D01*
X17112167Y-11352976D02*
X17112167Y-11391071D01*
X17407405Y-11629167D02*
X17397881Y-11619643D01*
X17378833Y-11591071D01*
X17369310Y-11572024D01*
X17359786Y-11543452D01*
X17350262Y-11495833D01*
X17350262Y-11457738D01*
X17359786Y-11410119D01*
X17369310Y-11381548D01*
X17378833Y-11362500D01*
X17397881Y-11333928D01*
X17407405Y-11324405D01*
X17512167Y-11438690D02*
X17493119Y-11429167D01*
X17483595Y-11419643D01*
X17474071Y-11400595D01*
X17474071Y-11391071D01*
X17483595Y-11372024D01*
X17493119Y-11362500D01*
X17512167Y-11352976D01*
X17550262Y-11352976D01*
X17569310Y-11362500D01*
X17578833Y-11372024D01*
X17588357Y-11391071D01*
X17588357Y-11400595D01*
X17578833Y-11419643D01*
X17569310Y-11429167D01*
X17550262Y-11438690D01*
X17512167Y-11438690D01*
X17493119Y-11448214D01*
X17483595Y-11457738D01*
X17474071Y-11476786D01*
X17474071Y-11514881D01*
X17483595Y-11533928D01*
X17493119Y-11543452D01*
X17512167Y-11552976D01*
X17550262Y-11552976D01*
X17569310Y-11543452D01*
X17578833Y-11533928D01*
X17588357Y-11514881D01*
X17588357Y-11476786D01*
X17578833Y-11457738D01*
X17569310Y-11448214D01*
X17550262Y-11438690D01*
X17664548Y-11372024D02*
X17674071Y-11362500D01*
X17693119Y-11352976D01*
X17740738Y-11352976D01*
X17759786Y-11362500D01*
X17769310Y-11372024D01*
X17778833Y-11391071D01*
X17778833Y-11410119D01*
X17769310Y-11438690D01*
X17655024Y-11552976D01*
X17778833Y-11552976D01*
X18016929Y-11552976D02*
X18016929Y-11352976D01*
X18102643Y-11552976D02*
X18102643Y-11448214D01*
X18093119Y-11429167D01*
X18074071Y-11419643D01*
X18045500Y-11419643D01*
X18026452Y-11429167D01*
X18016929Y-11438690D01*
X18226452Y-11552976D02*
X18207405Y-11543452D01*
X18197881Y-11533928D01*
X18188357Y-11514881D01*
X18188357Y-11457738D01*
X18197881Y-11438690D01*
X18207405Y-11429167D01*
X18226452Y-11419643D01*
X18255024Y-11419643D01*
X18274071Y-11429167D01*
X18283595Y-11438690D01*
X18293119Y-11457738D01*
X18293119Y-11514881D01*
X18283595Y-11533928D01*
X18274071Y-11543452D01*
X18255024Y-11552976D01*
X18226452Y-11552976D01*
X18407405Y-11552976D02*
X18388357Y-11543452D01*
X18378833Y-11524405D01*
X18378833Y-11352976D01*
X18559786Y-11543452D02*
X18540738Y-11552976D01*
X18502643Y-11552976D01*
X18483595Y-11543452D01*
X18474071Y-11524405D01*
X18474071Y-11448214D01*
X18483595Y-11429167D01*
X18502643Y-11419643D01*
X18540738Y-11419643D01*
X18559786Y-11429167D01*
X18569310Y-11448214D01*
X18569310Y-11467262D01*
X18474071Y-11486309D01*
X18645500Y-11543452D02*
X18664548Y-11552976D01*
X18702643Y-11552976D01*
X18721690Y-11543452D01*
X18731214Y-11524405D01*
X18731214Y-11514881D01*
X18721690Y-11495833D01*
X18702643Y-11486309D01*
X18674071Y-11486309D01*
X18655024Y-11476786D01*
X18645500Y-11457738D01*
X18645500Y-11448214D01*
X18655024Y-11429167D01*
X18674071Y-11419643D01*
X18702643Y-11419643D01*
X18721690Y-11429167D01*
X18797881Y-11629167D02*
X18807405Y-11619643D01*
X18826452Y-11591071D01*
X18835976Y-11572024D01*
X18845500Y-11543452D01*
X18855024Y-11495833D01*
X18855024Y-11457738D01*
X18845500Y-11410119D01*
X18835976Y-11381548D01*
X18826452Y-11362500D01*
X18807405Y-11333928D01*
X18797881Y-11324405D01*
D14*
X13822320Y-11758320D02*
X13822320Y-11694680D01*
X13758680Y-11694680D01*
X13758680Y-11758320D01*
X13822320Y-11758320D01*
D10*
X14131214Y-11616976D02*
X14150262Y-11616976D01*
X14169309Y-11626500D01*
X14178833Y-11636024D01*
X14188357Y-11655071D01*
X14197881Y-11693167D01*
X14197881Y-11740786D01*
X14188357Y-11778881D01*
X14178833Y-11797928D01*
X14169309Y-11807452D01*
X14150262Y-11816976D01*
X14131214Y-11816976D01*
X14112167Y-11807452D01*
X14102643Y-11797928D01*
X14093119Y-11778881D01*
X14083595Y-11740786D01*
X14083595Y-11693167D01*
X14093119Y-11655071D01*
X14102643Y-11636024D01*
X14112167Y-11626500D01*
X14131214Y-11616976D01*
X14283595Y-11797928D02*
X14293119Y-11807452D01*
X14283595Y-11816976D01*
X14274071Y-11807452D01*
X14283595Y-11797928D01*
X14283595Y-11816976D01*
X14388357Y-11816976D02*
X14426452Y-11816976D01*
X14445500Y-11807452D01*
X14455024Y-11797928D01*
X14474071Y-11769357D01*
X14483595Y-11731262D01*
X14483595Y-11655071D01*
X14474071Y-11636024D01*
X14464548Y-11626500D01*
X14445500Y-11616976D01*
X14407405Y-11616976D01*
X14388357Y-11626500D01*
X14378833Y-11636024D01*
X14369309Y-11655071D01*
X14369309Y-11702690D01*
X14378833Y-11721738D01*
X14388357Y-11731262D01*
X14407405Y-11740786D01*
X14445500Y-11740786D01*
X14464548Y-11731262D01*
X14474071Y-11721738D01*
X14483595Y-11702690D01*
X14607405Y-11616976D02*
X14626452Y-11616976D01*
X14645500Y-11626500D01*
X14655024Y-11636024D01*
X14664548Y-11655071D01*
X14674071Y-11693167D01*
X14674071Y-11740786D01*
X14664548Y-11778881D01*
X14655024Y-11797928D01*
X14645500Y-11807452D01*
X14626452Y-11816976D01*
X14607405Y-11816976D01*
X14588357Y-11807452D01*
X14578833Y-11797928D01*
X14569309Y-11778881D01*
X14559786Y-11740786D01*
X14559786Y-11693167D01*
X14569309Y-11655071D01*
X14578833Y-11636024D01*
X14588357Y-11626500D01*
X14607405Y-11616976D01*
X14797881Y-11616976D02*
X14816928Y-11616976D01*
X14835976Y-11626500D01*
X14845500Y-11636024D01*
X14855024Y-11655071D01*
X14864548Y-11693167D01*
X14864548Y-11740786D01*
X14855024Y-11778881D01*
X14845500Y-11797928D01*
X14835976Y-11807452D01*
X14816928Y-11816976D01*
X14797881Y-11816976D01*
X14778833Y-11807452D01*
X14769309Y-11797928D01*
X14759786Y-11778881D01*
X14750262Y-11740786D01*
X14750262Y-11693167D01*
X14759786Y-11655071D01*
X14769309Y-11636024D01*
X14778833Y-11626500D01*
X14797881Y-11616976D01*
X14950262Y-11816976D02*
X14950262Y-11683643D01*
X14950262Y-11702690D02*
X14959786Y-11693167D01*
X14978833Y-11683643D01*
X15007405Y-11683643D01*
X15026452Y-11693167D01*
X15035976Y-11712214D01*
X15035976Y-11816976D01*
X15035976Y-11712214D02*
X15045500Y-11693167D01*
X15064548Y-11683643D01*
X15093119Y-11683643D01*
X15112167Y-11693167D01*
X15121690Y-11712214D01*
X15121690Y-11816976D01*
X15216928Y-11816976D02*
X15216928Y-11683643D01*
X15216928Y-11702690D02*
X15226452Y-11693167D01*
X15245500Y-11683643D01*
X15274071Y-11683643D01*
X15293119Y-11693167D01*
X15302643Y-11712214D01*
X15302643Y-11816976D01*
X15302643Y-11712214D02*
X15312167Y-11693167D01*
X15331214Y-11683643D01*
X15359786Y-11683643D01*
X15378833Y-11693167D01*
X15388357Y-11712214D01*
X15388357Y-11816976D01*
X15778833Y-11607452D02*
X15607405Y-11864595D01*
X16035976Y-11616976D02*
X16055024Y-11616976D01*
X16074071Y-11626500D01*
X16083595Y-11636024D01*
X16093119Y-11655071D01*
X16102643Y-11693167D01*
X16102643Y-11740786D01*
X16093119Y-11778881D01*
X16083595Y-11797928D01*
X16074071Y-11807452D01*
X16055024Y-11816976D01*
X16035976Y-11816976D01*
X16016928Y-11807452D01*
X16007405Y-11797928D01*
X15997881Y-11778881D01*
X15988357Y-11740786D01*
X15988357Y-11693167D01*
X15997881Y-11655071D01*
X16007405Y-11636024D01*
X16016928Y-11626500D01*
X16035976Y-11616976D01*
X16188357Y-11797928D02*
X16197881Y-11807452D01*
X16188357Y-11816976D01*
X16178833Y-11807452D01*
X16188357Y-11797928D01*
X16188357Y-11816976D01*
X16321690Y-11616976D02*
X16340738Y-11616976D01*
X16359786Y-11626500D01*
X16369309Y-11636024D01*
X16378833Y-11655071D01*
X16388357Y-11693167D01*
X16388357Y-11740786D01*
X16378833Y-11778881D01*
X16369309Y-11797928D01*
X16359786Y-11807452D01*
X16340738Y-11816976D01*
X16321690Y-11816976D01*
X16302643Y-11807452D01*
X16293119Y-11797928D01*
X16283595Y-11778881D01*
X16274071Y-11740786D01*
X16274071Y-11693167D01*
X16283595Y-11655071D01*
X16293119Y-11636024D01*
X16302643Y-11626500D01*
X16321690Y-11616976D01*
X16455024Y-11616976D02*
X16578833Y-11616976D01*
X16512167Y-11693167D01*
X16540738Y-11693167D01*
X16559786Y-11702690D01*
X16569309Y-11712214D01*
X16578833Y-11731262D01*
X16578833Y-11778881D01*
X16569309Y-11797928D01*
X16559786Y-11807452D01*
X16540738Y-11816976D01*
X16483595Y-11816976D01*
X16464548Y-11807452D01*
X16455024Y-11797928D01*
X16759786Y-11616976D02*
X16664548Y-11616976D01*
X16655024Y-11712214D01*
X16664548Y-11702690D01*
X16683595Y-11693167D01*
X16731214Y-11693167D01*
X16750262Y-11702690D01*
X16759786Y-11712214D01*
X16769309Y-11731262D01*
X16769309Y-11778881D01*
X16759786Y-11797928D01*
X16750262Y-11807452D01*
X16731214Y-11816976D01*
X16683595Y-11816976D01*
X16664548Y-11807452D01*
X16655024Y-11797928D01*
X16940738Y-11683643D02*
X16940738Y-11816976D01*
X16893119Y-11607452D02*
X16845500Y-11750309D01*
X16969310Y-11750309D01*
X17035976Y-11616976D02*
X17035976Y-11655071D01*
X17112167Y-11616976D02*
X17112167Y-11655071D01*
X17407405Y-11893167D02*
X17397881Y-11883643D01*
X17378833Y-11855071D01*
X17369310Y-11836024D01*
X17359786Y-11807452D01*
X17350262Y-11759833D01*
X17350262Y-11721738D01*
X17359786Y-11674119D01*
X17369310Y-11645548D01*
X17378833Y-11626500D01*
X17397881Y-11597928D01*
X17407405Y-11588405D01*
X17569310Y-11683643D02*
X17569310Y-11816976D01*
X17521690Y-11607452D02*
X17474071Y-11750309D01*
X17597881Y-11750309D01*
X17826452Y-11816976D02*
X17826452Y-11616976D01*
X17912167Y-11816976D02*
X17912167Y-11712214D01*
X17902643Y-11693167D01*
X17883595Y-11683643D01*
X17855024Y-11683643D01*
X17835976Y-11693167D01*
X17826452Y-11702690D01*
X18035976Y-11816976D02*
X18016929Y-11807452D01*
X18007405Y-11797928D01*
X17997881Y-11778881D01*
X17997881Y-11721738D01*
X18007405Y-11702690D01*
X18016929Y-11693167D01*
X18035976Y-11683643D01*
X18064548Y-11683643D01*
X18083595Y-11693167D01*
X18093119Y-11702690D01*
X18102643Y-11721738D01*
X18102643Y-11778881D01*
X18093119Y-11797928D01*
X18083595Y-11807452D01*
X18064548Y-11816976D01*
X18035976Y-11816976D01*
X18216929Y-11816976D02*
X18197881Y-11807452D01*
X18188357Y-11788405D01*
X18188357Y-11616976D01*
X18369310Y-11807452D02*
X18350262Y-11816976D01*
X18312167Y-11816976D01*
X18293119Y-11807452D01*
X18283595Y-11788405D01*
X18283595Y-11712214D01*
X18293119Y-11693167D01*
X18312167Y-11683643D01*
X18350262Y-11683643D01*
X18369310Y-11693167D01*
X18378833Y-11712214D01*
X18378833Y-11731262D01*
X18283595Y-11750309D01*
X18455024Y-11807452D02*
X18474071Y-11816976D01*
X18512167Y-11816976D01*
X18531214Y-11807452D01*
X18540738Y-11788405D01*
X18540738Y-11778881D01*
X18531214Y-11759833D01*
X18512167Y-11750309D01*
X18483595Y-11750309D01*
X18464548Y-11740786D01*
X18455024Y-11721738D01*
X18455024Y-11712214D01*
X18464548Y-11693167D01*
X18483595Y-11683643D01*
X18512167Y-11683643D01*
X18531214Y-11693167D01*
X18607405Y-11893167D02*
X18616929Y-11883643D01*
X18635976Y-11855071D01*
X18645500Y-11836024D01*
X18655024Y-11807452D01*
X18664548Y-11759833D01*
X18664548Y-11721738D01*
X18655024Y-11674119D01*
X18645500Y-11645548D01*
X18635976Y-11626500D01*
X18616929Y-11597928D01*
X18607405Y-11588405D01*
D15*
X13785500Y-12040500D02*
X13835500Y-11990500D01*
X13785500Y-11940500D01*
X13735500Y-11990500D01*
X13785500Y-12040500D01*
D10*
X14197881Y-12080976D02*
X14083595Y-12080976D01*
X14140738Y-12080976D02*
X14140738Y-11880976D01*
X14121690Y-11909548D01*
X14102643Y-11928595D01*
X14083595Y-11938119D01*
X14283595Y-12061928D02*
X14293119Y-12071452D01*
X14283595Y-12080976D01*
X14274071Y-12071452D01*
X14283595Y-12061928D01*
X14283595Y-12080976D01*
X14416928Y-11880976D02*
X14435976Y-11880976D01*
X14455024Y-11890500D01*
X14464548Y-11900024D01*
X14474071Y-11919071D01*
X14483595Y-11957167D01*
X14483595Y-12004786D01*
X14474071Y-12042881D01*
X14464548Y-12061928D01*
X14455024Y-12071452D01*
X14435976Y-12080976D01*
X14416928Y-12080976D01*
X14397881Y-12071452D01*
X14388357Y-12061928D01*
X14378833Y-12042881D01*
X14369309Y-12004786D01*
X14369309Y-11957167D01*
X14378833Y-11919071D01*
X14388357Y-11900024D01*
X14397881Y-11890500D01*
X14416928Y-11880976D01*
X14607405Y-11880976D02*
X14626452Y-11880976D01*
X14645500Y-11890500D01*
X14655024Y-11900024D01*
X14664548Y-11919071D01*
X14674071Y-11957167D01*
X14674071Y-12004786D01*
X14664548Y-12042881D01*
X14655024Y-12061928D01*
X14645500Y-12071452D01*
X14626452Y-12080976D01*
X14607405Y-12080976D01*
X14588357Y-12071452D01*
X14578833Y-12061928D01*
X14569309Y-12042881D01*
X14559786Y-12004786D01*
X14559786Y-11957167D01*
X14569309Y-11919071D01*
X14578833Y-11900024D01*
X14588357Y-11890500D01*
X14607405Y-11880976D01*
X14797881Y-11880976D02*
X14816928Y-11880976D01*
X14835976Y-11890500D01*
X14845500Y-11900024D01*
X14855024Y-11919071D01*
X14864548Y-11957167D01*
X14864548Y-12004786D01*
X14855024Y-12042881D01*
X14845500Y-12061928D01*
X14835976Y-12071452D01*
X14816928Y-12080976D01*
X14797881Y-12080976D01*
X14778833Y-12071452D01*
X14769309Y-12061928D01*
X14759786Y-12042881D01*
X14750262Y-12004786D01*
X14750262Y-11957167D01*
X14759786Y-11919071D01*
X14769309Y-11900024D01*
X14778833Y-11890500D01*
X14797881Y-11880976D01*
X14950262Y-12080976D02*
X14950262Y-11947643D01*
X14950262Y-11966690D02*
X14959786Y-11957167D01*
X14978833Y-11947643D01*
X15007405Y-11947643D01*
X15026452Y-11957167D01*
X15035976Y-11976214D01*
X15035976Y-12080976D01*
X15035976Y-11976214D02*
X15045500Y-11957167D01*
X15064548Y-11947643D01*
X15093119Y-11947643D01*
X15112167Y-11957167D01*
X15121690Y-11976214D01*
X15121690Y-12080976D01*
X15216928Y-12080976D02*
X15216928Y-11947643D01*
X15216928Y-11966690D02*
X15226452Y-11957167D01*
X15245500Y-11947643D01*
X15274071Y-11947643D01*
X15293119Y-11957167D01*
X15302643Y-11976214D01*
X15302643Y-12080976D01*
X15302643Y-11976214D02*
X15312167Y-11957167D01*
X15331214Y-11947643D01*
X15359786Y-11947643D01*
X15378833Y-11957167D01*
X15388357Y-11976214D01*
X15388357Y-12080976D01*
X15778833Y-11871452D02*
X15607405Y-12128595D01*
X16035976Y-11880976D02*
X16055024Y-11880976D01*
X16074071Y-11890500D01*
X16083595Y-11900024D01*
X16093119Y-11919071D01*
X16102643Y-11957167D01*
X16102643Y-12004786D01*
X16093119Y-12042881D01*
X16083595Y-12061928D01*
X16074071Y-12071452D01*
X16055024Y-12080976D01*
X16035976Y-12080976D01*
X16016928Y-12071452D01*
X16007405Y-12061928D01*
X15997881Y-12042881D01*
X15988357Y-12004786D01*
X15988357Y-11957167D01*
X15997881Y-11919071D01*
X16007405Y-11900024D01*
X16016928Y-11890500D01*
X16035976Y-11880976D01*
X16188357Y-12061928D02*
X16197881Y-12071452D01*
X16188357Y-12080976D01*
X16178833Y-12071452D01*
X16188357Y-12061928D01*
X16188357Y-12080976D01*
X16321690Y-11880976D02*
X16340738Y-11880976D01*
X16359786Y-11890500D01*
X16369309Y-11900024D01*
X16378833Y-11919071D01*
X16388357Y-11957167D01*
X16388357Y-12004786D01*
X16378833Y-12042881D01*
X16369309Y-12061928D01*
X16359786Y-12071452D01*
X16340738Y-12080976D01*
X16321690Y-12080976D01*
X16302643Y-12071452D01*
X16293119Y-12061928D01*
X16283595Y-12042881D01*
X16274071Y-12004786D01*
X16274071Y-11957167D01*
X16283595Y-11919071D01*
X16293119Y-11900024D01*
X16302643Y-11890500D01*
X16321690Y-11880976D01*
X16455024Y-11880976D02*
X16578833Y-11880976D01*
X16512167Y-11957167D01*
X16540738Y-11957167D01*
X16559786Y-11966690D01*
X16569309Y-11976214D01*
X16578833Y-11995262D01*
X16578833Y-12042881D01*
X16569309Y-12061928D01*
X16559786Y-12071452D01*
X16540738Y-12080976D01*
X16483595Y-12080976D01*
X16464548Y-12071452D01*
X16455024Y-12061928D01*
X16674071Y-12080976D02*
X16712167Y-12080976D01*
X16731214Y-12071452D01*
X16740738Y-12061928D01*
X16759786Y-12033357D01*
X16769309Y-11995262D01*
X16769309Y-11919071D01*
X16759786Y-11900024D01*
X16750262Y-11890500D01*
X16731214Y-11880976D01*
X16693119Y-11880976D01*
X16674071Y-11890500D01*
X16664548Y-11900024D01*
X16655024Y-11919071D01*
X16655024Y-11966690D01*
X16664548Y-11985738D01*
X16674071Y-11995262D01*
X16693119Y-12004786D01*
X16731214Y-12004786D01*
X16750262Y-11995262D01*
X16759786Y-11985738D01*
X16769309Y-11966690D01*
X16940738Y-11947643D02*
X16940738Y-12080976D01*
X16893119Y-11871452D02*
X16845500Y-12014309D01*
X16969310Y-12014309D01*
X17035976Y-11880976D02*
X17035976Y-11919071D01*
X17112167Y-11880976D02*
X17112167Y-11919071D01*
X17407405Y-12157167D02*
X17397881Y-12147643D01*
X17378833Y-12119071D01*
X17369310Y-12100024D01*
X17359786Y-12071452D01*
X17350262Y-12023833D01*
X17350262Y-11985738D01*
X17359786Y-11938119D01*
X17369310Y-11909548D01*
X17378833Y-11890500D01*
X17397881Y-11861928D01*
X17407405Y-11852405D01*
X17493119Y-12080976D02*
X17531214Y-12080976D01*
X17550262Y-12071452D01*
X17559786Y-12061928D01*
X17578833Y-12033357D01*
X17588357Y-11995262D01*
X17588357Y-11919071D01*
X17578833Y-11900024D01*
X17569310Y-11890500D01*
X17550262Y-11880976D01*
X17512167Y-11880976D01*
X17493119Y-11890500D01*
X17483595Y-11900024D01*
X17474071Y-11919071D01*
X17474071Y-11966690D01*
X17483595Y-11985738D01*
X17493119Y-11995262D01*
X17512167Y-12004786D01*
X17550262Y-12004786D01*
X17569310Y-11995262D01*
X17578833Y-11985738D01*
X17588357Y-11966690D01*
X17826452Y-12080976D02*
X17826452Y-11880976D01*
X17912167Y-12080976D02*
X17912167Y-11976214D01*
X17902643Y-11957167D01*
X17883595Y-11947643D01*
X17855024Y-11947643D01*
X17835976Y-11957167D01*
X17826452Y-11966690D01*
X18035976Y-12080976D02*
X18016929Y-12071452D01*
X18007405Y-12061928D01*
X17997881Y-12042881D01*
X17997881Y-11985738D01*
X18007405Y-11966690D01*
X18016929Y-11957167D01*
X18035976Y-11947643D01*
X18064548Y-11947643D01*
X18083595Y-11957167D01*
X18093119Y-11966690D01*
X18102643Y-11985738D01*
X18102643Y-12042881D01*
X18093119Y-12061928D01*
X18083595Y-12071452D01*
X18064548Y-12080976D01*
X18035976Y-12080976D01*
X18216929Y-12080976D02*
X18197881Y-12071452D01*
X18188357Y-12052405D01*
X18188357Y-11880976D01*
X18369310Y-12071452D02*
X18350262Y-12080976D01*
X18312167Y-12080976D01*
X18293119Y-12071452D01*
X18283595Y-12052405D01*
X18283595Y-11976214D01*
X18293119Y-11957167D01*
X18312167Y-11947643D01*
X18350262Y-11947643D01*
X18369310Y-11957167D01*
X18378833Y-11976214D01*
X18378833Y-11995262D01*
X18283595Y-12014309D01*
X18455024Y-12071452D02*
X18474071Y-12080976D01*
X18512167Y-12080976D01*
X18531214Y-12071452D01*
X18540738Y-12052405D01*
X18540738Y-12042881D01*
X18531214Y-12023833D01*
X18512167Y-12014309D01*
X18483595Y-12014309D01*
X18464548Y-12004786D01*
X18455024Y-11985738D01*
X18455024Y-11976214D01*
X18464548Y-11957167D01*
X18483595Y-11947643D01*
X18512167Y-11947643D01*
X18531214Y-11957167D01*
X18778833Y-12004786D02*
X18931214Y-12004786D01*
X18855024Y-12080976D02*
X18855024Y-11928595D01*
X19159786Y-11880976D02*
X19283595Y-11880976D01*
X19216929Y-11957167D01*
X19245500Y-11957167D01*
X19264548Y-11966690D01*
X19274071Y-11976214D01*
X19283595Y-11995262D01*
X19283595Y-12042881D01*
X19274071Y-12061928D01*
X19264548Y-12071452D01*
X19245500Y-12080976D01*
X19188357Y-12080976D01*
X19169310Y-12071452D01*
X19159786Y-12061928D01*
X19512167Y-12071452D02*
X19531214Y-12080976D01*
X19569310Y-12080976D01*
X19588357Y-12071452D01*
X19597881Y-12052405D01*
X19597881Y-12042881D01*
X19588357Y-12023833D01*
X19569310Y-12014309D01*
X19540738Y-12014309D01*
X19521690Y-12004786D01*
X19512167Y-11985738D01*
X19512167Y-11976214D01*
X19521690Y-11957167D01*
X19540738Y-11947643D01*
X19569310Y-11947643D01*
X19588357Y-11957167D01*
X19712167Y-12080976D02*
X19693119Y-12071452D01*
X19683595Y-12052405D01*
X19683595Y-11880976D01*
X19816929Y-12080976D02*
X19797881Y-12071452D01*
X19788357Y-12061928D01*
X19778833Y-12042881D01*
X19778833Y-11985738D01*
X19788357Y-11966690D01*
X19797881Y-11957167D01*
X19816929Y-11947643D01*
X19845500Y-11947643D01*
X19864548Y-11957167D01*
X19874071Y-11966690D01*
X19883595Y-11985738D01*
X19883595Y-12042881D01*
X19874071Y-12061928D01*
X19864548Y-12071452D01*
X19845500Y-12080976D01*
X19816929Y-12080976D01*
X19940738Y-11947643D02*
X20016929Y-11947643D01*
X19969310Y-11880976D02*
X19969310Y-12052405D01*
X19978833Y-12071452D01*
X19997881Y-12080976D01*
X20016929Y-12080976D01*
X20074071Y-12071452D02*
X20093119Y-12080976D01*
X20131214Y-12080976D01*
X20150262Y-12071452D01*
X20159786Y-12052405D01*
X20159786Y-12042881D01*
X20150262Y-12023833D01*
X20131214Y-12014309D01*
X20102643Y-12014309D01*
X20083595Y-12004786D01*
X20074071Y-11985738D01*
X20074071Y-11976214D01*
X20083595Y-11957167D01*
X20102643Y-11947643D01*
X20131214Y-11947643D01*
X20150262Y-11957167D01*
X20226452Y-12157167D02*
X20235976Y-12147643D01*
X20255024Y-12119071D01*
X20264548Y-12100024D01*
X20274071Y-12071452D01*
X20283595Y-12023833D01*
X20283595Y-11985738D01*
X20274071Y-11938119D01*
X20264548Y-11909548D01*
X20255024Y-11890500D01*
X20235976Y-11861928D01*
X20226452Y-11852405D01*
D16*
X13733900Y-12203700D02*
X13835500Y-12305300D01*
X13835500Y-12203700D02*
X13733900Y-12305300D01*
X13835500Y-12254500D02*
G75*
G03*
X13835500Y-12254500I-50800J0D01*
G01*
D10*
X14197881Y-12344976D02*
X14083595Y-12344976D01*
X14140738Y-12344976D02*
X14140738Y-12144976D01*
X14121690Y-12173548D01*
X14102643Y-12192595D01*
X14083595Y-12202119D01*
X14283595Y-12325928D02*
X14293119Y-12335452D01*
X14283595Y-12344976D01*
X14274071Y-12335452D01*
X14283595Y-12325928D01*
X14283595Y-12344976D01*
X14416928Y-12144976D02*
X14435976Y-12144976D01*
X14455024Y-12154500D01*
X14464548Y-12164024D01*
X14474071Y-12183071D01*
X14483595Y-12221167D01*
X14483595Y-12268786D01*
X14474071Y-12306881D01*
X14464548Y-12325928D01*
X14455024Y-12335452D01*
X14435976Y-12344976D01*
X14416928Y-12344976D01*
X14397881Y-12335452D01*
X14388357Y-12325928D01*
X14378833Y-12306881D01*
X14369309Y-12268786D01*
X14369309Y-12221167D01*
X14378833Y-12183071D01*
X14388357Y-12164024D01*
X14397881Y-12154500D01*
X14416928Y-12144976D01*
X14674071Y-12344976D02*
X14559786Y-12344976D01*
X14616928Y-12344976D02*
X14616928Y-12144976D01*
X14597881Y-12173548D01*
X14578833Y-12192595D01*
X14559786Y-12202119D01*
X14845500Y-12144976D02*
X14807405Y-12144976D01*
X14788357Y-12154500D01*
X14778833Y-12164024D01*
X14759786Y-12192595D01*
X14750262Y-12230690D01*
X14750262Y-12306881D01*
X14759786Y-12325928D01*
X14769309Y-12335452D01*
X14788357Y-12344976D01*
X14826452Y-12344976D01*
X14845500Y-12335452D01*
X14855024Y-12325928D01*
X14864548Y-12306881D01*
X14864548Y-12259262D01*
X14855024Y-12240214D01*
X14845500Y-12230690D01*
X14826452Y-12221167D01*
X14788357Y-12221167D01*
X14769309Y-12230690D01*
X14759786Y-12240214D01*
X14750262Y-12259262D01*
X14950262Y-12344976D02*
X14950262Y-12211643D01*
X14950262Y-12230690D02*
X14959786Y-12221167D01*
X14978833Y-12211643D01*
X15007405Y-12211643D01*
X15026452Y-12221167D01*
X15035976Y-12240214D01*
X15035976Y-12344976D01*
X15035976Y-12240214D02*
X15045500Y-12221167D01*
X15064548Y-12211643D01*
X15093119Y-12211643D01*
X15112167Y-12221167D01*
X15121690Y-12240214D01*
X15121690Y-12344976D01*
X15216928Y-12344976D02*
X15216928Y-12211643D01*
X15216928Y-12230690D02*
X15226452Y-12221167D01*
X15245500Y-12211643D01*
X15274071Y-12211643D01*
X15293119Y-12221167D01*
X15302643Y-12240214D01*
X15302643Y-12344976D01*
X15302643Y-12240214D02*
X15312167Y-12221167D01*
X15331214Y-12211643D01*
X15359786Y-12211643D01*
X15378833Y-12221167D01*
X15388357Y-12240214D01*
X15388357Y-12344976D01*
X15778833Y-12135452D02*
X15607405Y-12392595D01*
X16035976Y-12144976D02*
X16055024Y-12144976D01*
X16074071Y-12154500D01*
X16083595Y-12164024D01*
X16093119Y-12183071D01*
X16102643Y-12221167D01*
X16102643Y-12268786D01*
X16093119Y-12306881D01*
X16083595Y-12325928D01*
X16074071Y-12335452D01*
X16055024Y-12344976D01*
X16035976Y-12344976D01*
X16016928Y-12335452D01*
X16007405Y-12325928D01*
X15997881Y-12306881D01*
X15988357Y-12268786D01*
X15988357Y-12221167D01*
X15997881Y-12183071D01*
X16007405Y-12164024D01*
X16016928Y-12154500D01*
X16035976Y-12144976D01*
X16188357Y-12325928D02*
X16197881Y-12335452D01*
X16188357Y-12344976D01*
X16178833Y-12335452D01*
X16188357Y-12325928D01*
X16188357Y-12344976D01*
X16321690Y-12144976D02*
X16340738Y-12144976D01*
X16359786Y-12154500D01*
X16369309Y-12164024D01*
X16378833Y-12183071D01*
X16388357Y-12221167D01*
X16388357Y-12268786D01*
X16378833Y-12306881D01*
X16369309Y-12325928D01*
X16359786Y-12335452D01*
X16340738Y-12344976D01*
X16321690Y-12344976D01*
X16302643Y-12335452D01*
X16293119Y-12325928D01*
X16283595Y-12306881D01*
X16274071Y-12268786D01*
X16274071Y-12221167D01*
X16283595Y-12183071D01*
X16293119Y-12164024D01*
X16302643Y-12154500D01*
X16321690Y-12144976D01*
X16559786Y-12211643D02*
X16559786Y-12344976D01*
X16512167Y-12135452D02*
X16464548Y-12278309D01*
X16588357Y-12278309D01*
X16702643Y-12144976D02*
X16721690Y-12144976D01*
X16740738Y-12154500D01*
X16750262Y-12164024D01*
X16759786Y-12183071D01*
X16769309Y-12221167D01*
X16769309Y-12268786D01*
X16759786Y-12306881D01*
X16750262Y-12325928D01*
X16740738Y-12335452D01*
X16721690Y-12344976D01*
X16702643Y-12344976D01*
X16683595Y-12335452D01*
X16674071Y-12325928D01*
X16664548Y-12306881D01*
X16655024Y-12268786D01*
X16655024Y-12221167D01*
X16664548Y-12183071D01*
X16674071Y-12164024D01*
X16683595Y-12154500D01*
X16702643Y-12144976D01*
X16893119Y-12144976D02*
X16912167Y-12144976D01*
X16931214Y-12154500D01*
X16940738Y-12164024D01*
X16950262Y-12183071D01*
X16959786Y-12221167D01*
X16959786Y-12268786D01*
X16950262Y-12306881D01*
X16940738Y-12325928D01*
X16931214Y-12335452D01*
X16912167Y-12344976D01*
X16893119Y-12344976D01*
X16874071Y-12335452D01*
X16864548Y-12325928D01*
X16855024Y-12306881D01*
X16845500Y-12268786D01*
X16845500Y-12221167D01*
X16855024Y-12183071D01*
X16864548Y-12164024D01*
X16874071Y-12154500D01*
X16893119Y-12144976D01*
X17035976Y-12144976D02*
X17035976Y-12183071D01*
X17112167Y-12144976D02*
X17112167Y-12183071D01*
X17407405Y-12421167D02*
X17397881Y-12411643D01*
X17378833Y-12383071D01*
X17369310Y-12364024D01*
X17359786Y-12335452D01*
X17350262Y-12287833D01*
X17350262Y-12249738D01*
X17359786Y-12202119D01*
X17369310Y-12173548D01*
X17378833Y-12154500D01*
X17397881Y-12125928D01*
X17407405Y-12116405D01*
X17464548Y-12144976D02*
X17588357Y-12144976D01*
X17521690Y-12221167D01*
X17550262Y-12221167D01*
X17569310Y-12230690D01*
X17578833Y-12240214D01*
X17588357Y-12259262D01*
X17588357Y-12306881D01*
X17578833Y-12325928D01*
X17569310Y-12335452D01*
X17550262Y-12344976D01*
X17493119Y-12344976D01*
X17474071Y-12335452D01*
X17464548Y-12325928D01*
X17702643Y-12230690D02*
X17683595Y-12221167D01*
X17674071Y-12211643D01*
X17664548Y-12192595D01*
X17664548Y-12183071D01*
X17674071Y-12164024D01*
X17683595Y-12154500D01*
X17702643Y-12144976D01*
X17740738Y-12144976D01*
X17759786Y-12154500D01*
X17769310Y-12164024D01*
X17778833Y-12183071D01*
X17778833Y-12192595D01*
X17769310Y-12211643D01*
X17759786Y-12221167D01*
X17740738Y-12230690D01*
X17702643Y-12230690D01*
X17683595Y-12240214D01*
X17674071Y-12249738D01*
X17664548Y-12268786D01*
X17664548Y-12306881D01*
X17674071Y-12325928D01*
X17683595Y-12335452D01*
X17702643Y-12344976D01*
X17740738Y-12344976D01*
X17759786Y-12335452D01*
X17769310Y-12325928D01*
X17778833Y-12306881D01*
X17778833Y-12268786D01*
X17769310Y-12249738D01*
X17759786Y-12240214D01*
X17740738Y-12230690D01*
X18016929Y-12344976D02*
X18016929Y-12144976D01*
X18102643Y-12344976D02*
X18102643Y-12240214D01*
X18093119Y-12221167D01*
X18074071Y-12211643D01*
X18045500Y-12211643D01*
X18026452Y-12221167D01*
X18016929Y-12230690D01*
X18226452Y-12344976D02*
X18207405Y-12335452D01*
X18197881Y-12325928D01*
X18188357Y-12306881D01*
X18188357Y-12249738D01*
X18197881Y-12230690D01*
X18207405Y-12221167D01*
X18226452Y-12211643D01*
X18255024Y-12211643D01*
X18274071Y-12221167D01*
X18283595Y-12230690D01*
X18293119Y-12249738D01*
X18293119Y-12306881D01*
X18283595Y-12325928D01*
X18274071Y-12335452D01*
X18255024Y-12344976D01*
X18226452Y-12344976D01*
X18407405Y-12344976D02*
X18388357Y-12335452D01*
X18378833Y-12316405D01*
X18378833Y-12144976D01*
X18559786Y-12335452D02*
X18540738Y-12344976D01*
X18502643Y-12344976D01*
X18483595Y-12335452D01*
X18474071Y-12316405D01*
X18474071Y-12240214D01*
X18483595Y-12221167D01*
X18502643Y-12211643D01*
X18540738Y-12211643D01*
X18559786Y-12221167D01*
X18569310Y-12240214D01*
X18569310Y-12259262D01*
X18474071Y-12278309D01*
X18645500Y-12335452D02*
X18664548Y-12344976D01*
X18702643Y-12344976D01*
X18721690Y-12335452D01*
X18731214Y-12316405D01*
X18731214Y-12306881D01*
X18721690Y-12287833D01*
X18702643Y-12278309D01*
X18674071Y-12278309D01*
X18655024Y-12268786D01*
X18645500Y-12249738D01*
X18645500Y-12240214D01*
X18655024Y-12221167D01*
X18674071Y-12211643D01*
X18702643Y-12211643D01*
X18721690Y-12221167D01*
X18797881Y-12421167D02*
X18807405Y-12411643D01*
X18826452Y-12383071D01*
X18835976Y-12364024D01*
X18845500Y-12335452D01*
X18855024Y-12287833D01*
X18855024Y-12249738D01*
X18845500Y-12202119D01*
X18835976Y-12173548D01*
X18826452Y-12154500D01*
X18807405Y-12125928D01*
X18797881Y-12116405D01*
D17*
X13725500Y-12463500D02*
X13835500Y-12573500D01*
X13835500Y-12463500D02*
X13725500Y-12573500D01*
X13780500Y-12463500D02*
X13780500Y-12573500D01*
X13725500Y-12518500D02*
X13835500Y-12518500D01*
D10*
X14197881Y-12608976D02*
X14083595Y-12608976D01*
X14140738Y-12608976D02*
X14140738Y-12408976D01*
X14121690Y-12437548D01*
X14102643Y-12456595D01*
X14083595Y-12466119D01*
X14283595Y-12589928D02*
X14293119Y-12599452D01*
X14283595Y-12608976D01*
X14274071Y-12599452D01*
X14283595Y-12589928D01*
X14283595Y-12608976D01*
X14483595Y-12608976D02*
X14369309Y-12608976D01*
X14426452Y-12608976D02*
X14426452Y-12408976D01*
X14407405Y-12437548D01*
X14388357Y-12456595D01*
X14369309Y-12466119D01*
X14607405Y-12408976D02*
X14626452Y-12408976D01*
X14645500Y-12418500D01*
X14655024Y-12428024D01*
X14664548Y-12447071D01*
X14674071Y-12485167D01*
X14674071Y-12532786D01*
X14664548Y-12570881D01*
X14655024Y-12589928D01*
X14645500Y-12599452D01*
X14626452Y-12608976D01*
X14607405Y-12608976D01*
X14588357Y-12599452D01*
X14578833Y-12589928D01*
X14569309Y-12570881D01*
X14559786Y-12532786D01*
X14559786Y-12485167D01*
X14569309Y-12447071D01*
X14578833Y-12428024D01*
X14588357Y-12418500D01*
X14607405Y-12408976D01*
X14797881Y-12408976D02*
X14816928Y-12408976D01*
X14835976Y-12418500D01*
X14845500Y-12428024D01*
X14855024Y-12447071D01*
X14864548Y-12485167D01*
X14864548Y-12532786D01*
X14855024Y-12570881D01*
X14845500Y-12589928D01*
X14835976Y-12599452D01*
X14816928Y-12608976D01*
X14797881Y-12608976D01*
X14778833Y-12599452D01*
X14769309Y-12589928D01*
X14759786Y-12570881D01*
X14750262Y-12532786D01*
X14750262Y-12485167D01*
X14759786Y-12447071D01*
X14769309Y-12428024D01*
X14778833Y-12418500D01*
X14797881Y-12408976D01*
X14950262Y-12608976D02*
X14950262Y-12475643D01*
X14950262Y-12494690D02*
X14959786Y-12485167D01*
X14978833Y-12475643D01*
X15007405Y-12475643D01*
X15026452Y-12485167D01*
X15035976Y-12504214D01*
X15035976Y-12608976D01*
X15035976Y-12504214D02*
X15045500Y-12485167D01*
X15064548Y-12475643D01*
X15093119Y-12475643D01*
X15112167Y-12485167D01*
X15121690Y-12504214D01*
X15121690Y-12608976D01*
X15216928Y-12608976D02*
X15216928Y-12475643D01*
X15216928Y-12494690D02*
X15226452Y-12485167D01*
X15245500Y-12475643D01*
X15274071Y-12475643D01*
X15293119Y-12485167D01*
X15302643Y-12504214D01*
X15302643Y-12608976D01*
X15302643Y-12504214D02*
X15312167Y-12485167D01*
X15331214Y-12475643D01*
X15359786Y-12475643D01*
X15378833Y-12485167D01*
X15388357Y-12504214D01*
X15388357Y-12608976D01*
X15778833Y-12399452D02*
X15607405Y-12656595D01*
X16035976Y-12408976D02*
X16055024Y-12408976D01*
X16074071Y-12418500D01*
X16083595Y-12428024D01*
X16093119Y-12447071D01*
X16102643Y-12485167D01*
X16102643Y-12532786D01*
X16093119Y-12570881D01*
X16083595Y-12589928D01*
X16074071Y-12599452D01*
X16055024Y-12608976D01*
X16035976Y-12608976D01*
X16016928Y-12599452D01*
X16007405Y-12589928D01*
X15997881Y-12570881D01*
X15988357Y-12532786D01*
X15988357Y-12485167D01*
X15997881Y-12447071D01*
X16007405Y-12428024D01*
X16016928Y-12418500D01*
X16035976Y-12408976D01*
X16188357Y-12589928D02*
X16197881Y-12599452D01*
X16188357Y-12608976D01*
X16178833Y-12599452D01*
X16188357Y-12589928D01*
X16188357Y-12608976D01*
X16321690Y-12408976D02*
X16340738Y-12408976D01*
X16359786Y-12418500D01*
X16369309Y-12428024D01*
X16378833Y-12447071D01*
X16388357Y-12485167D01*
X16388357Y-12532786D01*
X16378833Y-12570881D01*
X16369309Y-12589928D01*
X16359786Y-12599452D01*
X16340738Y-12608976D01*
X16321690Y-12608976D01*
X16302643Y-12599452D01*
X16293119Y-12589928D01*
X16283595Y-12570881D01*
X16274071Y-12532786D01*
X16274071Y-12485167D01*
X16283595Y-12447071D01*
X16293119Y-12428024D01*
X16302643Y-12418500D01*
X16321690Y-12408976D01*
X16559786Y-12475643D02*
X16559786Y-12608976D01*
X16512167Y-12399452D02*
X16464548Y-12542309D01*
X16588357Y-12542309D01*
X16645500Y-12408976D02*
X16769309Y-12408976D01*
X16702643Y-12485167D01*
X16731214Y-12485167D01*
X16750262Y-12494690D01*
X16759786Y-12504214D01*
X16769309Y-12523262D01*
X16769309Y-12570881D01*
X16759786Y-12589928D01*
X16750262Y-12599452D01*
X16731214Y-12608976D01*
X16674071Y-12608976D01*
X16655024Y-12599452D01*
X16645500Y-12589928D01*
X16835976Y-12408976D02*
X16959786Y-12408976D01*
X16893119Y-12485167D01*
X16921690Y-12485167D01*
X16940738Y-12494690D01*
X16950262Y-12504214D01*
X16959786Y-12523262D01*
X16959786Y-12570881D01*
X16950262Y-12589928D01*
X16940738Y-12599452D01*
X16921690Y-12608976D01*
X16864548Y-12608976D01*
X16845500Y-12599452D01*
X16835976Y-12589928D01*
X17035976Y-12408976D02*
X17035976Y-12447071D01*
X17112167Y-12408976D02*
X17112167Y-12447071D01*
X17407405Y-12685167D02*
X17397881Y-12675643D01*
X17378833Y-12647071D01*
X17369310Y-12628024D01*
X17359786Y-12599452D01*
X17350262Y-12551833D01*
X17350262Y-12513738D01*
X17359786Y-12466119D01*
X17369310Y-12437548D01*
X17378833Y-12418500D01*
X17397881Y-12389928D01*
X17407405Y-12380405D01*
X17493119Y-12608976D02*
X17531214Y-12608976D01*
X17550262Y-12599452D01*
X17559786Y-12589928D01*
X17578833Y-12561357D01*
X17588357Y-12523262D01*
X17588357Y-12447071D01*
X17578833Y-12428024D01*
X17569310Y-12418500D01*
X17550262Y-12408976D01*
X17512167Y-12408976D01*
X17493119Y-12418500D01*
X17483595Y-12428024D01*
X17474071Y-12447071D01*
X17474071Y-12494690D01*
X17483595Y-12513738D01*
X17493119Y-12523262D01*
X17512167Y-12532786D01*
X17550262Y-12532786D01*
X17569310Y-12523262D01*
X17578833Y-12513738D01*
X17588357Y-12494690D01*
X17826452Y-12608976D02*
X17826452Y-12408976D01*
X17912167Y-12608976D02*
X17912167Y-12504214D01*
X17902643Y-12485167D01*
X17883595Y-12475643D01*
X17855024Y-12475643D01*
X17835976Y-12485167D01*
X17826452Y-12494690D01*
X18035976Y-12608976D02*
X18016929Y-12599452D01*
X18007405Y-12589928D01*
X17997881Y-12570881D01*
X17997881Y-12513738D01*
X18007405Y-12494690D01*
X18016929Y-12485167D01*
X18035976Y-12475643D01*
X18064548Y-12475643D01*
X18083595Y-12485167D01*
X18093119Y-12494690D01*
X18102643Y-12513738D01*
X18102643Y-12570881D01*
X18093119Y-12589928D01*
X18083595Y-12599452D01*
X18064548Y-12608976D01*
X18035976Y-12608976D01*
X18216929Y-12608976D02*
X18197881Y-12599452D01*
X18188357Y-12580405D01*
X18188357Y-12408976D01*
X18369310Y-12599452D02*
X18350262Y-12608976D01*
X18312167Y-12608976D01*
X18293119Y-12599452D01*
X18283595Y-12580405D01*
X18283595Y-12504214D01*
X18293119Y-12485167D01*
X18312167Y-12475643D01*
X18350262Y-12475643D01*
X18369310Y-12485167D01*
X18378833Y-12504214D01*
X18378833Y-12523262D01*
X18283595Y-12542309D01*
X18455024Y-12599452D02*
X18474071Y-12608976D01*
X18512167Y-12608976D01*
X18531214Y-12599452D01*
X18540738Y-12580405D01*
X18540738Y-12570881D01*
X18531214Y-12551833D01*
X18512167Y-12542309D01*
X18483595Y-12542309D01*
X18464548Y-12532786D01*
X18455024Y-12513738D01*
X18455024Y-12504214D01*
X18464548Y-12485167D01*
X18483595Y-12475643D01*
X18512167Y-12475643D01*
X18531214Y-12485167D01*
X18607405Y-12685167D02*
X18616929Y-12675643D01*
X18635976Y-12647071D01*
X18645500Y-12628024D01*
X18655024Y-12599452D01*
X18664548Y-12551833D01*
X18664548Y-12513738D01*
X18655024Y-12466119D01*
X18645500Y-12437548D01*
X18635976Y-12418500D01*
X18616929Y-12389928D01*
X18607405Y-12380405D01*
X13635500Y-12682500D02*
X13835500Y-12882500D01*
X13835500Y-12682500D02*
X13635500Y-12882500D01*
X13806211Y-12853211D02*
X13806211Y-12711789D01*
X13664789Y-12711789D01*
X13664789Y-12853211D01*
X13806211Y-12853211D01*
X14074071Y-12672976D02*
X14197881Y-12672976D01*
X14131214Y-12749167D01*
X14159786Y-12749167D01*
X14178833Y-12758690D01*
X14188357Y-12768214D01*
X14197881Y-12787262D01*
X14197881Y-12834881D01*
X14188357Y-12853928D01*
X14178833Y-12863452D01*
X14159786Y-12872976D01*
X14102643Y-12872976D01*
X14083595Y-12863452D01*
X14074071Y-12853928D01*
X14283595Y-12853928D02*
X14293119Y-12863452D01*
X14283595Y-12872976D01*
X14274071Y-12863452D01*
X14283595Y-12853928D01*
X14283595Y-12872976D01*
X14369309Y-12692024D02*
X14378833Y-12682500D01*
X14397881Y-12672976D01*
X14445500Y-12672976D01*
X14464548Y-12682500D01*
X14474071Y-12692024D01*
X14483595Y-12711071D01*
X14483595Y-12730119D01*
X14474071Y-12758690D01*
X14359786Y-12872976D01*
X14483595Y-12872976D01*
X14607405Y-12672976D02*
X14626452Y-12672976D01*
X14645500Y-12682500D01*
X14655024Y-12692024D01*
X14664548Y-12711071D01*
X14674071Y-12749167D01*
X14674071Y-12796786D01*
X14664548Y-12834881D01*
X14655024Y-12853928D01*
X14645500Y-12863452D01*
X14626452Y-12872976D01*
X14607405Y-12872976D01*
X14588357Y-12863452D01*
X14578833Y-12853928D01*
X14569309Y-12834881D01*
X14559786Y-12796786D01*
X14559786Y-12749167D01*
X14569309Y-12711071D01*
X14578833Y-12692024D01*
X14588357Y-12682500D01*
X14607405Y-12672976D01*
X14797881Y-12672976D02*
X14816928Y-12672976D01*
X14835976Y-12682500D01*
X14845500Y-12692024D01*
X14855024Y-12711071D01*
X14864548Y-12749167D01*
X14864548Y-12796786D01*
X14855024Y-12834881D01*
X14845500Y-12853928D01*
X14835976Y-12863452D01*
X14816928Y-12872976D01*
X14797881Y-12872976D01*
X14778833Y-12863452D01*
X14769309Y-12853928D01*
X14759786Y-12834881D01*
X14750262Y-12796786D01*
X14750262Y-12749167D01*
X14759786Y-12711071D01*
X14769309Y-12692024D01*
X14778833Y-12682500D01*
X14797881Y-12672976D01*
X14950262Y-12872976D02*
X14950262Y-12739643D01*
X14950262Y-12758690D02*
X14959786Y-12749167D01*
X14978833Y-12739643D01*
X15007405Y-12739643D01*
X15026452Y-12749167D01*
X15035976Y-12768214D01*
X15035976Y-12872976D01*
X15035976Y-12768214D02*
X15045500Y-12749167D01*
X15064548Y-12739643D01*
X15093119Y-12739643D01*
X15112167Y-12749167D01*
X15121690Y-12768214D01*
X15121690Y-12872976D01*
X15216928Y-12872976D02*
X15216928Y-12739643D01*
X15216928Y-12758690D02*
X15226452Y-12749167D01*
X15245500Y-12739643D01*
X15274071Y-12739643D01*
X15293119Y-12749167D01*
X15302643Y-12768214D01*
X15302643Y-12872976D01*
X15302643Y-12768214D02*
X15312167Y-12749167D01*
X15331214Y-12739643D01*
X15359786Y-12739643D01*
X15378833Y-12749167D01*
X15388357Y-12768214D01*
X15388357Y-12872976D01*
X15778833Y-12663452D02*
X15607405Y-12920595D01*
X16035976Y-12672976D02*
X16055024Y-12672976D01*
X16074071Y-12682500D01*
X16083595Y-12692024D01*
X16093119Y-12711071D01*
X16102643Y-12749167D01*
X16102643Y-12796786D01*
X16093119Y-12834881D01*
X16083595Y-12853928D01*
X16074071Y-12863452D01*
X16055024Y-12872976D01*
X16035976Y-12872976D01*
X16016928Y-12863452D01*
X16007405Y-12853928D01*
X15997881Y-12834881D01*
X15988357Y-12796786D01*
X15988357Y-12749167D01*
X15997881Y-12711071D01*
X16007405Y-12692024D01*
X16016928Y-12682500D01*
X16035976Y-12672976D01*
X16188357Y-12853928D02*
X16197881Y-12863452D01*
X16188357Y-12872976D01*
X16178833Y-12863452D01*
X16188357Y-12853928D01*
X16188357Y-12872976D01*
X16388357Y-12872976D02*
X16274071Y-12872976D01*
X16331214Y-12872976D02*
X16331214Y-12672976D01*
X16312167Y-12701548D01*
X16293119Y-12720595D01*
X16274071Y-12730119D01*
X16464548Y-12692024D02*
X16474071Y-12682500D01*
X16493119Y-12672976D01*
X16540738Y-12672976D01*
X16559786Y-12682500D01*
X16569309Y-12692024D01*
X16578833Y-12711071D01*
X16578833Y-12730119D01*
X16569309Y-12758690D01*
X16455024Y-12872976D01*
X16578833Y-12872976D01*
X16750262Y-12672976D02*
X16712167Y-12672976D01*
X16693119Y-12682500D01*
X16683595Y-12692024D01*
X16664548Y-12720595D01*
X16655024Y-12758690D01*
X16655024Y-12834881D01*
X16664548Y-12853928D01*
X16674071Y-12863452D01*
X16693119Y-12872976D01*
X16731214Y-12872976D01*
X16750262Y-12863452D01*
X16759786Y-12853928D01*
X16769309Y-12834881D01*
X16769309Y-12787262D01*
X16759786Y-12768214D01*
X16750262Y-12758690D01*
X16731214Y-12749167D01*
X16693119Y-12749167D01*
X16674071Y-12758690D01*
X16664548Y-12768214D01*
X16655024Y-12787262D01*
X16893119Y-12672976D02*
X16912167Y-12672976D01*
X16931214Y-12682500D01*
X16940738Y-12692024D01*
X16950262Y-12711071D01*
X16959786Y-12749167D01*
X16959786Y-12796786D01*
X16950262Y-12834881D01*
X16940738Y-12853928D01*
X16931214Y-12863452D01*
X16912167Y-12872976D01*
X16893119Y-12872976D01*
X16874071Y-12863452D01*
X16864548Y-12853928D01*
X16855024Y-12834881D01*
X16845500Y-12796786D01*
X16845500Y-12749167D01*
X16855024Y-12711071D01*
X16864548Y-12692024D01*
X16874071Y-12682500D01*
X16893119Y-12672976D01*
X17035976Y-12672976D02*
X17035976Y-12711071D01*
X17112167Y-12672976D02*
X17112167Y-12711071D01*
X17407405Y-12949167D02*
X17397881Y-12939643D01*
X17378833Y-12911071D01*
X17369310Y-12892024D01*
X17359786Y-12863452D01*
X17350262Y-12815833D01*
X17350262Y-12777738D01*
X17359786Y-12730119D01*
X17369310Y-12701548D01*
X17378833Y-12682500D01*
X17397881Y-12653928D01*
X17407405Y-12644405D01*
X17474071Y-12692024D02*
X17483595Y-12682500D01*
X17502643Y-12672976D01*
X17550262Y-12672976D01*
X17569310Y-12682500D01*
X17578833Y-12692024D01*
X17588357Y-12711071D01*
X17588357Y-12730119D01*
X17578833Y-12758690D01*
X17464548Y-12872976D01*
X17588357Y-12872976D01*
X17826452Y-12872976D02*
X17826452Y-12672976D01*
X17912167Y-12872976D02*
X17912167Y-12768214D01*
X17902643Y-12749167D01*
X17883595Y-12739643D01*
X17855024Y-12739643D01*
X17835976Y-12749167D01*
X17826452Y-12758690D01*
X18035976Y-12872976D02*
X18016929Y-12863452D01*
X18007405Y-12853928D01*
X17997881Y-12834881D01*
X17997881Y-12777738D01*
X18007405Y-12758690D01*
X18016929Y-12749167D01*
X18035976Y-12739643D01*
X18064548Y-12739643D01*
X18083595Y-12749167D01*
X18093119Y-12758690D01*
X18102643Y-12777738D01*
X18102643Y-12834881D01*
X18093119Y-12853928D01*
X18083595Y-12863452D01*
X18064548Y-12872976D01*
X18035976Y-12872976D01*
X18216929Y-12872976D02*
X18197881Y-12863452D01*
X18188357Y-12844405D01*
X18188357Y-12672976D01*
X18369310Y-12863452D02*
X18350262Y-12872976D01*
X18312167Y-12872976D01*
X18293119Y-12863452D01*
X18283595Y-12844405D01*
X18283595Y-12768214D01*
X18293119Y-12749167D01*
X18312167Y-12739643D01*
X18350262Y-12739643D01*
X18369310Y-12749167D01*
X18378833Y-12768214D01*
X18378833Y-12787262D01*
X18283595Y-12806309D01*
X18455024Y-12863452D02*
X18474071Y-12872976D01*
X18512167Y-12872976D01*
X18531214Y-12863452D01*
X18540738Y-12844405D01*
X18540738Y-12834881D01*
X18531214Y-12815833D01*
X18512167Y-12806309D01*
X18483595Y-12806309D01*
X18464548Y-12796786D01*
X18455024Y-12777738D01*
X18455024Y-12768214D01*
X18464548Y-12749167D01*
X18483595Y-12739643D01*
X18512167Y-12739643D01*
X18531214Y-12749167D01*
X18607405Y-12949167D02*
X18616929Y-12939643D01*
X18635976Y-12911071D01*
X18645500Y-12892024D01*
X18655024Y-12863452D01*
X18664548Y-12815833D01*
X18664548Y-12777738D01*
X18655024Y-12730119D01*
X18645500Y-12701548D01*
X18635976Y-12682500D01*
X18616929Y-12653928D01*
X18607405Y-12644405D01*
M02*
