G04 #@! TF.GenerationSoftware,KiCad,Pcbnew,6.0.2+dfsg-1*
G04 #@! TF.CreationDate,2022-11-01T12:37:25+01:00*
G04 #@! TF.ProjectId,birnduino,6269726e-6475-4696-9e6f-2e6b69636164,rev?*
G04 #@! TF.SameCoordinates,Original*
G04 #@! TF.FileFunction,Legend,Top*
G04 #@! TF.FilePolarity,Positive*
%FSLAX46Y46*%
G04 Gerber Fmt 4.6, Leading zero omitted, Abs format (unit mm)*
G04 Created by KiCad (PCBNEW 6.0.2+dfsg-1) date 2022-11-01 12:37:25*
%MOMM*%
%LPD*%
G01*
G04 APERTURE LIST*
G04 Aperture macros list*
%AMRoundRect*
0 Rectangle with rounded corners*
0 $1 Rounding radius*
0 $2 $3 $4 $5 $6 $7 $8 $9 X,Y pos of 4 corners*
0 Add a 4 corners polygon primitive as box body*
4,1,4,$2,$3,$4,$5,$6,$7,$8,$9,$2,$3,0*
0 Add four circle primitives for the rounded corners*
1,1,$1+$1,$2,$3*
1,1,$1+$1,$4,$5*
1,1,$1+$1,$6,$7*
1,1,$1+$1,$8,$9*
0 Add four rect primitives between the rounded corners*
20,1,$1+$1,$2,$3,$4,$5,0*
20,1,$1+$1,$4,$5,$6,$7,0*
20,1,$1+$1,$6,$7,$8,$9,0*
20,1,$1+$1,$8,$9,$2,$3,0*%
G04 Aperture macros list end*
%ADD10C,0.150000*%
%ADD11C,0.200000*%
%ADD12C,0.250000*%
%ADD13C,0.120000*%
%ADD14R,1.700000X1.700000*%
%ADD15O,1.700000X1.700000*%
%ADD16R,3.500000X3.500000*%
%ADD17RoundRect,0.750000X-0.750000X-1.000000X0.750000X-1.000000X0.750000X1.000000X-0.750000X1.000000X0*%
%ADD18RoundRect,0.875000X-0.875000X-0.875000X0.875000X-0.875000X0.875000X0.875000X-0.875000X0.875000X0*%
%ADD19C,1.600000*%
%ADD20O,1.600000X1.600000*%
%ADD21R,1.050000X1.500000*%
%ADD22O,1.050000X1.500000*%
%ADD23R,1.800000X1.800000*%
%ADD24C,1.800000*%
%ADD25O,3.500000X3.500000*%
%ADD26R,1.905000X2.000000*%
%ADD27O,1.905000X2.000000*%
%ADD28R,1.600000X1.600000*%
%ADD29C,4.000000*%
%ADD30R,2.200000X2.200000*%
%ADD31O,2.200000X2.200000*%
%ADD32C,2.000000*%
%ADD33C,1.500000*%
G04 APERTURE END LIST*
D10*
X167487619Y-54336904D02*
X167030476Y-54336904D01*
X167259047Y-54336904D02*
X167259047Y-53536904D01*
X167182857Y-53651190D01*
X167106666Y-53727380D01*
X167030476Y-53765476D01*
X167754285Y-53536904D02*
X168249523Y-53536904D01*
X167982857Y-53841666D01*
X168097142Y-53841666D01*
X168173333Y-53879761D01*
X168211428Y-53917857D01*
X168249523Y-53994047D01*
X168249523Y-54184523D01*
X168211428Y-54260714D01*
X168173333Y-54298809D01*
X168097142Y-54336904D01*
X167868571Y-54336904D01*
X167792380Y-54298809D01*
X167754285Y-54260714D01*
X175107619Y-54336904D02*
X174650476Y-54336904D01*
X174879047Y-54336904D02*
X174879047Y-53536904D01*
X174802857Y-53651190D01*
X174726666Y-53727380D01*
X174650476Y-53765476D01*
X175602857Y-53536904D02*
X175679047Y-53536904D01*
X175755238Y-53575000D01*
X175793333Y-53613095D01*
X175831428Y-53689285D01*
X175869523Y-53841666D01*
X175869523Y-54032142D01*
X175831428Y-54184523D01*
X175793333Y-54260714D01*
X175755238Y-54298809D01*
X175679047Y-54336904D01*
X175602857Y-54336904D01*
X175526666Y-54298809D01*
X175488571Y-54260714D01*
X175450476Y-54184523D01*
X175412380Y-54032142D01*
X175412380Y-53841666D01*
X175450476Y-53689285D01*
X175488571Y-53613095D01*
X175526666Y-53575000D01*
X175602857Y-53536904D01*
X179749523Y-54336904D02*
X179749523Y-53536904D01*
X179940000Y-53536904D01*
X180054285Y-53575000D01*
X180130476Y-53651190D01*
X180168571Y-53727380D01*
X180206666Y-53879761D01*
X180206666Y-53994047D01*
X180168571Y-54146428D01*
X180130476Y-54222619D01*
X180054285Y-54298809D01*
X179940000Y-54336904D01*
X179749523Y-54336904D01*
X180663809Y-53879761D02*
X180587619Y-53841666D01*
X180549523Y-53803571D01*
X180511428Y-53727380D01*
X180511428Y-53689285D01*
X180549523Y-53613095D01*
X180587619Y-53575000D01*
X180663809Y-53536904D01*
X180816190Y-53536904D01*
X180892380Y-53575000D01*
X180930476Y-53613095D01*
X180968571Y-53689285D01*
X180968571Y-53727380D01*
X180930476Y-53803571D01*
X180892380Y-53841666D01*
X180816190Y-53879761D01*
X180663809Y-53879761D01*
X180587619Y-53917857D01*
X180549523Y-53955952D01*
X180511428Y-54032142D01*
X180511428Y-54184523D01*
X180549523Y-54260714D01*
X180587619Y-54298809D01*
X180663809Y-54336904D01*
X180816190Y-54336904D01*
X180892380Y-54298809D01*
X180930476Y-54260714D01*
X180968571Y-54184523D01*
X180968571Y-54032142D01*
X180930476Y-53955952D01*
X180892380Y-53917857D01*
X180816190Y-53879761D01*
X198951904Y-56002738D02*
X198951904Y-55545595D01*
X199751904Y-55774166D02*
X198951904Y-55774166D01*
X198951904Y-55355119D02*
X199751904Y-54821785D01*
X198951904Y-54821785D02*
X199751904Y-55355119D01*
D11*
X174170714Y-76087285D02*
X174342142Y-76144428D01*
X174399285Y-76201571D01*
X174456428Y-76315857D01*
X174456428Y-76487285D01*
X174399285Y-76601571D01*
X174342142Y-76658714D01*
X174227857Y-76715857D01*
X173770714Y-76715857D01*
X173770714Y-75515857D01*
X174170714Y-75515857D01*
X174285000Y-75573000D01*
X174342142Y-75630142D01*
X174399285Y-75744428D01*
X174399285Y-75858714D01*
X174342142Y-75973000D01*
X174285000Y-76030142D01*
X174170714Y-76087285D01*
X173770714Y-76087285D01*
X174970714Y-76715857D02*
X174970714Y-75915857D01*
X174970714Y-75515857D02*
X174913571Y-75573000D01*
X174970714Y-75630142D01*
X175027857Y-75573000D01*
X174970714Y-75515857D01*
X174970714Y-75630142D01*
X175542142Y-76715857D02*
X175542142Y-75915857D01*
X175542142Y-76144428D02*
X175599285Y-76030142D01*
X175656428Y-75973000D01*
X175770714Y-75915857D01*
X175885000Y-75915857D01*
X176285000Y-75915857D02*
X176285000Y-76715857D01*
X176285000Y-76030142D02*
X176342142Y-75973000D01*
X176456428Y-75915857D01*
X176627857Y-75915857D01*
X176742142Y-75973000D01*
X176799285Y-76087285D01*
X176799285Y-76715857D01*
X177885000Y-76715857D02*
X177885000Y-75515857D01*
X177885000Y-76658714D02*
X177770714Y-76715857D01*
X177542142Y-76715857D01*
X177427857Y-76658714D01*
X177370714Y-76601571D01*
X177313571Y-76487285D01*
X177313571Y-76144428D01*
X177370714Y-76030142D01*
X177427857Y-75973000D01*
X177542142Y-75915857D01*
X177770714Y-75915857D01*
X177885000Y-75973000D01*
X178970714Y-75915857D02*
X178970714Y-76715857D01*
X178456428Y-75915857D02*
X178456428Y-76544428D01*
X178513571Y-76658714D01*
X178627857Y-76715857D01*
X178799285Y-76715857D01*
X178913571Y-76658714D01*
X178970714Y-76601571D01*
X179542142Y-76715857D02*
X179542142Y-75915857D01*
X179542142Y-75515857D02*
X179485000Y-75573000D01*
X179542142Y-75630142D01*
X179599285Y-75573000D01*
X179542142Y-75515857D01*
X179542142Y-75630142D01*
X180113571Y-75915857D02*
X180113571Y-76715857D01*
X180113571Y-76030142D02*
X180170714Y-75973000D01*
X180285000Y-75915857D01*
X180456428Y-75915857D01*
X180570714Y-75973000D01*
X180627857Y-76087285D01*
X180627857Y-76715857D01*
X181370714Y-76715857D02*
X181256428Y-76658714D01*
X181199285Y-76601571D01*
X181142142Y-76487285D01*
X181142142Y-76144428D01*
X181199285Y-76030142D01*
X181256428Y-75973000D01*
X181370714Y-75915857D01*
X181542142Y-75915857D01*
X181656428Y-75973000D01*
X181713571Y-76030142D01*
X181770714Y-76144428D01*
X181770714Y-76487285D01*
X181713571Y-76601571D01*
X181656428Y-76658714D01*
X181542142Y-76715857D01*
X181370714Y-76715857D01*
X173713571Y-78590714D02*
X173827857Y-78647857D01*
X174056428Y-78647857D01*
X174170714Y-78590714D01*
X174227857Y-78476428D01*
X174227857Y-78419285D01*
X174170714Y-78305000D01*
X174056428Y-78247857D01*
X173885000Y-78247857D01*
X173770714Y-78190714D01*
X173713571Y-78076428D01*
X173713571Y-78019285D01*
X173770714Y-77905000D01*
X173885000Y-77847857D01*
X174056428Y-77847857D01*
X174170714Y-77905000D01*
X175199285Y-78590714D02*
X175085000Y-78647857D01*
X174856428Y-78647857D01*
X174742142Y-78590714D01*
X174685000Y-78476428D01*
X174685000Y-78019285D01*
X174742142Y-77905000D01*
X174856428Y-77847857D01*
X175085000Y-77847857D01*
X175199285Y-77905000D01*
X175256428Y-78019285D01*
X175256428Y-78133571D01*
X174685000Y-78247857D01*
X175770714Y-78647857D02*
X175770714Y-77847857D01*
X175770714Y-78076428D02*
X175827857Y-77962142D01*
X175885000Y-77905000D01*
X175999285Y-77847857D01*
X176113571Y-77847857D01*
X176513571Y-78647857D02*
X176513571Y-77847857D01*
X176513571Y-77447857D02*
X176456428Y-77505000D01*
X176513571Y-77562142D01*
X176570714Y-77505000D01*
X176513571Y-77447857D01*
X176513571Y-77562142D01*
X177599285Y-78647857D02*
X177599285Y-78019285D01*
X177542142Y-77905000D01*
X177427857Y-77847857D01*
X177199285Y-77847857D01*
X177085000Y-77905000D01*
X177599285Y-78590714D02*
X177485000Y-78647857D01*
X177199285Y-78647857D01*
X177085000Y-78590714D01*
X177027857Y-78476428D01*
X177027857Y-78362142D01*
X177085000Y-78247857D01*
X177199285Y-78190714D01*
X177485000Y-78190714D01*
X177599285Y-78133571D01*
X178342142Y-78647857D02*
X178227857Y-78590714D01*
X178170714Y-78476428D01*
X178170714Y-77447857D01*
X179599285Y-77847857D02*
X179885000Y-78647857D01*
X180170714Y-77847857D01*
X181256428Y-78647857D02*
X180570714Y-78647857D01*
X180913571Y-78647857D02*
X180913571Y-77447857D01*
X180799285Y-77619285D01*
X180685000Y-77733571D01*
X180570714Y-77790714D01*
X181770714Y-78533571D02*
X181827857Y-78590714D01*
X181770714Y-78647857D01*
X181713571Y-78590714D01*
X181770714Y-78533571D01*
X181770714Y-78647857D01*
X182570714Y-77447857D02*
X182685000Y-77447857D01*
X182799285Y-77505000D01*
X182856428Y-77562142D01*
X182913571Y-77676428D01*
X182970714Y-77905000D01*
X182970714Y-78190714D01*
X182913571Y-78419285D01*
X182856428Y-78533571D01*
X182799285Y-78590714D01*
X182685000Y-78647857D01*
X182570714Y-78647857D01*
X182456428Y-78590714D01*
X182399285Y-78533571D01*
X182342142Y-78419285D01*
X182285000Y-78190714D01*
X182285000Y-77905000D01*
X182342142Y-77676428D01*
X182399285Y-77562142D01*
X182456428Y-77505000D01*
X182570714Y-77447857D01*
X174113571Y-81037000D02*
X174056428Y-80979857D01*
X173942142Y-80808428D01*
X173885000Y-80694142D01*
X173827857Y-80522714D01*
X173770714Y-80237000D01*
X173770714Y-80008428D01*
X173827857Y-79722714D01*
X173885000Y-79551285D01*
X173942142Y-79437000D01*
X174056428Y-79265571D01*
X174113571Y-79208428D01*
X175085000Y-80522714D02*
X174970714Y-80579857D01*
X174742142Y-80579857D01*
X174627857Y-80522714D01*
X174570714Y-80465571D01*
X174513571Y-80351285D01*
X174513571Y-80008428D01*
X174570714Y-79894142D01*
X174627857Y-79837000D01*
X174742142Y-79779857D01*
X174970714Y-79779857D01*
X175085000Y-79837000D01*
X175485000Y-81037000D02*
X175542142Y-80979857D01*
X175656428Y-80808428D01*
X175713571Y-80694142D01*
X175770714Y-80522714D01*
X175827857Y-80237000D01*
X175827857Y-80008428D01*
X175770714Y-79722714D01*
X175713571Y-79551285D01*
X175656428Y-79437000D01*
X175542142Y-79265571D01*
X175485000Y-79208428D01*
X177256428Y-79494142D02*
X177313571Y-79437000D01*
X177427857Y-79379857D01*
X177713571Y-79379857D01*
X177827857Y-79437000D01*
X177885000Y-79494142D01*
X177942142Y-79608428D01*
X177942142Y-79722714D01*
X177885000Y-79894142D01*
X177199285Y-80579857D01*
X177942142Y-80579857D01*
X178685000Y-79379857D02*
X178799285Y-79379857D01*
X178913571Y-79437000D01*
X178970714Y-79494142D01*
X179027857Y-79608428D01*
X179085000Y-79837000D01*
X179085000Y-80122714D01*
X179027857Y-80351285D01*
X178970714Y-80465571D01*
X178913571Y-80522714D01*
X178799285Y-80579857D01*
X178685000Y-80579857D01*
X178570714Y-80522714D01*
X178513571Y-80465571D01*
X178456428Y-80351285D01*
X178399285Y-80122714D01*
X178399285Y-79837000D01*
X178456428Y-79608428D01*
X178513571Y-79494142D01*
X178570714Y-79437000D01*
X178685000Y-79379857D01*
X179542142Y-79494142D02*
X179599285Y-79437000D01*
X179713571Y-79379857D01*
X179999285Y-79379857D01*
X180113571Y-79437000D01*
X180170714Y-79494142D01*
X180227857Y-79608428D01*
X180227857Y-79722714D01*
X180170714Y-79894142D01*
X179485000Y-80579857D01*
X180227857Y-80579857D01*
X180685000Y-79494142D02*
X180742142Y-79437000D01*
X180856428Y-79379857D01*
X181142142Y-79379857D01*
X181256428Y-79437000D01*
X181313571Y-79494142D01*
X181370714Y-79608428D01*
X181370714Y-79722714D01*
X181313571Y-79894142D01*
X180627857Y-80579857D01*
X181370714Y-80579857D01*
X182799285Y-80579857D02*
X182799285Y-79379857D01*
X182799285Y-79837000D02*
X182913571Y-79779857D01*
X183142142Y-79779857D01*
X183256428Y-79837000D01*
X183313571Y-79894142D01*
X183370714Y-80008428D01*
X183370714Y-80351285D01*
X183313571Y-80465571D01*
X183256428Y-80522714D01*
X183142142Y-80579857D01*
X182913571Y-80579857D01*
X182799285Y-80522714D01*
X183885000Y-80579857D02*
X183885000Y-79779857D01*
X183885000Y-79379857D02*
X183827857Y-79437000D01*
X183885000Y-79494142D01*
X183942142Y-79437000D01*
X183885000Y-79379857D01*
X183885000Y-79494142D01*
X184456428Y-80579857D02*
X184456428Y-79779857D01*
X184456428Y-80008428D02*
X184513571Y-79894142D01*
X184570714Y-79837000D01*
X184685000Y-79779857D01*
X184799285Y-79779857D01*
X185199285Y-79779857D02*
X185199285Y-80579857D01*
X185199285Y-79894142D02*
X185256428Y-79837000D01*
X185370714Y-79779857D01*
X185542142Y-79779857D01*
X185656428Y-79837000D01*
X185713571Y-79951285D01*
X185713571Y-80579857D01*
X186170714Y-79779857D02*
X186399285Y-80579857D01*
X186627857Y-80008428D01*
X186856428Y-80579857D01*
X187085000Y-79779857D01*
X187542142Y-80579857D02*
X187542142Y-79779857D01*
X187542142Y-79379857D02*
X187485000Y-79437000D01*
X187542142Y-79494142D01*
X187599285Y-79437000D01*
X187542142Y-79379857D01*
X187542142Y-79494142D01*
X188570714Y-80522714D02*
X188456428Y-80579857D01*
X188227857Y-80579857D01*
X188113571Y-80522714D01*
X188056428Y-80408428D01*
X188056428Y-79951285D01*
X188113571Y-79837000D01*
X188227857Y-79779857D01*
X188456428Y-79779857D01*
X188570714Y-79837000D01*
X188627857Y-79951285D01*
X188627857Y-80065571D01*
X188056428Y-80179857D01*
X189656428Y-80579857D02*
X189656428Y-79951285D01*
X189599285Y-79837000D01*
X189485000Y-79779857D01*
X189256428Y-79779857D01*
X189142142Y-79837000D01*
X189656428Y-80522714D02*
X189542142Y-80579857D01*
X189256428Y-80579857D01*
X189142142Y-80522714D01*
X189085000Y-80408428D01*
X189085000Y-80294142D01*
X189142142Y-80179857D01*
X189256428Y-80122714D01*
X189542142Y-80122714D01*
X189656428Y-80065571D01*
X190227857Y-79779857D02*
X190227857Y-80979857D01*
X190227857Y-79837000D02*
X190342142Y-79779857D01*
X190570714Y-79779857D01*
X190685000Y-79837000D01*
X190742142Y-79894142D01*
X190799285Y-80008428D01*
X190799285Y-80351285D01*
X190742142Y-80465571D01*
X190685000Y-80522714D01*
X190570714Y-80579857D01*
X190342142Y-80579857D01*
X190227857Y-80522714D01*
X191142142Y-79779857D02*
X191599285Y-79779857D01*
X191313571Y-80579857D02*
X191313571Y-79551285D01*
X191370714Y-79437000D01*
X191485000Y-79379857D01*
X191599285Y-79379857D01*
X192456428Y-80522714D02*
X192342142Y-80579857D01*
X192113571Y-80579857D01*
X191999285Y-80522714D01*
X191942142Y-80408428D01*
X191942142Y-79951285D01*
X191999285Y-79837000D01*
X192113571Y-79779857D01*
X192342142Y-79779857D01*
X192456428Y-79837000D01*
X192513571Y-79951285D01*
X192513571Y-80065571D01*
X191942142Y-80179857D01*
X193199285Y-80579857D02*
X193085000Y-80522714D01*
X193027857Y-80408428D01*
X193027857Y-79379857D01*
D10*
X162693333Y-56180357D02*
X162693333Y-55799404D01*
X162921904Y-56256547D02*
X162121904Y-55989880D01*
X162921904Y-55723214D01*
X162921904Y-54999404D02*
X162540952Y-55266071D01*
X162921904Y-55456547D02*
X162121904Y-55456547D01*
X162121904Y-55151785D01*
X162160000Y-55075595D01*
X162198095Y-55037500D01*
X162274285Y-54999404D01*
X162388571Y-54999404D01*
X162464761Y-55037500D01*
X162502857Y-55075595D01*
X162540952Y-55151785D01*
X162540952Y-55456547D01*
X162502857Y-54656547D02*
X162502857Y-54389880D01*
X162921904Y-54275595D02*
X162921904Y-54656547D01*
X162121904Y-54656547D01*
X162121904Y-54275595D01*
X162502857Y-53666071D02*
X162502857Y-53932738D01*
X162921904Y-53932738D02*
X162121904Y-53932738D01*
X162121904Y-53551785D01*
X183559523Y-54336904D02*
X183559523Y-53536904D01*
X183750000Y-53536904D01*
X183864285Y-53575000D01*
X183940476Y-53651190D01*
X183978571Y-53727380D01*
X184016666Y-53879761D01*
X184016666Y-53994047D01*
X183978571Y-54146428D01*
X183940476Y-54222619D01*
X183864285Y-54298809D01*
X183750000Y-54336904D01*
X183559523Y-54336904D01*
X184283333Y-53536904D02*
X184816666Y-53536904D01*
X184473809Y-54336904D01*
X197000000Y-98791071D02*
X197000000Y-98362500D01*
X197257142Y-98876785D02*
X196357142Y-98576785D01*
X197257142Y-98276785D01*
X196357142Y-98062500D02*
X196357142Y-97505357D01*
X196700000Y-97805357D01*
X196700000Y-97676785D01*
X196742857Y-97591071D01*
X196785714Y-97548214D01*
X196871428Y-97505357D01*
X197085714Y-97505357D01*
X197171428Y-97548214D01*
X197214285Y-97591071D01*
X197257142Y-97676785D01*
X197257142Y-97933928D01*
X197214285Y-98019642D01*
X197171428Y-98062500D01*
X194381428Y-55326547D02*
X194333809Y-55278928D01*
X194286190Y-55183690D01*
X194381428Y-54993214D01*
X194333809Y-54897976D01*
X194286190Y-54850357D01*
X199540000Y-98791071D02*
X199540000Y-98362500D01*
X199797142Y-98876785D02*
X198897142Y-98576785D01*
X199797142Y-98276785D01*
X199197142Y-97591071D02*
X199797142Y-97591071D01*
X198854285Y-97805357D02*
X199497142Y-98019642D01*
X199497142Y-97462500D01*
X198854285Y-96476785D02*
X200011428Y-97248214D01*
X199754285Y-96219642D02*
X199797142Y-96091071D01*
X199797142Y-95876785D01*
X199754285Y-95791071D01*
X199711428Y-95748214D01*
X199625714Y-95705357D01*
X199540000Y-95705357D01*
X199454285Y-95748214D01*
X199411428Y-95791071D01*
X199368571Y-95876785D01*
X199325714Y-96048214D01*
X199282857Y-96133928D01*
X199240000Y-96176785D01*
X199154285Y-96219642D01*
X199068571Y-96219642D01*
X198982857Y-96176785D01*
X198940000Y-96133928D01*
X198897142Y-96048214D01*
X198897142Y-95833928D01*
X198940000Y-95705357D01*
X199797142Y-95319642D02*
X198897142Y-95319642D01*
X198897142Y-95105357D01*
X198940000Y-94976785D01*
X199025714Y-94891071D01*
X199111428Y-94848214D01*
X199282857Y-94805357D01*
X199411428Y-94805357D01*
X199582857Y-94848214D01*
X199668571Y-94891071D01*
X199754285Y-94976785D01*
X199797142Y-95105357D01*
X199797142Y-95319642D01*
X199540000Y-94462500D02*
X199540000Y-94033928D01*
X199797142Y-94548214D02*
X198897142Y-94248214D01*
X199797142Y-93948214D01*
X191179523Y-54336904D02*
X191179523Y-53536904D01*
X191370000Y-53536904D01*
X191484285Y-53575000D01*
X191560476Y-53651190D01*
X191598571Y-53727380D01*
X191636666Y-53879761D01*
X191636666Y-53994047D01*
X191598571Y-54146428D01*
X191560476Y-54222619D01*
X191484285Y-54298809D01*
X191370000Y-54336904D01*
X191179523Y-54336904D01*
X192322380Y-53803571D02*
X192322380Y-54336904D01*
X192131904Y-53498809D02*
X191941428Y-54070238D01*
X192436666Y-54070238D01*
X202080000Y-98791071D02*
X202080000Y-98362500D01*
X202337142Y-98876785D02*
X201437142Y-98576785D01*
X202337142Y-98276785D01*
X201437142Y-97548214D02*
X201437142Y-97976785D01*
X201865714Y-98019642D01*
X201822857Y-97976785D01*
X201780000Y-97891071D01*
X201780000Y-97676785D01*
X201822857Y-97591071D01*
X201865714Y-97548214D01*
X201951428Y-97505357D01*
X202165714Y-97505357D01*
X202251428Y-97548214D01*
X202294285Y-97591071D01*
X202337142Y-97676785D01*
X202337142Y-97891071D01*
X202294285Y-97976785D01*
X202251428Y-98019642D01*
X201394285Y-96476785D02*
X202551428Y-97248214D01*
X202294285Y-96219642D02*
X202337142Y-96091071D01*
X202337142Y-95876785D01*
X202294285Y-95791071D01*
X202251428Y-95748214D01*
X202165714Y-95705357D01*
X202080000Y-95705357D01*
X201994285Y-95748214D01*
X201951428Y-95791071D01*
X201908571Y-95876785D01*
X201865714Y-96048214D01*
X201822857Y-96133928D01*
X201780000Y-96176785D01*
X201694285Y-96219642D01*
X201608571Y-96219642D01*
X201522857Y-96176785D01*
X201480000Y-96133928D01*
X201437142Y-96048214D01*
X201437142Y-95833928D01*
X201480000Y-95705357D01*
X202251428Y-94805357D02*
X202294285Y-94848214D01*
X202337142Y-94976785D01*
X202337142Y-95062500D01*
X202294285Y-95191071D01*
X202208571Y-95276785D01*
X202122857Y-95319642D01*
X201951428Y-95362500D01*
X201822857Y-95362500D01*
X201651428Y-95319642D01*
X201565714Y-95276785D01*
X201480000Y-95191071D01*
X201437142Y-95062500D01*
X201437142Y-94976785D01*
X201480000Y-94848214D01*
X201522857Y-94805357D01*
X202337142Y-93991071D02*
X202337142Y-94419642D01*
X201437142Y-94419642D01*
X175331428Y-55326547D02*
X175283809Y-55278928D01*
X175236190Y-55183690D01*
X175331428Y-54993214D01*
X175283809Y-54897976D01*
X175236190Y-54850357D01*
X201747380Y-70199285D02*
X201747380Y-70770714D01*
X201747380Y-70485000D02*
X200747380Y-70485000D01*
X200890238Y-70580238D01*
X200985476Y-70675476D01*
X201033095Y-70770714D01*
X169317142Y-98748214D02*
X168417142Y-98748214D01*
X168417142Y-98148214D02*
X168417142Y-97976785D01*
X168460000Y-97891071D01*
X168545714Y-97805357D01*
X168717142Y-97762500D01*
X169017142Y-97762500D01*
X169188571Y-97805357D01*
X169274285Y-97891071D01*
X169317142Y-97976785D01*
X169317142Y-98148214D01*
X169274285Y-98233928D01*
X169188571Y-98319642D01*
X169017142Y-98362500D01*
X168717142Y-98362500D01*
X168545714Y-98319642D01*
X168460000Y-98233928D01*
X168417142Y-98148214D01*
X169317142Y-97376785D02*
X168717142Y-97376785D01*
X168888571Y-97376785D02*
X168802857Y-97333928D01*
X168760000Y-97291071D01*
X168717142Y-97205357D01*
X168717142Y-97119642D01*
X169274285Y-96476785D02*
X169317142Y-96562500D01*
X169317142Y-96733928D01*
X169274285Y-96819642D01*
X169188571Y-96862500D01*
X168845714Y-96862500D01*
X168760000Y-96819642D01*
X168717142Y-96733928D01*
X168717142Y-96562500D01*
X168760000Y-96476785D01*
X168845714Y-96433928D01*
X168931428Y-96433928D01*
X169017142Y-96862500D01*
X168717142Y-96176785D02*
X168717142Y-95833928D01*
X169317142Y-96048214D02*
X168545714Y-96048214D01*
X168460000Y-96005357D01*
X168417142Y-95919642D01*
X168417142Y-95833928D01*
X196259523Y-54336904D02*
X196259523Y-53536904D01*
X196450000Y-53536904D01*
X196564285Y-53575000D01*
X196640476Y-53651190D01*
X196678571Y-53727380D01*
X196716666Y-53879761D01*
X196716666Y-53994047D01*
X196678571Y-54146428D01*
X196640476Y-54222619D01*
X196564285Y-54298809D01*
X196450000Y-54336904D01*
X196259523Y-54336904D01*
X197021428Y-53613095D02*
X197059523Y-53575000D01*
X197135714Y-53536904D01*
X197326190Y-53536904D01*
X197402380Y-53575000D01*
X197440476Y-53613095D01*
X197478571Y-53689285D01*
X197478571Y-53765476D01*
X197440476Y-53879761D01*
X196983333Y-54336904D01*
X197478571Y-54336904D01*
X188420952Y-85812380D02*
X188420952Y-86526666D01*
X188373333Y-86669523D01*
X188278095Y-86764761D01*
X188135238Y-86812380D01*
X188040000Y-86812380D01*
X189373333Y-86812380D02*
X188897142Y-86812380D01*
X188897142Y-85812380D01*
X190278095Y-86717142D02*
X190230476Y-86764761D01*
X190087619Y-86812380D01*
X189992380Y-86812380D01*
X189849523Y-86764761D01*
X189754285Y-86669523D01*
X189706666Y-86574285D01*
X189659047Y-86383809D01*
X189659047Y-86240952D01*
X189706666Y-86050476D01*
X189754285Y-85955238D01*
X189849523Y-85860000D01*
X189992380Y-85812380D01*
X190087619Y-85812380D01*
X190230476Y-85860000D01*
X190278095Y-85907619D01*
X190992380Y-85812380D02*
X190992380Y-86526666D01*
X190944761Y-86669523D01*
X190849523Y-86764761D01*
X190706666Y-86812380D01*
X190611428Y-86812380D01*
X191944761Y-86812380D02*
X191468571Y-86812380D01*
X191468571Y-85812380D01*
X192849523Y-86717142D02*
X192801904Y-86764761D01*
X192659047Y-86812380D01*
X192563809Y-86812380D01*
X192420952Y-86764761D01*
X192325714Y-86669523D01*
X192278095Y-86574285D01*
X192230476Y-86383809D01*
X192230476Y-86240952D01*
X192278095Y-86050476D01*
X192325714Y-85955238D01*
X192420952Y-85860000D01*
X192563809Y-85812380D01*
X192659047Y-85812380D01*
X192801904Y-85860000D01*
X192849523Y-85907619D01*
X193563809Y-85812380D02*
X193563809Y-86526666D01*
X193516190Y-86669523D01*
X193420952Y-86764761D01*
X193278095Y-86812380D01*
X193182857Y-86812380D01*
X194516190Y-86812380D02*
X194040000Y-86812380D01*
X194040000Y-85812380D01*
X195420952Y-86717142D02*
X195373333Y-86764761D01*
X195230476Y-86812380D01*
X195135238Y-86812380D01*
X194992380Y-86764761D01*
X194897142Y-86669523D01*
X194849523Y-86574285D01*
X194801904Y-86383809D01*
X194801904Y-86240952D01*
X194849523Y-86050476D01*
X194897142Y-85955238D01*
X194992380Y-85860000D01*
X195135238Y-85812380D01*
X195230476Y-85812380D01*
X195373333Y-85860000D01*
X195420952Y-85907619D01*
X196135238Y-85812380D02*
X196135238Y-86526666D01*
X196087619Y-86669523D01*
X195992380Y-86764761D01*
X195849523Y-86812380D01*
X195754285Y-86812380D01*
X197087619Y-86812380D02*
X196611428Y-86812380D01*
X196611428Y-85812380D01*
X197992380Y-86717142D02*
X197944761Y-86764761D01*
X197801904Y-86812380D01*
X197706666Y-86812380D01*
X197563809Y-86764761D01*
X197468571Y-86669523D01*
X197420952Y-86574285D01*
X197373333Y-86383809D01*
X197373333Y-86240952D01*
X197420952Y-86050476D01*
X197468571Y-85955238D01*
X197563809Y-85860000D01*
X197706666Y-85812380D01*
X197801904Y-85812380D01*
X197944761Y-85860000D01*
X197992380Y-85907619D01*
X173497142Y-98833928D02*
X173497142Y-98276785D01*
X173840000Y-98576785D01*
X173840000Y-98448214D01*
X173882857Y-98362500D01*
X173925714Y-98319642D01*
X174011428Y-98276785D01*
X174225714Y-98276785D01*
X174311428Y-98319642D01*
X174354285Y-98362500D01*
X174397142Y-98448214D01*
X174397142Y-98705357D01*
X174354285Y-98791071D01*
X174311428Y-98833928D01*
X174311428Y-97891071D02*
X174354285Y-97848214D01*
X174397142Y-97891071D01*
X174354285Y-97933928D01*
X174311428Y-97891071D01*
X174397142Y-97891071D01*
X173497142Y-97548214D02*
X173497142Y-96991071D01*
X173840000Y-97291071D01*
X173840000Y-97162500D01*
X173882857Y-97076785D01*
X173925714Y-97033928D01*
X174011428Y-96991071D01*
X174225714Y-96991071D01*
X174311428Y-97033928D01*
X174354285Y-97076785D01*
X174397142Y-97162500D01*
X174397142Y-97419642D01*
X174354285Y-97505357D01*
X174311428Y-97548214D01*
X173497142Y-96733928D02*
X174397142Y-96433928D01*
X173497142Y-96133928D01*
X177209523Y-54336904D02*
X177209523Y-53536904D01*
X177400000Y-53536904D01*
X177514285Y-53575000D01*
X177590476Y-53651190D01*
X177628571Y-53727380D01*
X177666666Y-53879761D01*
X177666666Y-53994047D01*
X177628571Y-54146428D01*
X177590476Y-54222619D01*
X177514285Y-54298809D01*
X177400000Y-54336904D01*
X177209523Y-54336904D01*
X178047619Y-54336904D02*
X178200000Y-54336904D01*
X178276190Y-54298809D01*
X178314285Y-54260714D01*
X178390476Y-54146428D01*
X178428571Y-53994047D01*
X178428571Y-53689285D01*
X178390476Y-53613095D01*
X178352380Y-53575000D01*
X178276190Y-53536904D01*
X178123809Y-53536904D01*
X178047619Y-53575000D01*
X178009523Y-53613095D01*
X177971428Y-53689285D01*
X177971428Y-53879761D01*
X178009523Y-53955952D01*
X178047619Y-53994047D01*
X178123809Y-54032142D01*
X178276190Y-54032142D01*
X178352380Y-53994047D01*
X178390476Y-53955952D01*
X178428571Y-53879761D01*
X186761428Y-55326547D02*
X186713809Y-55278928D01*
X186666190Y-55183690D01*
X186761428Y-54993214D01*
X186713809Y-54897976D01*
X186666190Y-54850357D01*
X194460000Y-98791071D02*
X194460000Y-98362500D01*
X194717142Y-98876785D02*
X193817142Y-98576785D01*
X194717142Y-98276785D01*
X193902857Y-98019642D02*
X193860000Y-97976785D01*
X193817142Y-97891071D01*
X193817142Y-97676785D01*
X193860000Y-97591071D01*
X193902857Y-97548214D01*
X193988571Y-97505357D01*
X194074285Y-97505357D01*
X194202857Y-97548214D01*
X194717142Y-98062500D01*
X194717142Y-97505357D01*
X189380000Y-98791071D02*
X189380000Y-98362500D01*
X189637142Y-98876785D02*
X188737142Y-98576785D01*
X189637142Y-98276785D01*
X188737142Y-97805357D02*
X188737142Y-97719642D01*
X188780000Y-97633928D01*
X188822857Y-97591071D01*
X188908571Y-97548214D01*
X189080000Y-97505357D01*
X189294285Y-97505357D01*
X189465714Y-97548214D01*
X189551428Y-97591071D01*
X189594285Y-97633928D01*
X189637142Y-97719642D01*
X189637142Y-97805357D01*
X189594285Y-97891071D01*
X189551428Y-97933928D01*
X189465714Y-97976785D01*
X189294285Y-98019642D01*
X189080000Y-98019642D01*
X188908571Y-97976785D01*
X188822857Y-97933928D01*
X188780000Y-97891071D01*
X188737142Y-97805357D01*
X176037142Y-98319642D02*
X176037142Y-98748214D01*
X176465714Y-98791071D01*
X176422857Y-98748214D01*
X176380000Y-98662500D01*
X176380000Y-98448214D01*
X176422857Y-98362500D01*
X176465714Y-98319642D01*
X176551428Y-98276785D01*
X176765714Y-98276785D01*
X176851428Y-98319642D01*
X176894285Y-98362500D01*
X176937142Y-98448214D01*
X176937142Y-98662500D01*
X176894285Y-98748214D01*
X176851428Y-98791071D01*
X176037142Y-98019642D02*
X176937142Y-97719642D01*
X176037142Y-97419642D01*
X188639523Y-54336904D02*
X188639523Y-53536904D01*
X188830000Y-53536904D01*
X188944285Y-53575000D01*
X189020476Y-53651190D01*
X189058571Y-53727380D01*
X189096666Y-53879761D01*
X189096666Y-53994047D01*
X189058571Y-54146428D01*
X189020476Y-54222619D01*
X188944285Y-54298809D01*
X188830000Y-54336904D01*
X188639523Y-54336904D01*
X189820476Y-53536904D02*
X189439523Y-53536904D01*
X189401428Y-53917857D01*
X189439523Y-53879761D01*
X189515714Y-53841666D01*
X189706190Y-53841666D01*
X189782380Y-53879761D01*
X189820476Y-53917857D01*
X189858571Y-53994047D01*
X189858571Y-54184523D01*
X189820476Y-54260714D01*
X189782380Y-54298809D01*
X189706190Y-54336904D01*
X189515714Y-54336904D01*
X189439523Y-54298809D01*
X189401428Y-54260714D01*
X170027619Y-54336904D02*
X169570476Y-54336904D01*
X169799047Y-54336904D02*
X169799047Y-53536904D01*
X169722857Y-53651190D01*
X169646666Y-53727380D01*
X169570476Y-53765476D01*
X170332380Y-53613095D02*
X170370476Y-53575000D01*
X170446666Y-53536904D01*
X170637142Y-53536904D01*
X170713333Y-53575000D01*
X170751428Y-53613095D01*
X170789523Y-53689285D01*
X170789523Y-53765476D01*
X170751428Y-53879761D01*
X170294285Y-54336904D01*
X170789523Y-54336904D01*
X198799523Y-54336904D02*
X198799523Y-53536904D01*
X198990000Y-53536904D01*
X199104285Y-53575000D01*
X199180476Y-53651190D01*
X199218571Y-53727380D01*
X199256666Y-53879761D01*
X199256666Y-53994047D01*
X199218571Y-54146428D01*
X199180476Y-54222619D01*
X199104285Y-54298809D01*
X198990000Y-54336904D01*
X198799523Y-54336904D01*
X200018571Y-54336904D02*
X199561428Y-54336904D01*
X199790000Y-54336904D02*
X199790000Y-53536904D01*
X199713809Y-53651190D01*
X199637619Y-53727380D01*
X199561428Y-53765476D01*
X201339523Y-54336904D02*
X201339523Y-53536904D01*
X201530000Y-53536904D01*
X201644285Y-53575000D01*
X201720476Y-53651190D01*
X201758571Y-53727380D01*
X201796666Y-53879761D01*
X201796666Y-53994047D01*
X201758571Y-54146428D01*
X201720476Y-54222619D01*
X201644285Y-54298809D01*
X201530000Y-54336904D01*
X201339523Y-54336904D01*
X202291904Y-53536904D02*
X202368095Y-53536904D01*
X202444285Y-53575000D01*
X202482380Y-53613095D01*
X202520476Y-53689285D01*
X202558571Y-53841666D01*
X202558571Y-54032142D01*
X202520476Y-54184523D01*
X202482380Y-54260714D01*
X202444285Y-54298809D01*
X202368095Y-54336904D01*
X202291904Y-54336904D01*
X202215714Y-54298809D01*
X202177619Y-54260714D01*
X202139523Y-54184523D01*
X202101428Y-54032142D01*
X202101428Y-53841666D01*
X202139523Y-53689285D01*
X202177619Y-53613095D01*
X202215714Y-53575000D01*
X202291904Y-53536904D01*
X189301428Y-55326547D02*
X189253809Y-55278928D01*
X189206190Y-55183690D01*
X189301428Y-54993214D01*
X189253809Y-54897976D01*
X189206190Y-54850357D01*
D12*
X198288571Y-64042857D02*
X198288571Y-62842857D01*
X198745714Y-62842857D01*
X198860000Y-62900000D01*
X198917142Y-62957142D01*
X198974285Y-63071428D01*
X198974285Y-63242857D01*
X198917142Y-63357142D01*
X198860000Y-63414285D01*
X198745714Y-63471428D01*
X198288571Y-63471428D01*
X199660000Y-64042857D02*
X199545714Y-63985714D01*
X199488571Y-63928571D01*
X199431428Y-63814285D01*
X199431428Y-63471428D01*
X199488571Y-63357142D01*
X199545714Y-63300000D01*
X199660000Y-63242857D01*
X199831428Y-63242857D01*
X199945714Y-63300000D01*
X200002857Y-63357142D01*
X200060000Y-63471428D01*
X200060000Y-63814285D01*
X200002857Y-63928571D01*
X199945714Y-63985714D01*
X199831428Y-64042857D01*
X199660000Y-64042857D01*
X200460000Y-63242857D02*
X200688571Y-64042857D01*
X200917142Y-63471428D01*
X201145714Y-64042857D01*
X201374285Y-63242857D01*
X202288571Y-63985714D02*
X202174285Y-64042857D01*
X201945714Y-64042857D01*
X201831428Y-63985714D01*
X201774285Y-63871428D01*
X201774285Y-63414285D01*
X201831428Y-63300000D01*
X201945714Y-63242857D01*
X202174285Y-63242857D01*
X202288571Y-63300000D01*
X202345714Y-63414285D01*
X202345714Y-63528571D01*
X201774285Y-63642857D01*
X202860000Y-64042857D02*
X202860000Y-63242857D01*
X202860000Y-63471428D02*
X202917142Y-63357142D01*
X202974285Y-63300000D01*
X203088571Y-63242857D01*
X203202857Y-63242857D01*
D10*
X172567619Y-54336904D02*
X172110476Y-54336904D01*
X172339047Y-54336904D02*
X172339047Y-53536904D01*
X172262857Y-53651190D01*
X172186666Y-53727380D01*
X172110476Y-53765476D01*
X173329523Y-54336904D02*
X172872380Y-54336904D01*
X173100952Y-54336904D02*
X173100952Y-53536904D01*
X173024761Y-53651190D01*
X172948571Y-53727380D01*
X172872380Y-53765476D01*
X186099523Y-54336904D02*
X186099523Y-53536904D01*
X186290000Y-53536904D01*
X186404285Y-53575000D01*
X186480476Y-53651190D01*
X186518571Y-53727380D01*
X186556666Y-53879761D01*
X186556666Y-53994047D01*
X186518571Y-54146428D01*
X186480476Y-54222619D01*
X186404285Y-54298809D01*
X186290000Y-54336904D01*
X186099523Y-54336904D01*
X187242380Y-53536904D02*
X187090000Y-53536904D01*
X187013809Y-53575000D01*
X186975714Y-53613095D01*
X186899523Y-53727380D01*
X186861428Y-53879761D01*
X186861428Y-54184523D01*
X186899523Y-54260714D01*
X186937619Y-54298809D01*
X187013809Y-54336904D01*
X187166190Y-54336904D01*
X187242380Y-54298809D01*
X187280476Y-54260714D01*
X187318571Y-54184523D01*
X187318571Y-53994047D01*
X187280476Y-53917857D01*
X187242380Y-53879761D01*
X187166190Y-53841666D01*
X187013809Y-53841666D01*
X186937619Y-53879761D01*
X186899523Y-53917857D01*
X186861428Y-53994047D01*
X179654285Y-97975000D02*
X179568571Y-97932142D01*
X179440000Y-97932142D01*
X179311428Y-97975000D01*
X179225714Y-98060714D01*
X179182857Y-98146428D01*
X179140000Y-98317857D01*
X179140000Y-98446428D01*
X179182857Y-98617857D01*
X179225714Y-98703571D01*
X179311428Y-98789285D01*
X179440000Y-98832142D01*
X179525714Y-98832142D01*
X179654285Y-98789285D01*
X179697142Y-98746428D01*
X179697142Y-98446428D01*
X179525714Y-98446428D01*
X180082857Y-98832142D02*
X180082857Y-97932142D01*
X180597142Y-98832142D01*
X180597142Y-97932142D01*
X181025714Y-98832142D02*
X181025714Y-97932142D01*
X181240000Y-97932142D01*
X181368571Y-97975000D01*
X181454285Y-98060714D01*
X181497142Y-98146428D01*
X181540000Y-98317857D01*
X181540000Y-98446428D01*
X181497142Y-98617857D01*
X181454285Y-98703571D01*
X181368571Y-98789285D01*
X181240000Y-98832142D01*
X181025714Y-98832142D01*
X172791428Y-55326547D02*
X172743809Y-55278928D01*
X172696190Y-55183690D01*
X172791428Y-54993214D01*
X172743809Y-54897976D01*
X172696190Y-54850357D01*
X171857142Y-98233928D02*
X171428571Y-98533928D01*
X171857142Y-98748214D02*
X170957142Y-98748214D01*
X170957142Y-98405357D01*
X171000000Y-98319642D01*
X171042857Y-98276785D01*
X171128571Y-98233928D01*
X171257142Y-98233928D01*
X171342857Y-98276785D01*
X171385714Y-98319642D01*
X171428571Y-98405357D01*
X171428571Y-98748214D01*
X171814285Y-97505357D02*
X171857142Y-97591071D01*
X171857142Y-97762500D01*
X171814285Y-97848214D01*
X171728571Y-97891071D01*
X171385714Y-97891071D01*
X171300000Y-97848214D01*
X171257142Y-97762500D01*
X171257142Y-97591071D01*
X171300000Y-97505357D01*
X171385714Y-97462500D01*
X171471428Y-97462500D01*
X171557142Y-97891071D01*
X171814285Y-97119642D02*
X171857142Y-97033928D01*
X171857142Y-96862500D01*
X171814285Y-96776785D01*
X171728571Y-96733928D01*
X171685714Y-96733928D01*
X171600000Y-96776785D01*
X171557142Y-96862500D01*
X171557142Y-96991071D01*
X171514285Y-97076785D01*
X171428571Y-97119642D01*
X171385714Y-97119642D01*
X171300000Y-97076785D01*
X171257142Y-96991071D01*
X171257142Y-96862500D01*
X171300000Y-96776785D01*
X171814285Y-96005357D02*
X171857142Y-96091071D01*
X171857142Y-96262500D01*
X171814285Y-96348214D01*
X171728571Y-96391071D01*
X171385714Y-96391071D01*
X171300000Y-96348214D01*
X171257142Y-96262500D01*
X171257142Y-96091071D01*
X171300000Y-96005357D01*
X171385714Y-95962500D01*
X171471428Y-95962500D01*
X171557142Y-96391071D01*
X171257142Y-95705357D02*
X171257142Y-95362500D01*
X170957142Y-95576785D02*
X171728571Y-95576785D01*
X171814285Y-95533928D01*
X171857142Y-95448214D01*
X171857142Y-95362500D01*
X191920000Y-98791071D02*
X191920000Y-98362500D01*
X192177142Y-98876785D02*
X191277142Y-98576785D01*
X192177142Y-98276785D01*
X192177142Y-97505357D02*
X192177142Y-98019642D01*
X192177142Y-97762500D02*
X191277142Y-97762500D01*
X191405714Y-97848214D01*
X191491428Y-97933928D01*
X191534285Y-98019642D01*
X159048571Y-54298809D02*
X159162857Y-54336904D01*
X159353333Y-54336904D01*
X159429523Y-54298809D01*
X159467619Y-54260714D01*
X159505714Y-54184523D01*
X159505714Y-54108333D01*
X159467619Y-54032142D01*
X159429523Y-53994047D01*
X159353333Y-53955952D01*
X159200952Y-53917857D01*
X159124761Y-53879761D01*
X159086666Y-53841666D01*
X159048571Y-53765476D01*
X159048571Y-53689285D01*
X159086666Y-53613095D01*
X159124761Y-53575000D01*
X159200952Y-53536904D01*
X159391428Y-53536904D01*
X159505714Y-53575000D01*
X159848571Y-54336904D02*
X159848571Y-53536904D01*
X160039047Y-53536904D01*
X160153333Y-53575000D01*
X160229523Y-53651190D01*
X160267619Y-53727380D01*
X160305714Y-53879761D01*
X160305714Y-53994047D01*
X160267619Y-54146428D01*
X160229523Y-54222619D01*
X160153333Y-54298809D01*
X160039047Y-54336904D01*
X159848571Y-54336904D01*
X160610476Y-54108333D02*
X160991428Y-54108333D01*
X160534285Y-54336904D02*
X160800952Y-53536904D01*
X161067619Y-54336904D01*
X164490476Y-53575000D02*
X164414285Y-53536904D01*
X164300000Y-53536904D01*
X164185714Y-53575000D01*
X164109523Y-53651190D01*
X164071428Y-53727380D01*
X164033333Y-53879761D01*
X164033333Y-53994047D01*
X164071428Y-54146428D01*
X164109523Y-54222619D01*
X164185714Y-54298809D01*
X164300000Y-54336904D01*
X164376190Y-54336904D01*
X164490476Y-54298809D01*
X164528571Y-54260714D01*
X164528571Y-53994047D01*
X164376190Y-53994047D01*
X164871428Y-54336904D02*
X164871428Y-53536904D01*
X165328571Y-54336904D01*
X165328571Y-53536904D01*
X165709523Y-54336904D02*
X165709523Y-53536904D01*
X165900000Y-53536904D01*
X166014285Y-53575000D01*
X166090476Y-53651190D01*
X166128571Y-53727380D01*
X166166666Y-53879761D01*
X166166666Y-53994047D01*
X166128571Y-54146428D01*
X166090476Y-54222619D01*
X166014285Y-54298809D01*
X165900000Y-54336904D01*
X165709523Y-54336904D01*
X202291904Y-55621785D02*
X201910952Y-55888452D01*
X202291904Y-56078928D02*
X201491904Y-56078928D01*
X201491904Y-55774166D01*
X201530000Y-55697976D01*
X201568095Y-55659880D01*
X201644285Y-55621785D01*
X201758571Y-55621785D01*
X201834761Y-55659880D01*
X201872857Y-55697976D01*
X201910952Y-55774166D01*
X201910952Y-56078928D01*
X201491904Y-55355119D02*
X202291904Y-54821785D01*
X201491904Y-54821785D02*
X202291904Y-55355119D01*
X193719523Y-54336904D02*
X193719523Y-53536904D01*
X193910000Y-53536904D01*
X194024285Y-53575000D01*
X194100476Y-53651190D01*
X194138571Y-53727380D01*
X194176666Y-53879761D01*
X194176666Y-53994047D01*
X194138571Y-54146428D01*
X194100476Y-54222619D01*
X194024285Y-54298809D01*
X193910000Y-54336904D01*
X193719523Y-54336904D01*
X194443333Y-53536904D02*
X194938571Y-53536904D01*
X194671904Y-53841666D01*
X194786190Y-53841666D01*
X194862380Y-53879761D01*
X194900476Y-53917857D01*
X194938571Y-53994047D01*
X194938571Y-54184523D01*
X194900476Y-54260714D01*
X194862380Y-54298809D01*
X194786190Y-54336904D01*
X194557619Y-54336904D01*
X194481428Y-54298809D01*
X194443333Y-54260714D01*
X177871428Y-55326547D02*
X177823809Y-55278928D01*
X177776190Y-55183690D01*
X177871428Y-54993214D01*
X177823809Y-54897976D01*
X177776190Y-54850357D01*
X156527619Y-54298809D02*
X156641904Y-54336904D01*
X156832380Y-54336904D01*
X156908571Y-54298809D01*
X156946666Y-54260714D01*
X156984761Y-54184523D01*
X156984761Y-54108333D01*
X156946666Y-54032142D01*
X156908571Y-53994047D01*
X156832380Y-53955952D01*
X156680000Y-53917857D01*
X156603809Y-53879761D01*
X156565714Y-53841666D01*
X156527619Y-53765476D01*
X156527619Y-53689285D01*
X156565714Y-53613095D01*
X156603809Y-53575000D01*
X156680000Y-53536904D01*
X156870476Y-53536904D01*
X156984761Y-53575000D01*
X157784761Y-54260714D02*
X157746666Y-54298809D01*
X157632380Y-54336904D01*
X157556190Y-54336904D01*
X157441904Y-54298809D01*
X157365714Y-54222619D01*
X157327619Y-54146428D01*
X157289523Y-53994047D01*
X157289523Y-53879761D01*
X157327619Y-53727380D01*
X157365714Y-53651190D01*
X157441904Y-53575000D01*
X157556190Y-53536904D01*
X157632380Y-53536904D01*
X157746666Y-53575000D01*
X157784761Y-53613095D01*
X158508571Y-54336904D02*
X158127619Y-54336904D01*
X158127619Y-53536904D01*
X183657142Y-98876785D02*
X184557142Y-98576785D01*
X183657142Y-98276785D01*
X184557142Y-97976785D02*
X183957142Y-97976785D01*
X183657142Y-97976785D02*
X183700000Y-98019642D01*
X183742857Y-97976785D01*
X183700000Y-97933928D01*
X183657142Y-97976785D01*
X183742857Y-97976785D01*
X183957142Y-97548214D02*
X184557142Y-97548214D01*
X184042857Y-97548214D02*
X184000000Y-97505357D01*
X183957142Y-97419642D01*
X183957142Y-97291071D01*
X184000000Y-97205357D01*
X184085714Y-97162500D01*
X184557142Y-97162500D01*
X139787380Y-95583333D02*
X140501666Y-95583333D01*
X140644523Y-95630952D01*
X140739761Y-95726190D01*
X140787380Y-95869047D01*
X140787380Y-95964285D01*
X139882619Y-95154761D02*
X139835000Y-95107142D01*
X139787380Y-95011904D01*
X139787380Y-94773809D01*
X139835000Y-94678571D01*
X139882619Y-94630952D01*
X139977857Y-94583333D01*
X140073095Y-94583333D01*
X140215952Y-94630952D01*
X140787380Y-95202380D01*
X140787380Y-94583333D01*
X171087023Y-75287142D02*
X171039404Y-75334761D01*
X170896547Y-75382380D01*
X170801309Y-75382380D01*
X170658452Y-75334761D01*
X170563214Y-75239523D01*
X170515595Y-75144285D01*
X170467976Y-74953809D01*
X170467976Y-74810952D01*
X170515595Y-74620476D01*
X170563214Y-74525238D01*
X170658452Y-74430000D01*
X170801309Y-74382380D01*
X170896547Y-74382380D01*
X171039404Y-74430000D01*
X171087023Y-74477619D01*
X171563214Y-75382380D02*
X171753690Y-75382380D01*
X171848928Y-75334761D01*
X171896547Y-75287142D01*
X171991785Y-75144285D01*
X172039404Y-74953809D01*
X172039404Y-74572857D01*
X171991785Y-74477619D01*
X171944166Y-74430000D01*
X171848928Y-74382380D01*
X171658452Y-74382380D01*
X171563214Y-74430000D01*
X171515595Y-74477619D01*
X171467976Y-74572857D01*
X171467976Y-74810952D01*
X171515595Y-74906190D01*
X171563214Y-74953809D01*
X171658452Y-75001428D01*
X171848928Y-75001428D01*
X171944166Y-74953809D01*
X171991785Y-74906190D01*
X172039404Y-74810952D01*
X191603333Y-57602380D02*
X191270000Y-57126190D01*
X191031904Y-57602380D02*
X191031904Y-56602380D01*
X191412857Y-56602380D01*
X191508095Y-56650000D01*
X191555714Y-56697619D01*
X191603333Y-56792857D01*
X191603333Y-56935714D01*
X191555714Y-57030952D01*
X191508095Y-57078571D01*
X191412857Y-57126190D01*
X191031904Y-57126190D01*
X192555714Y-57602380D02*
X191984285Y-57602380D01*
X192270000Y-57602380D02*
X192270000Y-56602380D01*
X192174761Y-56745238D01*
X192079523Y-56840476D01*
X191984285Y-56888095D01*
X166727142Y-93987857D02*
X166774761Y-94035476D01*
X166822380Y-94178333D01*
X166822380Y-94273571D01*
X166774761Y-94416428D01*
X166679523Y-94511666D01*
X166584285Y-94559285D01*
X166393809Y-94606904D01*
X166250952Y-94606904D01*
X166060476Y-94559285D01*
X165965238Y-94511666D01*
X165870000Y-94416428D01*
X165822380Y-94273571D01*
X165822380Y-94178333D01*
X165870000Y-94035476D01*
X165917619Y-93987857D01*
X166822380Y-93035476D02*
X166822380Y-93606904D01*
X166822380Y-93321190D02*
X165822380Y-93321190D01*
X165965238Y-93416428D01*
X166060476Y-93511666D01*
X166108095Y-93606904D01*
X166822380Y-92083095D02*
X166822380Y-92654523D01*
X166822380Y-92368809D02*
X165822380Y-92368809D01*
X165965238Y-92464047D01*
X166060476Y-92559285D01*
X166108095Y-92654523D01*
X191603333Y-70302380D02*
X191270000Y-69826190D01*
X191031904Y-70302380D02*
X191031904Y-69302380D01*
X191412857Y-69302380D01*
X191508095Y-69350000D01*
X191555714Y-69397619D01*
X191603333Y-69492857D01*
X191603333Y-69635714D01*
X191555714Y-69730952D01*
X191508095Y-69778571D01*
X191412857Y-69826190D01*
X191031904Y-69826190D01*
X192508095Y-69302380D02*
X192031904Y-69302380D01*
X191984285Y-69778571D01*
X192031904Y-69730952D01*
X192127142Y-69683333D01*
X192365238Y-69683333D01*
X192460476Y-69730952D01*
X192508095Y-69778571D01*
X192555714Y-69873809D01*
X192555714Y-70111904D01*
X192508095Y-70207142D01*
X192460476Y-70254761D01*
X192365238Y-70302380D01*
X192127142Y-70302380D01*
X192031904Y-70254761D01*
X191984285Y-70207142D01*
X180713333Y-92797380D02*
X181380000Y-92797380D01*
X180951428Y-93797380D01*
X181903809Y-93225952D02*
X181808571Y-93178333D01*
X181760952Y-93130714D01*
X181713333Y-93035476D01*
X181713333Y-92987857D01*
X181760952Y-92892619D01*
X181808571Y-92845000D01*
X181903809Y-92797380D01*
X182094285Y-92797380D01*
X182189523Y-92845000D01*
X182237142Y-92892619D01*
X182284761Y-92987857D01*
X182284761Y-93035476D01*
X182237142Y-93130714D01*
X182189523Y-93178333D01*
X182094285Y-93225952D01*
X181903809Y-93225952D01*
X181808571Y-93273571D01*
X181760952Y-93321190D01*
X181713333Y-93416428D01*
X181713333Y-93606904D01*
X181760952Y-93702142D01*
X181808571Y-93749761D01*
X181903809Y-93797380D01*
X182094285Y-93797380D01*
X182189523Y-93749761D01*
X182237142Y-93702142D01*
X182284761Y-93606904D01*
X182284761Y-93416428D01*
X182237142Y-93321190D01*
X182189523Y-93273571D01*
X182094285Y-93225952D01*
X183189523Y-93797380D02*
X182713333Y-93797380D01*
X182713333Y-92797380D01*
X183427619Y-92797380D02*
X184046666Y-92797380D01*
X183713333Y-93178333D01*
X183856190Y-93178333D01*
X183951428Y-93225952D01*
X183999047Y-93273571D01*
X184046666Y-93368809D01*
X184046666Y-93606904D01*
X183999047Y-93702142D01*
X183951428Y-93749761D01*
X183856190Y-93797380D01*
X183570476Y-93797380D01*
X183475238Y-93749761D01*
X183427619Y-93702142D01*
X184380000Y-92797380D02*
X184999047Y-92797380D01*
X184665714Y-93178333D01*
X184808571Y-93178333D01*
X184903809Y-93225952D01*
X184951428Y-93273571D01*
X184999047Y-93368809D01*
X184999047Y-93606904D01*
X184951428Y-93702142D01*
X184903809Y-93749761D01*
X184808571Y-93797380D01*
X184522857Y-93797380D01*
X184427619Y-93749761D01*
X184380000Y-93702142D01*
X156583333Y-93162380D02*
X156107142Y-93162380D01*
X156107142Y-92162380D01*
X156916666Y-93162380D02*
X156916666Y-92162380D01*
X157250000Y-92876666D01*
X157583333Y-92162380D01*
X157583333Y-93162380D01*
X157964285Y-92162380D02*
X158630952Y-92162380D01*
X158202380Y-93162380D01*
X159154761Y-92590952D02*
X159059523Y-92543333D01*
X159011904Y-92495714D01*
X158964285Y-92400476D01*
X158964285Y-92352857D01*
X159011904Y-92257619D01*
X159059523Y-92210000D01*
X159154761Y-92162380D01*
X159345238Y-92162380D01*
X159440476Y-92210000D01*
X159488095Y-92257619D01*
X159535714Y-92352857D01*
X159535714Y-92400476D01*
X159488095Y-92495714D01*
X159440476Y-92543333D01*
X159345238Y-92590952D01*
X159154761Y-92590952D01*
X159059523Y-92638571D01*
X159011904Y-92686190D01*
X158964285Y-92781428D01*
X158964285Y-92971904D01*
X159011904Y-93067142D01*
X159059523Y-93114761D01*
X159154761Y-93162380D01*
X159345238Y-93162380D01*
X159440476Y-93114761D01*
X159488095Y-93067142D01*
X159535714Y-92971904D01*
X159535714Y-92781428D01*
X159488095Y-92686190D01*
X159440476Y-92638571D01*
X159345238Y-92590952D01*
X160154761Y-92162380D02*
X160250000Y-92162380D01*
X160345238Y-92210000D01*
X160392857Y-92257619D01*
X160440476Y-92352857D01*
X160488095Y-92543333D01*
X160488095Y-92781428D01*
X160440476Y-92971904D01*
X160392857Y-93067142D01*
X160345238Y-93114761D01*
X160250000Y-93162380D01*
X160154761Y-93162380D01*
X160059523Y-93114761D01*
X160011904Y-93067142D01*
X159964285Y-92971904D01*
X159916666Y-92781428D01*
X159916666Y-92543333D01*
X159964285Y-92352857D01*
X160011904Y-92257619D01*
X160059523Y-92210000D01*
X160154761Y-92162380D01*
X161392857Y-92162380D02*
X160916666Y-92162380D01*
X160869047Y-92638571D01*
X160916666Y-92590952D01*
X161011904Y-92543333D01*
X161250000Y-92543333D01*
X161345238Y-92590952D01*
X161392857Y-92638571D01*
X161440476Y-92733809D01*
X161440476Y-92971904D01*
X161392857Y-93067142D01*
X161345238Y-93114761D01*
X161250000Y-93162380D01*
X161011904Y-93162380D01*
X160916666Y-93114761D01*
X160869047Y-93067142D01*
X204712380Y-87336190D02*
X203712380Y-87336190D01*
X204617142Y-86288571D02*
X204664761Y-86336190D01*
X204712380Y-86479047D01*
X204712380Y-86574285D01*
X204664761Y-86717142D01*
X204569523Y-86812380D01*
X204474285Y-86860000D01*
X204283809Y-86907619D01*
X204140952Y-86907619D01*
X203950476Y-86860000D01*
X203855238Y-86812380D01*
X203760000Y-86717142D01*
X203712380Y-86574285D01*
X203712380Y-86479047D01*
X203760000Y-86336190D01*
X203807619Y-86288571D01*
X204712380Y-85336190D02*
X204712380Y-85907619D01*
X204712380Y-85621904D02*
X203712380Y-85621904D01*
X203855238Y-85717142D01*
X203950476Y-85812380D01*
X203998095Y-85907619D01*
X171982380Y-86526666D02*
X172458571Y-86526666D01*
X171887142Y-86812380D02*
X172220476Y-85812380D01*
X172553809Y-86812380D01*
X172744285Y-85812380D02*
X173315714Y-85812380D01*
X173030000Y-86812380D02*
X173030000Y-85812380D01*
X173649047Y-86812380D02*
X173649047Y-86145714D01*
X173649047Y-86240952D02*
X173696666Y-86193333D01*
X173791904Y-86145714D01*
X173934761Y-86145714D01*
X174030000Y-86193333D01*
X174077619Y-86288571D01*
X174077619Y-86812380D01*
X174077619Y-86288571D02*
X174125238Y-86193333D01*
X174220476Y-86145714D01*
X174363333Y-86145714D01*
X174458571Y-86193333D01*
X174506190Y-86288571D01*
X174506190Y-86812380D01*
X175363333Y-86764761D02*
X175268095Y-86812380D01*
X175077619Y-86812380D01*
X174982380Y-86764761D01*
X174934761Y-86669523D01*
X174934761Y-86288571D01*
X174982380Y-86193333D01*
X175077619Y-86145714D01*
X175268095Y-86145714D01*
X175363333Y-86193333D01*
X175410952Y-86288571D01*
X175410952Y-86383809D01*
X174934761Y-86479047D01*
X176268095Y-86145714D02*
X176268095Y-86955238D01*
X176220476Y-87050476D01*
X176172857Y-87098095D01*
X176077619Y-87145714D01*
X175934761Y-87145714D01*
X175839523Y-87098095D01*
X176268095Y-86764761D02*
X176172857Y-86812380D01*
X175982380Y-86812380D01*
X175887142Y-86764761D01*
X175839523Y-86717142D01*
X175791904Y-86621904D01*
X175791904Y-86336190D01*
X175839523Y-86240952D01*
X175887142Y-86193333D01*
X175982380Y-86145714D01*
X176172857Y-86145714D01*
X176268095Y-86193333D01*
X177172857Y-86812380D02*
X177172857Y-86288571D01*
X177125238Y-86193333D01*
X177030000Y-86145714D01*
X176839523Y-86145714D01*
X176744285Y-86193333D01*
X177172857Y-86764761D02*
X177077619Y-86812380D01*
X176839523Y-86812380D01*
X176744285Y-86764761D01*
X176696666Y-86669523D01*
X176696666Y-86574285D01*
X176744285Y-86479047D01*
X176839523Y-86431428D01*
X177077619Y-86431428D01*
X177172857Y-86383809D01*
X177553809Y-85812380D02*
X178172857Y-85812380D01*
X177839523Y-86193333D01*
X177982380Y-86193333D01*
X178077619Y-86240952D01*
X178125238Y-86288571D01*
X178172857Y-86383809D01*
X178172857Y-86621904D01*
X178125238Y-86717142D01*
X178077619Y-86764761D01*
X177982380Y-86812380D01*
X177696666Y-86812380D01*
X177601428Y-86764761D01*
X177553809Y-86717142D01*
X178553809Y-85907619D02*
X178601428Y-85860000D01*
X178696666Y-85812380D01*
X178934761Y-85812380D01*
X179030000Y-85860000D01*
X179077619Y-85907619D01*
X179125238Y-86002857D01*
X179125238Y-86098095D01*
X179077619Y-86240952D01*
X178506190Y-86812380D01*
X179125238Y-86812380D01*
X179696666Y-86240952D02*
X179601428Y-86193333D01*
X179553809Y-86145714D01*
X179506190Y-86050476D01*
X179506190Y-86002857D01*
X179553809Y-85907619D01*
X179601428Y-85860000D01*
X179696666Y-85812380D01*
X179887142Y-85812380D01*
X179982380Y-85860000D01*
X180030000Y-85907619D01*
X180077619Y-86002857D01*
X180077619Y-86050476D01*
X180030000Y-86145714D01*
X179982380Y-86193333D01*
X179887142Y-86240952D01*
X179696666Y-86240952D01*
X179601428Y-86288571D01*
X179553809Y-86336190D01*
X179506190Y-86431428D01*
X179506190Y-86621904D01*
X179553809Y-86717142D01*
X179601428Y-86764761D01*
X179696666Y-86812380D01*
X179887142Y-86812380D01*
X179982380Y-86764761D01*
X180030000Y-86717142D01*
X180077619Y-86621904D01*
X180077619Y-86431428D01*
X180030000Y-86336190D01*
X179982380Y-86288571D01*
X179887142Y-86240952D01*
X180506190Y-86812380D02*
X180506190Y-85812380D01*
X180887142Y-85812380D01*
X180982380Y-85860000D01*
X181030000Y-85907619D01*
X181077619Y-86002857D01*
X181077619Y-86145714D01*
X181030000Y-86240952D01*
X180982380Y-86288571D01*
X180887142Y-86336190D01*
X180506190Y-86336190D01*
X139692142Y-82907142D02*
X139644523Y-82954761D01*
X139501666Y-83002380D01*
X139406428Y-83002380D01*
X139263571Y-82954761D01*
X139168333Y-82859523D01*
X139120714Y-82764285D01*
X139073095Y-82573809D01*
X139073095Y-82430952D01*
X139120714Y-82240476D01*
X139168333Y-82145238D01*
X139263571Y-82050000D01*
X139406428Y-82002380D01*
X139501666Y-82002380D01*
X139644523Y-82050000D01*
X139692142Y-82097619D01*
X140644523Y-83002380D02*
X140073095Y-83002380D01*
X140358809Y-83002380D02*
X140358809Y-82002380D01*
X140263571Y-82145238D01*
X140168333Y-82240476D01*
X140073095Y-82288095D01*
X140977857Y-82002380D02*
X141596904Y-82002380D01*
X141263571Y-82383333D01*
X141406428Y-82383333D01*
X141501666Y-82430952D01*
X141549285Y-82478571D01*
X141596904Y-82573809D01*
X141596904Y-82811904D01*
X141549285Y-82907142D01*
X141501666Y-82954761D01*
X141406428Y-83002380D01*
X141120714Y-83002380D01*
X141025476Y-82954761D01*
X140977857Y-82907142D01*
X181443333Y-60602142D02*
X181395714Y-60649761D01*
X181252857Y-60697380D01*
X181157619Y-60697380D01*
X181014761Y-60649761D01*
X180919523Y-60554523D01*
X180871904Y-60459285D01*
X180824285Y-60268809D01*
X180824285Y-60125952D01*
X180871904Y-59935476D01*
X180919523Y-59840238D01*
X181014761Y-59745000D01*
X181157619Y-59697380D01*
X181252857Y-59697380D01*
X181395714Y-59745000D01*
X181443333Y-59792619D01*
X181776666Y-59697380D02*
X182395714Y-59697380D01*
X182062380Y-60078333D01*
X182205238Y-60078333D01*
X182300476Y-60125952D01*
X182348095Y-60173571D01*
X182395714Y-60268809D01*
X182395714Y-60506904D01*
X182348095Y-60602142D01*
X182300476Y-60649761D01*
X182205238Y-60697380D01*
X181919523Y-60697380D01*
X181824285Y-60649761D01*
X181776666Y-60602142D01*
X171087023Y-62587142D02*
X171039404Y-62634761D01*
X170896547Y-62682380D01*
X170801309Y-62682380D01*
X170658452Y-62634761D01*
X170563214Y-62539523D01*
X170515595Y-62444285D01*
X170467976Y-62253809D01*
X170467976Y-62110952D01*
X170515595Y-61920476D01*
X170563214Y-61825238D01*
X170658452Y-61730000D01*
X170801309Y-61682380D01*
X170896547Y-61682380D01*
X171039404Y-61730000D01*
X171087023Y-61777619D01*
X171944166Y-62015714D02*
X171944166Y-62682380D01*
X171706071Y-61634761D02*
X171467976Y-62349047D01*
X172087023Y-62349047D01*
X191603333Y-67127380D02*
X191270000Y-66651190D01*
X191031904Y-67127380D02*
X191031904Y-66127380D01*
X191412857Y-66127380D01*
X191508095Y-66175000D01*
X191555714Y-66222619D01*
X191603333Y-66317857D01*
X191603333Y-66460714D01*
X191555714Y-66555952D01*
X191508095Y-66603571D01*
X191412857Y-66651190D01*
X191031904Y-66651190D01*
X192460476Y-66460714D02*
X192460476Y-67127380D01*
X192222380Y-66079761D02*
X191984285Y-66794047D01*
X192603333Y-66794047D01*
X171087023Y-65127142D02*
X171039404Y-65174761D01*
X170896547Y-65222380D01*
X170801309Y-65222380D01*
X170658452Y-65174761D01*
X170563214Y-65079523D01*
X170515595Y-64984285D01*
X170467976Y-64793809D01*
X170467976Y-64650952D01*
X170515595Y-64460476D01*
X170563214Y-64365238D01*
X170658452Y-64270000D01*
X170801309Y-64222380D01*
X170896547Y-64222380D01*
X171039404Y-64270000D01*
X171087023Y-64317619D01*
X171991785Y-64222380D02*
X171515595Y-64222380D01*
X171467976Y-64698571D01*
X171515595Y-64650952D01*
X171610833Y-64603333D01*
X171848928Y-64603333D01*
X171944166Y-64650952D01*
X171991785Y-64698571D01*
X172039404Y-64793809D01*
X172039404Y-65031904D01*
X171991785Y-65127142D01*
X171944166Y-65174761D01*
X171848928Y-65222380D01*
X171610833Y-65222380D01*
X171515595Y-65174761D01*
X171467976Y-65127142D01*
X191603333Y-63952380D02*
X191270000Y-63476190D01*
X191031904Y-63952380D02*
X191031904Y-62952380D01*
X191412857Y-62952380D01*
X191508095Y-63000000D01*
X191555714Y-63047619D01*
X191603333Y-63142857D01*
X191603333Y-63285714D01*
X191555714Y-63380952D01*
X191508095Y-63428571D01*
X191412857Y-63476190D01*
X191031904Y-63476190D01*
X191936666Y-62952380D02*
X192555714Y-62952380D01*
X192222380Y-63333333D01*
X192365238Y-63333333D01*
X192460476Y-63380952D01*
X192508095Y-63428571D01*
X192555714Y-63523809D01*
X192555714Y-63761904D01*
X192508095Y-63857142D01*
X192460476Y-63904761D01*
X192365238Y-63952380D01*
X192079523Y-63952380D01*
X191984285Y-63904761D01*
X191936666Y-63857142D01*
X171087023Y-67667142D02*
X171039404Y-67714761D01*
X170896547Y-67762380D01*
X170801309Y-67762380D01*
X170658452Y-67714761D01*
X170563214Y-67619523D01*
X170515595Y-67524285D01*
X170467976Y-67333809D01*
X170467976Y-67190952D01*
X170515595Y-67000476D01*
X170563214Y-66905238D01*
X170658452Y-66810000D01*
X170801309Y-66762380D01*
X170896547Y-66762380D01*
X171039404Y-66810000D01*
X171087023Y-66857619D01*
X171944166Y-66762380D02*
X171753690Y-66762380D01*
X171658452Y-66810000D01*
X171610833Y-66857619D01*
X171515595Y-67000476D01*
X171467976Y-67190952D01*
X171467976Y-67571904D01*
X171515595Y-67667142D01*
X171563214Y-67714761D01*
X171658452Y-67762380D01*
X171848928Y-67762380D01*
X171944166Y-67714761D01*
X171991785Y-67667142D01*
X172039404Y-67571904D01*
X172039404Y-67333809D01*
X171991785Y-67238571D01*
X171944166Y-67190952D01*
X171848928Y-67143333D01*
X171658452Y-67143333D01*
X171563214Y-67190952D01*
X171515595Y-67238571D01*
X171467976Y-67333809D01*
X171267380Y-58364285D02*
X170267380Y-58364285D01*
X170267380Y-58126190D01*
X170315000Y-57983333D01*
X170410238Y-57888095D01*
X170505476Y-57840476D01*
X170695952Y-57792857D01*
X170838809Y-57792857D01*
X171029285Y-57840476D01*
X171124523Y-57888095D01*
X171219761Y-57983333D01*
X171267380Y-58126190D01*
X171267380Y-58364285D01*
X171267380Y-56840476D02*
X171267380Y-57411904D01*
X171267380Y-57126190D02*
X170267380Y-57126190D01*
X170410238Y-57221428D01*
X170505476Y-57316666D01*
X170553095Y-57411904D01*
X170267380Y-56507142D02*
X170267380Y-55888095D01*
X170648333Y-56221428D01*
X170648333Y-56078571D01*
X170695952Y-55983333D01*
X170743571Y-55935714D01*
X170838809Y-55888095D01*
X171076904Y-55888095D01*
X171172142Y-55935714D01*
X171219761Y-55983333D01*
X171267380Y-56078571D01*
X171267380Y-56364285D01*
X171219761Y-56459523D01*
X171172142Y-56507142D01*
X176363333Y-60602142D02*
X176315714Y-60649761D01*
X176172857Y-60697380D01*
X176077619Y-60697380D01*
X175934761Y-60649761D01*
X175839523Y-60554523D01*
X175791904Y-60459285D01*
X175744285Y-60268809D01*
X175744285Y-60125952D01*
X175791904Y-59935476D01*
X175839523Y-59840238D01*
X175934761Y-59745000D01*
X176077619Y-59697380D01*
X176172857Y-59697380D01*
X176315714Y-59745000D01*
X176363333Y-59792619D01*
X177315714Y-60697380D02*
X176744285Y-60697380D01*
X177030000Y-60697380D02*
X177030000Y-59697380D01*
X176934761Y-59840238D01*
X176839523Y-59935476D01*
X176744285Y-59983095D01*
X139787380Y-65913333D02*
X140501666Y-65913333D01*
X140644523Y-65960952D01*
X140739761Y-66056190D01*
X140787380Y-66199047D01*
X140787380Y-66294285D01*
X140787380Y-64913333D02*
X140787380Y-65484761D01*
X140787380Y-65199047D02*
X139787380Y-65199047D01*
X139930238Y-65294285D01*
X140025476Y-65389523D01*
X140073095Y-65484761D01*
X178903333Y-60602142D02*
X178855714Y-60649761D01*
X178712857Y-60697380D01*
X178617619Y-60697380D01*
X178474761Y-60649761D01*
X178379523Y-60554523D01*
X178331904Y-60459285D01*
X178284285Y-60268809D01*
X178284285Y-60125952D01*
X178331904Y-59935476D01*
X178379523Y-59840238D01*
X178474761Y-59745000D01*
X178617619Y-59697380D01*
X178712857Y-59697380D01*
X178855714Y-59745000D01*
X178903333Y-59792619D01*
X179284285Y-59792619D02*
X179331904Y-59745000D01*
X179427142Y-59697380D01*
X179665238Y-59697380D01*
X179760476Y-59745000D01*
X179808095Y-59792619D01*
X179855714Y-59887857D01*
X179855714Y-59983095D01*
X179808095Y-60125952D01*
X179236666Y-60697380D01*
X179855714Y-60697380D01*
X171087023Y-70207142D02*
X171039404Y-70254761D01*
X170896547Y-70302380D01*
X170801309Y-70302380D01*
X170658452Y-70254761D01*
X170563214Y-70159523D01*
X170515595Y-70064285D01*
X170467976Y-69873809D01*
X170467976Y-69730952D01*
X170515595Y-69540476D01*
X170563214Y-69445238D01*
X170658452Y-69350000D01*
X170801309Y-69302380D01*
X170896547Y-69302380D01*
X171039404Y-69350000D01*
X171087023Y-69397619D01*
X171420357Y-69302380D02*
X172087023Y-69302380D01*
X171658452Y-70302380D01*
X191603333Y-60777380D02*
X191270000Y-60301190D01*
X191031904Y-60777380D02*
X191031904Y-59777380D01*
X191412857Y-59777380D01*
X191508095Y-59825000D01*
X191555714Y-59872619D01*
X191603333Y-59967857D01*
X191603333Y-60110714D01*
X191555714Y-60205952D01*
X191508095Y-60253571D01*
X191412857Y-60301190D01*
X191031904Y-60301190D01*
X191984285Y-59872619D02*
X192031904Y-59825000D01*
X192127142Y-59777380D01*
X192365238Y-59777380D01*
X192460476Y-59825000D01*
X192508095Y-59872619D01*
X192555714Y-59967857D01*
X192555714Y-60063095D01*
X192508095Y-60205952D01*
X191936666Y-60777380D01*
X192555714Y-60777380D01*
X157376904Y-80462380D02*
X157376904Y-79462380D01*
X157615000Y-79462380D01*
X157757857Y-79510000D01*
X157853095Y-79605238D01*
X157900714Y-79700476D01*
X157948333Y-79890952D01*
X157948333Y-80033809D01*
X157900714Y-80224285D01*
X157853095Y-80319523D01*
X157757857Y-80414761D01*
X157615000Y-80462380D01*
X157376904Y-80462380D01*
X158900714Y-80462380D02*
X158329285Y-80462380D01*
X158615000Y-80462380D02*
X158615000Y-79462380D01*
X158519761Y-79605238D01*
X158424523Y-79700476D01*
X158329285Y-79748095D01*
X152122142Y-77477857D02*
X152169761Y-77525476D01*
X152217380Y-77668333D01*
X152217380Y-77763571D01*
X152169761Y-77906428D01*
X152074523Y-78001666D01*
X151979285Y-78049285D01*
X151788809Y-78096904D01*
X151645952Y-78096904D01*
X151455476Y-78049285D01*
X151360238Y-78001666D01*
X151265000Y-77906428D01*
X151217380Y-77763571D01*
X151217380Y-77668333D01*
X151265000Y-77525476D01*
X151312619Y-77477857D01*
X152217380Y-76525476D02*
X152217380Y-77096904D01*
X152217380Y-76811190D02*
X151217380Y-76811190D01*
X151360238Y-76906428D01*
X151455476Y-77001666D01*
X151503095Y-77096904D01*
X151217380Y-75906428D02*
X151217380Y-75811190D01*
X151265000Y-75715952D01*
X151312619Y-75668333D01*
X151407857Y-75620714D01*
X151598333Y-75573095D01*
X151836428Y-75573095D01*
X152026904Y-75620714D01*
X152122142Y-75668333D01*
X152169761Y-75715952D01*
X152217380Y-75811190D01*
X152217380Y-75906428D01*
X152169761Y-76001666D01*
X152122142Y-76049285D01*
X152026904Y-76096904D01*
X151836428Y-76144523D01*
X151598333Y-76144523D01*
X151407857Y-76096904D01*
X151312619Y-76049285D01*
X151265000Y-76001666D01*
X151217380Y-75906428D01*
X192266666Y-75334761D02*
X192409523Y-75382380D01*
X192647619Y-75382380D01*
X192742857Y-75334761D01*
X192790476Y-75287142D01*
X192838095Y-75191904D01*
X192838095Y-75096666D01*
X192790476Y-75001428D01*
X192742857Y-74953809D01*
X192647619Y-74906190D01*
X192457142Y-74858571D01*
X192361904Y-74810952D01*
X192314285Y-74763333D01*
X192266666Y-74668095D01*
X192266666Y-74572857D01*
X192314285Y-74477619D01*
X192361904Y-74430000D01*
X192457142Y-74382380D01*
X192695238Y-74382380D01*
X192838095Y-74430000D01*
X193171428Y-74382380D02*
X193409523Y-75382380D01*
X193600000Y-74668095D01*
X193790476Y-75382380D01*
X194028571Y-74382380D01*
X194933333Y-75382380D02*
X194361904Y-75382380D01*
X194647619Y-75382380D02*
X194647619Y-74382380D01*
X194552380Y-74525238D01*
X194457142Y-74620476D01*
X194361904Y-74668095D01*
X199842380Y-76382380D02*
X199366190Y-76715714D01*
X199842380Y-76953809D02*
X198842380Y-76953809D01*
X198842380Y-76572857D01*
X198890000Y-76477619D01*
X198937619Y-76430000D01*
X199032857Y-76382380D01*
X199175714Y-76382380D01*
X199270952Y-76430000D01*
X199318571Y-76477619D01*
X199366190Y-76572857D01*
X199366190Y-76953809D01*
X199318571Y-75953809D02*
X199318571Y-75620476D01*
X199842380Y-75477619D02*
X199842380Y-75953809D01*
X198842380Y-75953809D01*
X198842380Y-75477619D01*
X199794761Y-75096666D02*
X199842380Y-74953809D01*
X199842380Y-74715714D01*
X199794761Y-74620476D01*
X199747142Y-74572857D01*
X199651904Y-74525238D01*
X199556666Y-74525238D01*
X199461428Y-74572857D01*
X199413809Y-74620476D01*
X199366190Y-74715714D01*
X199318571Y-74906190D01*
X199270952Y-75001428D01*
X199223333Y-75049047D01*
X199128095Y-75096666D01*
X199032857Y-75096666D01*
X198937619Y-75049047D01*
X198890000Y-75001428D01*
X198842380Y-74906190D01*
X198842380Y-74668095D01*
X198890000Y-74525238D01*
X199318571Y-74096666D02*
X199318571Y-73763333D01*
X199842380Y-73620476D02*
X199842380Y-74096666D01*
X198842380Y-74096666D01*
X198842380Y-73620476D01*
X198842380Y-73334761D02*
X198842380Y-72763333D01*
X199842380Y-73049047D02*
X198842380Y-73049047D01*
X171087023Y-72747142D02*
X171039404Y-72794761D01*
X170896547Y-72842380D01*
X170801309Y-72842380D01*
X170658452Y-72794761D01*
X170563214Y-72699523D01*
X170515595Y-72604285D01*
X170467976Y-72413809D01*
X170467976Y-72270952D01*
X170515595Y-72080476D01*
X170563214Y-71985238D01*
X170658452Y-71890000D01*
X170801309Y-71842380D01*
X170896547Y-71842380D01*
X171039404Y-71890000D01*
X171087023Y-71937619D01*
X171658452Y-72270952D02*
X171563214Y-72223333D01*
X171515595Y-72175714D01*
X171467976Y-72080476D01*
X171467976Y-72032857D01*
X171515595Y-71937619D01*
X171563214Y-71890000D01*
X171658452Y-71842380D01*
X171848928Y-71842380D01*
X171944166Y-71890000D01*
X171991785Y-71937619D01*
X172039404Y-72032857D01*
X172039404Y-72080476D01*
X171991785Y-72175714D01*
X171944166Y-72223333D01*
X171848928Y-72270952D01*
X171658452Y-72270952D01*
X171563214Y-72318571D01*
X171515595Y-72366190D01*
X171467976Y-72461428D01*
X171467976Y-72651904D01*
X171515595Y-72747142D01*
X171563214Y-72794761D01*
X171658452Y-72842380D01*
X171848928Y-72842380D01*
X171944166Y-72794761D01*
X171991785Y-72747142D01*
X172039404Y-72651904D01*
X172039404Y-72461428D01*
X171991785Y-72366190D01*
X171944166Y-72318571D01*
X171848928Y-72270952D01*
X179074761Y-72937619D02*
X178979523Y-72890000D01*
X178884285Y-72794761D01*
X178741428Y-72651904D01*
X178646190Y-72604285D01*
X178550952Y-72604285D01*
X178598571Y-72842380D02*
X178503333Y-72794761D01*
X178408095Y-72699523D01*
X178360476Y-72509047D01*
X178360476Y-72175714D01*
X178408095Y-71985238D01*
X178503333Y-71890000D01*
X178598571Y-71842380D01*
X178789047Y-71842380D01*
X178884285Y-71890000D01*
X178979523Y-71985238D01*
X179027142Y-72175714D01*
X179027142Y-72509047D01*
X178979523Y-72699523D01*
X178884285Y-72794761D01*
X178789047Y-72842380D01*
X178598571Y-72842380D01*
X179979523Y-72842380D02*
X179408095Y-72842380D01*
X179693809Y-72842380D02*
X179693809Y-71842380D01*
X179598571Y-71985238D01*
X179503333Y-72080476D01*
X179408095Y-72128095D01*
X147312142Y-82907142D02*
X147264523Y-82954761D01*
X147121666Y-83002380D01*
X147026428Y-83002380D01*
X146883571Y-82954761D01*
X146788333Y-82859523D01*
X146740714Y-82764285D01*
X146693095Y-82573809D01*
X146693095Y-82430952D01*
X146740714Y-82240476D01*
X146788333Y-82145238D01*
X146883571Y-82050000D01*
X147026428Y-82002380D01*
X147121666Y-82002380D01*
X147264523Y-82050000D01*
X147312142Y-82097619D01*
X148264523Y-83002380D02*
X147693095Y-83002380D01*
X147978809Y-83002380D02*
X147978809Y-82002380D01*
X147883571Y-82145238D01*
X147788333Y-82240476D01*
X147693095Y-82288095D01*
X148645476Y-82097619D02*
X148693095Y-82050000D01*
X148788333Y-82002380D01*
X149026428Y-82002380D01*
X149121666Y-82050000D01*
X149169285Y-82097619D01*
X149216904Y-82192857D01*
X149216904Y-82288095D01*
X149169285Y-82430952D01*
X148597857Y-83002380D01*
X149216904Y-83002380D01*
X155233809Y-56332380D02*
X155233809Y-55332380D01*
X156281428Y-56237142D02*
X156233809Y-56284761D01*
X156090952Y-56332380D01*
X155995714Y-56332380D01*
X155852857Y-56284761D01*
X155757619Y-56189523D01*
X155710000Y-56094285D01*
X155662380Y-55903809D01*
X155662380Y-55760952D01*
X155710000Y-55570476D01*
X155757619Y-55475238D01*
X155852857Y-55380000D01*
X155995714Y-55332380D01*
X156090952Y-55332380D01*
X156233809Y-55380000D01*
X156281428Y-55427619D01*
X156662380Y-55427619D02*
X156710000Y-55380000D01*
X156805238Y-55332380D01*
X157043333Y-55332380D01*
X157138571Y-55380000D01*
X157186190Y-55427619D01*
X157233809Y-55522857D01*
X157233809Y-55618095D01*
X157186190Y-55760952D01*
X156614761Y-56332380D01*
X157233809Y-56332380D01*
X156662380Y-67436666D02*
X155662380Y-67436666D01*
X156376666Y-67103333D01*
X155662380Y-66770000D01*
X156662380Y-66770000D01*
X156376666Y-66341428D02*
X156376666Y-65865238D01*
X156662380Y-66436666D02*
X155662380Y-66103333D01*
X156662380Y-65770000D01*
X155662380Y-65531904D02*
X156662380Y-64865238D01*
X155662380Y-64865238D02*
X156662380Y-65531904D01*
X155757619Y-64531904D02*
X155710000Y-64484285D01*
X155662380Y-64389047D01*
X155662380Y-64150952D01*
X155710000Y-64055714D01*
X155757619Y-64008095D01*
X155852857Y-63960476D01*
X155948095Y-63960476D01*
X156090952Y-64008095D01*
X156662380Y-64579523D01*
X156662380Y-63960476D01*
X155662380Y-63627142D02*
X155662380Y-63008095D01*
X156043333Y-63341428D01*
X156043333Y-63198571D01*
X156090952Y-63103333D01*
X156138571Y-63055714D01*
X156233809Y-63008095D01*
X156471904Y-63008095D01*
X156567142Y-63055714D01*
X156614761Y-63103333D01*
X156662380Y-63198571D01*
X156662380Y-63484285D01*
X156614761Y-63579523D01*
X156567142Y-63627142D01*
X155757619Y-62627142D02*
X155710000Y-62579523D01*
X155662380Y-62484285D01*
X155662380Y-62246190D01*
X155710000Y-62150952D01*
X155757619Y-62103333D01*
X155852857Y-62055714D01*
X155948095Y-62055714D01*
X156090952Y-62103333D01*
X156662380Y-62674761D01*
X156662380Y-62055714D01*
D13*
X146130000Y-99850000D02*
X140335000Y-99850000D01*
X152030000Y-99850000D02*
X150130000Y-99850000D01*
X152230000Y-91500000D02*
X152230000Y-90450000D01*
X140335000Y-90650000D02*
X152030000Y-90650000D01*
X152030000Y-90650000D02*
X152030000Y-93250000D01*
X151180000Y-90450000D02*
X152230000Y-90450000D01*
X152030000Y-97150000D02*
X152030000Y-99850000D01*
X170030000Y-76050000D02*
X162790000Y-76050000D01*
X170030000Y-73810000D02*
X162790000Y-73810000D01*
X162790000Y-76050000D02*
X162790000Y-73810000D01*
X170030000Y-76050000D02*
X170030000Y-73810000D01*
X187730000Y-57150000D02*
X188500000Y-57150000D01*
X188500000Y-55780000D02*
X188500000Y-58520000D01*
X188500000Y-58520000D02*
X195040000Y-58520000D01*
X195810000Y-57150000D02*
X195040000Y-57150000D01*
X195040000Y-55780000D02*
X188500000Y-55780000D01*
X195040000Y-58520000D02*
X195040000Y-55780000D01*
X174475000Y-92225000D02*
X167235000Y-92225000D01*
X174475000Y-94465000D02*
X174475000Y-92225000D01*
X174475000Y-94465000D02*
X167235000Y-94465000D01*
X167235000Y-94465000D02*
X167235000Y-92225000D01*
X188500000Y-71220000D02*
X195040000Y-71220000D01*
X195040000Y-68480000D02*
X188500000Y-68480000D01*
X195810000Y-69850000D02*
X195040000Y-69850000D01*
X187730000Y-69850000D02*
X188500000Y-69850000D01*
X188500000Y-68480000D02*
X188500000Y-71220000D01*
X195040000Y-71220000D02*
X195040000Y-68480000D01*
X176000000Y-97100000D02*
X179600000Y-97100000D01*
X177800000Y-92649999D02*
G75*
G03*
X175961522Y-97088478I0J-2600001D01*
G01*
X179638478Y-97088478D02*
G75*
G03*
X177800000Y-92650000I-1838478J1838478D01*
G01*
X201740000Y-61885000D02*
X201896000Y-61885000D01*
X199424000Y-61885000D02*
X199580000Y-61885000D01*
X201740000Y-61365961D02*
G75*
G03*
X201739837Y-59283870I-1080000J1040961D01*
G01*
X199580163Y-59283870D02*
G75*
G03*
X199580000Y-61365961I1079837J-1041130D01*
G01*
X199581392Y-58652665D02*
G75*
G03*
X199424484Y-61885000I1078609J-1672335D01*
G01*
X201895516Y-61885000D02*
G75*
G03*
X201738608Y-58652665I-1235517J1560000D01*
G01*
X158750000Y-86875000D02*
X158750000Y-84335000D01*
X163870000Y-102765000D02*
X153630000Y-102765000D01*
X156210000Y-86875000D02*
X156210000Y-84335000D01*
X153630000Y-102765000D02*
X153630000Y-86875000D01*
X163870000Y-86875000D02*
X153630000Y-86875000D01*
X161290000Y-86875000D02*
X161290000Y-84335000D01*
X163870000Y-102765000D02*
X163870000Y-86875000D01*
X167580000Y-89010000D02*
X203260000Y-89010000D01*
X167580000Y-83710000D02*
X167580000Y-89010000D01*
X203260000Y-83710000D02*
X167580000Y-83710000D01*
X203260000Y-89010000D02*
X203260000Y-87360000D01*
X203260000Y-85360000D02*
X203260000Y-83710000D01*
X203260000Y-85360000D02*
G75*
G03*
X203260000Y-87360000I0J-1000000D01*
G01*
X145052000Y-87981000D02*
X143280000Y-87981000D01*
X145399000Y-87060000D02*
X143280000Y-87060000D01*
X144130000Y-89021000D02*
X140350000Y-89021000D01*
X145455000Y-86700000D02*
X143280000Y-86700000D01*
X141200000Y-88381000D02*
X139692000Y-88381000D01*
X145326000Y-87341000D02*
X143280000Y-87341000D01*
X145415000Y-86980000D02*
X143280000Y-86980000D01*
X143890000Y-89181000D02*
X140590000Y-89181000D01*
X141200000Y-86660000D02*
X139022000Y-86660000D01*
X141200000Y-87301000D02*
X139142000Y-87301000D01*
X141200000Y-87981000D02*
X139428000Y-87981000D01*
X141200000Y-87541000D02*
X139222000Y-87541000D01*
X143405000Y-89421000D02*
X141075000Y-89421000D01*
X144876000Y-88261000D02*
X143280000Y-88261000D01*
X145210000Y-87661000D02*
X143280000Y-87661000D01*
X141200000Y-87341000D02*
X139154000Y-87341000D01*
X141200000Y-86700000D02*
X139025000Y-86700000D01*
X141200000Y-86860000D02*
X139045000Y-86860000D01*
X141200000Y-88501000D02*
X139790000Y-88501000D01*
X145338000Y-87301000D02*
X143280000Y-87301000D01*
X141200000Y-88021000D02*
X139450000Y-88021000D01*
X141200000Y-87421000D02*
X139179000Y-87421000D01*
X143821000Y-89221000D02*
X140659000Y-89221000D01*
X145422000Y-86940000D02*
X143280000Y-86940000D01*
X141200000Y-87060000D02*
X139081000Y-87060000D01*
X145314000Y-87381000D02*
X143280000Y-87381000D01*
X144690000Y-88501000D02*
X143280000Y-88501000D01*
X145429000Y-86900000D02*
X143280000Y-86900000D01*
X145287000Y-87461000D02*
X143280000Y-87461000D01*
X141200000Y-87501000D02*
X139207000Y-87501000D01*
X145361000Y-87221000D02*
X143280000Y-87221000D01*
X145156000Y-87781000D02*
X143280000Y-87781000D01*
X144847000Y-88301000D02*
X143280000Y-88301000D01*
X141200000Y-86980000D02*
X139065000Y-86980000D01*
X141200000Y-88581000D02*
X139860000Y-88581000D01*
X145468000Y-86500000D02*
X139012000Y-86500000D01*
X141200000Y-87101000D02*
X139090000Y-87101000D01*
X145350000Y-87261000D02*
X143280000Y-87261000D01*
X145301000Y-87421000D02*
X143280000Y-87421000D01*
X141200000Y-86620000D02*
X139018000Y-86620000D01*
X141200000Y-88341000D02*
X139662000Y-88341000D01*
X141200000Y-86900000D02*
X139051000Y-86900000D01*
X143672000Y-89301000D02*
X140808000Y-89301000D01*
X141200000Y-87141000D02*
X139099000Y-87141000D01*
X141200000Y-87181000D02*
X139109000Y-87181000D01*
X141200000Y-86740000D02*
X139029000Y-86740000D01*
X141200000Y-87381000D02*
X139166000Y-87381000D01*
X144724000Y-88461000D02*
X143280000Y-88461000D01*
X145462000Y-86620000D02*
X143280000Y-86620000D01*
X145407000Y-87020000D02*
X143280000Y-87020000D01*
X145470000Y-86380000D02*
X139010000Y-86380000D01*
X145174000Y-87741000D02*
X143280000Y-87741000D01*
X141200000Y-87701000D02*
X139288000Y-87701000D01*
X143042000Y-89541000D02*
X141438000Y-89541000D01*
X143299000Y-89461000D02*
X141181000Y-89461000D01*
X145458000Y-86660000D02*
X143280000Y-86660000D01*
X144016000Y-89101000D02*
X140464000Y-89101000D01*
X141200000Y-88461000D02*
X139756000Y-88461000D01*
X143502000Y-89381000D02*
X140978000Y-89381000D01*
X145136000Y-87821000D02*
X143280000Y-87821000D01*
X141200000Y-86780000D02*
X139034000Y-86780000D01*
X145381000Y-87141000D02*
X143280000Y-87141000D01*
X144505000Y-88701000D02*
X139975000Y-88701000D01*
X142642000Y-89621000D02*
X141838000Y-89621000D01*
X143180000Y-89501000D02*
X141300000Y-89501000D01*
X145435000Y-86860000D02*
X143280000Y-86860000D01*
X145467000Y-86540000D02*
X139013000Y-86540000D01*
X141200000Y-88661000D02*
X139935000Y-88661000D01*
X145074000Y-87941000D02*
X143280000Y-87941000D01*
X141200000Y-88261000D02*
X139604000Y-88261000D01*
X144788000Y-88381000D02*
X143280000Y-88381000D01*
X143590000Y-89341000D02*
X140890000Y-89341000D01*
X145446000Y-86780000D02*
X143280000Y-86780000D01*
X145470000Y-86460000D02*
X139010000Y-86460000D01*
X145258000Y-87541000D02*
X143280000Y-87541000D01*
X143749000Y-89261000D02*
X140731000Y-89261000D01*
X141200000Y-88301000D02*
X139633000Y-88301000D01*
X141200000Y-88181000D02*
X139550000Y-88181000D01*
X144583000Y-88621000D02*
X143280000Y-88621000D01*
X145390000Y-87101000D02*
X143280000Y-87101000D01*
X144756000Y-88421000D02*
X143280000Y-88421000D01*
X141200000Y-87461000D02*
X139193000Y-87461000D01*
X141200000Y-87781000D02*
X139324000Y-87781000D01*
X145451000Y-86740000D02*
X143280000Y-86740000D01*
X144904000Y-88221000D02*
X143280000Y-88221000D01*
X144332000Y-88861000D02*
X140148000Y-88861000D01*
X145226000Y-87621000D02*
X143280000Y-87621000D01*
X141200000Y-87901000D02*
X139384000Y-87901000D01*
X144422000Y-88781000D02*
X140058000Y-88781000D01*
X144656000Y-88541000D02*
X143280000Y-88541000D01*
X145242000Y-87581000D02*
X143280000Y-87581000D01*
X141200000Y-88421000D02*
X139724000Y-88421000D01*
X141200000Y-88101000D02*
X139498000Y-88101000D01*
X141200000Y-86940000D02*
X139058000Y-86940000D01*
X141200000Y-87581000D02*
X139238000Y-87581000D01*
X141200000Y-88221000D02*
X139576000Y-88221000D01*
X144956000Y-88141000D02*
X143280000Y-88141000D01*
X144394000Y-83194759D02*
X143764000Y-83194759D01*
X141200000Y-88541000D02*
X139824000Y-88541000D01*
X141200000Y-88141000D02*
X139524000Y-88141000D01*
X144284000Y-88901000D02*
X140196000Y-88901000D01*
X145441000Y-86820000D02*
X143280000Y-86820000D01*
X144074000Y-89061000D02*
X140406000Y-89061000D01*
X145192000Y-87701000D02*
X143280000Y-87701000D01*
X141200000Y-88621000D02*
X139897000Y-88621000D01*
X144620000Y-88581000D02*
X143280000Y-88581000D01*
X142873000Y-89581000D02*
X141607000Y-89581000D01*
X144818000Y-88341000D02*
X143280000Y-88341000D01*
X144235000Y-88941000D02*
X140245000Y-88941000D01*
X141200000Y-87861000D02*
X139364000Y-87861000D01*
X145470000Y-86420000D02*
X139010000Y-86420000D01*
X144982000Y-88101000D02*
X143280000Y-88101000D01*
X144079000Y-82879759D02*
X144079000Y-83509759D01*
X145371000Y-87181000D02*
X143280000Y-87181000D01*
X145096000Y-87901000D02*
X143280000Y-87901000D01*
X144930000Y-88181000D02*
X143280000Y-88181000D01*
X145273000Y-87501000D02*
X143280000Y-87501000D01*
X141200000Y-87661000D02*
X139270000Y-87661000D01*
X144545000Y-88661000D02*
X143280000Y-88661000D01*
X141200000Y-87621000D02*
X139254000Y-87621000D01*
X144184000Y-88981000D02*
X140296000Y-88981000D01*
X143954000Y-89141000D02*
X140526000Y-89141000D01*
X141200000Y-87941000D02*
X139406000Y-87941000D01*
X145464000Y-86580000D02*
X139016000Y-86580000D01*
X141200000Y-86820000D02*
X139039000Y-86820000D01*
X141200000Y-87741000D02*
X139306000Y-87741000D01*
X144377000Y-88821000D02*
X140103000Y-88821000D01*
X141200000Y-87261000D02*
X139130000Y-87261000D01*
X145006000Y-88061000D02*
X143280000Y-88061000D01*
X141200000Y-87221000D02*
X139119000Y-87221000D01*
X141200000Y-87020000D02*
X139073000Y-87020000D01*
X145116000Y-87861000D02*
X143280000Y-87861000D01*
X141200000Y-88061000D02*
X139474000Y-88061000D01*
X144464000Y-88741000D02*
X140016000Y-88741000D01*
X141200000Y-87821000D02*
X139344000Y-87821000D01*
X145030000Y-88021000D02*
X143280000Y-88021000D01*
X145510000Y-86380000D02*
G75*
G03*
X145510000Y-86380000I-3270000J0D01*
G01*
X180490000Y-61110000D02*
X182730000Y-61110000D01*
X180490000Y-68350000D02*
X182730000Y-68350000D01*
X182730000Y-68350000D02*
X182730000Y-61110000D01*
X180490000Y-68350000D02*
X180490000Y-61110000D01*
X162790000Y-63350000D02*
X170030000Y-63350000D01*
X162790000Y-61110000D02*
X170030000Y-61110000D01*
X162790000Y-61110000D02*
X162790000Y-63350000D01*
X170030000Y-61110000D02*
X170030000Y-63350000D01*
X187730000Y-66675000D02*
X188500000Y-66675000D01*
X188500000Y-65305000D02*
X188500000Y-68045000D01*
X195040000Y-65305000D02*
X188500000Y-65305000D01*
X188500000Y-68045000D02*
X195040000Y-68045000D01*
X195810000Y-66675000D02*
X195040000Y-66675000D01*
X195040000Y-68045000D02*
X195040000Y-65305000D01*
X170030000Y-63650000D02*
X170030000Y-65890000D01*
X162790000Y-63650000D02*
X162790000Y-65890000D01*
X162790000Y-63650000D02*
X170030000Y-63650000D01*
X162790000Y-65890000D02*
X170030000Y-65890000D01*
X195810000Y-63500000D02*
X195040000Y-63500000D01*
X195040000Y-64870000D02*
X195040000Y-62130000D01*
X187730000Y-63500000D02*
X188500000Y-63500000D01*
X195040000Y-62130000D02*
X188500000Y-62130000D01*
X188500000Y-64870000D02*
X195040000Y-64870000D01*
X188500000Y-62130000D02*
X188500000Y-64870000D01*
X170030000Y-66190000D02*
X170030000Y-68430000D01*
X162790000Y-66190000D02*
X162790000Y-68430000D01*
X162790000Y-68430000D02*
X170030000Y-68430000D01*
X162790000Y-66190000D02*
X170030000Y-66190000D01*
X166080000Y-55914000D02*
X166080000Y-56070000D01*
X166080000Y-58230000D02*
X166080000Y-58386000D01*
X166080000Y-58385516D02*
G75*
G03*
X169312335Y-58228608I1560000J1235517D01*
G01*
X168681130Y-56070163D02*
G75*
G03*
X166599039Y-56070000I-1041130J-1079837D01*
G01*
X169312335Y-56071392D02*
G75*
G03*
X166080000Y-55914484I-1672335J-1078609D01*
G01*
X166599039Y-58230000D02*
G75*
G03*
X168681130Y-58229837I1040961J1080000D01*
G01*
X175410000Y-68350000D02*
X175410000Y-61110000D01*
X175410000Y-61110000D02*
X177650000Y-61110000D01*
X175410000Y-68350000D02*
X177650000Y-68350000D01*
X177650000Y-68350000D02*
X177650000Y-61110000D01*
X139065000Y-50095000D02*
X150450000Y-50095000D01*
X150450000Y-81065000D02*
X139065000Y-81065000D01*
X151344338Y-70870000D02*
X151344338Y-71370000D01*
X151344338Y-71370000D02*
X150911325Y-71120000D01*
X150911325Y-71120000D02*
X151344338Y-70870000D01*
X150450000Y-50095000D02*
X150450000Y-81065000D01*
X177950000Y-68350000D02*
X180190000Y-68350000D01*
X180190000Y-68350000D02*
X180190000Y-61110000D01*
X177950000Y-61110000D02*
X180190000Y-61110000D01*
X177950000Y-68350000D02*
X177950000Y-61110000D01*
X162790000Y-70970000D02*
X162790000Y-68730000D01*
X170030000Y-70970000D02*
X162790000Y-70970000D01*
X170030000Y-70970000D02*
X170030000Y-68730000D01*
X170030000Y-68730000D02*
X162790000Y-68730000D01*
X188500000Y-58955000D02*
X188500000Y-61695000D01*
X195810000Y-60325000D02*
X195040000Y-60325000D01*
X187730000Y-60325000D02*
X188500000Y-60325000D01*
X195040000Y-61695000D02*
X195040000Y-58955000D01*
X195040000Y-58955000D02*
X188500000Y-58955000D01*
X188500000Y-61695000D02*
X195040000Y-61695000D01*
X160570000Y-81480000D02*
X160570000Y-78540000D01*
X155010000Y-80010000D02*
X156030000Y-80010000D01*
X156030000Y-78540000D02*
X156030000Y-81480000D01*
X160690000Y-81480000D02*
X160690000Y-78540000D01*
X156030000Y-81480000D02*
X161470000Y-81480000D01*
X162490000Y-80010000D02*
X161470000Y-80010000D01*
X161470000Y-78540000D02*
X156030000Y-78540000D01*
X161470000Y-81480000D02*
X161470000Y-78540000D01*
X160450000Y-81480000D02*
X160450000Y-78540000D01*
X152630000Y-75715000D02*
X159870000Y-75715000D01*
X152630000Y-75715000D02*
X152630000Y-77955000D01*
X159870000Y-75715000D02*
X159870000Y-77955000D01*
X152630000Y-77955000D02*
X159870000Y-77955000D01*
X195850000Y-71970000D02*
X191350000Y-71970000D01*
X197100000Y-75970000D02*
X197100000Y-74470000D01*
X191350000Y-78470000D02*
X195850000Y-78470000D01*
X190100000Y-74470000D02*
X190100000Y-75970000D01*
X200600000Y-71060000D02*
X201930000Y-71060000D01*
X203200000Y-73660000D02*
X203200000Y-71060000D01*
X205800000Y-71060000D02*
X205800000Y-78800000D01*
X200600000Y-78800000D02*
X205800000Y-78800000D01*
X203200000Y-71060000D02*
X205800000Y-71060000D01*
X200600000Y-73660000D02*
X203200000Y-73660000D01*
X200600000Y-73660000D02*
X200600000Y-78800000D01*
X200600000Y-72390000D02*
X200600000Y-71060000D01*
X162790000Y-73510000D02*
X162790000Y-71270000D01*
X170030000Y-73510000D02*
X162790000Y-73510000D01*
X170030000Y-73510000D02*
X170030000Y-71270000D01*
X170030000Y-71270000D02*
X162790000Y-71270000D01*
X182295000Y-74915000D02*
X176045000Y-74915000D01*
X182295000Y-69865000D02*
X176045000Y-69865000D01*
X182295000Y-74915000D02*
G75*
G03*
X182295000Y-69865000I0J2525000D01*
G01*
X176045000Y-69865000D02*
G75*
G03*
X176045000Y-74915000I0J-2525000D01*
G01*
X153049000Y-86900000D02*
X150900000Y-86900000D01*
X148820000Y-87301000D02*
X146762000Y-87301000D01*
X152794000Y-87741000D02*
X150900000Y-87741000D01*
X151122000Y-89381000D02*
X148598000Y-89381000D01*
X151369000Y-89261000D02*
X148351000Y-89261000D01*
X148820000Y-87581000D02*
X146858000Y-87581000D01*
X148820000Y-87341000D02*
X146774000Y-87341000D01*
X148820000Y-88501000D02*
X147410000Y-88501000D01*
X152776000Y-87781000D02*
X150900000Y-87781000D01*
X150800000Y-89501000D02*
X148920000Y-89501000D01*
X148820000Y-87261000D02*
X146750000Y-87261000D01*
X152125000Y-88701000D02*
X147595000Y-88701000D01*
X148820000Y-87981000D02*
X147048000Y-87981000D01*
X152830000Y-87661000D02*
X150900000Y-87661000D01*
X148820000Y-87821000D02*
X146964000Y-87821000D01*
X152756000Y-87821000D02*
X150900000Y-87821000D01*
X152893000Y-87501000D02*
X150900000Y-87501000D01*
X148820000Y-88221000D02*
X147196000Y-88221000D01*
X148820000Y-87741000D02*
X146926000Y-87741000D01*
X148820000Y-87461000D02*
X146813000Y-87461000D01*
X152524000Y-88221000D02*
X150900000Y-88221000D01*
X152736000Y-87861000D02*
X150900000Y-87861000D01*
X152626000Y-88061000D02*
X150900000Y-88061000D01*
X148820000Y-87381000D02*
X146786000Y-87381000D01*
X153090000Y-86460000D02*
X146630000Y-86460000D01*
X152907000Y-87461000D02*
X150900000Y-87461000D01*
X148820000Y-86900000D02*
X146671000Y-86900000D01*
X151997000Y-88821000D02*
X147723000Y-88821000D01*
X148820000Y-88421000D02*
X147344000Y-88421000D01*
X148820000Y-87020000D02*
X146693000Y-87020000D01*
X151952000Y-88861000D02*
X147768000Y-88861000D01*
X148820000Y-87060000D02*
X146701000Y-87060000D01*
X148820000Y-88381000D02*
X147312000Y-88381000D01*
X148820000Y-88021000D02*
X147070000Y-88021000D01*
X153001000Y-87141000D02*
X150900000Y-87141000D01*
X148820000Y-88341000D02*
X147282000Y-88341000D01*
X148820000Y-88621000D02*
X147517000Y-88621000D01*
X153042000Y-86940000D02*
X150900000Y-86940000D01*
X150662000Y-89541000D02*
X149058000Y-89541000D01*
X151292000Y-89301000D02*
X148428000Y-89301000D01*
X148820000Y-86940000D02*
X146678000Y-86940000D01*
X152550000Y-88181000D02*
X150900000Y-88181000D01*
X148820000Y-87181000D02*
X146729000Y-87181000D01*
X152467000Y-88301000D02*
X150900000Y-88301000D01*
X148820000Y-87101000D02*
X146710000Y-87101000D01*
X148820000Y-88461000D02*
X147376000Y-88461000D01*
X152991000Y-87181000D02*
X150900000Y-87181000D01*
X148820000Y-86820000D02*
X146659000Y-86820000D01*
X152934000Y-87381000D02*
X150900000Y-87381000D01*
X148820000Y-87901000D02*
X147004000Y-87901000D01*
X148820000Y-88061000D02*
X147094000Y-88061000D01*
X151699000Y-82879759D02*
X151699000Y-83509759D01*
X152716000Y-87901000D02*
X150900000Y-87901000D01*
X153090000Y-86420000D02*
X146630000Y-86420000D01*
X151636000Y-89101000D02*
X148084000Y-89101000D01*
X148820000Y-88261000D02*
X147224000Y-88261000D01*
X153010000Y-87101000D02*
X150900000Y-87101000D01*
X153082000Y-86620000D02*
X150900000Y-86620000D01*
X152862000Y-87581000D02*
X150900000Y-87581000D01*
X152970000Y-87261000D02*
X150900000Y-87261000D01*
X148820000Y-87541000D02*
X146842000Y-87541000D01*
X148820000Y-88101000D02*
X147118000Y-88101000D01*
X148820000Y-87661000D02*
X146890000Y-87661000D01*
X151904000Y-88901000D02*
X147816000Y-88901000D01*
X148820000Y-86860000D02*
X146665000Y-86860000D01*
X150493000Y-89581000D02*
X149227000Y-89581000D01*
X152650000Y-88021000D02*
X150900000Y-88021000D01*
X152576000Y-88141000D02*
X150900000Y-88141000D01*
X152376000Y-88421000D02*
X150900000Y-88421000D01*
X151025000Y-89421000D02*
X148695000Y-89421000D01*
X152981000Y-87221000D02*
X150900000Y-87221000D01*
X148820000Y-88141000D02*
X147144000Y-88141000D01*
X152921000Y-87421000D02*
X150900000Y-87421000D01*
X148820000Y-88581000D02*
X147480000Y-88581000D01*
X152694000Y-87941000D02*
X150900000Y-87941000D01*
X153019000Y-87060000D02*
X150900000Y-87060000D01*
X151750000Y-89021000D02*
X147970000Y-89021000D01*
X151441000Y-89221000D02*
X148279000Y-89221000D01*
X153078000Y-86660000D02*
X150900000Y-86660000D01*
X152408000Y-88381000D02*
X150900000Y-88381000D01*
X153071000Y-86740000D02*
X150900000Y-86740000D01*
X148820000Y-87501000D02*
X146827000Y-87501000D01*
X153027000Y-87020000D02*
X150900000Y-87020000D01*
X152276000Y-88541000D02*
X150900000Y-88541000D01*
X152084000Y-88741000D02*
X147636000Y-88741000D01*
X153061000Y-86820000D02*
X150900000Y-86820000D01*
X153055000Y-86860000D02*
X150900000Y-86860000D01*
X153035000Y-86980000D02*
X150900000Y-86980000D01*
X153084000Y-86580000D02*
X146636000Y-86580000D01*
X148820000Y-87781000D02*
X146944000Y-87781000D01*
X152165000Y-88661000D02*
X150900000Y-88661000D01*
X152672000Y-87981000D02*
X150900000Y-87981000D01*
X151694000Y-89061000D02*
X148026000Y-89061000D01*
X152602000Y-88101000D02*
X150900000Y-88101000D01*
X152846000Y-87621000D02*
X150900000Y-87621000D01*
X148820000Y-86660000D02*
X146642000Y-86660000D01*
X151855000Y-88941000D02*
X147865000Y-88941000D01*
X148820000Y-87941000D02*
X147026000Y-87941000D01*
X150262000Y-89621000D02*
X149458000Y-89621000D01*
X148820000Y-87701000D02*
X146908000Y-87701000D01*
X151574000Y-89141000D02*
X148146000Y-89141000D01*
X153090000Y-86380000D02*
X146630000Y-86380000D01*
X151210000Y-89341000D02*
X148510000Y-89341000D01*
X152958000Y-87301000D02*
X150900000Y-87301000D01*
X152042000Y-88781000D02*
X147678000Y-88781000D01*
X148820000Y-88181000D02*
X147170000Y-88181000D01*
X152438000Y-88341000D02*
X150900000Y-88341000D01*
X148820000Y-87421000D02*
X146799000Y-87421000D01*
X150919000Y-89461000D02*
X148801000Y-89461000D01*
X148820000Y-87621000D02*
X146874000Y-87621000D01*
X148820000Y-88661000D02*
X147555000Y-88661000D01*
X152014000Y-83194759D02*
X151384000Y-83194759D01*
X152812000Y-87701000D02*
X150900000Y-87701000D01*
X153087000Y-86540000D02*
X146633000Y-86540000D01*
X148820000Y-87221000D02*
X146739000Y-87221000D01*
X153088000Y-86500000D02*
X146632000Y-86500000D01*
X152878000Y-87541000D02*
X150900000Y-87541000D01*
X152203000Y-88621000D02*
X150900000Y-88621000D01*
X152496000Y-88261000D02*
X150900000Y-88261000D01*
X151804000Y-88981000D02*
X147916000Y-88981000D01*
X148820000Y-86780000D02*
X146654000Y-86780000D01*
X153075000Y-86700000D02*
X150900000Y-86700000D01*
X152310000Y-88501000D02*
X150900000Y-88501000D01*
X152344000Y-88461000D02*
X150900000Y-88461000D01*
X148820000Y-86620000D02*
X146638000Y-86620000D01*
X153066000Y-86780000D02*
X150900000Y-86780000D01*
X148820000Y-86740000D02*
X146649000Y-86740000D01*
X148820000Y-87141000D02*
X146719000Y-87141000D01*
X148820000Y-88301000D02*
X147253000Y-88301000D01*
X148820000Y-86980000D02*
X146685000Y-86980000D01*
X152946000Y-87341000D02*
X150900000Y-87341000D01*
X151510000Y-89181000D02*
X148210000Y-89181000D01*
X148820000Y-87861000D02*
X146984000Y-87861000D01*
X152240000Y-88581000D02*
X150900000Y-88581000D01*
X148820000Y-88541000D02*
X147444000Y-88541000D01*
X148820000Y-86700000D02*
X146645000Y-86700000D01*
X153130000Y-86380000D02*
G75*
G03*
X153130000Y-86380000I-3270000J0D01*
G01*
X153560000Y-54550000D02*
X153560000Y-74990000D01*
X157210000Y-74990000D02*
X158860000Y-74990000D01*
X158860000Y-74990000D02*
X158860000Y-54550000D01*
X158860000Y-54550000D02*
X153560000Y-54550000D01*
X153560000Y-74990000D02*
X155210000Y-74990000D01*
X157210000Y-74990000D02*
G75*
G03*
X155210000Y-74990000I-1000000J0D01*
G01*
%LPC*%
D14*
X184150000Y-100330000D03*
D15*
X181610000Y-100330000D03*
X179070000Y-100330000D03*
X176530000Y-100330000D03*
X173990000Y-100330000D03*
X171450000Y-100330000D03*
X168910000Y-100330000D03*
X166370000Y-100330000D03*
D16*
X151130000Y-95250000D03*
D17*
X145130000Y-95250000D03*
D18*
X148130000Y-99950000D03*
D14*
X201905000Y-100355000D03*
D15*
X199365000Y-100355000D03*
X196825000Y-100355000D03*
X194285000Y-100355000D03*
X191745000Y-100355000D03*
X189205000Y-100355000D03*
D19*
X168910000Y-74930000D03*
X163910000Y-74930000D03*
X196850000Y-57150000D03*
D20*
X186690000Y-57150000D03*
D19*
X173355000Y-93345000D03*
X168355000Y-93345000D03*
X186690000Y-69850000D03*
D20*
X196850000Y-69850000D03*
D21*
X176530000Y-95250000D03*
D22*
X177800000Y-95250000D03*
X179070000Y-95250000D03*
D23*
X200660000Y-61595000D03*
D24*
X200660000Y-59055000D03*
D25*
X158750000Y-99845000D03*
D26*
X161290000Y-83185000D03*
D27*
X158750000Y-83185000D03*
X156210000Y-83185000D03*
D28*
X201930000Y-82550000D03*
D20*
X199390000Y-82550000D03*
X196850000Y-82550000D03*
X194310000Y-82550000D03*
X191770000Y-82550000D03*
X189230000Y-82550000D03*
X186690000Y-82550000D03*
X184150000Y-82550000D03*
X181610000Y-82550000D03*
X179070000Y-82550000D03*
X176530000Y-82550000D03*
X173990000Y-82550000D03*
X171450000Y-82550000D03*
X168910000Y-82550000D03*
X168910000Y-90170000D03*
X171450000Y-90170000D03*
X173990000Y-90170000D03*
X176530000Y-90170000D03*
X179070000Y-90170000D03*
X181610000Y-90170000D03*
X184150000Y-90170000D03*
X186690000Y-90170000D03*
X189230000Y-90170000D03*
X191770000Y-90170000D03*
X194310000Y-90170000D03*
X196850000Y-90170000D03*
X199390000Y-90170000D03*
X201930000Y-90170000D03*
D15*
X201930000Y-52070000D03*
X199390000Y-52070000D03*
X196850000Y-52070000D03*
X194310000Y-52070000D03*
X191770000Y-52070000D03*
X189230000Y-52070000D03*
X186690000Y-52070000D03*
X184150000Y-52070000D03*
D28*
X142240000Y-85130000D03*
D19*
X142240000Y-87630000D03*
X181610000Y-67230000D03*
X181610000Y-62230000D03*
X163910000Y-62230000D03*
X168910000Y-62230000D03*
X196850000Y-66675000D03*
D20*
X186690000Y-66675000D03*
D19*
X163910000Y-64770000D03*
X168910000Y-64770000D03*
X196850000Y-63500000D03*
D20*
X186690000Y-63500000D03*
D19*
X163910000Y-67310000D03*
X168910000Y-67310000D03*
D23*
X166370000Y-57150000D03*
D24*
X168910000Y-57150000D03*
D19*
X176530000Y-67230000D03*
X176530000Y-62230000D03*
D29*
X147170000Y-53080000D03*
X147170000Y-78080000D03*
D28*
X148590000Y-71120000D03*
D19*
X148590000Y-68350000D03*
X148590000Y-65580000D03*
X148590000Y-62810000D03*
X148590000Y-60040000D03*
X145750000Y-69735000D03*
X145750000Y-66965000D03*
X145750000Y-64195000D03*
X145750000Y-61425000D03*
X179070000Y-67230000D03*
X179070000Y-62230000D03*
X168910000Y-69850000D03*
X163910000Y-69850000D03*
X186690000Y-60325000D03*
D20*
X196850000Y-60325000D03*
D30*
X163830000Y-80010000D03*
D31*
X153670000Y-80010000D03*
D19*
X153750000Y-76835000D03*
X158750000Y-76835000D03*
D32*
X196850000Y-77470000D03*
X190350000Y-77470000D03*
X190350000Y-72970000D03*
X196850000Y-72970000D03*
D14*
X180280000Y-52095000D03*
D15*
X177740000Y-52095000D03*
X175200000Y-52095000D03*
X172660000Y-52095000D03*
X170120000Y-52095000D03*
X167580000Y-52095000D03*
X165040000Y-52095000D03*
X162500000Y-52095000D03*
X159960000Y-52095000D03*
X157420000Y-52095000D03*
D14*
X201930000Y-72390000D03*
D15*
X204470000Y-72390000D03*
X201930000Y-74930000D03*
X204470000Y-74930000D03*
X201930000Y-77470000D03*
X204470000Y-77470000D03*
D19*
X168910000Y-72390000D03*
X163910000Y-72390000D03*
D33*
X181610000Y-72390000D03*
X176730000Y-72390000D03*
D28*
X149860000Y-85130000D03*
D19*
X149860000Y-87630000D03*
D28*
X160020000Y-73660000D03*
D20*
X160020000Y-71120000D03*
X160020000Y-68580000D03*
X160020000Y-66040000D03*
X160020000Y-63500000D03*
X160020000Y-60960000D03*
X160020000Y-58420000D03*
X160020000Y-55880000D03*
X152400000Y-55880000D03*
X152400000Y-58420000D03*
X152400000Y-60960000D03*
X152400000Y-63500000D03*
X152400000Y-66040000D03*
X152400000Y-68580000D03*
X152400000Y-71120000D03*
X152400000Y-73660000D03*
M02*
