%FSLAX45Y45*%
G04 Gerber Fmt 4.5, Leading zero omitted, Abs format (unit mm)*
G04 Created by KiCad (PCBNEW 6.0.2+dfsg-1) date 2022-11-01 12:37:29*
%MOMM*%
%LPD*%
G01*
G04 APERTURE LIST*
%TA.AperFunction,Profile*%
%ADD10C,0.100000*%
%TD*%
%ADD11C,0.200000*%
%ADD12C,0.350000*%
G04 APERTURE END LIST*
D10*
X20447000Y-10287000D02*
X13843000Y-10287000D01*
X20701000Y-6477000D02*
X20447000Y-6223000D01*
X13843000Y-10287000D02*
X13843000Y-4953000D01*
X20447000Y-10287000D02*
X20447000Y-10160000D01*
X15527000Y-5207000D02*
G75*
G03*
X15527000Y-5207000I-160000J0D01*
G01*
X20701000Y-9906000D02*
X20701000Y-6477000D01*
X20294600Y-4953000D02*
X13843000Y-4953000D01*
X20447000Y-10160000D02*
X20701000Y-9906000D01*
X20607000Y-9525000D02*
G75*
G03*
X20607000Y-9525000I-160000J0D01*
G01*
X20447000Y-6223000D02*
X20447000Y-5105400D01*
X20607000Y-6731000D02*
G75*
G03*
X20607000Y-6731000I-160000J0D01*
G01*
X20447000Y-5105400D02*
X20294600Y-4953000D01*
D11*
D12*
X15700000Y-9809500D02*
X16050000Y-10159500D01*
X16050000Y-9809500D02*
X15700000Y-10159500D01*
D11*
X14095619Y-10602476D02*
X14095619Y-10402476D01*
X14143238Y-10402476D01*
X14171809Y-10412000D01*
X14190857Y-10431048D01*
X14200381Y-10450095D01*
X14209905Y-10488190D01*
X14209905Y-10516762D01*
X14200381Y-10554857D01*
X14190857Y-10573905D01*
X14171809Y-10592952D01*
X14143238Y-10602476D01*
X14095619Y-10602476D01*
X14295619Y-10602476D02*
X14295619Y-10469143D01*
X14295619Y-10507238D02*
X14305143Y-10488190D01*
X14314667Y-10478667D01*
X14333714Y-10469143D01*
X14352762Y-10469143D01*
X14419428Y-10602476D02*
X14419428Y-10469143D01*
X14419428Y-10402476D02*
X14409905Y-10412000D01*
X14419428Y-10421524D01*
X14428952Y-10412000D01*
X14419428Y-10402476D01*
X14419428Y-10421524D01*
X14543238Y-10602476D02*
X14524190Y-10592952D01*
X14514667Y-10573905D01*
X14514667Y-10402476D01*
X14648000Y-10602476D02*
X14628952Y-10592952D01*
X14619428Y-10573905D01*
X14619428Y-10402476D01*
X14876571Y-10602476D02*
X14876571Y-10402476D01*
X14943238Y-10545333D01*
X15009905Y-10402476D01*
X15009905Y-10602476D01*
X15190857Y-10602476D02*
X15190857Y-10497714D01*
X15181333Y-10478667D01*
X15162286Y-10469143D01*
X15124190Y-10469143D01*
X15105143Y-10478667D01*
X15190857Y-10592952D02*
X15171809Y-10602476D01*
X15124190Y-10602476D01*
X15105143Y-10592952D01*
X15095619Y-10573905D01*
X15095619Y-10554857D01*
X15105143Y-10535810D01*
X15124190Y-10526286D01*
X15171809Y-10526286D01*
X15190857Y-10516762D01*
X15286095Y-10469143D02*
X15286095Y-10669143D01*
X15286095Y-10478667D02*
X15305143Y-10469143D01*
X15343238Y-10469143D01*
X15362286Y-10478667D01*
X15371809Y-10488190D01*
X15381333Y-10507238D01*
X15381333Y-10564381D01*
X15371809Y-10583429D01*
X15362286Y-10592952D01*
X15343238Y-10602476D01*
X15305143Y-10602476D01*
X15286095Y-10592952D01*
X15467048Y-10583429D02*
X15476571Y-10592952D01*
X15467048Y-10602476D01*
X15457524Y-10592952D01*
X15467048Y-10583429D01*
X15467048Y-10602476D01*
X15467048Y-10478667D02*
X15476571Y-10488190D01*
X15467048Y-10497714D01*
X15457524Y-10488190D01*
X15467048Y-10478667D01*
X15467048Y-10497714D01*
X13638000Y-10832000D02*
X13838000Y-11032000D01*
X13838000Y-10832000D02*
X13638000Y-11032000D01*
X14076571Y-10822476D02*
X14200381Y-10822476D01*
X14133714Y-10898667D01*
X14162286Y-10898667D01*
X14181333Y-10908190D01*
X14190857Y-10917714D01*
X14200381Y-10936762D01*
X14200381Y-10984381D01*
X14190857Y-11003429D01*
X14181333Y-11012952D01*
X14162286Y-11022476D01*
X14105143Y-11022476D01*
X14086095Y-11012952D01*
X14076571Y-11003429D01*
X14286095Y-11003429D02*
X14295619Y-11012952D01*
X14286095Y-11022476D01*
X14276571Y-11012952D01*
X14286095Y-11003429D01*
X14286095Y-11022476D01*
X14476571Y-10822476D02*
X14381333Y-10822476D01*
X14371809Y-10917714D01*
X14381333Y-10908190D01*
X14400381Y-10898667D01*
X14448000Y-10898667D01*
X14467048Y-10908190D01*
X14476571Y-10917714D01*
X14486095Y-10936762D01*
X14486095Y-10984381D01*
X14476571Y-11003429D01*
X14467048Y-11012952D01*
X14448000Y-11022476D01*
X14400381Y-11022476D01*
X14381333Y-11012952D01*
X14371809Y-11003429D01*
X14609905Y-10822476D02*
X14628952Y-10822476D01*
X14648000Y-10832000D01*
X14657524Y-10841524D01*
X14667048Y-10860571D01*
X14676571Y-10898667D01*
X14676571Y-10946286D01*
X14667048Y-10984381D01*
X14657524Y-11003429D01*
X14648000Y-11012952D01*
X14628952Y-11022476D01*
X14609905Y-11022476D01*
X14590857Y-11012952D01*
X14581333Y-11003429D01*
X14571809Y-10984381D01*
X14562286Y-10946286D01*
X14562286Y-10898667D01*
X14571809Y-10860571D01*
X14581333Y-10841524D01*
X14590857Y-10832000D01*
X14609905Y-10822476D01*
X14800381Y-10822476D02*
X14819428Y-10822476D01*
X14838476Y-10832000D01*
X14848000Y-10841524D01*
X14857524Y-10860571D01*
X14867048Y-10898667D01*
X14867048Y-10946286D01*
X14857524Y-10984381D01*
X14848000Y-11003429D01*
X14838476Y-11012952D01*
X14819428Y-11022476D01*
X14800381Y-11022476D01*
X14781333Y-11012952D01*
X14771809Y-11003429D01*
X14762286Y-10984381D01*
X14752762Y-10946286D01*
X14752762Y-10898667D01*
X14762286Y-10860571D01*
X14771809Y-10841524D01*
X14781333Y-10832000D01*
X14800381Y-10822476D01*
X14952762Y-11022476D02*
X14952762Y-10889143D01*
X14952762Y-10908190D02*
X14962286Y-10898667D01*
X14981333Y-10889143D01*
X15009905Y-10889143D01*
X15028952Y-10898667D01*
X15038476Y-10917714D01*
X15038476Y-11022476D01*
X15038476Y-10917714D02*
X15048000Y-10898667D01*
X15067048Y-10889143D01*
X15095619Y-10889143D01*
X15114667Y-10898667D01*
X15124190Y-10917714D01*
X15124190Y-11022476D01*
X15219428Y-11022476D02*
X15219428Y-10889143D01*
X15219428Y-10908190D02*
X15228952Y-10898667D01*
X15248000Y-10889143D01*
X15276571Y-10889143D01*
X15295619Y-10898667D01*
X15305143Y-10917714D01*
X15305143Y-11022476D01*
X15305143Y-10917714D02*
X15314667Y-10898667D01*
X15333714Y-10889143D01*
X15362286Y-10889143D01*
X15381333Y-10898667D01*
X15390857Y-10917714D01*
X15390857Y-11022476D01*
X15781333Y-10812952D02*
X15609905Y-11070095D01*
X16038476Y-10822476D02*
X16057524Y-10822476D01*
X16076571Y-10832000D01*
X16086095Y-10841524D01*
X16095619Y-10860571D01*
X16105143Y-10898667D01*
X16105143Y-10946286D01*
X16095619Y-10984381D01*
X16086095Y-11003429D01*
X16076571Y-11012952D01*
X16057524Y-11022476D01*
X16038476Y-11022476D01*
X16019428Y-11012952D01*
X16009905Y-11003429D01*
X16000381Y-10984381D01*
X15990857Y-10946286D01*
X15990857Y-10898667D01*
X16000381Y-10860571D01*
X16009905Y-10841524D01*
X16019428Y-10832000D01*
X16038476Y-10822476D01*
X16190857Y-11003429D02*
X16200381Y-11012952D01*
X16190857Y-11022476D01*
X16181333Y-11012952D01*
X16190857Y-11003429D01*
X16190857Y-11022476D01*
X16390857Y-11022476D02*
X16276571Y-11022476D01*
X16333714Y-11022476D02*
X16333714Y-10822476D01*
X16314667Y-10851048D01*
X16295619Y-10870095D01*
X16276571Y-10879619D01*
X16457524Y-10822476D02*
X16581333Y-10822476D01*
X16514667Y-10898667D01*
X16543238Y-10898667D01*
X16562286Y-10908190D01*
X16571809Y-10917714D01*
X16581333Y-10936762D01*
X16581333Y-10984381D01*
X16571809Y-11003429D01*
X16562286Y-11012952D01*
X16543238Y-11022476D01*
X16486095Y-11022476D01*
X16467048Y-11012952D01*
X16457524Y-11003429D01*
X16648000Y-10822476D02*
X16781333Y-10822476D01*
X16695619Y-11022476D01*
X16886095Y-10908190D02*
X16867048Y-10898667D01*
X16857524Y-10889143D01*
X16848000Y-10870095D01*
X16848000Y-10860571D01*
X16857524Y-10841524D01*
X16867048Y-10832000D01*
X16886095Y-10822476D01*
X16924190Y-10822476D01*
X16943238Y-10832000D01*
X16952762Y-10841524D01*
X16962286Y-10860571D01*
X16962286Y-10870095D01*
X16952762Y-10889143D01*
X16943238Y-10898667D01*
X16924190Y-10908190D01*
X16886095Y-10908190D01*
X16867048Y-10917714D01*
X16857524Y-10927238D01*
X16848000Y-10946286D01*
X16848000Y-10984381D01*
X16857524Y-11003429D01*
X16867048Y-11012952D01*
X16886095Y-11022476D01*
X16924190Y-11022476D01*
X16943238Y-11012952D01*
X16952762Y-11003429D01*
X16962286Y-10984381D01*
X16962286Y-10946286D01*
X16952762Y-10927238D01*
X16943238Y-10917714D01*
X16924190Y-10908190D01*
X17038476Y-10822476D02*
X17038476Y-10860571D01*
X17114667Y-10822476D02*
X17114667Y-10860571D01*
X17409905Y-11098667D02*
X17400381Y-11089143D01*
X17381333Y-11060571D01*
X17371810Y-11041524D01*
X17362286Y-11012952D01*
X17352762Y-10965333D01*
X17352762Y-10927238D01*
X17362286Y-10879619D01*
X17371810Y-10851048D01*
X17381333Y-10832000D01*
X17400381Y-10803429D01*
X17409905Y-10793905D01*
X17590857Y-11022476D02*
X17476571Y-11022476D01*
X17533714Y-11022476D02*
X17533714Y-10822476D01*
X17514667Y-10851048D01*
X17495619Y-10870095D01*
X17476571Y-10879619D01*
X17828952Y-11022476D02*
X17828952Y-10822476D01*
X17914667Y-11022476D02*
X17914667Y-10917714D01*
X17905143Y-10898667D01*
X17886095Y-10889143D01*
X17857524Y-10889143D01*
X17838476Y-10898667D01*
X17828952Y-10908190D01*
X18038476Y-11022476D02*
X18019429Y-11012952D01*
X18009905Y-11003429D01*
X18000381Y-10984381D01*
X18000381Y-10927238D01*
X18009905Y-10908190D01*
X18019429Y-10898667D01*
X18038476Y-10889143D01*
X18067048Y-10889143D01*
X18086095Y-10898667D01*
X18095619Y-10908190D01*
X18105143Y-10927238D01*
X18105143Y-10984381D01*
X18095619Y-11003429D01*
X18086095Y-11012952D01*
X18067048Y-11022476D01*
X18038476Y-11022476D01*
X18219429Y-11022476D02*
X18200381Y-11012952D01*
X18190857Y-10993905D01*
X18190857Y-10822476D01*
X18371810Y-11012952D02*
X18352762Y-11022476D01*
X18314667Y-11022476D01*
X18295619Y-11012952D01*
X18286095Y-10993905D01*
X18286095Y-10917714D01*
X18295619Y-10898667D01*
X18314667Y-10889143D01*
X18352762Y-10889143D01*
X18371810Y-10898667D01*
X18381333Y-10917714D01*
X18381333Y-10936762D01*
X18286095Y-10955810D01*
X18448000Y-11098667D02*
X18457524Y-11089143D01*
X18476571Y-11060571D01*
X18486095Y-11041524D01*
X18495619Y-11012952D01*
X18505143Y-10965333D01*
X18505143Y-10927238D01*
X18495619Y-10879619D01*
X18486095Y-10851048D01*
X18476571Y-10832000D01*
X18457524Y-10803429D01*
X18448000Y-10793905D01*
X18809905Y-11098667D02*
X18800381Y-11089143D01*
X18781333Y-11060571D01*
X18771810Y-11041524D01*
X18762286Y-11012952D01*
X18752762Y-10965333D01*
X18752762Y-10927238D01*
X18762286Y-10879619D01*
X18771810Y-10851048D01*
X18781333Y-10832000D01*
X18800381Y-10803429D01*
X18809905Y-10793905D01*
X18886095Y-10889143D02*
X18886095Y-11022476D01*
X18886095Y-10908190D02*
X18895619Y-10898667D01*
X18914667Y-10889143D01*
X18943238Y-10889143D01*
X18962286Y-10898667D01*
X18971810Y-10917714D01*
X18971810Y-11022476D01*
X19095619Y-11022476D02*
X19076571Y-11012952D01*
X19067048Y-11003429D01*
X19057524Y-10984381D01*
X19057524Y-10927238D01*
X19067048Y-10908190D01*
X19076571Y-10898667D01*
X19095619Y-10889143D01*
X19124190Y-10889143D01*
X19143238Y-10898667D01*
X19152762Y-10908190D01*
X19162286Y-10927238D01*
X19162286Y-10984381D01*
X19152762Y-11003429D01*
X19143238Y-11012952D01*
X19124190Y-11022476D01*
X19095619Y-11022476D01*
X19219429Y-10889143D02*
X19295619Y-10889143D01*
X19248000Y-10822476D02*
X19248000Y-10993905D01*
X19257524Y-11012952D01*
X19276571Y-11022476D01*
X19295619Y-11022476D01*
X19514667Y-10889143D02*
X19514667Y-11089143D01*
X19514667Y-10898667D02*
X19533714Y-10889143D01*
X19571810Y-10889143D01*
X19590857Y-10898667D01*
X19600381Y-10908190D01*
X19609905Y-10927238D01*
X19609905Y-10984381D01*
X19600381Y-11003429D01*
X19590857Y-11012952D01*
X19571810Y-11022476D01*
X19533714Y-11022476D01*
X19514667Y-11012952D01*
X19724190Y-11022476D02*
X19705143Y-11012952D01*
X19695619Y-10993905D01*
X19695619Y-10822476D01*
X19886095Y-11022476D02*
X19886095Y-10917714D01*
X19876571Y-10898667D01*
X19857524Y-10889143D01*
X19819429Y-10889143D01*
X19800381Y-10898667D01*
X19886095Y-11012952D02*
X19867048Y-11022476D01*
X19819429Y-11022476D01*
X19800381Y-11012952D01*
X19790857Y-10993905D01*
X19790857Y-10974857D01*
X19800381Y-10955810D01*
X19819429Y-10946286D01*
X19867048Y-10946286D01*
X19886095Y-10936762D01*
X19952762Y-10889143D02*
X20028952Y-10889143D01*
X19981333Y-10822476D02*
X19981333Y-10993905D01*
X19990857Y-11012952D01*
X20009905Y-11022476D01*
X20028952Y-11022476D01*
X20171810Y-11012952D02*
X20152762Y-11022476D01*
X20114667Y-11022476D01*
X20095619Y-11012952D01*
X20086095Y-10993905D01*
X20086095Y-10917714D01*
X20095619Y-10898667D01*
X20114667Y-10889143D01*
X20152762Y-10889143D01*
X20171810Y-10898667D01*
X20181333Y-10917714D01*
X20181333Y-10936762D01*
X20086095Y-10955810D01*
X20352762Y-11022476D02*
X20352762Y-10822476D01*
X20352762Y-11012952D02*
X20333714Y-11022476D01*
X20295619Y-11022476D01*
X20276571Y-11012952D01*
X20267048Y-11003429D01*
X20257524Y-10984381D01*
X20257524Y-10927238D01*
X20267048Y-10908190D01*
X20276571Y-10898667D01*
X20295619Y-10889143D01*
X20333714Y-10889143D01*
X20352762Y-10898667D01*
X20428952Y-11098667D02*
X20438476Y-11089143D01*
X20457524Y-11060571D01*
X20467048Y-11041524D01*
X20476571Y-11012952D01*
X20486095Y-10965333D01*
X20486095Y-10927238D01*
X20476571Y-10879619D01*
X20467048Y-10851048D01*
X20457524Y-10832000D01*
X20438476Y-10803429D01*
X20428952Y-10793905D01*
M02*
