G04 #@! TF.GenerationSoftware,KiCad,Pcbnew,6.0.2+dfsg-1*
G04 #@! TF.CreationDate,2022-11-01T12:37:26+01:00*
G04 #@! TF.ProjectId,birnduino,6269726e-6475-4696-9e6f-2e6b69636164,rev?*
G04 #@! TF.SameCoordinates,Original*
G04 #@! TF.FileFunction,Soldermask,Bot*
G04 #@! TF.FilePolarity,Negative*
%FSLAX46Y46*%
G04 Gerber Fmt 4.6, Leading zero omitted, Abs format (unit mm)*
G04 Created by KiCad (PCBNEW 6.0.2+dfsg-1) date 2022-11-01 12:37:26*
%MOMM*%
%LPD*%
G01*
G04 APERTURE LIST*
G04 Aperture macros list*
%AMRoundRect*
0 Rectangle with rounded corners*
0 $1 Rounding radius*
0 $2 $3 $4 $5 $6 $7 $8 $9 X,Y pos of 4 corners*
0 Add a 4 corners polygon primitive as box body*
4,1,4,$2,$3,$4,$5,$6,$7,$8,$9,$2,$3,0*
0 Add four circle primitives for the rounded corners*
1,1,$1+$1,$2,$3*
1,1,$1+$1,$4,$5*
1,1,$1+$1,$6,$7*
1,1,$1+$1,$8,$9*
0 Add four rect primitives between the rounded corners*
20,1,$1+$1,$2,$3,$4,$5,0*
20,1,$1+$1,$4,$5,$6,$7,0*
20,1,$1+$1,$6,$7,$8,$9,0*
20,1,$1+$1,$8,$9,$2,$3,0*%
G04 Aperture macros list end*
%ADD10R,1.700000X1.700000*%
%ADD11O,1.700000X1.700000*%
%ADD12R,3.500000X3.500000*%
%ADD13RoundRect,0.750000X-0.750000X-1.000000X0.750000X-1.000000X0.750000X1.000000X-0.750000X1.000000X0*%
%ADD14RoundRect,0.875000X-0.875000X-0.875000X0.875000X-0.875000X0.875000X0.875000X-0.875000X0.875000X0*%
%ADD15C,1.600000*%
%ADD16O,1.600000X1.600000*%
%ADD17R,1.050000X1.500000*%
%ADD18O,1.050000X1.500000*%
%ADD19R,1.800000X1.800000*%
%ADD20C,1.800000*%
%ADD21O,3.500000X3.500000*%
%ADD22R,1.905000X2.000000*%
%ADD23O,1.905000X2.000000*%
%ADD24R,1.600000X1.600000*%
%ADD25C,4.000000*%
%ADD26R,2.200000X2.200000*%
%ADD27O,2.200000X2.200000*%
%ADD28C,2.000000*%
%ADD29C,1.500000*%
G04 APERTURE END LIST*
D10*
X184150000Y-100330000D03*
D11*
X181610000Y-100330000D03*
X179070000Y-100330000D03*
X176530000Y-100330000D03*
X173990000Y-100330000D03*
X171450000Y-100330000D03*
X168910000Y-100330000D03*
X166370000Y-100330000D03*
D12*
X151130000Y-95250000D03*
D13*
X145130000Y-95250000D03*
D14*
X148130000Y-99950000D03*
D10*
X201905000Y-100355000D03*
D11*
X199365000Y-100355000D03*
X196825000Y-100355000D03*
X194285000Y-100355000D03*
X191745000Y-100355000D03*
X189205000Y-100355000D03*
D15*
X168910000Y-74930000D03*
X163910000Y-74930000D03*
X196850000Y-57150000D03*
D16*
X186690000Y-57150000D03*
D15*
X173355000Y-93345000D03*
X168355000Y-93345000D03*
X186690000Y-69850000D03*
D16*
X196850000Y-69850000D03*
D17*
X176530000Y-95250000D03*
D18*
X177800000Y-95250000D03*
X179070000Y-95250000D03*
D19*
X200660000Y-61595000D03*
D20*
X200660000Y-59055000D03*
D21*
X158750000Y-99845000D03*
D22*
X161290000Y-83185000D03*
D23*
X158750000Y-83185000D03*
X156210000Y-83185000D03*
D24*
X201930000Y-82550000D03*
D16*
X199390000Y-82550000D03*
X196850000Y-82550000D03*
X194310000Y-82550000D03*
X191770000Y-82550000D03*
X189230000Y-82550000D03*
X186690000Y-82550000D03*
X184150000Y-82550000D03*
X181610000Y-82550000D03*
X179070000Y-82550000D03*
X176530000Y-82550000D03*
X173990000Y-82550000D03*
X171450000Y-82550000D03*
X168910000Y-82550000D03*
X168910000Y-90170000D03*
X171450000Y-90170000D03*
X173990000Y-90170000D03*
X176530000Y-90170000D03*
X179070000Y-90170000D03*
X181610000Y-90170000D03*
X184150000Y-90170000D03*
X186690000Y-90170000D03*
X189230000Y-90170000D03*
X191770000Y-90170000D03*
X194310000Y-90170000D03*
X196850000Y-90170000D03*
X199390000Y-90170000D03*
X201930000Y-90170000D03*
D11*
X201930000Y-52070000D03*
X199390000Y-52070000D03*
X196850000Y-52070000D03*
X194310000Y-52070000D03*
X191770000Y-52070000D03*
X189230000Y-52070000D03*
X186690000Y-52070000D03*
X184150000Y-52070000D03*
D24*
X142240000Y-85130000D03*
D15*
X142240000Y-87630000D03*
X181610000Y-67230000D03*
X181610000Y-62230000D03*
X163910000Y-62230000D03*
X168910000Y-62230000D03*
X196850000Y-66675000D03*
D16*
X186690000Y-66675000D03*
D15*
X163910000Y-64770000D03*
X168910000Y-64770000D03*
X196850000Y-63500000D03*
D16*
X186690000Y-63500000D03*
D15*
X163910000Y-67310000D03*
X168910000Y-67310000D03*
D19*
X166370000Y-57150000D03*
D20*
X168910000Y-57150000D03*
D15*
X176530000Y-67230000D03*
X176530000Y-62230000D03*
D25*
X147170000Y-53080000D03*
X147170000Y-78080000D03*
D24*
X148590000Y-71120000D03*
D15*
X148590000Y-68350000D03*
X148590000Y-65580000D03*
X148590000Y-62810000D03*
X148590000Y-60040000D03*
X145750000Y-69735000D03*
X145750000Y-66965000D03*
X145750000Y-64195000D03*
X145750000Y-61425000D03*
X179070000Y-67230000D03*
X179070000Y-62230000D03*
X168910000Y-69850000D03*
X163910000Y-69850000D03*
X186690000Y-60325000D03*
D16*
X196850000Y-60325000D03*
D26*
X163830000Y-80010000D03*
D27*
X153670000Y-80010000D03*
D15*
X153750000Y-76835000D03*
X158750000Y-76835000D03*
D28*
X196850000Y-77470000D03*
X190350000Y-77470000D03*
X190350000Y-72970000D03*
X196850000Y-72970000D03*
D10*
X180280000Y-52095000D03*
D11*
X177740000Y-52095000D03*
X175200000Y-52095000D03*
X172660000Y-52095000D03*
X170120000Y-52095000D03*
X167580000Y-52095000D03*
X165040000Y-52095000D03*
X162500000Y-52095000D03*
X159960000Y-52095000D03*
X157420000Y-52095000D03*
D10*
X201930000Y-72390000D03*
D11*
X204470000Y-72390000D03*
X201930000Y-74930000D03*
X204470000Y-74930000D03*
X201930000Y-77470000D03*
X204470000Y-77470000D03*
D15*
X168910000Y-72390000D03*
X163910000Y-72390000D03*
D29*
X181610000Y-72390000D03*
X176730000Y-72390000D03*
D24*
X149860000Y-85130000D03*
D15*
X149860000Y-87630000D03*
D24*
X160020000Y-73660000D03*
D16*
X160020000Y-71120000D03*
X160020000Y-68580000D03*
X160020000Y-66040000D03*
X160020000Y-63500000D03*
X160020000Y-60960000D03*
X160020000Y-58420000D03*
X160020000Y-55880000D03*
X152400000Y-55880000D03*
X152400000Y-58420000D03*
X152400000Y-60960000D03*
X152400000Y-63500000D03*
X152400000Y-66040000D03*
X152400000Y-68580000D03*
X152400000Y-71120000D03*
X152400000Y-73660000D03*
M02*
