%FSLAX45Y45*%
G04 Gerber Fmt 4.5, Leading zero omitted, Abs format (unit mm)*
G04 Created by KiCad (PCBNEW 6.0.2+dfsg-1) date 2022-11-01 12:40:45*
%MOMM*%
%LPD*%
G01*
G04 APERTURE LIST*
%TA.AperFunction,Profile*%
%ADD10C,0.100000*%
%TD*%
%ADD11C,0.200000*%
%ADD12C,0.030000*%
%ADD13C,0.075000*%
%ADD14C,0.080000*%
%ADD15C,0.090000*%
%ADD16C,0.100000*%
%ADD17C,0.110000*%
%ADD18C,0.320000*%
G04 APERTURE END LIST*
D10*
X20447000Y-10287000D02*
X13843000Y-10287000D01*
X20701000Y-6477000D02*
X20447000Y-6223000D01*
X13843000Y-10287000D02*
X13843000Y-4953000D01*
X20447000Y-10287000D02*
X20447000Y-10160000D01*
X15527000Y-5207000D02*
G75*
G03*
X15527000Y-5207000I-160000J0D01*
G01*
X20701000Y-9906000D02*
X20701000Y-6477000D01*
X20294600Y-4953000D02*
X13843000Y-4953000D01*
X20447000Y-10160000D02*
X20701000Y-9906000D01*
X20607000Y-9525000D02*
G75*
G03*
X20607000Y-9525000I-160000J0D01*
G01*
X20447000Y-6223000D02*
X20447000Y-5105400D01*
X20607000Y-6731000D02*
G75*
G03*
X20607000Y-6731000I-160000J0D01*
G01*
X20447000Y-5105400D02*
X20294600Y-4953000D01*
D11*
D12*
X15225000Y-8494000D02*
X15255000Y-8524000D01*
X15255000Y-8494000D02*
X15225000Y-8524000D01*
X15606000Y-5382500D02*
X15636000Y-5412500D01*
X15636000Y-5382500D02*
X15606000Y-5412500D01*
X15733000Y-8875000D02*
X15763000Y-8905000D01*
X15763000Y-8875000D02*
X15733000Y-8905000D01*
X16177500Y-5509500D02*
X16207500Y-5539500D01*
X16207500Y-5509500D02*
X16177500Y-5539500D01*
X16177500Y-8621000D02*
X16207500Y-8651000D01*
X16207500Y-8621000D02*
X16177500Y-8651000D01*
X16304500Y-5382500D02*
X16334500Y-5412500D01*
X16334500Y-5382500D02*
X16304500Y-5412500D01*
X16368000Y-8430500D02*
X16398000Y-8460500D01*
X16398000Y-8430500D02*
X16368000Y-8460500D01*
X16368000Y-8621000D02*
X16398000Y-8651000D01*
X16398000Y-8621000D02*
X16368000Y-8651000D01*
X16368000Y-8811500D02*
X16398000Y-8841500D01*
X16398000Y-8811500D02*
X16368000Y-8841500D01*
X16495000Y-7668500D02*
X16525000Y-7698500D01*
X16525000Y-7668500D02*
X16495000Y-7698500D01*
X16558500Y-8240000D02*
X16588500Y-8270000D01*
X16588500Y-8240000D02*
X16558500Y-8270000D01*
X16558500Y-8430500D02*
X16588500Y-8460500D01*
X16588500Y-8430500D02*
X16558500Y-8460500D01*
X16558500Y-8621000D02*
X16588500Y-8651000D01*
X16588500Y-8621000D02*
X16558500Y-8651000D01*
X16558500Y-8811500D02*
X16588500Y-8841500D01*
X16588500Y-8811500D02*
X16558500Y-8841500D01*
X16685500Y-7986000D02*
X16715500Y-8016000D01*
X16715500Y-7986000D02*
X16685500Y-8016000D01*
X17003000Y-5954000D02*
X17033000Y-5984000D01*
X17033000Y-5954000D02*
X17003000Y-5984000D01*
X17130000Y-5382500D02*
X17160000Y-5412500D01*
X17160000Y-5382500D02*
X17130000Y-5412500D01*
X17130000Y-7668500D02*
X17160000Y-7698500D01*
X17160000Y-7668500D02*
X17130000Y-7698500D01*
X17130000Y-8684500D02*
X17160000Y-8714500D01*
X17160000Y-8684500D02*
X17130000Y-8714500D01*
X17384000Y-8621000D02*
X17414000Y-8651000D01*
X17414000Y-8621000D02*
X17384000Y-8651000D01*
X17511000Y-7668500D02*
X17541000Y-7698500D01*
X17541000Y-7668500D02*
X17511000Y-7698500D01*
X17511000Y-7922500D02*
X17541000Y-7952500D01*
X17541000Y-7922500D02*
X17511000Y-7952500D01*
X17638000Y-5954000D02*
X17668000Y-5984000D01*
X17668000Y-5954000D02*
X17638000Y-5984000D01*
X17701500Y-5382500D02*
X17731500Y-5412500D01*
X17731500Y-5382500D02*
X17701500Y-5412500D01*
X17892000Y-8621000D02*
X17922000Y-8651000D01*
X17922000Y-8621000D02*
X17892000Y-8651000D01*
X18019000Y-5954000D02*
X18049000Y-5984000D01*
X18049000Y-5954000D02*
X18019000Y-5984000D01*
X18146000Y-8684500D02*
X18176000Y-8714500D01*
X18176000Y-8684500D02*
X18146000Y-8714500D01*
X18209500Y-8621000D02*
X18239500Y-8651000D01*
X18239500Y-8621000D02*
X18209500Y-8651000D01*
X18273000Y-5573000D02*
X18303000Y-5603000D01*
X18303000Y-5573000D02*
X18273000Y-5603000D01*
X18273000Y-8557500D02*
X18303000Y-8587500D01*
X18303000Y-8557500D02*
X18273000Y-8587500D01*
X18336500Y-8494000D02*
X18366500Y-8524000D01*
X18366500Y-8494000D02*
X18336500Y-8524000D01*
X18336500Y-9764000D02*
X18366500Y-9794000D01*
X18366500Y-9764000D02*
X18336500Y-9794000D01*
X18400000Y-7922500D02*
X18430000Y-7952500D01*
X18430000Y-7922500D02*
X18400000Y-7952500D01*
X18463500Y-9637000D02*
X18493500Y-9667000D01*
X18493500Y-9637000D02*
X18463500Y-9667000D01*
X18527000Y-8367000D02*
X18557000Y-8397000D01*
X18557000Y-8367000D02*
X18527000Y-8397000D01*
X18527000Y-8684500D02*
X18557000Y-8714500D01*
X18557000Y-8684500D02*
X18527000Y-8714500D01*
X18590500Y-9510000D02*
X18620500Y-9540000D01*
X18620500Y-9510000D02*
X18590500Y-9540000D01*
X18654000Y-5446000D02*
X18684000Y-5476000D01*
X18684000Y-5446000D02*
X18654000Y-5476000D01*
X18654000Y-7478000D02*
X18684000Y-7508000D01*
X18684000Y-7478000D02*
X18654000Y-7508000D01*
X18654000Y-8684500D02*
X18684000Y-8714500D01*
X18684000Y-8684500D02*
X18654000Y-8714500D01*
X18654000Y-8811500D02*
X18684000Y-8841500D01*
X18684000Y-8811500D02*
X18654000Y-8841500D01*
X18908000Y-9192500D02*
X18938000Y-9222500D01*
X18938000Y-9192500D02*
X18908000Y-9222500D01*
X18971500Y-6970000D02*
X19001500Y-7000000D01*
X19001500Y-6970000D02*
X18971500Y-7000000D01*
X19098500Y-6144500D02*
X19128500Y-6174500D01*
X19128500Y-6144500D02*
X19098500Y-6174500D01*
X19098500Y-6335000D02*
X19128500Y-6365000D01*
X19128500Y-6335000D02*
X19098500Y-6365000D01*
X19162000Y-6462000D02*
X19192000Y-6492000D01*
X19192000Y-6462000D02*
X19162000Y-6492000D01*
X19162000Y-8557500D02*
X19192000Y-8587500D01*
X19192000Y-8557500D02*
X19162000Y-8587500D01*
X19289000Y-6144500D02*
X19319000Y-6174500D01*
X19319000Y-6144500D02*
X19289000Y-6174500D01*
X19289000Y-6335000D02*
X19319000Y-6365000D01*
X19319000Y-6335000D02*
X19289000Y-6365000D01*
X19289000Y-7097000D02*
X19319000Y-7127000D01*
X19319000Y-7097000D02*
X19289000Y-7127000D01*
X19352500Y-5890500D02*
X19382500Y-5920500D01*
X19382500Y-5890500D02*
X19352500Y-5920500D01*
X19416000Y-8557500D02*
X19446000Y-8587500D01*
X19446000Y-8557500D02*
X19416000Y-8587500D01*
X19670000Y-8557500D02*
X19700000Y-8587500D01*
X19700000Y-8557500D02*
X19670000Y-8587500D01*
X19924000Y-8557500D02*
X19954000Y-8587500D01*
X19954000Y-8557500D02*
X19924000Y-8587500D01*
X19987500Y-5573000D02*
X20017500Y-5603000D01*
X20017500Y-5573000D02*
X19987500Y-5603000D01*
X20241500Y-5573000D02*
X20271500Y-5603000D01*
X20271500Y-5573000D02*
X20241500Y-5603000D01*
X20432000Y-7986000D02*
X20462000Y-8016000D01*
X20462000Y-7986000D02*
X20432000Y-8016000D01*
D13*
X17690500Y-9525000D02*
G75*
G03*
X17690500Y-9525000I-37500J0D01*
G01*
X17817500Y-9525000D02*
G75*
G03*
X17817500Y-9525000I-37500J0D01*
G01*
X17944500Y-9525000D02*
G75*
G03*
X17944500Y-9525000I-37500J0D01*
G01*
D14*
X14224000Y-8473000D02*
X14224000Y-8553000D01*
X14184000Y-8513000D02*
X14264000Y-8513000D01*
X14224000Y-8723000D02*
X14224000Y-8803000D01*
X14184000Y-8763000D02*
X14264000Y-8763000D01*
X14986000Y-8473000D02*
X14986000Y-8553000D01*
X14946000Y-8513000D02*
X15026000Y-8513000D01*
X14986000Y-8723000D02*
X14986000Y-8803000D01*
X14946000Y-8763000D02*
X15026000Y-8763000D01*
X15240000Y-5548000D02*
X15240000Y-5628000D01*
X15200000Y-5588000D02*
X15280000Y-5588000D01*
X15240000Y-5802000D02*
X15240000Y-5882000D01*
X15200000Y-5842000D02*
X15280000Y-5842000D01*
X15240000Y-6056000D02*
X15240000Y-6136000D01*
X15200000Y-6096000D02*
X15280000Y-6096000D01*
X15240000Y-6310000D02*
X15240000Y-6390000D01*
X15200000Y-6350000D02*
X15280000Y-6350000D01*
X15240000Y-6564000D02*
X15240000Y-6644000D01*
X15200000Y-6604000D02*
X15280000Y-6604000D01*
X15240000Y-6818000D02*
X15240000Y-6898000D01*
X15200000Y-6858000D02*
X15280000Y-6858000D01*
X15240000Y-7072000D02*
X15240000Y-7152000D01*
X15200000Y-7112000D02*
X15280000Y-7112000D01*
X15240000Y-7326000D02*
X15240000Y-7406000D01*
X15200000Y-7366000D02*
X15280000Y-7366000D01*
X15375000Y-7643500D02*
X15375000Y-7723500D01*
X15335000Y-7683500D02*
X15415000Y-7683500D01*
X15875000Y-7643500D02*
X15875000Y-7723500D01*
X15835000Y-7683500D02*
X15915000Y-7683500D01*
X16002000Y-5548000D02*
X16002000Y-5628000D01*
X15962000Y-5588000D02*
X16042000Y-5588000D01*
X16002000Y-5802000D02*
X16002000Y-5882000D01*
X15962000Y-5842000D02*
X16042000Y-5842000D01*
X16002000Y-6056000D02*
X16002000Y-6136000D01*
X15962000Y-6096000D02*
X16042000Y-6096000D01*
X16002000Y-6310000D02*
X16002000Y-6390000D01*
X15962000Y-6350000D02*
X16042000Y-6350000D01*
X16002000Y-6564000D02*
X16002000Y-6644000D01*
X15962000Y-6604000D02*
X16042000Y-6604000D01*
X16002000Y-6818000D02*
X16002000Y-6898000D01*
X15962000Y-6858000D02*
X16042000Y-6858000D01*
X16002000Y-7072000D02*
X16002000Y-7152000D01*
X15962000Y-7112000D02*
X16042000Y-7112000D01*
X16002000Y-7326000D02*
X16002000Y-7406000D01*
X15962000Y-7366000D02*
X16042000Y-7366000D01*
X16391000Y-6183000D02*
X16391000Y-6263000D01*
X16351000Y-6223000D02*
X16431000Y-6223000D01*
X16391000Y-6437000D02*
X16391000Y-6517000D01*
X16351000Y-6477000D02*
X16431000Y-6477000D01*
X16391000Y-6691000D02*
X16391000Y-6771000D01*
X16351000Y-6731000D02*
X16431000Y-6731000D01*
X16391000Y-6945000D02*
X16391000Y-7025000D01*
X16351000Y-6985000D02*
X16431000Y-6985000D01*
X16391000Y-7199000D02*
X16391000Y-7279000D01*
X16351000Y-7239000D02*
X16431000Y-7239000D01*
X16391000Y-7453000D02*
X16391000Y-7533000D01*
X16351000Y-7493000D02*
X16431000Y-7493000D01*
X16835500Y-9294500D02*
X16835500Y-9374500D01*
X16795500Y-9334500D02*
X16875500Y-9334500D01*
X16891000Y-6183000D02*
X16891000Y-6263000D01*
X16851000Y-6223000D02*
X16931000Y-6223000D01*
X16891000Y-6437000D02*
X16891000Y-6517000D01*
X16851000Y-6477000D02*
X16931000Y-6477000D01*
X16891000Y-6691000D02*
X16891000Y-6771000D01*
X16851000Y-6731000D02*
X16931000Y-6731000D01*
X16891000Y-6945000D02*
X16891000Y-7025000D01*
X16851000Y-6985000D02*
X16931000Y-6985000D01*
X16891000Y-7199000D02*
X16891000Y-7279000D01*
X16851000Y-7239000D02*
X16931000Y-7239000D01*
X16891000Y-7453000D02*
X16891000Y-7533000D01*
X16851000Y-7493000D02*
X16931000Y-7493000D01*
X16891000Y-8215000D02*
X16891000Y-8295000D01*
X16851000Y-8255000D02*
X16931000Y-8255000D01*
X16891000Y-8977000D02*
X16891000Y-9057000D01*
X16851000Y-9017000D02*
X16931000Y-9017000D01*
X17145000Y-8215000D02*
X17145000Y-8295000D01*
X17105000Y-8255000D02*
X17185000Y-8255000D01*
X17145000Y-8977000D02*
X17145000Y-9057000D01*
X17105000Y-9017000D02*
X17185000Y-9017000D01*
X17335500Y-9294500D02*
X17335500Y-9374500D01*
X17295500Y-9334500D02*
X17375500Y-9334500D01*
X17399000Y-8215000D02*
X17399000Y-8295000D01*
X17359000Y-8255000D02*
X17439000Y-8255000D01*
X17399000Y-8977000D02*
X17399000Y-9057000D01*
X17359000Y-9017000D02*
X17439000Y-9017000D01*
X17653000Y-6183000D02*
X17653000Y-6263000D01*
X17613000Y-6223000D02*
X17693000Y-6223000D01*
X17653000Y-6683000D02*
X17653000Y-6763000D01*
X17613000Y-6723000D02*
X17693000Y-6723000D01*
X17653000Y-8215000D02*
X17653000Y-8295000D01*
X17613000Y-8255000D02*
X17693000Y-8255000D01*
X17653000Y-8977000D02*
X17653000Y-9057000D01*
X17613000Y-9017000D02*
X17693000Y-9017000D01*
X17673000Y-7199000D02*
X17673000Y-7279000D01*
X17633000Y-7239000D02*
X17713000Y-7239000D01*
X17907000Y-6183000D02*
X17907000Y-6263000D01*
X17867000Y-6223000D02*
X17947000Y-6223000D01*
X17907000Y-6683000D02*
X17907000Y-6763000D01*
X17867000Y-6723000D02*
X17947000Y-6723000D01*
X17907000Y-8215000D02*
X17907000Y-8295000D01*
X17867000Y-8255000D02*
X17947000Y-8255000D01*
X17907000Y-8977000D02*
X17907000Y-9057000D01*
X17867000Y-9017000D02*
X17947000Y-9017000D01*
X18161000Y-6183000D02*
X18161000Y-6263000D01*
X18121000Y-6223000D02*
X18201000Y-6223000D01*
X18161000Y-6683000D02*
X18161000Y-6763000D01*
X18121000Y-6723000D02*
X18201000Y-6723000D01*
X18161000Y-7199000D02*
X18161000Y-7279000D01*
X18121000Y-7239000D02*
X18201000Y-7239000D01*
X18161000Y-8215000D02*
X18161000Y-8295000D01*
X18121000Y-8255000D02*
X18201000Y-8255000D01*
X18161000Y-8977000D02*
X18161000Y-9057000D01*
X18121000Y-9017000D02*
X18201000Y-9017000D01*
X18415000Y-8215000D02*
X18415000Y-8295000D01*
X18375000Y-8255000D02*
X18455000Y-8255000D01*
X18415000Y-8977000D02*
X18415000Y-9057000D01*
X18375000Y-9017000D02*
X18455000Y-9017000D01*
X18669000Y-5675000D02*
X18669000Y-5755000D01*
X18629000Y-5715000D02*
X18709000Y-5715000D01*
X18669000Y-5992500D02*
X18669000Y-6072500D01*
X18629000Y-6032500D02*
X18709000Y-6032500D01*
X18669000Y-6310000D02*
X18669000Y-6390000D01*
X18629000Y-6350000D02*
X18709000Y-6350000D01*
X18669000Y-6627500D02*
X18669000Y-6707500D01*
X18629000Y-6667500D02*
X18709000Y-6667500D01*
X18669000Y-6945000D02*
X18669000Y-7025000D01*
X18629000Y-6985000D02*
X18709000Y-6985000D01*
X18669000Y-8215000D02*
X18669000Y-8295000D01*
X18629000Y-8255000D02*
X18709000Y-8255000D01*
X18669000Y-8977000D02*
X18669000Y-9057000D01*
X18629000Y-9017000D02*
X18709000Y-9017000D01*
X18923000Y-8215000D02*
X18923000Y-8295000D01*
X18883000Y-8255000D02*
X18963000Y-8255000D01*
X18923000Y-8977000D02*
X18923000Y-9057000D01*
X18883000Y-9017000D02*
X18963000Y-9017000D01*
X19177000Y-8215000D02*
X19177000Y-8295000D01*
X19137000Y-8255000D02*
X19217000Y-8255000D01*
X19177000Y-8977000D02*
X19177000Y-9057000D01*
X19137000Y-9017000D02*
X19217000Y-9017000D01*
X19431000Y-8215000D02*
X19431000Y-8295000D01*
X19391000Y-8255000D02*
X19471000Y-8255000D01*
X19431000Y-8977000D02*
X19431000Y-9057000D01*
X19391000Y-9017000D02*
X19471000Y-9017000D01*
X19685000Y-5675000D02*
X19685000Y-5755000D01*
X19645000Y-5715000D02*
X19725000Y-5715000D01*
X19685000Y-5992500D02*
X19685000Y-6072500D01*
X19645000Y-6032500D02*
X19725000Y-6032500D01*
X19685000Y-6310000D02*
X19685000Y-6390000D01*
X19645000Y-6350000D02*
X19725000Y-6350000D01*
X19685000Y-6627500D02*
X19685000Y-6707500D01*
X19645000Y-6667500D02*
X19725000Y-6667500D01*
X19685000Y-6945000D02*
X19685000Y-7025000D01*
X19645000Y-6985000D02*
X19725000Y-6985000D01*
X19685000Y-8215000D02*
X19685000Y-8295000D01*
X19645000Y-8255000D02*
X19725000Y-8255000D01*
X19685000Y-8977000D02*
X19685000Y-9057000D01*
X19645000Y-9017000D02*
X19725000Y-9017000D01*
X19939000Y-8215000D02*
X19939000Y-8295000D01*
X19899000Y-8255000D02*
X19979000Y-8255000D01*
X19939000Y-8977000D02*
X19939000Y-9057000D01*
X19899000Y-9017000D02*
X19979000Y-9017000D01*
X20193000Y-8215000D02*
X20193000Y-8295000D01*
X20153000Y-8255000D02*
X20233000Y-8255000D01*
X20193000Y-8977000D02*
X20193000Y-9057000D01*
X20153000Y-9017000D02*
X20233000Y-9017000D01*
D15*
X16668820Y-5746820D02*
X16668820Y-5683180D01*
X16605180Y-5683180D01*
X16605180Y-5746820D01*
X16668820Y-5746820D01*
X16922820Y-5746820D02*
X16922820Y-5683180D01*
X16859180Y-5683180D01*
X16859180Y-5746820D01*
X16922820Y-5746820D01*
X20097820Y-5937320D02*
X20097820Y-5873680D01*
X20034180Y-5873680D01*
X20034180Y-5937320D01*
X20097820Y-5937320D01*
X20097820Y-6191320D02*
X20097820Y-6127680D01*
X20034180Y-6127680D01*
X20034180Y-6191320D01*
X20097820Y-6191320D01*
D16*
X14513000Y-9575000D02*
X14563000Y-9525000D01*
X14513000Y-9475000D01*
X14463000Y-9525000D01*
X14513000Y-9575000D01*
D11*
X14473000Y-9425000D02*
X14473000Y-9625000D01*
X14553000Y-9425000D02*
X14553000Y-9625000D01*
X14473000Y-9625000D02*
G75*
G03*
X14553000Y-9625000I40000J0D01*
G01*
X14553000Y-9425000D02*
G75*
G03*
X14473000Y-9425000I-40000J0D01*
G01*
D16*
X14575000Y-6192500D02*
X14625000Y-6142500D01*
X14575000Y-6092500D01*
X14525000Y-6142500D01*
X14575000Y-6192500D01*
X14575000Y-6469500D02*
X14625000Y-6419500D01*
X14575000Y-6369500D01*
X14525000Y-6419500D01*
X14575000Y-6469500D01*
X14575000Y-6746500D02*
X14625000Y-6696500D01*
X14575000Y-6646500D01*
X14525000Y-6696500D01*
X14575000Y-6746500D01*
X14575000Y-7023500D02*
X14625000Y-6973500D01*
X14575000Y-6923500D01*
X14525000Y-6973500D01*
X14575000Y-7023500D01*
X14813000Y-10045000D02*
X14863000Y-9995000D01*
X14813000Y-9945000D01*
X14763000Y-9995000D01*
X14813000Y-10045000D01*
D11*
X14713000Y-10035000D02*
X14913000Y-10035000D01*
X14713000Y-9955000D02*
X14913000Y-9955000D01*
X14913000Y-10035000D02*
G75*
G03*
X14913000Y-9955000I0J40000D01*
G01*
X14713000Y-9955000D02*
G75*
G03*
X14713000Y-10035000I0J-40000D01*
G01*
D16*
X14859000Y-6054000D02*
X14909000Y-6004000D01*
X14859000Y-5954000D01*
X14809000Y-6004000D01*
X14859000Y-6054000D01*
X14859000Y-6331000D02*
X14909000Y-6281000D01*
X14859000Y-6231000D01*
X14809000Y-6281000D01*
X14859000Y-6331000D01*
X14859000Y-6608000D02*
X14909000Y-6558000D01*
X14859000Y-6508000D01*
X14809000Y-6558000D01*
X14859000Y-6608000D01*
X14859000Y-6885000D02*
X14909000Y-6835000D01*
X14859000Y-6785000D01*
X14809000Y-6835000D01*
X14859000Y-6885000D01*
X14859000Y-7162000D02*
X14909000Y-7112000D01*
X14859000Y-7062000D01*
X14809000Y-7112000D01*
X14859000Y-7162000D01*
X15113000Y-9575000D02*
X15163000Y-9525000D01*
X15113000Y-9475000D01*
X15063000Y-9525000D01*
X15113000Y-9575000D01*
D11*
X15073000Y-9425000D02*
X15073000Y-9625000D01*
X15153000Y-9425000D02*
X15153000Y-9625000D01*
X15073000Y-9625000D02*
G75*
G03*
X15153000Y-9625000I40000J0D01*
G01*
X15153000Y-9425000D02*
G75*
G03*
X15073000Y-9425000I-40000J0D01*
G01*
D16*
X15742000Y-5259500D02*
X15792000Y-5209500D01*
X15742000Y-5159500D01*
X15692000Y-5209500D01*
X15742000Y-5259500D01*
X15996000Y-5259500D02*
X16046000Y-5209500D01*
X15996000Y-5159500D01*
X15946000Y-5209500D01*
X15996000Y-5259500D01*
X16250000Y-5259500D02*
X16300000Y-5209500D01*
X16250000Y-5159500D01*
X16200000Y-5209500D01*
X16250000Y-5259500D01*
X16504000Y-5259500D02*
X16554000Y-5209500D01*
X16504000Y-5159500D01*
X16454000Y-5209500D01*
X16504000Y-5259500D01*
X16637000Y-10083000D02*
X16687000Y-10033000D01*
X16637000Y-9983000D01*
X16587000Y-10033000D01*
X16637000Y-10083000D01*
X16758000Y-5259500D02*
X16808000Y-5209500D01*
X16758000Y-5159500D01*
X16708000Y-5209500D01*
X16758000Y-5259500D01*
X16891000Y-10083000D02*
X16941000Y-10033000D01*
X16891000Y-9983000D01*
X16841000Y-10033000D01*
X16891000Y-10083000D01*
X17012000Y-5259500D02*
X17062000Y-5209500D01*
X17012000Y-5159500D01*
X16962000Y-5209500D01*
X17012000Y-5259500D01*
X17145000Y-10083000D02*
X17195000Y-10033000D01*
X17145000Y-9983000D01*
X17095000Y-10033000D01*
X17145000Y-10083000D01*
X17266000Y-5259500D02*
X17316000Y-5209500D01*
X17266000Y-5159500D01*
X17216000Y-5209500D01*
X17266000Y-5259500D01*
X17399000Y-10083000D02*
X17449000Y-10033000D01*
X17399000Y-9983000D01*
X17349000Y-10033000D01*
X17399000Y-10083000D01*
X17520000Y-5259500D02*
X17570000Y-5209500D01*
X17520000Y-5159500D01*
X17470000Y-5209500D01*
X17520000Y-5259500D01*
X17653000Y-10083000D02*
X17703000Y-10033000D01*
X17653000Y-9983000D01*
X17603000Y-10033000D01*
X17653000Y-10083000D01*
X17774000Y-5259500D02*
X17824000Y-5209500D01*
X17774000Y-5159500D01*
X17724000Y-5209500D01*
X17774000Y-5259500D01*
X17907000Y-10083000D02*
X17957000Y-10033000D01*
X17907000Y-9983000D01*
X17857000Y-10033000D01*
X17907000Y-10083000D01*
X18028000Y-5259500D02*
X18078000Y-5209500D01*
X18028000Y-5159500D01*
X17978000Y-5209500D01*
X18028000Y-5259500D01*
X18161000Y-10083000D02*
X18211000Y-10033000D01*
X18161000Y-9983000D01*
X18111000Y-10033000D01*
X18161000Y-10083000D01*
X18415000Y-5257000D02*
X18465000Y-5207000D01*
X18415000Y-5157000D01*
X18365000Y-5207000D01*
X18415000Y-5257000D01*
X18415000Y-10083000D02*
X18465000Y-10033000D01*
X18415000Y-9983000D01*
X18365000Y-10033000D01*
X18415000Y-10083000D01*
X18669000Y-5257000D02*
X18719000Y-5207000D01*
X18669000Y-5157000D01*
X18619000Y-5207000D01*
X18669000Y-5257000D01*
X18920500Y-10085500D02*
X18970500Y-10035500D01*
X18920500Y-9985500D01*
X18870500Y-10035500D01*
X18920500Y-10085500D01*
X18923000Y-5257000D02*
X18973000Y-5207000D01*
X18923000Y-5157000D01*
X18873000Y-5207000D01*
X18923000Y-5257000D01*
X19174500Y-10085500D02*
X19224500Y-10035500D01*
X19174500Y-9985500D01*
X19124500Y-10035500D01*
X19174500Y-10085500D01*
X19177000Y-5257000D02*
X19227000Y-5207000D01*
X19177000Y-5157000D01*
X19127000Y-5207000D01*
X19177000Y-5257000D01*
X19428500Y-10085500D02*
X19478500Y-10035500D01*
X19428500Y-9985500D01*
X19378500Y-10035500D01*
X19428500Y-10085500D01*
X19431000Y-5257000D02*
X19481000Y-5207000D01*
X19431000Y-5157000D01*
X19381000Y-5207000D01*
X19431000Y-5257000D01*
X19682500Y-10085500D02*
X19732500Y-10035500D01*
X19682500Y-9985500D01*
X19632500Y-10035500D01*
X19682500Y-10085500D01*
X19685000Y-5257000D02*
X19735000Y-5207000D01*
X19685000Y-5157000D01*
X19635000Y-5207000D01*
X19685000Y-5257000D01*
X19936500Y-10085500D02*
X19986500Y-10035500D01*
X19936500Y-9985500D01*
X19886500Y-10035500D01*
X19936500Y-10085500D01*
X19939000Y-5257000D02*
X19989000Y-5207000D01*
X19939000Y-5157000D01*
X19889000Y-5207000D01*
X19939000Y-5257000D01*
X20190500Y-10085500D02*
X20240500Y-10035500D01*
X20190500Y-9985500D01*
X20140500Y-10035500D01*
X20190500Y-10085500D01*
X20193000Y-5257000D02*
X20243000Y-5207000D01*
X20193000Y-5157000D01*
X20143000Y-5207000D01*
X20193000Y-5257000D01*
X20193000Y-7289000D02*
X20243000Y-7239000D01*
X20193000Y-7189000D01*
X20143000Y-7239000D01*
X20193000Y-7289000D01*
X20193000Y-7543000D02*
X20243000Y-7493000D01*
X20193000Y-7443000D01*
X20143000Y-7493000D01*
X20193000Y-7543000D01*
X20193000Y-7797000D02*
X20243000Y-7747000D01*
X20193000Y-7697000D01*
X20143000Y-7747000D01*
X20193000Y-7797000D01*
X20447000Y-7289000D02*
X20497000Y-7239000D01*
X20447000Y-7189000D01*
X20397000Y-7239000D01*
X20447000Y-7289000D01*
X20447000Y-7543000D02*
X20497000Y-7493000D01*
X20447000Y-7443000D01*
X20397000Y-7493000D01*
X20447000Y-7543000D01*
X20447000Y-7797000D02*
X20497000Y-7747000D01*
X20447000Y-7697000D01*
X20397000Y-7747000D01*
X20447000Y-7797000D01*
D17*
X15312000Y-7946000D02*
X15422000Y-8056000D01*
X15422000Y-7946000D02*
X15312000Y-8056000D01*
X15422000Y-8001000D02*
G75*
G03*
X15422000Y-8001000I-55000J0D01*
G01*
X15566000Y-8263500D02*
X15676000Y-8373500D01*
X15676000Y-8263500D02*
X15566000Y-8373500D01*
X15676000Y-8318500D02*
G75*
G03*
X15676000Y-8318500I-55000J0D01*
G01*
X15820000Y-8263500D02*
X15930000Y-8373500D01*
X15930000Y-8263500D02*
X15820000Y-8373500D01*
X15930000Y-8318500D02*
G75*
G03*
X15930000Y-8318500I-55000J0D01*
G01*
X16074000Y-8263500D02*
X16184000Y-8373500D01*
X16184000Y-8263500D02*
X16074000Y-8373500D01*
X16184000Y-8318500D02*
G75*
G03*
X16184000Y-8318500I-55000J0D01*
G01*
X16328000Y-7946000D02*
X16438000Y-8056000D01*
X16438000Y-7946000D02*
X16328000Y-8056000D01*
X16438000Y-8001000D02*
G75*
G03*
X16438000Y-8001000I-55000J0D01*
G01*
X18980000Y-7242000D02*
X19090000Y-7352000D01*
X19090000Y-7242000D02*
X18980000Y-7352000D01*
X19090000Y-7297000D02*
G75*
G03*
X19090000Y-7297000I-55000J0D01*
G01*
X18980000Y-7692000D02*
X19090000Y-7802000D01*
X19090000Y-7692000D02*
X18980000Y-7802000D01*
X19090000Y-7747000D02*
G75*
G03*
X19090000Y-7747000I-55000J0D01*
G01*
X19630000Y-7242000D02*
X19740000Y-7352000D01*
X19740000Y-7242000D02*
X19630000Y-7352000D01*
X19740000Y-7297000D02*
G75*
G03*
X19740000Y-7297000I-55000J0D01*
G01*
X19630000Y-7692000D02*
X19740000Y-7802000D01*
X19740000Y-7692000D02*
X19630000Y-7802000D01*
X19740000Y-7747000D02*
G75*
G03*
X19740000Y-7747000I-55000J0D01*
G01*
D18*
X14557000Y-5148000D02*
X14877000Y-5468000D01*
X14877000Y-5148000D02*
X14557000Y-5468000D01*
X14717000Y-5148000D02*
X14717000Y-5468000D01*
X14557000Y-5308000D02*
X14877000Y-5308000D01*
X14557000Y-7648000D02*
X14877000Y-7968000D01*
X14877000Y-7648000D02*
X14557000Y-7968000D01*
X14717000Y-7648000D02*
X14717000Y-7968000D01*
X14557000Y-7808000D02*
X14877000Y-7808000D01*
D11*
X14095619Y-10602476D02*
X14095619Y-10402476D01*
X14143238Y-10402476D01*
X14171809Y-10412000D01*
X14190857Y-10431048D01*
X14200381Y-10450095D01*
X14209905Y-10488190D01*
X14209905Y-10516762D01*
X14200381Y-10554857D01*
X14190857Y-10573905D01*
X14171809Y-10592952D01*
X14143238Y-10602476D01*
X14095619Y-10602476D01*
X14295619Y-10602476D02*
X14295619Y-10469143D01*
X14295619Y-10507238D02*
X14305143Y-10488190D01*
X14314667Y-10478667D01*
X14333714Y-10469143D01*
X14352762Y-10469143D01*
X14419428Y-10602476D02*
X14419428Y-10469143D01*
X14419428Y-10402476D02*
X14409905Y-10412000D01*
X14419428Y-10421524D01*
X14428952Y-10412000D01*
X14419428Y-10402476D01*
X14419428Y-10421524D01*
X14543238Y-10602476D02*
X14524190Y-10592952D01*
X14514667Y-10573905D01*
X14514667Y-10402476D01*
X14648000Y-10602476D02*
X14628952Y-10592952D01*
X14619428Y-10573905D01*
X14619428Y-10402476D01*
X14876571Y-10602476D02*
X14876571Y-10402476D01*
X14943238Y-10545333D01*
X15009905Y-10402476D01*
X15009905Y-10602476D01*
X15190857Y-10602476D02*
X15190857Y-10497714D01*
X15181333Y-10478667D01*
X15162286Y-10469143D01*
X15124190Y-10469143D01*
X15105143Y-10478667D01*
X15190857Y-10592952D02*
X15171809Y-10602476D01*
X15124190Y-10602476D01*
X15105143Y-10592952D01*
X15095619Y-10573905D01*
X15095619Y-10554857D01*
X15105143Y-10535810D01*
X15124190Y-10526286D01*
X15171809Y-10526286D01*
X15190857Y-10516762D01*
X15286095Y-10469143D02*
X15286095Y-10669143D01*
X15286095Y-10478667D02*
X15305143Y-10469143D01*
X15343238Y-10469143D01*
X15362286Y-10478667D01*
X15371809Y-10488190D01*
X15381333Y-10507238D01*
X15381333Y-10564381D01*
X15371809Y-10583429D01*
X15362286Y-10592952D01*
X15343238Y-10602476D01*
X15305143Y-10602476D01*
X15286095Y-10592952D01*
X15467048Y-10583429D02*
X15476571Y-10592952D01*
X15467048Y-10602476D01*
X15457524Y-10592952D01*
X15467048Y-10583429D01*
X15467048Y-10602476D01*
X15467048Y-10478667D02*
X15476571Y-10488190D01*
X15467048Y-10497714D01*
X15457524Y-10488190D01*
X15467048Y-10478667D01*
X15467048Y-10497714D01*
D12*
X13808000Y-10917000D02*
X13838000Y-10947000D01*
X13838000Y-10917000D02*
X13808000Y-10947000D01*
D11*
X14133714Y-10822476D02*
X14152762Y-10822476D01*
X14171809Y-10832000D01*
X14181333Y-10841524D01*
X14190857Y-10860571D01*
X14200381Y-10898667D01*
X14200381Y-10946286D01*
X14190857Y-10984381D01*
X14181333Y-11003429D01*
X14171809Y-11012952D01*
X14152762Y-11022476D01*
X14133714Y-11022476D01*
X14114667Y-11012952D01*
X14105143Y-11003429D01*
X14095619Y-10984381D01*
X14086095Y-10946286D01*
X14086095Y-10898667D01*
X14095619Y-10860571D01*
X14105143Y-10841524D01*
X14114667Y-10832000D01*
X14133714Y-10822476D01*
X14286095Y-11003429D02*
X14295619Y-11012952D01*
X14286095Y-11022476D01*
X14276571Y-11012952D01*
X14286095Y-11003429D01*
X14286095Y-11022476D01*
X14362286Y-10822476D02*
X14486095Y-10822476D01*
X14419428Y-10898667D01*
X14448000Y-10898667D01*
X14467048Y-10908190D01*
X14476571Y-10917714D01*
X14486095Y-10936762D01*
X14486095Y-10984381D01*
X14476571Y-11003429D01*
X14467048Y-11012952D01*
X14448000Y-11022476D01*
X14390857Y-11022476D01*
X14371809Y-11012952D01*
X14362286Y-11003429D01*
X14609905Y-10822476D02*
X14628952Y-10822476D01*
X14648000Y-10832000D01*
X14657524Y-10841524D01*
X14667048Y-10860571D01*
X14676571Y-10898667D01*
X14676571Y-10946286D01*
X14667048Y-10984381D01*
X14657524Y-11003429D01*
X14648000Y-11012952D01*
X14628952Y-11022476D01*
X14609905Y-11022476D01*
X14590857Y-11012952D01*
X14581333Y-11003429D01*
X14571809Y-10984381D01*
X14562286Y-10946286D01*
X14562286Y-10898667D01*
X14571809Y-10860571D01*
X14581333Y-10841524D01*
X14590857Y-10832000D01*
X14609905Y-10822476D01*
X14800381Y-10822476D02*
X14819428Y-10822476D01*
X14838476Y-10832000D01*
X14848000Y-10841524D01*
X14857524Y-10860571D01*
X14867048Y-10898667D01*
X14867048Y-10946286D01*
X14857524Y-10984381D01*
X14848000Y-11003429D01*
X14838476Y-11012952D01*
X14819428Y-11022476D01*
X14800381Y-11022476D01*
X14781333Y-11012952D01*
X14771809Y-11003429D01*
X14762286Y-10984381D01*
X14752762Y-10946286D01*
X14752762Y-10898667D01*
X14762286Y-10860571D01*
X14771809Y-10841524D01*
X14781333Y-10832000D01*
X14800381Y-10822476D01*
X14952762Y-11022476D02*
X14952762Y-10889143D01*
X14952762Y-10908190D02*
X14962286Y-10898667D01*
X14981333Y-10889143D01*
X15009905Y-10889143D01*
X15028952Y-10898667D01*
X15038476Y-10917714D01*
X15038476Y-11022476D01*
X15038476Y-10917714D02*
X15048000Y-10898667D01*
X15067048Y-10889143D01*
X15095619Y-10889143D01*
X15114667Y-10898667D01*
X15124190Y-10917714D01*
X15124190Y-11022476D01*
X15219428Y-11022476D02*
X15219428Y-10889143D01*
X15219428Y-10908190D02*
X15228952Y-10898667D01*
X15248000Y-10889143D01*
X15276571Y-10889143D01*
X15295619Y-10898667D01*
X15305143Y-10917714D01*
X15305143Y-11022476D01*
X15305143Y-10917714D02*
X15314667Y-10898667D01*
X15333714Y-10889143D01*
X15362286Y-10889143D01*
X15381333Y-10898667D01*
X15390857Y-10917714D01*
X15390857Y-11022476D01*
X15781333Y-10812952D02*
X15609905Y-11070095D01*
X16038476Y-10822476D02*
X16057524Y-10822476D01*
X16076571Y-10832000D01*
X16086095Y-10841524D01*
X16095619Y-10860571D01*
X16105143Y-10898667D01*
X16105143Y-10946286D01*
X16095619Y-10984381D01*
X16086095Y-11003429D01*
X16076571Y-11012952D01*
X16057524Y-11022476D01*
X16038476Y-11022476D01*
X16019428Y-11012952D01*
X16009905Y-11003429D01*
X16000381Y-10984381D01*
X15990857Y-10946286D01*
X15990857Y-10898667D01*
X16000381Y-10860571D01*
X16009905Y-10841524D01*
X16019428Y-10832000D01*
X16038476Y-10822476D01*
X16190857Y-11003429D02*
X16200381Y-11012952D01*
X16190857Y-11022476D01*
X16181333Y-11012952D01*
X16190857Y-11003429D01*
X16190857Y-11022476D01*
X16324190Y-10822476D02*
X16343238Y-10822476D01*
X16362286Y-10832000D01*
X16371809Y-10841524D01*
X16381333Y-10860571D01*
X16390857Y-10898667D01*
X16390857Y-10946286D01*
X16381333Y-10984381D01*
X16371809Y-11003429D01*
X16362286Y-11012952D01*
X16343238Y-11022476D01*
X16324190Y-11022476D01*
X16305143Y-11012952D01*
X16295619Y-11003429D01*
X16286095Y-10984381D01*
X16276571Y-10946286D01*
X16276571Y-10898667D01*
X16286095Y-10860571D01*
X16295619Y-10841524D01*
X16305143Y-10832000D01*
X16324190Y-10822476D01*
X16581333Y-11022476D02*
X16467048Y-11022476D01*
X16524190Y-11022476D02*
X16524190Y-10822476D01*
X16505143Y-10851048D01*
X16486095Y-10870095D01*
X16467048Y-10879619D01*
X16771809Y-11022476D02*
X16657524Y-11022476D01*
X16714667Y-11022476D02*
X16714667Y-10822476D01*
X16695619Y-10851048D01*
X16676571Y-10870095D01*
X16657524Y-10879619D01*
X16886095Y-10908190D02*
X16867048Y-10898667D01*
X16857524Y-10889143D01*
X16848000Y-10870095D01*
X16848000Y-10860571D01*
X16857524Y-10841524D01*
X16867048Y-10832000D01*
X16886095Y-10822476D01*
X16924190Y-10822476D01*
X16943238Y-10832000D01*
X16952762Y-10841524D01*
X16962286Y-10860571D01*
X16962286Y-10870095D01*
X16952762Y-10889143D01*
X16943238Y-10898667D01*
X16924190Y-10908190D01*
X16886095Y-10908190D01*
X16867048Y-10917714D01*
X16857524Y-10927238D01*
X16848000Y-10946286D01*
X16848000Y-10984381D01*
X16857524Y-11003429D01*
X16867048Y-11012952D01*
X16886095Y-11022476D01*
X16924190Y-11022476D01*
X16943238Y-11012952D01*
X16952762Y-11003429D01*
X16962286Y-10984381D01*
X16962286Y-10946286D01*
X16952762Y-10927238D01*
X16943238Y-10917714D01*
X16924190Y-10908190D01*
X17038476Y-10822476D02*
X17038476Y-10860571D01*
X17114667Y-10822476D02*
X17114667Y-10860571D01*
X17409905Y-11098667D02*
X17400381Y-11089143D01*
X17381333Y-11060571D01*
X17371810Y-11041524D01*
X17362286Y-11012952D01*
X17352762Y-10965333D01*
X17352762Y-10927238D01*
X17362286Y-10879619D01*
X17371810Y-10851048D01*
X17381333Y-10832000D01*
X17400381Y-10803429D01*
X17409905Y-10793905D01*
X17581333Y-10822476D02*
X17486095Y-10822476D01*
X17476571Y-10917714D01*
X17486095Y-10908190D01*
X17505143Y-10898667D01*
X17552762Y-10898667D01*
X17571810Y-10908190D01*
X17581333Y-10917714D01*
X17590857Y-10936762D01*
X17590857Y-10984381D01*
X17581333Y-11003429D01*
X17571810Y-11012952D01*
X17552762Y-11022476D01*
X17505143Y-11022476D01*
X17486095Y-11012952D01*
X17476571Y-11003429D01*
X17657524Y-10822476D02*
X17790857Y-10822476D01*
X17705143Y-11022476D01*
X18019429Y-11022476D02*
X18019429Y-10822476D01*
X18105143Y-11022476D02*
X18105143Y-10917714D01*
X18095619Y-10898667D01*
X18076571Y-10889143D01*
X18048000Y-10889143D01*
X18028952Y-10898667D01*
X18019429Y-10908190D01*
X18228952Y-11022476D02*
X18209905Y-11012952D01*
X18200381Y-11003429D01*
X18190857Y-10984381D01*
X18190857Y-10927238D01*
X18200381Y-10908190D01*
X18209905Y-10898667D01*
X18228952Y-10889143D01*
X18257524Y-10889143D01*
X18276571Y-10898667D01*
X18286095Y-10908190D01*
X18295619Y-10927238D01*
X18295619Y-10984381D01*
X18286095Y-11003429D01*
X18276571Y-11012952D01*
X18257524Y-11022476D01*
X18228952Y-11022476D01*
X18409905Y-11022476D02*
X18390857Y-11012952D01*
X18381333Y-10993905D01*
X18381333Y-10822476D01*
X18562286Y-11012952D02*
X18543238Y-11022476D01*
X18505143Y-11022476D01*
X18486095Y-11012952D01*
X18476571Y-10993905D01*
X18476571Y-10917714D01*
X18486095Y-10898667D01*
X18505143Y-10889143D01*
X18543238Y-10889143D01*
X18562286Y-10898667D01*
X18571810Y-10917714D01*
X18571810Y-10936762D01*
X18476571Y-10955810D01*
X18648000Y-11012952D02*
X18667048Y-11022476D01*
X18705143Y-11022476D01*
X18724190Y-11012952D01*
X18733714Y-10993905D01*
X18733714Y-10984381D01*
X18724190Y-10965333D01*
X18705143Y-10955810D01*
X18676571Y-10955810D01*
X18657524Y-10946286D01*
X18648000Y-10927238D01*
X18648000Y-10917714D01*
X18657524Y-10898667D01*
X18676571Y-10889143D01*
X18705143Y-10889143D01*
X18724190Y-10898667D01*
X18800381Y-11098667D02*
X18809905Y-11089143D01*
X18828952Y-11060571D01*
X18838476Y-11041524D01*
X18848000Y-11012952D01*
X18857524Y-10965333D01*
X18857524Y-10927238D01*
X18848000Y-10879619D01*
X18838476Y-10851048D01*
X18828952Y-10832000D01*
X18809905Y-10803429D01*
X18800381Y-10793905D01*
D13*
X13838000Y-11196000D02*
G75*
G03*
X13838000Y-11196000I-37500J0D01*
G01*
D11*
X14133714Y-11086476D02*
X14152762Y-11086476D01*
X14171809Y-11096000D01*
X14181333Y-11105524D01*
X14190857Y-11124571D01*
X14200381Y-11162667D01*
X14200381Y-11210286D01*
X14190857Y-11248381D01*
X14181333Y-11267428D01*
X14171809Y-11276952D01*
X14152762Y-11286476D01*
X14133714Y-11286476D01*
X14114667Y-11276952D01*
X14105143Y-11267428D01*
X14095619Y-11248381D01*
X14086095Y-11210286D01*
X14086095Y-11162667D01*
X14095619Y-11124571D01*
X14105143Y-11105524D01*
X14114667Y-11096000D01*
X14133714Y-11086476D01*
X14286095Y-11267428D02*
X14295619Y-11276952D01*
X14286095Y-11286476D01*
X14276571Y-11276952D01*
X14286095Y-11267428D01*
X14286095Y-11286476D01*
X14362286Y-11086476D02*
X14495619Y-11086476D01*
X14409905Y-11286476D01*
X14667048Y-11086476D02*
X14571809Y-11086476D01*
X14562286Y-11181714D01*
X14571809Y-11172190D01*
X14590857Y-11162667D01*
X14638476Y-11162667D01*
X14657524Y-11172190D01*
X14667048Y-11181714D01*
X14676571Y-11200762D01*
X14676571Y-11248381D01*
X14667048Y-11267428D01*
X14657524Y-11276952D01*
X14638476Y-11286476D01*
X14590857Y-11286476D01*
X14571809Y-11276952D01*
X14562286Y-11267428D01*
X14800381Y-11086476D02*
X14819428Y-11086476D01*
X14838476Y-11096000D01*
X14848000Y-11105524D01*
X14857524Y-11124571D01*
X14867048Y-11162667D01*
X14867048Y-11210286D01*
X14857524Y-11248381D01*
X14848000Y-11267428D01*
X14838476Y-11276952D01*
X14819428Y-11286476D01*
X14800381Y-11286476D01*
X14781333Y-11276952D01*
X14771809Y-11267428D01*
X14762286Y-11248381D01*
X14752762Y-11210286D01*
X14752762Y-11162667D01*
X14762286Y-11124571D01*
X14771809Y-11105524D01*
X14781333Y-11096000D01*
X14800381Y-11086476D01*
X14952762Y-11286476D02*
X14952762Y-11153143D01*
X14952762Y-11172190D02*
X14962286Y-11162667D01*
X14981333Y-11153143D01*
X15009905Y-11153143D01*
X15028952Y-11162667D01*
X15038476Y-11181714D01*
X15038476Y-11286476D01*
X15038476Y-11181714D02*
X15048000Y-11162667D01*
X15067048Y-11153143D01*
X15095619Y-11153143D01*
X15114667Y-11162667D01*
X15124190Y-11181714D01*
X15124190Y-11286476D01*
X15219428Y-11286476D02*
X15219428Y-11153143D01*
X15219428Y-11172190D02*
X15228952Y-11162667D01*
X15248000Y-11153143D01*
X15276571Y-11153143D01*
X15295619Y-11162667D01*
X15305143Y-11181714D01*
X15305143Y-11286476D01*
X15305143Y-11181714D02*
X15314667Y-11162667D01*
X15333714Y-11153143D01*
X15362286Y-11153143D01*
X15381333Y-11162667D01*
X15390857Y-11181714D01*
X15390857Y-11286476D01*
X15781333Y-11076952D02*
X15609905Y-11334095D01*
X16038476Y-11086476D02*
X16057524Y-11086476D01*
X16076571Y-11096000D01*
X16086095Y-11105524D01*
X16095619Y-11124571D01*
X16105143Y-11162667D01*
X16105143Y-11210286D01*
X16095619Y-11248381D01*
X16086095Y-11267428D01*
X16076571Y-11276952D01*
X16057524Y-11286476D01*
X16038476Y-11286476D01*
X16019428Y-11276952D01*
X16009905Y-11267428D01*
X16000381Y-11248381D01*
X15990857Y-11210286D01*
X15990857Y-11162667D01*
X16000381Y-11124571D01*
X16009905Y-11105524D01*
X16019428Y-11096000D01*
X16038476Y-11086476D01*
X16190857Y-11267428D02*
X16200381Y-11276952D01*
X16190857Y-11286476D01*
X16181333Y-11276952D01*
X16190857Y-11267428D01*
X16190857Y-11286476D01*
X16324190Y-11086476D02*
X16343238Y-11086476D01*
X16362286Y-11096000D01*
X16371809Y-11105524D01*
X16381333Y-11124571D01*
X16390857Y-11162667D01*
X16390857Y-11210286D01*
X16381333Y-11248381D01*
X16371809Y-11267428D01*
X16362286Y-11276952D01*
X16343238Y-11286476D01*
X16324190Y-11286476D01*
X16305143Y-11276952D01*
X16295619Y-11267428D01*
X16286095Y-11248381D01*
X16276571Y-11210286D01*
X16276571Y-11162667D01*
X16286095Y-11124571D01*
X16295619Y-11105524D01*
X16305143Y-11096000D01*
X16324190Y-11086476D01*
X16467048Y-11105524D02*
X16476571Y-11096000D01*
X16495619Y-11086476D01*
X16543238Y-11086476D01*
X16562286Y-11096000D01*
X16571809Y-11105524D01*
X16581333Y-11124571D01*
X16581333Y-11143619D01*
X16571809Y-11172190D01*
X16457524Y-11286476D01*
X16581333Y-11286476D01*
X16676571Y-11286476D02*
X16714667Y-11286476D01*
X16733714Y-11276952D01*
X16743238Y-11267428D01*
X16762286Y-11238857D01*
X16771809Y-11200762D01*
X16771809Y-11124571D01*
X16762286Y-11105524D01*
X16752762Y-11096000D01*
X16733714Y-11086476D01*
X16695619Y-11086476D01*
X16676571Y-11096000D01*
X16667048Y-11105524D01*
X16657524Y-11124571D01*
X16657524Y-11172190D01*
X16667048Y-11191238D01*
X16676571Y-11200762D01*
X16695619Y-11210286D01*
X16733714Y-11210286D01*
X16752762Y-11200762D01*
X16762286Y-11191238D01*
X16771809Y-11172190D01*
X16952762Y-11086476D02*
X16857524Y-11086476D01*
X16848000Y-11181714D01*
X16857524Y-11172190D01*
X16876571Y-11162667D01*
X16924190Y-11162667D01*
X16943238Y-11172190D01*
X16952762Y-11181714D01*
X16962286Y-11200762D01*
X16962286Y-11248381D01*
X16952762Y-11267428D01*
X16943238Y-11276952D01*
X16924190Y-11286476D01*
X16876571Y-11286476D01*
X16857524Y-11276952D01*
X16848000Y-11267428D01*
X17038476Y-11086476D02*
X17038476Y-11124571D01*
X17114667Y-11086476D02*
X17114667Y-11124571D01*
X17409905Y-11362667D02*
X17400381Y-11353143D01*
X17381333Y-11324571D01*
X17371810Y-11305524D01*
X17362286Y-11276952D01*
X17352762Y-11229333D01*
X17352762Y-11191238D01*
X17362286Y-11143619D01*
X17371810Y-11115048D01*
X17381333Y-11096000D01*
X17400381Y-11067429D01*
X17409905Y-11057905D01*
X17467048Y-11086476D02*
X17590857Y-11086476D01*
X17524190Y-11162667D01*
X17552762Y-11162667D01*
X17571810Y-11172190D01*
X17581333Y-11181714D01*
X17590857Y-11200762D01*
X17590857Y-11248381D01*
X17581333Y-11267428D01*
X17571810Y-11276952D01*
X17552762Y-11286476D01*
X17495619Y-11286476D01*
X17476571Y-11276952D01*
X17467048Y-11267428D01*
X17828952Y-11286476D02*
X17828952Y-11086476D01*
X17914667Y-11286476D02*
X17914667Y-11181714D01*
X17905143Y-11162667D01*
X17886095Y-11153143D01*
X17857524Y-11153143D01*
X17838476Y-11162667D01*
X17828952Y-11172190D01*
X18038476Y-11286476D02*
X18019429Y-11276952D01*
X18009905Y-11267428D01*
X18000381Y-11248381D01*
X18000381Y-11191238D01*
X18009905Y-11172190D01*
X18019429Y-11162667D01*
X18038476Y-11153143D01*
X18067048Y-11153143D01*
X18086095Y-11162667D01*
X18095619Y-11172190D01*
X18105143Y-11191238D01*
X18105143Y-11248381D01*
X18095619Y-11267428D01*
X18086095Y-11276952D01*
X18067048Y-11286476D01*
X18038476Y-11286476D01*
X18219429Y-11286476D02*
X18200381Y-11276952D01*
X18190857Y-11257905D01*
X18190857Y-11086476D01*
X18371810Y-11276952D02*
X18352762Y-11286476D01*
X18314667Y-11286476D01*
X18295619Y-11276952D01*
X18286095Y-11257905D01*
X18286095Y-11181714D01*
X18295619Y-11162667D01*
X18314667Y-11153143D01*
X18352762Y-11153143D01*
X18371810Y-11162667D01*
X18381333Y-11181714D01*
X18381333Y-11200762D01*
X18286095Y-11219809D01*
X18457524Y-11276952D02*
X18476571Y-11286476D01*
X18514667Y-11286476D01*
X18533714Y-11276952D01*
X18543238Y-11257905D01*
X18543238Y-11248381D01*
X18533714Y-11229333D01*
X18514667Y-11219809D01*
X18486095Y-11219809D01*
X18467048Y-11210286D01*
X18457524Y-11191238D01*
X18457524Y-11181714D01*
X18467048Y-11162667D01*
X18486095Y-11153143D01*
X18514667Y-11153143D01*
X18533714Y-11162667D01*
X18609905Y-11362667D02*
X18619429Y-11353143D01*
X18638476Y-11324571D01*
X18648000Y-11305524D01*
X18657524Y-11276952D01*
X18667048Y-11229333D01*
X18667048Y-11191238D01*
X18657524Y-11143619D01*
X18648000Y-11115048D01*
X18638476Y-11096000D01*
X18619429Y-11067429D01*
X18609905Y-11057905D01*
D14*
X13798000Y-11420000D02*
X13798000Y-11500000D01*
X13758000Y-11460000D02*
X13838000Y-11460000D01*
D11*
X14133714Y-11350476D02*
X14152762Y-11350476D01*
X14171809Y-11360000D01*
X14181333Y-11369524D01*
X14190857Y-11388571D01*
X14200381Y-11426667D01*
X14200381Y-11474286D01*
X14190857Y-11512381D01*
X14181333Y-11531428D01*
X14171809Y-11540952D01*
X14152762Y-11550476D01*
X14133714Y-11550476D01*
X14114667Y-11540952D01*
X14105143Y-11531428D01*
X14095619Y-11512381D01*
X14086095Y-11474286D01*
X14086095Y-11426667D01*
X14095619Y-11388571D01*
X14105143Y-11369524D01*
X14114667Y-11360000D01*
X14133714Y-11350476D01*
X14286095Y-11531428D02*
X14295619Y-11540952D01*
X14286095Y-11550476D01*
X14276571Y-11540952D01*
X14286095Y-11531428D01*
X14286095Y-11550476D01*
X14409905Y-11436190D02*
X14390857Y-11426667D01*
X14381333Y-11417143D01*
X14371809Y-11398095D01*
X14371809Y-11388571D01*
X14381333Y-11369524D01*
X14390857Y-11360000D01*
X14409905Y-11350476D01*
X14448000Y-11350476D01*
X14467048Y-11360000D01*
X14476571Y-11369524D01*
X14486095Y-11388571D01*
X14486095Y-11398095D01*
X14476571Y-11417143D01*
X14467048Y-11426667D01*
X14448000Y-11436190D01*
X14409905Y-11436190D01*
X14390857Y-11445714D01*
X14381333Y-11455238D01*
X14371809Y-11474286D01*
X14371809Y-11512381D01*
X14381333Y-11531428D01*
X14390857Y-11540952D01*
X14409905Y-11550476D01*
X14448000Y-11550476D01*
X14467048Y-11540952D01*
X14476571Y-11531428D01*
X14486095Y-11512381D01*
X14486095Y-11474286D01*
X14476571Y-11455238D01*
X14467048Y-11445714D01*
X14448000Y-11436190D01*
X14609905Y-11350476D02*
X14628952Y-11350476D01*
X14648000Y-11360000D01*
X14657524Y-11369524D01*
X14667048Y-11388571D01*
X14676571Y-11426667D01*
X14676571Y-11474286D01*
X14667048Y-11512381D01*
X14657524Y-11531428D01*
X14648000Y-11540952D01*
X14628952Y-11550476D01*
X14609905Y-11550476D01*
X14590857Y-11540952D01*
X14581333Y-11531428D01*
X14571809Y-11512381D01*
X14562286Y-11474286D01*
X14562286Y-11426667D01*
X14571809Y-11388571D01*
X14581333Y-11369524D01*
X14590857Y-11360000D01*
X14609905Y-11350476D01*
X14800381Y-11350476D02*
X14819428Y-11350476D01*
X14838476Y-11360000D01*
X14848000Y-11369524D01*
X14857524Y-11388571D01*
X14867048Y-11426667D01*
X14867048Y-11474286D01*
X14857524Y-11512381D01*
X14848000Y-11531428D01*
X14838476Y-11540952D01*
X14819428Y-11550476D01*
X14800381Y-11550476D01*
X14781333Y-11540952D01*
X14771809Y-11531428D01*
X14762286Y-11512381D01*
X14752762Y-11474286D01*
X14752762Y-11426667D01*
X14762286Y-11388571D01*
X14771809Y-11369524D01*
X14781333Y-11360000D01*
X14800381Y-11350476D01*
X14952762Y-11550476D02*
X14952762Y-11417143D01*
X14952762Y-11436190D02*
X14962286Y-11426667D01*
X14981333Y-11417143D01*
X15009905Y-11417143D01*
X15028952Y-11426667D01*
X15038476Y-11445714D01*
X15038476Y-11550476D01*
X15038476Y-11445714D02*
X15048000Y-11426667D01*
X15067048Y-11417143D01*
X15095619Y-11417143D01*
X15114667Y-11426667D01*
X15124190Y-11445714D01*
X15124190Y-11550476D01*
X15219428Y-11550476D02*
X15219428Y-11417143D01*
X15219428Y-11436190D02*
X15228952Y-11426667D01*
X15248000Y-11417143D01*
X15276571Y-11417143D01*
X15295619Y-11426667D01*
X15305143Y-11445714D01*
X15305143Y-11550476D01*
X15305143Y-11445714D02*
X15314667Y-11426667D01*
X15333714Y-11417143D01*
X15362286Y-11417143D01*
X15381333Y-11426667D01*
X15390857Y-11445714D01*
X15390857Y-11550476D01*
X15781333Y-11340952D02*
X15609905Y-11598095D01*
X16038476Y-11350476D02*
X16057524Y-11350476D01*
X16076571Y-11360000D01*
X16086095Y-11369524D01*
X16095619Y-11388571D01*
X16105143Y-11426667D01*
X16105143Y-11474286D01*
X16095619Y-11512381D01*
X16086095Y-11531428D01*
X16076571Y-11540952D01*
X16057524Y-11550476D01*
X16038476Y-11550476D01*
X16019428Y-11540952D01*
X16009905Y-11531428D01*
X16000381Y-11512381D01*
X15990857Y-11474286D01*
X15990857Y-11426667D01*
X16000381Y-11388571D01*
X16009905Y-11369524D01*
X16019428Y-11360000D01*
X16038476Y-11350476D01*
X16190857Y-11531428D02*
X16200381Y-11540952D01*
X16190857Y-11550476D01*
X16181333Y-11540952D01*
X16190857Y-11531428D01*
X16190857Y-11550476D01*
X16324190Y-11350476D02*
X16343238Y-11350476D01*
X16362286Y-11360000D01*
X16371809Y-11369524D01*
X16381333Y-11388571D01*
X16390857Y-11426667D01*
X16390857Y-11474286D01*
X16381333Y-11512381D01*
X16371809Y-11531428D01*
X16362286Y-11540952D01*
X16343238Y-11550476D01*
X16324190Y-11550476D01*
X16305143Y-11540952D01*
X16295619Y-11531428D01*
X16286095Y-11512381D01*
X16276571Y-11474286D01*
X16276571Y-11426667D01*
X16286095Y-11388571D01*
X16295619Y-11369524D01*
X16305143Y-11360000D01*
X16324190Y-11350476D01*
X16457524Y-11350476D02*
X16581333Y-11350476D01*
X16514667Y-11426667D01*
X16543238Y-11426667D01*
X16562286Y-11436190D01*
X16571809Y-11445714D01*
X16581333Y-11464762D01*
X16581333Y-11512381D01*
X16571809Y-11531428D01*
X16562286Y-11540952D01*
X16543238Y-11550476D01*
X16486095Y-11550476D01*
X16467048Y-11540952D01*
X16457524Y-11531428D01*
X16771809Y-11550476D02*
X16657524Y-11550476D01*
X16714667Y-11550476D02*
X16714667Y-11350476D01*
X16695619Y-11379048D01*
X16676571Y-11398095D01*
X16657524Y-11407619D01*
X16952762Y-11350476D02*
X16857524Y-11350476D01*
X16848000Y-11445714D01*
X16857524Y-11436190D01*
X16876571Y-11426667D01*
X16924190Y-11426667D01*
X16943238Y-11436190D01*
X16952762Y-11445714D01*
X16962286Y-11464762D01*
X16962286Y-11512381D01*
X16952762Y-11531428D01*
X16943238Y-11540952D01*
X16924190Y-11550476D01*
X16876571Y-11550476D01*
X16857524Y-11540952D01*
X16848000Y-11531428D01*
X17038476Y-11350476D02*
X17038476Y-11388571D01*
X17114667Y-11350476D02*
X17114667Y-11388571D01*
X17409905Y-11626667D02*
X17400381Y-11617143D01*
X17381333Y-11588571D01*
X17371810Y-11569524D01*
X17362286Y-11540952D01*
X17352762Y-11493333D01*
X17352762Y-11455238D01*
X17362286Y-11407619D01*
X17371810Y-11379048D01*
X17381333Y-11360000D01*
X17400381Y-11331428D01*
X17409905Y-11321905D01*
X17514667Y-11436190D02*
X17495619Y-11426667D01*
X17486095Y-11417143D01*
X17476571Y-11398095D01*
X17476571Y-11388571D01*
X17486095Y-11369524D01*
X17495619Y-11360000D01*
X17514667Y-11350476D01*
X17552762Y-11350476D01*
X17571810Y-11360000D01*
X17581333Y-11369524D01*
X17590857Y-11388571D01*
X17590857Y-11398095D01*
X17581333Y-11417143D01*
X17571810Y-11426667D01*
X17552762Y-11436190D01*
X17514667Y-11436190D01*
X17495619Y-11445714D01*
X17486095Y-11455238D01*
X17476571Y-11474286D01*
X17476571Y-11512381D01*
X17486095Y-11531428D01*
X17495619Y-11540952D01*
X17514667Y-11550476D01*
X17552762Y-11550476D01*
X17571810Y-11540952D01*
X17581333Y-11531428D01*
X17590857Y-11512381D01*
X17590857Y-11474286D01*
X17581333Y-11455238D01*
X17571810Y-11445714D01*
X17552762Y-11436190D01*
X17667048Y-11369524D02*
X17676571Y-11360000D01*
X17695619Y-11350476D01*
X17743238Y-11350476D01*
X17762286Y-11360000D01*
X17771810Y-11369524D01*
X17781333Y-11388571D01*
X17781333Y-11407619D01*
X17771810Y-11436190D01*
X17657524Y-11550476D01*
X17781333Y-11550476D01*
X18019429Y-11550476D02*
X18019429Y-11350476D01*
X18105143Y-11550476D02*
X18105143Y-11445714D01*
X18095619Y-11426667D01*
X18076571Y-11417143D01*
X18048000Y-11417143D01*
X18028952Y-11426667D01*
X18019429Y-11436190D01*
X18228952Y-11550476D02*
X18209905Y-11540952D01*
X18200381Y-11531428D01*
X18190857Y-11512381D01*
X18190857Y-11455238D01*
X18200381Y-11436190D01*
X18209905Y-11426667D01*
X18228952Y-11417143D01*
X18257524Y-11417143D01*
X18276571Y-11426667D01*
X18286095Y-11436190D01*
X18295619Y-11455238D01*
X18295619Y-11512381D01*
X18286095Y-11531428D01*
X18276571Y-11540952D01*
X18257524Y-11550476D01*
X18228952Y-11550476D01*
X18409905Y-11550476D02*
X18390857Y-11540952D01*
X18381333Y-11521905D01*
X18381333Y-11350476D01*
X18562286Y-11540952D02*
X18543238Y-11550476D01*
X18505143Y-11550476D01*
X18486095Y-11540952D01*
X18476571Y-11521905D01*
X18476571Y-11445714D01*
X18486095Y-11426667D01*
X18505143Y-11417143D01*
X18543238Y-11417143D01*
X18562286Y-11426667D01*
X18571810Y-11445714D01*
X18571810Y-11464762D01*
X18476571Y-11483809D01*
X18648000Y-11540952D02*
X18667048Y-11550476D01*
X18705143Y-11550476D01*
X18724190Y-11540952D01*
X18733714Y-11521905D01*
X18733714Y-11512381D01*
X18724190Y-11493333D01*
X18705143Y-11483809D01*
X18676571Y-11483809D01*
X18657524Y-11474286D01*
X18648000Y-11455238D01*
X18648000Y-11445714D01*
X18657524Y-11426667D01*
X18676571Y-11417143D01*
X18705143Y-11417143D01*
X18724190Y-11426667D01*
X18800381Y-11626667D02*
X18809905Y-11617143D01*
X18828952Y-11588571D01*
X18838476Y-11569524D01*
X18848000Y-11540952D01*
X18857524Y-11493333D01*
X18857524Y-11455238D01*
X18848000Y-11407619D01*
X18838476Y-11379048D01*
X18828952Y-11360000D01*
X18809905Y-11331428D01*
X18800381Y-11321905D01*
D15*
X13824820Y-11755820D02*
X13824820Y-11692180D01*
X13761180Y-11692180D01*
X13761180Y-11755820D01*
X13824820Y-11755820D01*
D11*
X14133714Y-11614476D02*
X14152762Y-11614476D01*
X14171809Y-11624000D01*
X14181333Y-11633524D01*
X14190857Y-11652571D01*
X14200381Y-11690667D01*
X14200381Y-11738286D01*
X14190857Y-11776381D01*
X14181333Y-11795428D01*
X14171809Y-11804952D01*
X14152762Y-11814476D01*
X14133714Y-11814476D01*
X14114667Y-11804952D01*
X14105143Y-11795428D01*
X14095619Y-11776381D01*
X14086095Y-11738286D01*
X14086095Y-11690667D01*
X14095619Y-11652571D01*
X14105143Y-11633524D01*
X14114667Y-11624000D01*
X14133714Y-11614476D01*
X14286095Y-11795428D02*
X14295619Y-11804952D01*
X14286095Y-11814476D01*
X14276571Y-11804952D01*
X14286095Y-11795428D01*
X14286095Y-11814476D01*
X14390857Y-11814476D02*
X14428952Y-11814476D01*
X14448000Y-11804952D01*
X14457524Y-11795428D01*
X14476571Y-11766857D01*
X14486095Y-11728762D01*
X14486095Y-11652571D01*
X14476571Y-11633524D01*
X14467048Y-11624000D01*
X14448000Y-11614476D01*
X14409905Y-11614476D01*
X14390857Y-11624000D01*
X14381333Y-11633524D01*
X14371809Y-11652571D01*
X14371809Y-11700190D01*
X14381333Y-11719238D01*
X14390857Y-11728762D01*
X14409905Y-11738286D01*
X14448000Y-11738286D01*
X14467048Y-11728762D01*
X14476571Y-11719238D01*
X14486095Y-11700190D01*
X14609905Y-11614476D02*
X14628952Y-11614476D01*
X14648000Y-11624000D01*
X14657524Y-11633524D01*
X14667048Y-11652571D01*
X14676571Y-11690667D01*
X14676571Y-11738286D01*
X14667048Y-11776381D01*
X14657524Y-11795428D01*
X14648000Y-11804952D01*
X14628952Y-11814476D01*
X14609905Y-11814476D01*
X14590857Y-11804952D01*
X14581333Y-11795428D01*
X14571809Y-11776381D01*
X14562286Y-11738286D01*
X14562286Y-11690667D01*
X14571809Y-11652571D01*
X14581333Y-11633524D01*
X14590857Y-11624000D01*
X14609905Y-11614476D01*
X14800381Y-11614476D02*
X14819428Y-11614476D01*
X14838476Y-11624000D01*
X14848000Y-11633524D01*
X14857524Y-11652571D01*
X14867048Y-11690667D01*
X14867048Y-11738286D01*
X14857524Y-11776381D01*
X14848000Y-11795428D01*
X14838476Y-11804952D01*
X14819428Y-11814476D01*
X14800381Y-11814476D01*
X14781333Y-11804952D01*
X14771809Y-11795428D01*
X14762286Y-11776381D01*
X14752762Y-11738286D01*
X14752762Y-11690667D01*
X14762286Y-11652571D01*
X14771809Y-11633524D01*
X14781333Y-11624000D01*
X14800381Y-11614476D01*
X14952762Y-11814476D02*
X14952762Y-11681143D01*
X14952762Y-11700190D02*
X14962286Y-11690667D01*
X14981333Y-11681143D01*
X15009905Y-11681143D01*
X15028952Y-11690667D01*
X15038476Y-11709714D01*
X15038476Y-11814476D01*
X15038476Y-11709714D02*
X15048000Y-11690667D01*
X15067048Y-11681143D01*
X15095619Y-11681143D01*
X15114667Y-11690667D01*
X15124190Y-11709714D01*
X15124190Y-11814476D01*
X15219428Y-11814476D02*
X15219428Y-11681143D01*
X15219428Y-11700190D02*
X15228952Y-11690667D01*
X15248000Y-11681143D01*
X15276571Y-11681143D01*
X15295619Y-11690667D01*
X15305143Y-11709714D01*
X15305143Y-11814476D01*
X15305143Y-11709714D02*
X15314667Y-11690667D01*
X15333714Y-11681143D01*
X15362286Y-11681143D01*
X15381333Y-11690667D01*
X15390857Y-11709714D01*
X15390857Y-11814476D01*
X15781333Y-11604952D02*
X15609905Y-11862095D01*
X16038476Y-11614476D02*
X16057524Y-11614476D01*
X16076571Y-11624000D01*
X16086095Y-11633524D01*
X16095619Y-11652571D01*
X16105143Y-11690667D01*
X16105143Y-11738286D01*
X16095619Y-11776381D01*
X16086095Y-11795428D01*
X16076571Y-11804952D01*
X16057524Y-11814476D01*
X16038476Y-11814476D01*
X16019428Y-11804952D01*
X16009905Y-11795428D01*
X16000381Y-11776381D01*
X15990857Y-11738286D01*
X15990857Y-11690667D01*
X16000381Y-11652571D01*
X16009905Y-11633524D01*
X16019428Y-11624000D01*
X16038476Y-11614476D01*
X16190857Y-11795428D02*
X16200381Y-11804952D01*
X16190857Y-11814476D01*
X16181333Y-11804952D01*
X16190857Y-11795428D01*
X16190857Y-11814476D01*
X16324190Y-11614476D02*
X16343238Y-11614476D01*
X16362286Y-11624000D01*
X16371809Y-11633524D01*
X16381333Y-11652571D01*
X16390857Y-11690667D01*
X16390857Y-11738286D01*
X16381333Y-11776381D01*
X16371809Y-11795428D01*
X16362286Y-11804952D01*
X16343238Y-11814476D01*
X16324190Y-11814476D01*
X16305143Y-11804952D01*
X16295619Y-11795428D01*
X16286095Y-11776381D01*
X16276571Y-11738286D01*
X16276571Y-11690667D01*
X16286095Y-11652571D01*
X16295619Y-11633524D01*
X16305143Y-11624000D01*
X16324190Y-11614476D01*
X16457524Y-11614476D02*
X16581333Y-11614476D01*
X16514667Y-11690667D01*
X16543238Y-11690667D01*
X16562286Y-11700190D01*
X16571809Y-11709714D01*
X16581333Y-11728762D01*
X16581333Y-11776381D01*
X16571809Y-11795428D01*
X16562286Y-11804952D01*
X16543238Y-11814476D01*
X16486095Y-11814476D01*
X16467048Y-11804952D01*
X16457524Y-11795428D01*
X16762286Y-11614476D02*
X16667048Y-11614476D01*
X16657524Y-11709714D01*
X16667048Y-11700190D01*
X16686095Y-11690667D01*
X16733714Y-11690667D01*
X16752762Y-11700190D01*
X16762286Y-11709714D01*
X16771809Y-11728762D01*
X16771809Y-11776381D01*
X16762286Y-11795428D01*
X16752762Y-11804952D01*
X16733714Y-11814476D01*
X16686095Y-11814476D01*
X16667048Y-11804952D01*
X16657524Y-11795428D01*
X16943238Y-11681143D02*
X16943238Y-11814476D01*
X16895619Y-11604952D02*
X16848000Y-11747809D01*
X16971810Y-11747809D01*
X17038476Y-11614476D02*
X17038476Y-11652571D01*
X17114667Y-11614476D02*
X17114667Y-11652571D01*
X17409905Y-11890667D02*
X17400381Y-11881143D01*
X17381333Y-11852571D01*
X17371810Y-11833524D01*
X17362286Y-11804952D01*
X17352762Y-11757333D01*
X17352762Y-11719238D01*
X17362286Y-11671619D01*
X17371810Y-11643048D01*
X17381333Y-11624000D01*
X17400381Y-11595428D01*
X17409905Y-11585905D01*
X17571810Y-11681143D02*
X17571810Y-11814476D01*
X17524190Y-11604952D02*
X17476571Y-11747809D01*
X17600381Y-11747809D01*
X17828952Y-11814476D02*
X17828952Y-11614476D01*
X17914667Y-11814476D02*
X17914667Y-11709714D01*
X17905143Y-11690667D01*
X17886095Y-11681143D01*
X17857524Y-11681143D01*
X17838476Y-11690667D01*
X17828952Y-11700190D01*
X18038476Y-11814476D02*
X18019429Y-11804952D01*
X18009905Y-11795428D01*
X18000381Y-11776381D01*
X18000381Y-11719238D01*
X18009905Y-11700190D01*
X18019429Y-11690667D01*
X18038476Y-11681143D01*
X18067048Y-11681143D01*
X18086095Y-11690667D01*
X18095619Y-11700190D01*
X18105143Y-11719238D01*
X18105143Y-11776381D01*
X18095619Y-11795428D01*
X18086095Y-11804952D01*
X18067048Y-11814476D01*
X18038476Y-11814476D01*
X18219429Y-11814476D02*
X18200381Y-11804952D01*
X18190857Y-11785905D01*
X18190857Y-11614476D01*
X18371810Y-11804952D02*
X18352762Y-11814476D01*
X18314667Y-11814476D01*
X18295619Y-11804952D01*
X18286095Y-11785905D01*
X18286095Y-11709714D01*
X18295619Y-11690667D01*
X18314667Y-11681143D01*
X18352762Y-11681143D01*
X18371810Y-11690667D01*
X18381333Y-11709714D01*
X18381333Y-11728762D01*
X18286095Y-11747809D01*
X18457524Y-11804952D02*
X18476571Y-11814476D01*
X18514667Y-11814476D01*
X18533714Y-11804952D01*
X18543238Y-11785905D01*
X18543238Y-11776381D01*
X18533714Y-11757333D01*
X18514667Y-11747809D01*
X18486095Y-11747809D01*
X18467048Y-11738286D01*
X18457524Y-11719238D01*
X18457524Y-11709714D01*
X18467048Y-11690667D01*
X18486095Y-11681143D01*
X18514667Y-11681143D01*
X18533714Y-11690667D01*
X18609905Y-11890667D02*
X18619429Y-11881143D01*
X18638476Y-11852571D01*
X18648000Y-11833524D01*
X18657524Y-11804952D01*
X18667048Y-11757333D01*
X18667048Y-11719238D01*
X18657524Y-11671619D01*
X18648000Y-11643048D01*
X18638476Y-11624000D01*
X18619429Y-11595428D01*
X18609905Y-11585905D01*
D16*
X13788000Y-12038000D02*
X13838000Y-11988000D01*
X13788000Y-11938000D01*
X13738000Y-11988000D01*
X13788000Y-12038000D01*
D11*
X14200381Y-12078476D02*
X14086095Y-12078476D01*
X14143238Y-12078476D02*
X14143238Y-11878476D01*
X14124190Y-11907048D01*
X14105143Y-11926095D01*
X14086095Y-11935619D01*
X14286095Y-12059428D02*
X14295619Y-12068952D01*
X14286095Y-12078476D01*
X14276571Y-12068952D01*
X14286095Y-12059428D01*
X14286095Y-12078476D01*
X14419428Y-11878476D02*
X14438476Y-11878476D01*
X14457524Y-11888000D01*
X14467048Y-11897524D01*
X14476571Y-11916571D01*
X14486095Y-11954667D01*
X14486095Y-12002286D01*
X14476571Y-12040381D01*
X14467048Y-12059428D01*
X14457524Y-12068952D01*
X14438476Y-12078476D01*
X14419428Y-12078476D01*
X14400381Y-12068952D01*
X14390857Y-12059428D01*
X14381333Y-12040381D01*
X14371809Y-12002286D01*
X14371809Y-11954667D01*
X14381333Y-11916571D01*
X14390857Y-11897524D01*
X14400381Y-11888000D01*
X14419428Y-11878476D01*
X14609905Y-11878476D02*
X14628952Y-11878476D01*
X14648000Y-11888000D01*
X14657524Y-11897524D01*
X14667048Y-11916571D01*
X14676571Y-11954667D01*
X14676571Y-12002286D01*
X14667048Y-12040381D01*
X14657524Y-12059428D01*
X14648000Y-12068952D01*
X14628952Y-12078476D01*
X14609905Y-12078476D01*
X14590857Y-12068952D01*
X14581333Y-12059428D01*
X14571809Y-12040381D01*
X14562286Y-12002286D01*
X14562286Y-11954667D01*
X14571809Y-11916571D01*
X14581333Y-11897524D01*
X14590857Y-11888000D01*
X14609905Y-11878476D01*
X14800381Y-11878476D02*
X14819428Y-11878476D01*
X14838476Y-11888000D01*
X14848000Y-11897524D01*
X14857524Y-11916571D01*
X14867048Y-11954667D01*
X14867048Y-12002286D01*
X14857524Y-12040381D01*
X14848000Y-12059428D01*
X14838476Y-12068952D01*
X14819428Y-12078476D01*
X14800381Y-12078476D01*
X14781333Y-12068952D01*
X14771809Y-12059428D01*
X14762286Y-12040381D01*
X14752762Y-12002286D01*
X14752762Y-11954667D01*
X14762286Y-11916571D01*
X14771809Y-11897524D01*
X14781333Y-11888000D01*
X14800381Y-11878476D01*
X14952762Y-12078476D02*
X14952762Y-11945143D01*
X14952762Y-11964190D02*
X14962286Y-11954667D01*
X14981333Y-11945143D01*
X15009905Y-11945143D01*
X15028952Y-11954667D01*
X15038476Y-11973714D01*
X15038476Y-12078476D01*
X15038476Y-11973714D02*
X15048000Y-11954667D01*
X15067048Y-11945143D01*
X15095619Y-11945143D01*
X15114667Y-11954667D01*
X15124190Y-11973714D01*
X15124190Y-12078476D01*
X15219428Y-12078476D02*
X15219428Y-11945143D01*
X15219428Y-11964190D02*
X15228952Y-11954667D01*
X15248000Y-11945143D01*
X15276571Y-11945143D01*
X15295619Y-11954667D01*
X15305143Y-11973714D01*
X15305143Y-12078476D01*
X15305143Y-11973714D02*
X15314667Y-11954667D01*
X15333714Y-11945143D01*
X15362286Y-11945143D01*
X15381333Y-11954667D01*
X15390857Y-11973714D01*
X15390857Y-12078476D01*
X15781333Y-11868952D02*
X15609905Y-12126095D01*
X16038476Y-11878476D02*
X16057524Y-11878476D01*
X16076571Y-11888000D01*
X16086095Y-11897524D01*
X16095619Y-11916571D01*
X16105143Y-11954667D01*
X16105143Y-12002286D01*
X16095619Y-12040381D01*
X16086095Y-12059428D01*
X16076571Y-12068952D01*
X16057524Y-12078476D01*
X16038476Y-12078476D01*
X16019428Y-12068952D01*
X16009905Y-12059428D01*
X16000381Y-12040381D01*
X15990857Y-12002286D01*
X15990857Y-11954667D01*
X16000381Y-11916571D01*
X16009905Y-11897524D01*
X16019428Y-11888000D01*
X16038476Y-11878476D01*
X16190857Y-12059428D02*
X16200381Y-12068952D01*
X16190857Y-12078476D01*
X16181333Y-12068952D01*
X16190857Y-12059428D01*
X16190857Y-12078476D01*
X16324190Y-11878476D02*
X16343238Y-11878476D01*
X16362286Y-11888000D01*
X16371809Y-11897524D01*
X16381333Y-11916571D01*
X16390857Y-11954667D01*
X16390857Y-12002286D01*
X16381333Y-12040381D01*
X16371809Y-12059428D01*
X16362286Y-12068952D01*
X16343238Y-12078476D01*
X16324190Y-12078476D01*
X16305143Y-12068952D01*
X16295619Y-12059428D01*
X16286095Y-12040381D01*
X16276571Y-12002286D01*
X16276571Y-11954667D01*
X16286095Y-11916571D01*
X16295619Y-11897524D01*
X16305143Y-11888000D01*
X16324190Y-11878476D01*
X16457524Y-11878476D02*
X16581333Y-11878476D01*
X16514667Y-11954667D01*
X16543238Y-11954667D01*
X16562286Y-11964190D01*
X16571809Y-11973714D01*
X16581333Y-11992762D01*
X16581333Y-12040381D01*
X16571809Y-12059428D01*
X16562286Y-12068952D01*
X16543238Y-12078476D01*
X16486095Y-12078476D01*
X16467048Y-12068952D01*
X16457524Y-12059428D01*
X16676571Y-12078476D02*
X16714667Y-12078476D01*
X16733714Y-12068952D01*
X16743238Y-12059428D01*
X16762286Y-12030857D01*
X16771809Y-11992762D01*
X16771809Y-11916571D01*
X16762286Y-11897524D01*
X16752762Y-11888000D01*
X16733714Y-11878476D01*
X16695619Y-11878476D01*
X16676571Y-11888000D01*
X16667048Y-11897524D01*
X16657524Y-11916571D01*
X16657524Y-11964190D01*
X16667048Y-11983238D01*
X16676571Y-11992762D01*
X16695619Y-12002286D01*
X16733714Y-12002286D01*
X16752762Y-11992762D01*
X16762286Y-11983238D01*
X16771809Y-11964190D01*
X16943238Y-11945143D02*
X16943238Y-12078476D01*
X16895619Y-11868952D02*
X16848000Y-12011809D01*
X16971810Y-12011809D01*
X17038476Y-11878476D02*
X17038476Y-11916571D01*
X17114667Y-11878476D02*
X17114667Y-11916571D01*
X17409905Y-12154667D02*
X17400381Y-12145143D01*
X17381333Y-12116571D01*
X17371810Y-12097524D01*
X17362286Y-12068952D01*
X17352762Y-12021333D01*
X17352762Y-11983238D01*
X17362286Y-11935619D01*
X17371810Y-11907048D01*
X17381333Y-11888000D01*
X17400381Y-11859428D01*
X17409905Y-11849905D01*
X17571810Y-11945143D02*
X17571810Y-12078476D01*
X17524190Y-11868952D02*
X17476571Y-12011809D01*
X17600381Y-12011809D01*
X17657524Y-11878476D02*
X17790857Y-11878476D01*
X17705143Y-12078476D01*
X18019429Y-12078476D02*
X18019429Y-11878476D01*
X18105143Y-12078476D02*
X18105143Y-11973714D01*
X18095619Y-11954667D01*
X18076571Y-11945143D01*
X18048000Y-11945143D01*
X18028952Y-11954667D01*
X18019429Y-11964190D01*
X18228952Y-12078476D02*
X18209905Y-12068952D01*
X18200381Y-12059428D01*
X18190857Y-12040381D01*
X18190857Y-11983238D01*
X18200381Y-11964190D01*
X18209905Y-11954667D01*
X18228952Y-11945143D01*
X18257524Y-11945143D01*
X18276571Y-11954667D01*
X18286095Y-11964190D01*
X18295619Y-11983238D01*
X18295619Y-12040381D01*
X18286095Y-12059428D01*
X18276571Y-12068952D01*
X18257524Y-12078476D01*
X18228952Y-12078476D01*
X18409905Y-12078476D02*
X18390857Y-12068952D01*
X18381333Y-12049905D01*
X18381333Y-11878476D01*
X18562286Y-12068952D02*
X18543238Y-12078476D01*
X18505143Y-12078476D01*
X18486095Y-12068952D01*
X18476571Y-12049905D01*
X18476571Y-11973714D01*
X18486095Y-11954667D01*
X18505143Y-11945143D01*
X18543238Y-11945143D01*
X18562286Y-11954667D01*
X18571810Y-11973714D01*
X18571810Y-11992762D01*
X18476571Y-12011809D01*
X18648000Y-12068952D02*
X18667048Y-12078476D01*
X18705143Y-12078476D01*
X18724190Y-12068952D01*
X18733714Y-12049905D01*
X18733714Y-12040381D01*
X18724190Y-12021333D01*
X18705143Y-12011809D01*
X18676571Y-12011809D01*
X18657524Y-12002286D01*
X18648000Y-11983238D01*
X18648000Y-11973714D01*
X18657524Y-11954667D01*
X18676571Y-11945143D01*
X18705143Y-11945143D01*
X18724190Y-11954667D01*
X18971810Y-12002286D02*
X19124190Y-12002286D01*
X19048000Y-12078476D02*
X19048000Y-11926095D01*
X19352762Y-11878476D02*
X19476571Y-11878476D01*
X19409905Y-11954667D01*
X19438476Y-11954667D01*
X19457524Y-11964190D01*
X19467048Y-11973714D01*
X19476571Y-11992762D01*
X19476571Y-12040381D01*
X19467048Y-12059428D01*
X19457524Y-12068952D01*
X19438476Y-12078476D01*
X19381333Y-12078476D01*
X19362286Y-12068952D01*
X19352762Y-12059428D01*
X19705143Y-12068952D02*
X19724190Y-12078476D01*
X19762286Y-12078476D01*
X19781333Y-12068952D01*
X19790857Y-12049905D01*
X19790857Y-12040381D01*
X19781333Y-12021333D01*
X19762286Y-12011809D01*
X19733714Y-12011809D01*
X19714667Y-12002286D01*
X19705143Y-11983238D01*
X19705143Y-11973714D01*
X19714667Y-11954667D01*
X19733714Y-11945143D01*
X19762286Y-11945143D01*
X19781333Y-11954667D01*
X19905143Y-12078476D02*
X19886095Y-12068952D01*
X19876571Y-12049905D01*
X19876571Y-11878476D01*
X20009905Y-12078476D02*
X19990857Y-12068952D01*
X19981333Y-12059428D01*
X19971810Y-12040381D01*
X19971810Y-11983238D01*
X19981333Y-11964190D01*
X19990857Y-11954667D01*
X20009905Y-11945143D01*
X20038476Y-11945143D01*
X20057524Y-11954667D01*
X20067048Y-11964190D01*
X20076571Y-11983238D01*
X20076571Y-12040381D01*
X20067048Y-12059428D01*
X20057524Y-12068952D01*
X20038476Y-12078476D01*
X20009905Y-12078476D01*
X20133714Y-11945143D02*
X20209905Y-11945143D01*
X20162286Y-11878476D02*
X20162286Y-12049905D01*
X20171810Y-12068952D01*
X20190857Y-12078476D01*
X20209905Y-12078476D01*
X20267048Y-12068952D02*
X20286095Y-12078476D01*
X20324190Y-12078476D01*
X20343238Y-12068952D01*
X20352762Y-12049905D01*
X20352762Y-12040381D01*
X20343238Y-12021333D01*
X20324190Y-12011809D01*
X20295619Y-12011809D01*
X20276571Y-12002286D01*
X20267048Y-11983238D01*
X20267048Y-11973714D01*
X20276571Y-11954667D01*
X20295619Y-11945143D01*
X20324190Y-11945143D01*
X20343238Y-11954667D01*
X20419429Y-12154667D02*
X20428952Y-12145143D01*
X20448000Y-12116571D01*
X20457524Y-12097524D01*
X20467048Y-12068952D01*
X20476571Y-12021333D01*
X20476571Y-11983238D01*
X20467048Y-11935619D01*
X20457524Y-11907048D01*
X20448000Y-11888000D01*
X20428952Y-11859428D01*
X20419429Y-11849905D01*
D17*
X13728000Y-12197000D02*
X13838000Y-12307000D01*
X13838000Y-12197000D02*
X13728000Y-12307000D01*
X13838000Y-12252000D02*
G75*
G03*
X13838000Y-12252000I-55000J0D01*
G01*
D11*
X14200381Y-12342476D02*
X14086095Y-12342476D01*
X14143238Y-12342476D02*
X14143238Y-12142476D01*
X14124190Y-12171048D01*
X14105143Y-12190095D01*
X14086095Y-12199619D01*
X14286095Y-12323428D02*
X14295619Y-12332952D01*
X14286095Y-12342476D01*
X14276571Y-12332952D01*
X14286095Y-12323428D01*
X14286095Y-12342476D01*
X14486095Y-12342476D02*
X14371809Y-12342476D01*
X14428952Y-12342476D02*
X14428952Y-12142476D01*
X14409905Y-12171048D01*
X14390857Y-12190095D01*
X14371809Y-12199619D01*
X14609905Y-12142476D02*
X14628952Y-12142476D01*
X14648000Y-12152000D01*
X14657524Y-12161524D01*
X14667048Y-12180571D01*
X14676571Y-12218667D01*
X14676571Y-12266286D01*
X14667048Y-12304381D01*
X14657524Y-12323428D01*
X14648000Y-12332952D01*
X14628952Y-12342476D01*
X14609905Y-12342476D01*
X14590857Y-12332952D01*
X14581333Y-12323428D01*
X14571809Y-12304381D01*
X14562286Y-12266286D01*
X14562286Y-12218667D01*
X14571809Y-12180571D01*
X14581333Y-12161524D01*
X14590857Y-12152000D01*
X14609905Y-12142476D01*
X14800381Y-12142476D02*
X14819428Y-12142476D01*
X14838476Y-12152000D01*
X14848000Y-12161524D01*
X14857524Y-12180571D01*
X14867048Y-12218667D01*
X14867048Y-12266286D01*
X14857524Y-12304381D01*
X14848000Y-12323428D01*
X14838476Y-12332952D01*
X14819428Y-12342476D01*
X14800381Y-12342476D01*
X14781333Y-12332952D01*
X14771809Y-12323428D01*
X14762286Y-12304381D01*
X14752762Y-12266286D01*
X14752762Y-12218667D01*
X14762286Y-12180571D01*
X14771809Y-12161524D01*
X14781333Y-12152000D01*
X14800381Y-12142476D01*
X14952762Y-12342476D02*
X14952762Y-12209143D01*
X14952762Y-12228190D02*
X14962286Y-12218667D01*
X14981333Y-12209143D01*
X15009905Y-12209143D01*
X15028952Y-12218667D01*
X15038476Y-12237714D01*
X15038476Y-12342476D01*
X15038476Y-12237714D02*
X15048000Y-12218667D01*
X15067048Y-12209143D01*
X15095619Y-12209143D01*
X15114667Y-12218667D01*
X15124190Y-12237714D01*
X15124190Y-12342476D01*
X15219428Y-12342476D02*
X15219428Y-12209143D01*
X15219428Y-12228190D02*
X15228952Y-12218667D01*
X15248000Y-12209143D01*
X15276571Y-12209143D01*
X15295619Y-12218667D01*
X15305143Y-12237714D01*
X15305143Y-12342476D01*
X15305143Y-12237714D02*
X15314667Y-12218667D01*
X15333714Y-12209143D01*
X15362286Y-12209143D01*
X15381333Y-12218667D01*
X15390857Y-12237714D01*
X15390857Y-12342476D01*
X15781333Y-12132952D02*
X15609905Y-12390095D01*
X16038476Y-12142476D02*
X16057524Y-12142476D01*
X16076571Y-12152000D01*
X16086095Y-12161524D01*
X16095619Y-12180571D01*
X16105143Y-12218667D01*
X16105143Y-12266286D01*
X16095619Y-12304381D01*
X16086095Y-12323428D01*
X16076571Y-12332952D01*
X16057524Y-12342476D01*
X16038476Y-12342476D01*
X16019428Y-12332952D01*
X16009905Y-12323428D01*
X16000381Y-12304381D01*
X15990857Y-12266286D01*
X15990857Y-12218667D01*
X16000381Y-12180571D01*
X16009905Y-12161524D01*
X16019428Y-12152000D01*
X16038476Y-12142476D01*
X16190857Y-12323428D02*
X16200381Y-12332952D01*
X16190857Y-12342476D01*
X16181333Y-12332952D01*
X16190857Y-12323428D01*
X16190857Y-12342476D01*
X16324190Y-12142476D02*
X16343238Y-12142476D01*
X16362286Y-12152000D01*
X16371809Y-12161524D01*
X16381333Y-12180571D01*
X16390857Y-12218667D01*
X16390857Y-12266286D01*
X16381333Y-12304381D01*
X16371809Y-12323428D01*
X16362286Y-12332952D01*
X16343238Y-12342476D01*
X16324190Y-12342476D01*
X16305143Y-12332952D01*
X16295619Y-12323428D01*
X16286095Y-12304381D01*
X16276571Y-12266286D01*
X16276571Y-12218667D01*
X16286095Y-12180571D01*
X16295619Y-12161524D01*
X16305143Y-12152000D01*
X16324190Y-12142476D01*
X16562286Y-12209143D02*
X16562286Y-12342476D01*
X16514667Y-12132952D02*
X16467048Y-12275809D01*
X16590857Y-12275809D01*
X16648000Y-12142476D02*
X16771809Y-12142476D01*
X16705143Y-12218667D01*
X16733714Y-12218667D01*
X16752762Y-12228190D01*
X16762286Y-12237714D01*
X16771809Y-12256762D01*
X16771809Y-12304381D01*
X16762286Y-12323428D01*
X16752762Y-12332952D01*
X16733714Y-12342476D01*
X16676571Y-12342476D01*
X16657524Y-12332952D01*
X16648000Y-12323428D01*
X16838476Y-12142476D02*
X16962286Y-12142476D01*
X16895619Y-12218667D01*
X16924190Y-12218667D01*
X16943238Y-12228190D01*
X16952762Y-12237714D01*
X16962286Y-12256762D01*
X16962286Y-12304381D01*
X16952762Y-12323428D01*
X16943238Y-12332952D01*
X16924190Y-12342476D01*
X16867048Y-12342476D01*
X16848000Y-12332952D01*
X16838476Y-12323428D01*
X17038476Y-12142476D02*
X17038476Y-12180571D01*
X17114667Y-12142476D02*
X17114667Y-12180571D01*
X17409905Y-12418667D02*
X17400381Y-12409143D01*
X17381333Y-12380571D01*
X17371810Y-12361524D01*
X17362286Y-12332952D01*
X17352762Y-12285333D01*
X17352762Y-12247238D01*
X17362286Y-12199619D01*
X17371810Y-12171048D01*
X17381333Y-12152000D01*
X17400381Y-12123428D01*
X17409905Y-12113905D01*
X17495619Y-12342476D02*
X17533714Y-12342476D01*
X17552762Y-12332952D01*
X17562286Y-12323428D01*
X17581333Y-12294857D01*
X17590857Y-12256762D01*
X17590857Y-12180571D01*
X17581333Y-12161524D01*
X17571810Y-12152000D01*
X17552762Y-12142476D01*
X17514667Y-12142476D01*
X17495619Y-12152000D01*
X17486095Y-12161524D01*
X17476571Y-12180571D01*
X17476571Y-12228190D01*
X17486095Y-12247238D01*
X17495619Y-12256762D01*
X17514667Y-12266286D01*
X17552762Y-12266286D01*
X17571810Y-12256762D01*
X17581333Y-12247238D01*
X17590857Y-12228190D01*
X17828952Y-12342476D02*
X17828952Y-12142476D01*
X17914667Y-12342476D02*
X17914667Y-12237714D01*
X17905143Y-12218667D01*
X17886095Y-12209143D01*
X17857524Y-12209143D01*
X17838476Y-12218667D01*
X17828952Y-12228190D01*
X18038476Y-12342476D02*
X18019429Y-12332952D01*
X18009905Y-12323428D01*
X18000381Y-12304381D01*
X18000381Y-12247238D01*
X18009905Y-12228190D01*
X18019429Y-12218667D01*
X18038476Y-12209143D01*
X18067048Y-12209143D01*
X18086095Y-12218667D01*
X18095619Y-12228190D01*
X18105143Y-12247238D01*
X18105143Y-12304381D01*
X18095619Y-12323428D01*
X18086095Y-12332952D01*
X18067048Y-12342476D01*
X18038476Y-12342476D01*
X18219429Y-12342476D02*
X18200381Y-12332952D01*
X18190857Y-12313905D01*
X18190857Y-12142476D01*
X18371810Y-12332952D02*
X18352762Y-12342476D01*
X18314667Y-12342476D01*
X18295619Y-12332952D01*
X18286095Y-12313905D01*
X18286095Y-12237714D01*
X18295619Y-12218667D01*
X18314667Y-12209143D01*
X18352762Y-12209143D01*
X18371810Y-12218667D01*
X18381333Y-12237714D01*
X18381333Y-12256762D01*
X18286095Y-12275809D01*
X18457524Y-12332952D02*
X18476571Y-12342476D01*
X18514667Y-12342476D01*
X18533714Y-12332952D01*
X18543238Y-12313905D01*
X18543238Y-12304381D01*
X18533714Y-12285333D01*
X18514667Y-12275809D01*
X18486095Y-12275809D01*
X18467048Y-12266286D01*
X18457524Y-12247238D01*
X18457524Y-12237714D01*
X18467048Y-12218667D01*
X18486095Y-12209143D01*
X18514667Y-12209143D01*
X18533714Y-12218667D01*
X18609905Y-12418667D02*
X18619429Y-12409143D01*
X18638476Y-12380571D01*
X18648000Y-12361524D01*
X18657524Y-12332952D01*
X18667048Y-12285333D01*
X18667048Y-12247238D01*
X18657524Y-12199619D01*
X18648000Y-12171048D01*
X18638476Y-12152000D01*
X18619429Y-12123428D01*
X18609905Y-12113905D01*
X13638000Y-12416000D02*
X13838000Y-12616000D01*
X13838000Y-12416000D02*
X13638000Y-12616000D01*
X13738000Y-12416000D02*
X13738000Y-12616000D01*
X13638000Y-12516000D02*
X13838000Y-12516000D01*
X14076571Y-12406476D02*
X14200381Y-12406476D01*
X14133714Y-12482667D01*
X14162286Y-12482667D01*
X14181333Y-12492190D01*
X14190857Y-12501714D01*
X14200381Y-12520762D01*
X14200381Y-12568381D01*
X14190857Y-12587428D01*
X14181333Y-12596952D01*
X14162286Y-12606476D01*
X14105143Y-12606476D01*
X14086095Y-12596952D01*
X14076571Y-12587428D01*
X14286095Y-12587428D02*
X14295619Y-12596952D01*
X14286095Y-12606476D01*
X14276571Y-12596952D01*
X14286095Y-12587428D01*
X14286095Y-12606476D01*
X14371809Y-12425524D02*
X14381333Y-12416000D01*
X14400381Y-12406476D01*
X14448000Y-12406476D01*
X14467048Y-12416000D01*
X14476571Y-12425524D01*
X14486095Y-12444571D01*
X14486095Y-12463619D01*
X14476571Y-12492190D01*
X14362286Y-12606476D01*
X14486095Y-12606476D01*
X14609905Y-12406476D02*
X14628952Y-12406476D01*
X14648000Y-12416000D01*
X14657524Y-12425524D01*
X14667048Y-12444571D01*
X14676571Y-12482667D01*
X14676571Y-12530286D01*
X14667048Y-12568381D01*
X14657524Y-12587428D01*
X14648000Y-12596952D01*
X14628952Y-12606476D01*
X14609905Y-12606476D01*
X14590857Y-12596952D01*
X14581333Y-12587428D01*
X14571809Y-12568381D01*
X14562286Y-12530286D01*
X14562286Y-12482667D01*
X14571809Y-12444571D01*
X14581333Y-12425524D01*
X14590857Y-12416000D01*
X14609905Y-12406476D01*
X14800381Y-12406476D02*
X14819428Y-12406476D01*
X14838476Y-12416000D01*
X14848000Y-12425524D01*
X14857524Y-12444571D01*
X14867048Y-12482667D01*
X14867048Y-12530286D01*
X14857524Y-12568381D01*
X14848000Y-12587428D01*
X14838476Y-12596952D01*
X14819428Y-12606476D01*
X14800381Y-12606476D01*
X14781333Y-12596952D01*
X14771809Y-12587428D01*
X14762286Y-12568381D01*
X14752762Y-12530286D01*
X14752762Y-12482667D01*
X14762286Y-12444571D01*
X14771809Y-12425524D01*
X14781333Y-12416000D01*
X14800381Y-12406476D01*
X14952762Y-12606476D02*
X14952762Y-12473143D01*
X14952762Y-12492190D02*
X14962286Y-12482667D01*
X14981333Y-12473143D01*
X15009905Y-12473143D01*
X15028952Y-12482667D01*
X15038476Y-12501714D01*
X15038476Y-12606476D01*
X15038476Y-12501714D02*
X15048000Y-12482667D01*
X15067048Y-12473143D01*
X15095619Y-12473143D01*
X15114667Y-12482667D01*
X15124190Y-12501714D01*
X15124190Y-12606476D01*
X15219428Y-12606476D02*
X15219428Y-12473143D01*
X15219428Y-12492190D02*
X15228952Y-12482667D01*
X15248000Y-12473143D01*
X15276571Y-12473143D01*
X15295619Y-12482667D01*
X15305143Y-12501714D01*
X15305143Y-12606476D01*
X15305143Y-12501714D02*
X15314667Y-12482667D01*
X15333714Y-12473143D01*
X15362286Y-12473143D01*
X15381333Y-12482667D01*
X15390857Y-12501714D01*
X15390857Y-12606476D01*
X15781333Y-12396952D02*
X15609905Y-12654095D01*
X16038476Y-12406476D02*
X16057524Y-12406476D01*
X16076571Y-12416000D01*
X16086095Y-12425524D01*
X16095619Y-12444571D01*
X16105143Y-12482667D01*
X16105143Y-12530286D01*
X16095619Y-12568381D01*
X16086095Y-12587428D01*
X16076571Y-12596952D01*
X16057524Y-12606476D01*
X16038476Y-12606476D01*
X16019428Y-12596952D01*
X16009905Y-12587428D01*
X16000381Y-12568381D01*
X15990857Y-12530286D01*
X15990857Y-12482667D01*
X16000381Y-12444571D01*
X16009905Y-12425524D01*
X16019428Y-12416000D01*
X16038476Y-12406476D01*
X16190857Y-12587428D02*
X16200381Y-12596952D01*
X16190857Y-12606476D01*
X16181333Y-12596952D01*
X16190857Y-12587428D01*
X16190857Y-12606476D01*
X16390857Y-12606476D02*
X16276571Y-12606476D01*
X16333714Y-12606476D02*
X16333714Y-12406476D01*
X16314667Y-12435048D01*
X16295619Y-12454095D01*
X16276571Y-12463619D01*
X16467048Y-12425524D02*
X16476571Y-12416000D01*
X16495619Y-12406476D01*
X16543238Y-12406476D01*
X16562286Y-12416000D01*
X16571809Y-12425524D01*
X16581333Y-12444571D01*
X16581333Y-12463619D01*
X16571809Y-12492190D01*
X16457524Y-12606476D01*
X16581333Y-12606476D01*
X16752762Y-12406476D02*
X16714667Y-12406476D01*
X16695619Y-12416000D01*
X16686095Y-12425524D01*
X16667048Y-12454095D01*
X16657524Y-12492190D01*
X16657524Y-12568381D01*
X16667048Y-12587428D01*
X16676571Y-12596952D01*
X16695619Y-12606476D01*
X16733714Y-12606476D01*
X16752762Y-12596952D01*
X16762286Y-12587428D01*
X16771809Y-12568381D01*
X16771809Y-12520762D01*
X16762286Y-12501714D01*
X16752762Y-12492190D01*
X16733714Y-12482667D01*
X16695619Y-12482667D01*
X16676571Y-12492190D01*
X16667048Y-12501714D01*
X16657524Y-12520762D01*
X16895619Y-12406476D02*
X16914667Y-12406476D01*
X16933714Y-12416000D01*
X16943238Y-12425524D01*
X16952762Y-12444571D01*
X16962286Y-12482667D01*
X16962286Y-12530286D01*
X16952762Y-12568381D01*
X16943238Y-12587428D01*
X16933714Y-12596952D01*
X16914667Y-12606476D01*
X16895619Y-12606476D01*
X16876571Y-12596952D01*
X16867048Y-12587428D01*
X16857524Y-12568381D01*
X16848000Y-12530286D01*
X16848000Y-12482667D01*
X16857524Y-12444571D01*
X16867048Y-12425524D01*
X16876571Y-12416000D01*
X16895619Y-12406476D01*
X17038476Y-12406476D02*
X17038476Y-12444571D01*
X17114667Y-12406476D02*
X17114667Y-12444571D01*
X17409905Y-12682667D02*
X17400381Y-12673143D01*
X17381333Y-12644571D01*
X17371810Y-12625524D01*
X17362286Y-12596952D01*
X17352762Y-12549333D01*
X17352762Y-12511238D01*
X17362286Y-12463619D01*
X17371810Y-12435048D01*
X17381333Y-12416000D01*
X17400381Y-12387428D01*
X17409905Y-12377905D01*
X17476571Y-12425524D02*
X17486095Y-12416000D01*
X17505143Y-12406476D01*
X17552762Y-12406476D01*
X17571810Y-12416000D01*
X17581333Y-12425524D01*
X17590857Y-12444571D01*
X17590857Y-12463619D01*
X17581333Y-12492190D01*
X17467048Y-12606476D01*
X17590857Y-12606476D01*
X17828952Y-12606476D02*
X17828952Y-12406476D01*
X17914667Y-12606476D02*
X17914667Y-12501714D01*
X17905143Y-12482667D01*
X17886095Y-12473143D01*
X17857524Y-12473143D01*
X17838476Y-12482667D01*
X17828952Y-12492190D01*
X18038476Y-12606476D02*
X18019429Y-12596952D01*
X18009905Y-12587428D01*
X18000381Y-12568381D01*
X18000381Y-12511238D01*
X18009905Y-12492190D01*
X18019429Y-12482667D01*
X18038476Y-12473143D01*
X18067048Y-12473143D01*
X18086095Y-12482667D01*
X18095619Y-12492190D01*
X18105143Y-12511238D01*
X18105143Y-12568381D01*
X18095619Y-12587428D01*
X18086095Y-12596952D01*
X18067048Y-12606476D01*
X18038476Y-12606476D01*
X18219429Y-12606476D02*
X18200381Y-12596952D01*
X18190857Y-12577905D01*
X18190857Y-12406476D01*
X18371810Y-12596952D02*
X18352762Y-12606476D01*
X18314667Y-12606476D01*
X18295619Y-12596952D01*
X18286095Y-12577905D01*
X18286095Y-12501714D01*
X18295619Y-12482667D01*
X18314667Y-12473143D01*
X18352762Y-12473143D01*
X18371810Y-12482667D01*
X18381333Y-12501714D01*
X18381333Y-12520762D01*
X18286095Y-12539809D01*
X18457524Y-12596952D02*
X18476571Y-12606476D01*
X18514667Y-12606476D01*
X18533714Y-12596952D01*
X18543238Y-12577905D01*
X18543238Y-12568381D01*
X18533714Y-12549333D01*
X18514667Y-12539809D01*
X18486095Y-12539809D01*
X18467048Y-12530286D01*
X18457524Y-12511238D01*
X18457524Y-12501714D01*
X18467048Y-12482667D01*
X18486095Y-12473143D01*
X18514667Y-12473143D01*
X18533714Y-12482667D01*
X18609905Y-12682667D02*
X18619429Y-12673143D01*
X18638476Y-12644571D01*
X18648000Y-12625524D01*
X18657524Y-12596952D01*
X18667048Y-12549333D01*
X18667048Y-12511238D01*
X18657524Y-12463619D01*
X18648000Y-12435048D01*
X18638476Y-12416000D01*
X18619429Y-12387428D01*
X18609905Y-12377905D01*
M02*
